<svg xmlns="http://www.w3.org/2000/svg" width="1200" height="720" viewBox="0 0 1200 720">
  <rect width="1200" height="720" fill="#0f172a"/>
  <text x="600.0" y="45" text-anchor="middle" font-size="34" fill="#e2e8f0" font-family="Segoe UI, Arial, sans-serif">
    LED Junction Temperature vs Heatsink Rth
  </text>
  <text x="600.0" y="75" text-anchor="middle" font-size="18" fill="#94a3b8" font-family="Segoe UI, Arial, sans-serif">
    Placeholder estimate generated from hot_design/thermal_input.json
  </text>
  <rect x="110" y="90" width="1020" height="540" fill="#111827" stroke="#475569" stroke-width="2"/>
  <line x1="110" y1="630.0" x2="1130" y2="630.0" stroke="#334155" stroke-width="1" /><text x="95" y="636.0" text-anchor="end" font-size="18" fill="#cbd5e1" font-family="Segoe UI, Arial, sans-serif">40</text><line x1="110" y1="522.0" x2="1130" y2="522.0" stroke="#334155" stroke-width="1" /><text x="95" y="528.0" text-anchor="end" font-size="18" fill="#cbd5e1" font-family="Segoe UI, Arial, sans-serif">60</text><line x1="110" y1="414.0" x2="1130" y2="414.0" stroke="#334155" stroke-width="1" /><text x="95" y="420.0" text-anchor="end" font-size="18" fill="#cbd5e1" font-family="Segoe UI, Arial, sans-serif">80</text><line x1="110" y1="306.0" x2="1130" y2="306.0" stroke="#334155" stroke-width="1" /><text x="95" y="312.0" text-anchor="end" font-size="18" fill="#cbd5e1" font-family="Segoe UI, Arial, sans-serif">100</text><line x1="110" y1="198.0" x2="1130" y2="198.0" stroke="#334155" stroke-width="1" /><text x="95" y="204.0" text-anchor="end" font-size="18" fill="#cbd5e1" font-family="Segoe UI, Arial, sans-serif">120</text><line x1="110" y1="90.0" x2="1130" y2="90.0" stroke="#334155" stroke-width="1" /><text x="95" y="96.0" text-anchor="end" font-size="18" fill="#cbd5e1" font-family="Segoe UI, Arial, sans-serif">140</text>
  <line x1="1130.0" y1="90" x2="1130.0" y2="630" stroke="#334155" stroke-width="1" /><text x="1130.0" y="665" text-anchor="middle" font-size="18" fill="#cbd5e1" font-family="Segoe UI, Arial, sans-serif">1.00</text><line x1="722.0" y1="90" x2="722.0" y2="630" stroke="#334155" stroke-width="1" /><text x="722.0" y="665" text-anchor="middle" font-size="18" fill="#cbd5e1" font-family="Segoe UI, Arial, sans-serif">0.70</text><line x1="450.0" y1="90" x2="450.0" y2="630" stroke="#334155" stroke-width="1" /><text x="450.0" y="665" text-anchor="middle" font-size="18" fill="#cbd5e1" font-family="Segoe UI, Arial, sans-serif">0.50</text><line x1="246.0" y1="90" x2="246.0" y2="630" stroke="#334155" stroke-width="1" /><text x="246.0" y="665" text-anchor="middle" font-size="18" fill="#cbd5e1" font-family="Segoe UI, Arial, sans-serif">0.35</text><line x1="110.0" y1="90" x2="110.0" y2="630" stroke="#334155" stroke-width="1" /><text x="110.0" y="665" text-anchor="middle" font-size="18" fill="#cbd5e1" font-family="Segoe UI, Arial, sans-serif">0.25</text>
  <line x1="110" y1="306.0" x2="1130" y2="306.0" stroke="#22c55e" stroke-width="3" stroke-dasharray="12 8" />
  <polyline fill="none" stroke="#2563eb" stroke-width="5" points="1130.0,176.8 722.0,266.2 450.0,325.9 246.0,370.6 110.0,400.4" /><polyline fill="none" stroke="#f59e0b" stroke-width="5" points="1130.0,122.8 722.0,212.2 450.0,271.9 246.0,316.6 110.0,346.4" /><polyline fill="none" stroke="#ef4444" stroke-width="5" points="1130.0,95.8 722.0,185.2 450.0,244.9 246.0,289.6 110.0,319.4" />
  <text x="1120" y="296.0" text-anchor="end" font-size="18" fill="#22c55e" font-family="Segoe UI, Arial, sans-serif">
    LED target = 100 C
  </text>
  <text x="600.0" y="700" text-anchor="middle" font-size="20" fill="#e2e8f0" font-family="Segoe UI, Arial, sans-serif">
    Heatsink-to-ambient thermal resistance (C/W)
  </text>
  <g transform="translate(20, 360.0) rotate(-90)">
    <text text-anchor="middle" font-size="20" fill="#e2e8f0" font-family="Segoe UI, Arial, sans-serif">
      LED junction temperature (C)
    </text>
  </g>
  <rect x="820" y="110" width="300" height="120" rx="14" fill="#0b1220" stroke="#475569" stroke-width="2"/>
  <line x1="850" y1="145" x2="910" y2="145" stroke="#2563eb" stroke-width="5"/>
  <text x="930" y="151" font-size="18" fill="#e2e8f0" font-family="Segoe UI, Arial, sans-serif">Ambient 25 C</text>
  <line x1="850" y1="180" x2="910" y2="180" stroke="#f59e0b" stroke-width="5"/>
  <text x="930" y="186" font-size="18" fill="#e2e8f0" font-family="Segoe UI, Arial, sans-serif">Ambient 35 C</text>
  <line x1="850" y1="215" x2="910" y2="215" stroke="#ef4444" stroke-width="5"/>
  <text x="930" y="221" font-size="18" fill="#e2e8f0" font-family="Segoe UI, Arial, sans-serif">Ambient 40 C</text>
</svg>
