;TYPE=PLATED
;Layer: PTH_Through
;EasyEDA Pro v3.2.69, 2026-03-31 14:48:11
;Gerber Generator version 0.3
M48
METRIC,LZ,0000.00000
;Hole size 1 = 0.30480 METRIC
T01C0.30480
;Hole size 2 = 1.00000 METRIC
T02C1.00000
;Hole size 3 = 1.10002 METRIC
T03C1.10002
;Hole size 4 = 1.20000 METRIC
T04C1.20000
;Hole size 5 = 1.40000 METRIC
T05C1.40000
;Hole size 6 = 1.70002 METRIC
T06C1.70002
%
G05
G90
T01
X46.355Y-23.622
X45.847Y-23.114
X49.01585Y-23.70375
X50.31599Y-23.70375
X50.31599Y-22.733
X49.01585Y-22.733
X44.577Y-22.987
X45.212Y-22.987
X36.576Y-17.018
X37.45053Y-17.018
X38.32505Y-17.018
X36.576Y-16.14347
X37.45053Y-16.14347
X37.45053Y-15.26895
X38.32505Y-16.14347
X38.32505Y-15.26895
X36.576Y-15.26895
X42.291Y-25.24912
X42.291Y-24.13
X43.18Y-23.368
X10.21565Y-30.607
X5.461Y-24.384
X10.21565Y-29.06298
X2.032Y-26.67
X10.287Y-27.432
X9.525Y-23.241
X17.145Y-35.179
X12.065Y-35.687
X20.32Y-36.69127
X12.05179Y-34.85847
X44.069Y-24.257
X44.069Y-25.15409
X44.069Y-26.05118
X44.96609Y-26.05118
X44.96609Y-25.15409
X48.63145Y-27.24433
X47.86985Y-26.57518
X47.50399Y-28.50439
X75.946Y-19.82064
X52.578Y-27.178
X49.784Y-27.178
X58.03376Y-26.73725
X62.484Y-26.6823
X71.628Y-18.81141
X57.023Y-18.669
X54.15784Y-21.51884
X53.79005Y-28.448
X66.294Y-10.033
X67.37047Y-10.033
X69.52341Y-10.033
X68.44694Y-10.033
X70.59988Y-10.033
X66.294Y-8.95653
X70.59988Y-8.95653
X67.37047Y-8.95653
X68.44694Y-8.95653
X69.52341Y-8.95653
X70.59988Y-7.88006
X69.52341Y-7.88006
X68.44694Y-7.88006
X67.37047Y-7.88006
X57.15Y-29.78223
X57.15Y-22.352
X62.29502Y-33.782
X59.817Y-33.655
X62.611Y-27.94
X66.802Y-15.42898
X44.323Y-31.82087
X48.82918Y-31.05887
X57.404Y-34.036
X57.404Y-31.71179
X53.213Y-33.655
X54.6346Y-33.655
X53.92052Y-37.465
X19.36674Y-32.639
X16.637Y-32.639
X3.87185Y-42.3672
X5.37827Y-42.3672
X6.8847Y-42.3672
X8.39113Y-42.3672
X9.89755Y-42.3672
X11.40398Y-42.3672
X12.91041Y-42.3672
X14.41683Y-42.3672
X3.87185Y-40.12372
X5.37827Y-40.12372
X6.8847Y-40.12372
X8.39113Y-40.12372
X9.89755Y-40.12372
X11.40398Y-40.12372
X12.91041Y-40.12372
X14.41683Y-40.12372
X20.15048Y-42.40043
X20.15048Y-40.894
X17.907Y-42.40043
X17.907Y-40.894
X25.36238Y-29.35711
X25.36238Y-27.85069
X25.36238Y-26.34426
X25.36238Y-24.83783
X25.36238Y-32.36997
X25.36238Y-30.86354
X26.86881Y-24.83783
X26.86881Y-26.34426
X26.86881Y-27.85069
X26.86881Y-29.35711
X26.86881Y-30.86354
X26.86881Y-32.36997
X6.985Y-36.449
X6.985Y-35.306
X6.985Y-34.163
X6.985Y-33.02
X8.128Y-36.449
X8.128Y-35.306
X8.128Y-34.163
X8.128Y-33.02
X9.271Y-36.449
X9.271Y-35.306
X9.271Y-34.163
X9.271Y-33.02
X44.45Y-30.734
X45.48701Y-30.734
X46.52402Y-30.734
X46.52402Y-29.69699
X45.48701Y-29.69699
X66.32898Y-19.1077
X67.43379Y-19.1077
X68.53861Y-19.1077
X65.22416Y-19.1077
X65.22416Y-18.034
X66.32898Y-18.034
X30.988Y-42.037
X32.07267Y-42.037
X33.15734Y-42.037
X34.24201Y-42.037
X34.24201Y-41.021
X33.15734Y-41.021
X32.07267Y-41.021
X30.988Y-41.021
X34.24201Y-40.005
X33.15734Y-40.005
X32.07267Y-40.005
X30.988Y-40.005
X58.293Y-35.24098
X65.913Y-26.797
X69.088Y-27.559
X74.676Y-25.908
X27.58659Y-37.592
X44.97324Y-1.22209
X46.49719Y-1.22209
X48.02114Y-1.22209
X49.54508Y-1.22209
X51.06903Y-1.22209
X52.59298Y-1.22209
X54.11692Y-1.22209
X55.64087Y-1.22209
X57.16482Y-1.22209
X58.68877Y-1.22209
X60.21271Y-1.22209
X61.73666Y-1.22209
X78.359Y-15.80049
X80.645Y-8.382
X69.469Y-24.13
X60.833Y-22.733
X58.547Y-16.891
X51.181Y-30.40888
X38.481Y-21.336
X38.481Y-20.447
X37.36478Y-20.447
X36.24857Y-20.447
X35.13235Y-20.447
X34.01613Y-20.447
X37.36478Y-21.336
X36.24857Y-21.336
X35.13235Y-21.336
X34.01613Y-21.336
X37.36478Y-22.225
X36.24857Y-22.225
X35.13235Y-22.225
X34.01613Y-22.225
X38.481Y-22.225
X39.116Y-28.575
X39.116Y-27.47735
X39.93741Y-27.47735
X39.93741Y-28.575
X40.75882Y-28.575
X40.75882Y-27.47735
X50.38903Y-36.83
X51.562Y-36.69436
X55.626Y-42.418
X53.721Y-38.862
X0.82299Y-26.924
X0.82299Y-25.44233
X0.82299Y-23.96067
X0.82299Y-22.479
X0.82299Y-20.99734
X0.82299Y-19.51567
X0.82299Y-18.03401
X2.30466Y-19.51567
X2.30466Y-18.03401
X2.32167Y-20.99934
X2.32167Y-22.48101
X2.30466Y-23.96067
X1.397Y-1.27
X3.38717Y-1.27
X5.37733Y-1.27
X7.3675Y-1.27
X9.35767Y-1.27
X5.37733Y-3.26017
X3.38717Y-3.26017
X1.397Y-3.26017
X5.37733Y-5.25033
X3.38717Y-5.25033
X1.397Y-5.25033
X7.3675Y-3.26017
X32.3048Y-4.3048
X64.30479Y-4.3048
X76.30479Y-4.3048
X80.30479Y-4.3048
X52.3048Y-16.3048
X56.30479Y-16.3048
X8.3048Y-20.3048
X12.3048Y-20.3048
X16.3048Y-20.3048
X32.3048Y-20.3048
X52.3048Y-20.3048
X64.30479Y-20.3048
X12.3048Y-24.3048
X16.3048Y-24.3048
X28.3048Y-24.3048
X36.3048Y-24.3048
X52.3048Y-24.3048
X80.30479Y-24.3048
X28.3048Y-28.3048
X32.3048Y-28.3048
X52.3048Y-28.3048
X76.30479Y-28.3048
X80.30479Y-28.3048
X20.3048Y-32.3048
X28.3048Y-32.3048
X32.3048Y-32.3048
X52.3048Y-32.3048
X76.30479Y-32.3048
X80.30479Y-32.3048
X28.3048Y-36.3048
X76.30479Y-36.3048
X16.3048Y-40.3048
X36.3048Y-40.3048
X68.30479Y-40.3048
X76.30479Y-40.3048
X80.30479Y-40.3048
X40.767Y-35.306
X42.59057Y-35.306
X44.41414Y-35.306
X46.2377Y-35.306
X37.084Y-35.052
X35.814Y-36.068
X34.671Y-37.211
X63.119Y-31.37764
X32.258Y-2.794
X32.258Y-1.54612
X30.80056Y-1.54612
X33.655Y-1.524
T02
X54.60997Y-15.21196
X54.60997Y-11.71184
X50.29203Y-2.82204
X50.29203Y-6.32216
X45.71997Y-15.21196
X45.71997Y-11.71184
X9.39137Y-2.82204
X9.39137Y-6.32216
X9.39132Y-15.21196
X9.39132Y-11.71184
X59.18203Y-2.82204
X59.18203Y-6.32216
T03
X65.913Y-38.989
X63.373Y-38.989
X60.833Y-38.989
X58.293Y-38.989
T04
X72.39Y-42.04805
X74.93Y-42.04805
X77.47Y-42.04805
X77.47Y-27.54795
X72.39Y-27.54795
T05
X24.511Y-2.08001
X24.511Y-8.07999
T06
X81.18Y-35.09792G85X81.18Y-33.99795
X68.68003Y-35.09792G85X68.68003Y-33.99795
X73.279Y-3.94779
X73.279Y-14.8907G85X73.279Y-14.80571
X73.279Y-9.398
M30