G04 Layer: BottomLayer*
G04 EasyEDA Pro v3.2.69, 2026-03-31 14:48:10*
G04 Gerber Generator version 0.3*
G04 Scale: 100 percent, Rotated: No, Reflected: No*
G04 Dimensions in millimeters*
G04 Leading zeros omitted, absolute positions, 4 integers and 5 decimals*
G04 Generated by one-click*
%FSLAX45Y45*%
%MOMM*%
%ADD10C,0.2032*%
%ADD11R,1.28252X3.456*%
%ADD12C,1.8*%
%ADD13O,2.69999X3.69999*%
%ADD14R,1.8X1.8*%
%ADD15C,1.6*%
%ADD16C,2.49999*%
%ADD17C,2.9023*%
%ADD18C,2.89999*%
%ADD19R,2.89999X2.89999*%
%ADD20C,0.6096*%
%ADD21C,0.381*%
%ADD22C,0.254*%
%ADD23C,1.27*%
%ADD24C,1.016*%
%ADD25C,0.762*%
G75*


G04 Copper Start*
G36*
G01X6664960Y-641530D02*
G01X6664960Y-430480D01*
G01X7564185Y-430480D01*
G01X7566112Y-446345D01*
G01X7571779Y-461288D01*
G01X7580858Y-474441D01*
G01X7592820Y-485039D01*
G01X7606971Y-492466D01*
G01X7622488Y-496291D01*
G01X7638470Y-496291D01*
G01X7653987Y-492466D01*
G01X7668139Y-485039D01*
G01X7680101Y-474441D01*
G01X7689180Y-461288D01*
G01X7694847Y-446345D01*
G01X7696773Y-430480D01*
G01X7964185Y-430480D01*
G01X7966112Y-446345D01*
G01X7971779Y-461288D01*
G01X7980857Y-474441D01*
G01X7992820Y-485039D01*
G01X8006971Y-492466D01*
G01X8022488Y-496291D01*
G01X8038470Y-496291D01*
G01X8053987Y-492466D01*
G01X8068139Y-485039D01*
G01X8080101Y-474441D01*
G01X8089180Y-461288D01*
G01X8094847Y-446345D01*
G01X8096773Y-430480D01*
G01X8094847Y-414615D01*
G01X8089180Y-399672D01*
G01X8080101Y-386519D01*
G01X8068139Y-375921D01*
G01X8053987Y-368494D01*
G01X8038470Y-364669D01*
G01X8022488Y-364669D01*
G01X8006971Y-368494D01*
G01X7992820Y-375921D01*
G01X7980857Y-386519D01*
G01X7971779Y-399672D01*
G01X7966112Y-414615D01*
G01X7964185Y-430480D01*
G01X7964185Y-430480D01*
G01X7696773Y-430480D01*
G01X7696773Y-430480D01*
G01X7694847Y-414615D01*
G01X7689180Y-399672D01*
G01X7680101Y-386519D01*
G01X7668139Y-375921D01*
G01X7653987Y-368494D01*
G01X7638470Y-364669D01*
G01X7622488Y-364669D01*
G01X7606971Y-368494D01*
G01X7592820Y-375921D01*
G01X7580858Y-386519D01*
G01X7571779Y-399672D01*
G01X7566112Y-414615D01*
G01X7564185Y-430480D01*
G01X7564185Y-430480D01*
G01X6664960Y-430480D01*
G01X6664960Y-35814D01*
G01X8276886Y-35814D01*
G01X8276886Y-641530D01*
G01X6664960Y-641530D01*
G37*
G36*
G01X4447543Y-2302495D02*
G01X4438335Y-2295282D01*
G01X4427668Y-2290482D01*
G01X4416162Y-2288374D01*
G01X3893437Y-1765649D01*
G01X3890141Y-1763447D01*
G01X3886253Y-1762674D01*
G01X3611794Y-1762674D01*
G01X3611794Y-1419860D01*
G01X3856592Y-1419860D01*
G01X4679116Y-2242384D01*
G01X4682412Y-2244587D01*
G01X4686300Y-2245360D01*
G01X5082540Y-2245360D01*
G01X5082540Y-2400214D01*
G01X4611123Y-2400214D01*
G01X4545618Y-2334708D01*
G01X4542322Y-2332506D01*
G01X4538434Y-2331733D01*
G01X4476780Y-2331733D01*
G01X4447543Y-2302495D01*
G37*
G36*
G01X6553560Y-841550D02*
G01X6707605Y-687504D01*
G01X7574740Y-687504D01*
G01X7574740Y-1132919D01*
G01X7203900Y-1132919D01*
G01X7200012Y-1133692D01*
G01X7196716Y-1135895D01*
G01X6996491Y-1336119D01*
G01X6573108Y-1336119D01*
G01X6553560Y-1316570D01*
G01X6553560Y-841550D01*
G37*
G36*
G01X645160Y-3685540D02*
G01X645160Y-3235960D01*
G01X1018540Y-3235960D01*
G01X1018540Y-3685540D01*
G01X645160Y-3685540D01*
G37*
G36*
G01X4701540Y-3126740D02*
G01X4468792Y-3126740D01*
G01X4455016Y-3119806D01*
G01X4440011Y-3116243D01*
G01X4424589Y-3116243D01*
G01X4409584Y-3119806D01*
G01X4395808Y-3126740D01*
G01X4335850Y-3126740D01*
G01X4335850Y-2915961D01*
G01X4701540Y-2915961D01*
G01X4701540Y-3126740D01*
G37*
G36*
G01X5509260Y-4149726D02*
G01X5509260Y-3794760D01*
G01X6200140Y-3794760D01*
G01X6200140Y-4149726D01*
G01X5509260Y-4149726D01*
G37*
G36*
G01X6485969Y-1958340D02*
G01X6485969Y-1769364D01*
G01X6873240Y-1769364D01*
G01X6873240Y-1958340D01*
G01X6485969Y-1958340D01*
G37*
G36*
G01X2905760Y-4295140D02*
G01X2905760Y-3883660D01*
G01X3456940Y-3883660D01*
G01X3456940Y-4295140D01*
G01X2905760Y-4295140D01*
G37*
G36*
G01X7947179Y-3504794D02*
G01X7949191Y-3530937D01*
G01X7955181Y-3556464D01*
G01X7965008Y-3580774D01*
G01X7978439Y-3603293D01*
G01X7995159Y-3623492D01*
G01X8014773Y-3640893D01*
G01X8036819Y-3655087D01*
G01X8060778Y-3665740D01*
G01X8086085Y-3672601D01*
G01X8112144Y-3675507D01*
G01X8138341Y-3674391D01*
G01X8164058Y-3669278D01*
G01X8188690Y-3660290D01*
G01X8211656Y-3647638D01*
G01X8232415Y-3631619D01*
G01X8250478Y-3612612D01*
G01X8265419Y-3591065D01*
G01X8276886Y-3567485D01*
G01X8276886Y-4300386D01*
G01X7828813Y-4300386D01*
G01X7844111Y-4284795D01*
G01X7856483Y-4266794D01*
G01X7865554Y-4246923D01*
G01X7871052Y-4225784D01*
G01X7872811Y-4204012D01*
G01X7870778Y-4182264D01*
G01X7865014Y-4161195D01*
G01X7855693Y-4141441D01*
G01X7843095Y-4123596D01*
G01X7827601Y-4108200D01*
G01X7809678Y-4095715D01*
G01X7789865Y-4086518D01*
G01X7768761Y-4080887D01*
G01X7747000Y-4078991D01*
G01X7725239Y-4080887D01*
G01X7704135Y-4086518D01*
G01X7684322Y-4095715D01*
G01X7666399Y-4108200D01*
G01X7650905Y-4123596D01*
G01X7638307Y-4141441D01*
G01X7628986Y-4161195D01*
G01X7623222Y-4182264D01*
G01X7621189Y-4204012D01*
G01X7622948Y-4225784D01*
G01X7628446Y-4246923D01*
G01X7637517Y-4266794D01*
G01X7649889Y-4284795D01*
G01X7665187Y-4300386D01*
G01X7320813Y-4300386D01*
G01X7336111Y-4284795D01*
G01X7348483Y-4266794D01*
G01X7357554Y-4246923D01*
G01X7363052Y-4225784D01*
G01X7364811Y-4204012D01*
G01X7362778Y-4182264D01*
G01X7357014Y-4161195D01*
G01X7347693Y-4141441D01*
G01X7335095Y-4123596D01*
G01X7319601Y-4108200D01*
G01X7301678Y-4095715D01*
G01X7281865Y-4086518D01*
G01X7260761Y-4080887D01*
G01X7239000Y-4078991D01*
G01X7217239Y-4080887D01*
G01X7196135Y-4086518D01*
G01X7176322Y-4095715D01*
G01X7158399Y-4108200D01*
G01X7142905Y-4123596D01*
G01X7130307Y-4141441D01*
G01X7120986Y-4161195D01*
G01X7115222Y-4182264D01*
G01X7113189Y-4204012D01*
G01X7114948Y-4225784D01*
G01X7120446Y-4246923D01*
G01X7129517Y-4266794D01*
G01X7141889Y-4284795D01*
G01X7157187Y-4300386D01*
G01X3502914Y-4300386D01*
G01X3502914Y-3873500D01*
G01X3501161Y-3862433D01*
G01X3496074Y-3852449D01*
G01X3488151Y-3844526D01*
G01X3478167Y-3839439D01*
G01X3467100Y-3837686D01*
G01X2895600Y-3837686D01*
G01X2884533Y-3839439D01*
G01X2874549Y-3844526D01*
G01X2866626Y-3852449D01*
G01X2861539Y-3862433D01*
G01X2859786Y-3873500D01*
G01X2859786Y-4300386D01*
G01X35814Y-4300386D01*
G01X35814Y-3695700D01*
G01X599186Y-3695700D01*
G01X600939Y-3706767D01*
G01X606026Y-3716751D01*
G01X613949Y-3724674D01*
G01X623933Y-3729761D01*
G01X635000Y-3731514D01*
G01X1028700Y-3731514D01*
G01X1039767Y-3729761D01*
G01X1049751Y-3724674D01*
G01X1057674Y-3716751D01*
G01X1062761Y-3706767D01*
G01X1064514Y-3695700D01*
G01X1064514Y-3485862D01*
G01X1138885Y-3485862D01*
G01X1140638Y-3500992D01*
G01X1145799Y-3515323D01*
G01X1154094Y-3528098D01*
G01X1146067Y-3541447D01*
G01X1141376Y-3556300D01*
G01X1140280Y-3571837D01*
G01X1142840Y-3587201D01*
G01X1148914Y-3601544D01*
G01X1158167Y-3614074D01*
G01X1158167Y-3614074D01*
G01X1170087Y-3624099D01*
G01X1184018Y-3631066D01*
G01X1199190Y-3634590D01*
G01X1214766Y-3634477D01*
G01X1229885Y-3630733D01*
G01X1243713Y-3623564D01*
G01X1663700Y-3623564D01*
G01X1677900Y-3621695D01*
G01X1691132Y-3616214D01*
G01X1702495Y-3607495D01*
G01X1726981Y-3583009D01*
G01X1742145Y-3578155D01*
G01X1755715Y-3569825D01*
G01X1766907Y-3558501D01*
G01X1775076Y-3544834D01*
G01X1779751Y-3529614D01*
G01X1780662Y-3513718D01*
G01X1777756Y-3498063D01*
G01X1771202Y-3483552D01*
G01X1761377Y-3471023D01*
G01X1748848Y-3461198D01*
G01X1734337Y-3454644D01*
G01X1718682Y-3451738D01*
G01X1702786Y-3452649D01*
G01X1687566Y-3457324D01*
G01X1673899Y-3465493D01*
G01X1662575Y-3476685D01*
G01X1654245Y-3490255D01*
G01X1649391Y-3505419D01*
G01X1640975Y-3513836D01*
G01X1265275Y-3513836D01*
G01X1270287Y-3498328D01*
G01X1322851Y-3445764D01*
G01X1882275Y-3445764D01*
G01X1977136Y-3540625D01*
G01X1977136Y-3631914D01*
G01X1969845Y-3646069D01*
G01X1966140Y-3661554D01*
G01X1966234Y-3677475D01*
G01X1970121Y-3692916D01*
G01X1977578Y-3706984D01*
G01X1988174Y-3718868D01*
G01X2001298Y-3727883D01*
G01X2016193Y-3733509D01*
G01X2032000Y-3735421D01*
G01X2047807Y-3733509D01*
G01X2062702Y-3727883D01*
G01X2075826Y-3718868D01*
G01X2086422Y-3706984D01*
G01X2093879Y-3692916D01*
G01X2097766Y-3677475D01*
G01X2097860Y-3661554D01*
G01X2094155Y-3646069D01*
G01X2086864Y-3631914D01*
G01X2086864Y-3517900D01*
G01X2084995Y-3503700D01*
G01X2079514Y-3490468D01*
G01X2070795Y-3479105D01*
G01X1943795Y-3352105D01*
G01X1932432Y-3343386D01*
G01X1919200Y-3337905D01*
G01X1905000Y-3336036D01*
G01X1300126Y-3336036D01*
G01X1285926Y-3337905D01*
G01X1272694Y-3343386D01*
G01X1261331Y-3352105D01*
G01X1192698Y-3420738D01*
G01X1178167Y-3425305D01*
G01X1165062Y-3433069D01*
G01X1154075Y-3443618D01*
G01X1145785Y-3456397D01*
G01X1140631Y-3470730D01*
G01X1138885Y-3485862D01*
G01X1064514Y-3485862D01*
G01X1064514Y-3464877D01*
G01X2131377Y-2398014D01*
G01X3164523Y-2398014D01*
G01X3786886Y-3020377D01*
G01X3786886Y-3759200D01*
G01X3788550Y-3776098D01*
G01X3793479Y-3792346D01*
G01X3801483Y-3807320D01*
G01X3812255Y-3820445D01*
G01X4129755Y-4137945D01*
G01X4142880Y-4148717D01*
G01X4157854Y-4156721D01*
G01X4174102Y-4161650D01*
G01X4191000Y-4163314D01*
G01X5463450Y-4163314D01*
G01X5465987Y-4173530D01*
G01X5471384Y-4182568D01*
G01X5479175Y-4189646D01*
G01X5488688Y-4194153D01*
G01X5499100Y-4195700D01*
G01X6210300Y-4195700D01*
G01X6221367Y-4193947D01*
G01X6231351Y-4188860D01*
G01X6239274Y-4180937D01*
G01X6244361Y-4170953D01*
G01X6246114Y-4159886D01*
G01X6246114Y-3985585D01*
G01X6262105Y-3999770D01*
G01X6280266Y-4011044D01*
G01X6300074Y-4019080D01*
G01X6320956Y-4023648D01*
G01X6342310Y-4024614D01*
G01X6363520Y-4021951D01*
G01X6383973Y-4015737D01*
G01X6403078Y-4006149D01*
G01X6420284Y-3993466D01*
G01X6435096Y-3978053D01*
G01X6447084Y-3960355D01*
G01X6455903Y-3940883D01*
G01X6461298Y-3920199D01*
G01X6463114Y-3898900D01*
G01X6465486Y-3898900D01*
G01X6467398Y-3920747D01*
G01X6473074Y-3941931D01*
G01X6482342Y-3961807D01*
G01X6494921Y-3979772D01*
G01X6510428Y-3995279D01*
G01X6528393Y-4007858D01*
G01X6548269Y-4017126D01*
G01X6569453Y-4022802D01*
G01X6591300Y-4024714D01*
G01X6613147Y-4022802D01*
G01X6634331Y-4017126D01*
G01X6654207Y-4007858D01*
G01X6672172Y-3995279D01*
G01X6687679Y-3979772D01*
G01X6700258Y-3961807D01*
G01X6709526Y-3941931D01*
G01X6715202Y-3920747D01*
G01X6717114Y-3898900D01*
G01X6715202Y-3877053D01*
G01X6709526Y-3855869D01*
G01X6700258Y-3835993D01*
G01X6687679Y-3818028D01*
G01X6672172Y-3802521D01*
G01X6654207Y-3789942D01*
G01X6634331Y-3780674D01*
G01X6613147Y-3774998D01*
G01X6591300Y-3773086D01*
G01X6569453Y-3774998D01*
G01X6548269Y-3780674D01*
G01X6528393Y-3789942D01*
G01X6510428Y-3802521D01*
G01X6494921Y-3818028D01*
G01X6482342Y-3835993D01*
G01X6473074Y-3855869D01*
G01X6467398Y-3877053D01*
G01X6465486Y-3898900D01*
G01X6465486Y-3898900D01*
G01X6463114Y-3898900D01*
G01X6461298Y-3877601D01*
G01X6455903Y-3856917D01*
G01X6447084Y-3837445D01*
G01X6435096Y-3819747D01*
G01X6420284Y-3804334D01*
G01X6403078Y-3791651D01*
G01X6383973Y-3782063D01*
G01X6363520Y-3775849D01*
G01X6342310Y-3773186D01*
G01X6320956Y-3774152D01*
G01X6300074Y-3778720D01*
G01X6280266Y-3786756D01*
G01X6262105Y-3798030D01*
G01X6246114Y-3812215D01*
G01X6246114Y-3784600D01*
G01X6244361Y-3773533D01*
G01X6239274Y-3763549D01*
G01X6231351Y-3755626D01*
G01X6221367Y-3750539D01*
G01X6210300Y-3748786D01*
G01X6182614Y-3748786D01*
G01X6182614Y-3744214D01*
G01X6502400Y-3744214D01*
G01X6521775Y-3742306D01*
G01X6540406Y-3736654D01*
G01X6557576Y-3727477D01*
G01X6572626Y-3715126D01*
G01X6662428Y-3625323D01*
G01X6674779Y-3610273D01*
G01X6683957Y-3593103D01*
G01X6689608Y-3574473D01*
G01X6691517Y-3555097D01*
G01X6691517Y-3404794D01*
G01X6697194Y-3404794D01*
G01X6697194Y-3504794D01*
G01X6699102Y-3530252D01*
G01X6704783Y-3555142D01*
G01X6714110Y-3578907D01*
G01X6726875Y-3601016D01*
G01X6742792Y-3620976D01*
G01X6761507Y-3638341D01*
G01X6782601Y-3652723D01*
G01X6805602Y-3663800D01*
G01X6829998Y-3671325D01*
G01X6855243Y-3675130D01*
G01X6880773Y-3675130D01*
G01X6906017Y-3671325D01*
G01X6930413Y-3663800D01*
G01X6953414Y-3652723D01*
G01X6974508Y-3638341D01*
G01X6993223Y-3620976D01*
G01X7009141Y-3601016D01*
G01X7021905Y-3578907D01*
G01X7031233Y-3555142D01*
G01X7036913Y-3530252D01*
G01X7038821Y-3504794D01*
G01X7038821Y-3504794D01*
G01X7038821Y-3404794D01*
G01X7036913Y-3379335D01*
G01X7031233Y-3354446D01*
G01X7021905Y-3330681D01*
G01X7009141Y-3308571D01*
G01X6993223Y-3288611D01*
G01X6974508Y-3271246D01*
G01X6953414Y-3256865D01*
G01X6930413Y-3245788D01*
G01X6906017Y-3238263D01*
G01X6880773Y-3234458D01*
G01X6855243Y-3234458D01*
G01X6829998Y-3238263D01*
G01X6805602Y-3245788D01*
G01X6782601Y-3256865D01*
G01X6761507Y-3271246D01*
G01X6742792Y-3288611D01*
G01X6726875Y-3308571D01*
G01X6714110Y-3330681D01*
G01X6704783Y-3354446D01*
G01X6699102Y-3379335D01*
G01X6697194Y-3404794D01*
G01X6691517Y-3404794D01*
G01X6691517Y-3151735D01*
G01X6813926Y-3029326D01*
G01X6826277Y-3014276D01*
G01X6835454Y-2997106D01*
G01X6841106Y-2978475D01*
G01X6843014Y-2959100D01*
G01X6843014Y-2789597D01*
G01X6851929Y-2803112D01*
G01X6863573Y-2814362D01*
G01X6877386Y-2822806D01*
G01X6892707Y-2828041D01*
G01X6908800Y-2829814D01*
G01X6959600Y-2829814D01*
G01X6974020Y-2828394D01*
G01X6987886Y-2824188D01*
G01X7000664Y-2817357D01*
G01X7011865Y-2808165D01*
G01X7132986Y-2687044D01*
G01X7122887Y-2706350D01*
G01X7116270Y-2727109D01*
G01X7113334Y-2748699D01*
G01X7114167Y-2770471D01*
G01X7118743Y-2791773D01*
G01X7126926Y-2811967D01*
G01X7138470Y-2830445D01*
G01X7153030Y-2846655D01*
G01X7170167Y-2860110D01*
G01X7189369Y-2870406D01*
G01X7210060Y-2877235D01*
G01X7231618Y-2880392D01*
G01X7253398Y-2879782D01*
G01X7274746Y-2875424D01*
G01X7295022Y-2867448D01*
G01X7313617Y-2856094D01*
G01X7329975Y-2841701D01*
G01X7343605Y-2824702D01*
G01X7354097Y-2805606D01*
G01X7361137Y-2784987D01*
G01X7364515Y-2763462D01*
G01X7364128Y-2741677D01*
G01X7359989Y-2720286D01*
G01X7352220Y-2699929D01*
G01X7341057Y-2681218D01*
G01X7326832Y-2664714D01*
G01X7467600Y-2664714D01*
G01X7484047Y-2662861D01*
G01X7499670Y-2657394D01*
G01X7513685Y-2648588D01*
G01X7525388Y-2636885D01*
G01X7534194Y-2622870D01*
G01X7539661Y-2607247D01*
G01X7541514Y-2590800D01*
G01X7539661Y-2574353D01*
G01X7534194Y-2558730D01*
G01X7525388Y-2544715D01*
G01X7513685Y-2533012D01*
G01X7499670Y-2524206D01*
G01X7484047Y-2518739D01*
G01X7467600Y-2516886D01*
G01X7124700Y-2516886D01*
G01X7110280Y-2518306D01*
G01X7096414Y-2522512D01*
G01X7083636Y-2529343D01*
G01X7072435Y-2538535D01*
G01X6928984Y-2681986D01*
G01X6908800Y-2681986D01*
G01X6892707Y-2683759D01*
G01X6877386Y-2688994D01*
G01X6863573Y-2697438D01*
G01X6851929Y-2708688D01*
G01X6843014Y-2722203D01*
G01X6843014Y-2235200D01*
G01X6841106Y-2215825D01*
G01X6835454Y-2197194D01*
G01X6826277Y-2180024D01*
G01X6813926Y-2164974D01*
G01X6732212Y-2083260D01*
G01X6732212Y-2004314D01*
G01X6883400Y-2004314D01*
G01X6894467Y-2002561D01*
G01X6904451Y-1997474D01*
G01X6912374Y-1989551D01*
G01X6917461Y-1979567D01*
G01X6919214Y-1968500D01*
G01X6919214Y-1921899D01*
G01X6920155Y-1910770D01*
G01X6919214Y-1899640D01*
G01X6919214Y-1769364D01*
G01X6973434Y-1769364D01*
G01X7097691Y-1893622D01*
G01X7102545Y-1908786D01*
G01X7110875Y-1922356D01*
G01X7122199Y-1933548D01*
G01X7135866Y-1941717D01*
G01X7151086Y-1946392D01*
G01X7166982Y-1947303D01*
G01X7182637Y-1944397D01*
G01X7197148Y-1937843D01*
G01X7209677Y-1928018D01*
G01X7219502Y-1915489D01*
G01X7226056Y-1900978D01*
G01X7228962Y-1885323D01*
G01X7228051Y-1869427D01*
G01X7223376Y-1854207D01*
G01X7215207Y-1840540D01*
G01X7204015Y-1829215D01*
G01X7190445Y-1820886D01*
G01X7175281Y-1816032D01*
G01X7034954Y-1675705D01*
G01X7023591Y-1666986D01*
G01X7010359Y-1661505D01*
G01X6996159Y-1659636D01*
G01X6121400Y-1659636D01*
G01X6107200Y-1661505D01*
G01X6093968Y-1666986D01*
G01X6082605Y-1675705D01*
G01X5946275Y-1812036D01*
G01X5739513Y-1812036D01*
G01X5725359Y-1804745D01*
G01X5709874Y-1801040D01*
G01X5693952Y-1801134D01*
G01X5678511Y-1805021D01*
G01X5664443Y-1812478D01*
G01X5652559Y-1823074D01*
G01X5643544Y-1836198D01*
G01X5637918Y-1851093D01*
G01X5636006Y-1866900D01*
G01X5637918Y-1882707D01*
G01X5643544Y-1897602D01*
G01X5652559Y-1910726D01*
G01X5664443Y-1921322D01*
G01X5678511Y-1928779D01*
G01X5693952Y-1932666D01*
G01X5709874Y-1932760D01*
G01X5725359Y-1929055D01*
G01X5739513Y-1921764D01*
G01X5969000Y-1921764D01*
G01X5983200Y-1919895D01*
G01X5996432Y-1914414D01*
G01X6007795Y-1905695D01*
G01X6144125Y-1769364D01*
G01X6439995Y-1769364D01*
G01X6439995Y-1968500D01*
G01X6441748Y-1979567D01*
G01X6446835Y-1989551D01*
G01X6454758Y-1997474D01*
G01X6464742Y-2002561D01*
G01X6475809Y-2004314D01*
G01X6533584Y-2004314D01*
G01X6533584Y-2124398D01*
G01X6535492Y-2143773D01*
G01X6541143Y-2162403D01*
G01X6550321Y-2179573D01*
G01X6562672Y-2194623D01*
G01X6644386Y-2276337D01*
G01X6644386Y-2628269D01*
G01X6632152Y-2618101D01*
G01X6618025Y-2610787D01*
G01X6602661Y-2606664D01*
G01X6586770Y-2605925D01*
G01X6571089Y-2608603D01*
G01X6556345Y-2614574D01*
G01X6543219Y-2623562D01*
G01X6532321Y-2635150D01*
G01X6524154Y-2648802D01*
G01X6519098Y-2663885D01*
G01X6517386Y-2679700D01*
G01X6517386Y-2864984D01*
G01X6399335Y-2983035D01*
G01X6390143Y-2994236D01*
G01X6383312Y-3007014D01*
G01X6379106Y-3020880D01*
G01X6377686Y-3035300D01*
G01X6377686Y-3322184D01*
G01X6268584Y-3431286D01*
G01X5848198Y-3431286D01*
G01X5834760Y-3432518D01*
G01X5821770Y-3436172D01*
G01X5809661Y-3442127D01*
G01X5798837Y-3450184D01*
G01X5787568Y-3450184D01*
G01X5796918Y-3438249D01*
G01X5803312Y-3424502D01*
G01X5806416Y-3409663D01*
G01X5806067Y-3394506D01*
G01X5802284Y-3379824D01*
G01X5795264Y-3366387D01*
G01X5795264Y-3208392D01*
G01X5802555Y-3194238D01*
G01X5806260Y-3178753D01*
G01X5806166Y-3162831D01*
G01X5802279Y-3147390D01*
G01X5794822Y-3133322D01*
G01X5784226Y-3121438D01*
G01X5771102Y-3112423D01*
G01X5756207Y-3106797D01*
G01X5740400Y-3104885D01*
G01X5724593Y-3106797D01*
G01X5709698Y-3112423D01*
G01X5696574Y-3121438D01*
G01X5685978Y-3133322D01*
G01X5678521Y-3147390D01*
G01X5674634Y-3162831D01*
G01X5674540Y-3178753D01*
G01X5678245Y-3194238D01*
G01X5685536Y-3208392D01*
G01X5685536Y-3366387D01*
G01X5678516Y-3379824D01*
G01X5674733Y-3394506D01*
G01X5674384Y-3409663D01*
G01X5677488Y-3424502D01*
G01X5683882Y-3438249D01*
G01X5693232Y-3450184D01*
G01X5614455Y-3450184D01*
G01X5600035Y-3451604D01*
G01X5586169Y-3455810D01*
G01X5573390Y-3462640D01*
G01X5562190Y-3471833D01*
G01X5339787Y-3694235D01*
G01X5329468Y-3707175D01*
G01X5322286Y-3722088D01*
G01X5318603Y-3738224D01*
G01X5318603Y-3754776D01*
G01X5322286Y-3770912D01*
G01X5329468Y-3785825D01*
G01X5339787Y-3798765D01*
G01X5352728Y-3809085D01*
G01X5367640Y-3816266D01*
G01X5383777Y-3819949D01*
G01X5400328Y-3819949D01*
G01X5416465Y-3816266D01*
G01X5431377Y-3809085D01*
G01X5444317Y-3798765D01*
G01X5463663Y-3779420D01*
G01X5463286Y-3784600D01*
G01X5463286Y-3990086D01*
G01X4226877Y-3990086D01*
G01X3960114Y-3723323D01*
G01X3960114Y-3365500D01*
G01X5255006Y-3365500D01*
G01X5256783Y-3380747D01*
G01X5262019Y-3395176D01*
G01X5270433Y-3408014D01*
G01X5281574Y-3418573D01*
G01X5294845Y-3426287D01*
G01X5309535Y-3430742D01*
G01X5324855Y-3431699D01*
G01X5339984Y-3429107D01*
G01X5354112Y-3423104D01*
G01X5366481Y-3414014D01*
G01X5418280Y-3414014D01*
G01X5430648Y-3423104D01*
G01X5444776Y-3429107D01*
G01X5459906Y-3431699D01*
G01X5475226Y-3430742D01*
G01X5489915Y-3426287D01*
G01X5503186Y-3418573D01*
G01X5514327Y-3408014D01*
G01X5522741Y-3395176D01*
G01X5527977Y-3380747D01*
G01X5529754Y-3365500D01*
G01X5529754Y-3365500D01*
G01X5527977Y-3350253D01*
G01X5522741Y-3335824D01*
G01X5514327Y-3322986D01*
G01X5503186Y-3312427D01*
G01X5489915Y-3304713D01*
G01X5475226Y-3300258D01*
G01X5459906Y-3299301D01*
G01X5444776Y-3301893D01*
G01X5430648Y-3307896D01*
G01X5418280Y-3316986D01*
G01X5366481Y-3316986D01*
G01X5354112Y-3307896D01*
G01X5339984Y-3301893D01*
G01X5324855Y-3299301D01*
G01X5309535Y-3300258D01*
G01X5294845Y-3304713D01*
G01X5281574Y-3312427D01*
G01X5270433Y-3322986D01*
G01X5262019Y-3335824D01*
G01X5256783Y-3350253D01*
G01X5255006Y-3365500D01*
G01X3960114Y-3365500D01*
G01X3960114Y-3071114D01*
G01X4289876Y-3071114D01*
G01X4289876Y-3136900D01*
G01X4291628Y-3147967D01*
G01X4296715Y-3157951D01*
G01X4304639Y-3165874D01*
G01X4314622Y-3170961D01*
G01X4325690Y-3172714D01*
G01X4366672Y-3172714D01*
G01X4366268Y-3187980D01*
G01X4369369Y-3202933D01*
G01X4375808Y-3216780D01*
G01X4385246Y-3228785D01*
G01X4397180Y-3238313D01*
G01X4410977Y-3244858D01*
G01X4425906Y-3248072D01*
G01X4441175Y-3247784D01*
G01X4455972Y-3244010D01*
G01X4469513Y-3236951D01*
G01X4806718Y-3236951D01*
G01X4820918Y-3235081D01*
G01X4834150Y-3229600D01*
G01X4845513Y-3220881D01*
G01X4895399Y-3170995D01*
G01X4910563Y-3166141D01*
G01X4924133Y-3157812D01*
G01X4935325Y-3146487D01*
G01X4943494Y-3132821D01*
G01X4948169Y-3117600D01*
G01X4949080Y-3101704D01*
G01X4946174Y-3086049D01*
G01X4939620Y-3071539D01*
G01X4929795Y-3059010D01*
G01X4917266Y-3049185D01*
G01X4902755Y-3042630D01*
G01X4887100Y-3039725D01*
G01X4871204Y-3040636D01*
G01X4855984Y-3045311D01*
G01X4842317Y-3053480D01*
G01X4830993Y-3064672D01*
G01X4822663Y-3078241D01*
G01X4817809Y-3093406D01*
G01X4783992Y-3127223D01*
G01X4747514Y-3127223D01*
G01X4747514Y-2970649D01*
G01X5649140Y-2970649D01*
G01X5649234Y-2986571D01*
G01X5653121Y-3002011D01*
G01X5660578Y-3016079D01*
G01X5671174Y-3027964D01*
G01X5684298Y-3036979D01*
G01X5699193Y-3042605D01*
G01X5715000Y-3044517D01*
G01X5730807Y-3042605D01*
G01X5745702Y-3036979D01*
G01X5758826Y-3027964D01*
G01X5769422Y-3016079D01*
G01X5776879Y-3002011D01*
G01X5780766Y-2986571D01*
G01X5780860Y-2970649D01*
G01X5777155Y-2955164D01*
G01X5769864Y-2941009D01*
G01X5769864Y-2730926D01*
G01X5782819Y-2736752D01*
G01X5796717Y-2739684D01*
G01X5810922Y-2739589D01*
G01X5824780Y-2736469D01*
G01X5837655Y-2730469D01*
G01X5848956Y-2721864D01*
G01X6209435Y-2721864D01*
G01X6223341Y-2729606D01*
G01X6238692Y-2733809D01*
G01X6254603Y-2734233D01*
G01X6270156Y-2730853D01*
G01X6284455Y-2723862D01*
G01X6296676Y-2713665D01*
G01X6306114Y-2700849D01*
G01X6312225Y-2686153D01*
G01X6314658Y-2670424D01*
G01X6313271Y-2654568D01*
G01X6308145Y-2639500D01*
G01X6299576Y-2626088D01*
G01X6288056Y-2615105D01*
G01X6274251Y-2607184D01*
G01X6258956Y-2602782D01*
G01X6243052Y-2602152D01*
G01X6227456Y-2605331D01*
G01X6213068Y-2612136D01*
G01X5827904Y-2612136D01*
G01X5813398Y-2608193D01*
G01X5798377Y-2607620D01*
G01X5783612Y-2610446D01*
G01X5769864Y-2616525D01*
G01X5769864Y-2272413D01*
G01X5777155Y-2258259D01*
G01X5780860Y-2242774D01*
G01X5780766Y-2226852D01*
G01X5776879Y-2211411D01*
G01X5769422Y-2197343D01*
G01X5758826Y-2185459D01*
G01X5745702Y-2176444D01*
G01X5730807Y-2170818D01*
G01X5715000Y-2168906D01*
G01X5699193Y-2170818D01*
G01X5684298Y-2176444D01*
G01X5671174Y-2185459D01*
G01X5660578Y-2197343D01*
G01X5653121Y-2211411D01*
G01X5649234Y-2226852D01*
G01X5649140Y-2242774D01*
G01X5652845Y-2258259D01*
G01X5660136Y-2272413D01*
G01X5660136Y-2941009D01*
G01X5660136Y-2941009D01*
G01X5652845Y-2955164D01*
G01X5649140Y-2970649D01*
G01X4747514Y-2970649D01*
G01X4747514Y-2916670D01*
G01X4761644Y-2915772D01*
G01X4775261Y-2911894D01*
G01X4787744Y-2905213D01*
G01X4798524Y-2896033D01*
G01X4807108Y-2884774D01*
G01X4813106Y-2871949D01*
G01X4816244Y-2858142D01*
G01X4816378Y-2843984D01*
G01X4814971Y-2837202D01*
G01X5313148Y-2837202D01*
G01X5313196Y-2852807D01*
G01X5316891Y-2867967D01*
G01X5324027Y-2881844D01*
G01X5334209Y-2893669D01*
G01X5346872Y-2902786D01*
G01X5361317Y-2908691D01*
G01X5376741Y-2911055D01*
G01X5392290Y-2909749D01*
G01X5407104Y-2904845D01*
G01X5420360Y-2896613D01*
G01X5431326Y-2885511D01*
G01X5439393Y-2872154D01*
G01X5444114Y-2857281D01*
G01X5454579Y-2846816D01*
G01X5463297Y-2835453D01*
G01X5468778Y-2822221D01*
G01X5470648Y-2808021D01*
G01X5470648Y-2189097D01*
G01X5477938Y-2174942D01*
G01X5481644Y-2159457D01*
G01X5481550Y-2143536D01*
G01X5477663Y-2128095D01*
G01X5470206Y-2114027D01*
G01X5459610Y-2102143D01*
G01X5446486Y-2093128D01*
G01X5431591Y-2087502D01*
G01X5415784Y-2085590D01*
G01X5399977Y-2087502D01*
G01X5385082Y-2093128D01*
G01X5371958Y-2102143D01*
G01X5361362Y-2114027D01*
G01X5353905Y-2128095D01*
G01X5350018Y-2143536D01*
G01X5349924Y-2159457D01*
G01X5353629Y-2174942D01*
G01X5360920Y-2189097D01*
G01X5360920Y-2781021D01*
G01X5360920Y-2781021D01*
G01X5346513Y-2787015D01*
G01X5333906Y-2796210D01*
G01X5323798Y-2808098D01*
G01X5316748Y-2822019D01*
G01X5313148Y-2837202D01*
G01X4814971Y-2837202D01*
G01X4813502Y-2830121D01*
G01X4807749Y-2817184D01*
G01X4799379Y-2805764D01*
G01X4788775Y-2796382D01*
G01X4776421Y-2789465D01*
G01X4762880Y-2785330D01*
G01X4756846Y-2779297D01*
G01X4825932Y-2779297D01*
G01X4840308Y-2786669D01*
G01X4856040Y-2790345D01*
G01X4872193Y-2790107D01*
G01X4887810Y-2785968D01*
G01X4901962Y-2778175D01*
G01X4913808Y-2767190D01*
G01X4922646Y-2753666D01*
G01X4932190Y-2765335D01*
G01X4944123Y-2774545D01*
G01X4957829Y-2780822D01*
G01X4972598Y-2783840D01*
G01X4987667Y-2783443D01*
G01X5002257Y-2779653D01*
G01X5015613Y-2772664D01*
G01X5220587Y-2772664D01*
G01X5234741Y-2779955D01*
G01X5250226Y-2783660D01*
G01X5266148Y-2783566D01*
G01X5281589Y-2779679D01*
G01X5295657Y-2772222D01*
G01X5307541Y-2761626D01*
G01X5316556Y-2748502D01*
G01X5322182Y-2733607D01*
G01X5324094Y-2717800D01*
G01X5322182Y-2701993D01*
G01X5316556Y-2687098D01*
G01X5307541Y-2673974D01*
G01X5295657Y-2663378D01*
G01X5281589Y-2655921D01*
G01X5266148Y-2652034D01*
G01X5250226Y-2651940D01*
G01X5234741Y-2655645D01*
G01X5220587Y-2662936D01*
G01X5015613Y-2662936D01*
G01X5001238Y-2655564D01*
G01X4985506Y-2651888D01*
G01X4969352Y-2652126D01*
G01X4953735Y-2656265D01*
G01X4939584Y-2664058D01*
G01X4927737Y-2675043D01*
G01X4918899Y-2688567D01*
G01X4909267Y-2676812D01*
G01X4897210Y-2667560D01*
G01X4883363Y-2661297D01*
G01X4868454Y-2658352D01*
G01X4853265Y-2658880D01*
G01X4851935Y-2644236D01*
G01X4847410Y-2630246D01*
G01X4839912Y-2617598D01*
G01X4829811Y-2606913D01*
G01X4817603Y-2598718D01*
G01X4803888Y-2593415D01*
G01X4789342Y-2591266D01*
G01X4644264Y-2446188D01*
G01X5092700Y-2446188D01*
G01X5103767Y-2444435D01*
G01X5113751Y-2439348D01*
G01X5121674Y-2431425D01*
G01X5126761Y-2421441D01*
G01X5128514Y-2410374D01*
G01X5128514Y-2235200D01*
G01X5126761Y-2224133D01*
G01X5121674Y-2214149D01*
G01X5113751Y-2206226D01*
G01X5103767Y-2201139D01*
G01X5092700Y-2199386D01*
G01X4701135Y-2199386D01*
G01X3886124Y-1384376D01*
G01X3878707Y-1378684D01*
G01X3870069Y-1375106D01*
G01X3860800Y-1373886D01*
G01X3606800Y-1373886D01*
G01X3597531Y-1375106D01*
G01X3588893Y-1378684D01*
G01X3581476Y-1384376D01*
G01X3576309Y-1389542D01*
G01X3570618Y-1396959D01*
G01X3567040Y-1405597D01*
G01X3565820Y-1414866D01*
G01X3565820Y-1772834D01*
G01X3567572Y-1783901D01*
G01X3572659Y-1793884D01*
G01X3580583Y-1801808D01*
G01X3590566Y-1806895D01*
G01X3601634Y-1808648D01*
G01X3871419Y-1808648D01*
G01X4335677Y-2272906D01*
G01X4322228Y-2270641D01*
G01X4308600Y-2271176D01*
G01X4295369Y-2274488D01*
G01X4283097Y-2280438D01*
G01X4272301Y-2288774D01*
G01X4272301Y-2288774D01*
G01X4263440Y-2299142D01*
G01X4256889Y-2311104D01*
G01X4252923Y-2324154D01*
G01X4251713Y-2337739D01*
G01X4253308Y-2351284D01*
G01X4237783Y-2347277D01*
G01X4221750Y-2347115D01*
G01X4206147Y-2350806D01*
G01X4191887Y-2358136D01*
G01X4178300Y-2358136D01*
G01X4164100Y-2360005D01*
G01X4150868Y-2365486D01*
G01X4139505Y-2374205D01*
G01X4114105Y-2399605D01*
G01X4105386Y-2410968D01*
G01X4099905Y-2424200D01*
G01X4098036Y-2438400D01*
G01X4098036Y-2768600D01*
G01X4099905Y-2782800D01*
G01X4105386Y-2796032D01*
G01X4114105Y-2807395D01*
G01X4139505Y-2832795D01*
G01X4150868Y-2841514D01*
G01X4164100Y-2846995D01*
G01X4178300Y-2848864D01*
G01X4671234Y-2848864D01*
G01X4685290Y-2862920D01*
G01X4687052Y-2869987D01*
G01X4325690Y-2869987D01*
G01X4313848Y-2872001D01*
G01X4303338Y-2877818D01*
G01X4295343Y-2886782D01*
G01X4290761Y-2897886D01*
G01X3909377Y-2897886D01*
G01X3261645Y-2250155D01*
G01X3248520Y-2239383D01*
G01X3233546Y-2231379D01*
G01X3217298Y-2226450D01*
G01X3200400Y-2224786D01*
G01X2095500Y-2224786D01*
G01X2078602Y-2226450D01*
G01X2062354Y-2231379D01*
G01X2047380Y-2239383D01*
G01X2034255Y-2250155D01*
G01X1064092Y-3220317D01*
G01X1061147Y-3210639D01*
G01X1055613Y-3202170D01*
G01X1047931Y-3195587D01*
G01X1038715Y-3191415D01*
G01X1028700Y-3189986D01*
G01X635000Y-3189986D01*
G01X623933Y-3191739D01*
G01X613949Y-3196826D01*
G01X606026Y-3204749D01*
G01X600939Y-3214733D01*
G01X599186Y-3225800D01*
G01X599186Y-3695700D01*
G01X35814Y-3695700D01*
G01X35814Y-2674574D01*
G01X137340Y-2674574D01*
G01X141045Y-2690059D01*
G01X148336Y-2704213D01*
G01X148336Y-2870200D01*
G01X148336Y-2870200D01*
G01X150205Y-2884400D01*
G01X155686Y-2897632D01*
G01X164405Y-2908995D01*
G01X200503Y-2945093D01*
G01X211866Y-2953811D01*
G01X225098Y-2959292D01*
G01X239298Y-2961162D01*
G01X984352Y-2961162D01*
G01X998507Y-2968452D01*
G01X1013992Y-2972158D01*
G01X1029913Y-2972064D01*
G01X1045354Y-2968177D01*
G01X1059422Y-2960720D01*
G01X1071306Y-2950124D01*
G01X1080321Y-2937000D01*
G01X1085947Y-2922105D01*
G01X1087859Y-2906298D01*
G01X1085947Y-2890491D01*
G01X1080321Y-2875596D01*
G01X1071306Y-2862472D01*
G01X1059422Y-2851876D01*
G01X1045354Y-2844419D01*
G01X1029913Y-2840532D01*
G01X1013992Y-2840438D01*
G01X998507Y-2844143D01*
G01X984352Y-2851434D01*
G01X262023Y-2851434D01*
G01X258064Y-2847475D01*
G01X258064Y-2704213D01*
G01X265355Y-2690059D01*
G01X269060Y-2674574D01*
G01X268966Y-2658652D01*
G01X265079Y-2643211D01*
G01X257622Y-2629143D01*
G01X247026Y-2617259D01*
G01X233902Y-2608244D01*
G01X219007Y-2602618D01*
G01X203200Y-2600706D01*
G01X187393Y-2602618D01*
G01X172498Y-2608244D01*
G01X159374Y-2617259D01*
G01X148778Y-2629143D01*
G01X141321Y-2643211D01*
G01X137434Y-2658652D01*
G01X137340Y-2674574D01*
G01X35814Y-2674574D01*
G01X35814Y-2438400D01*
G01X479806Y-2438400D01*
G01X481718Y-2454207D01*
G01X487344Y-2469102D01*
G01X496359Y-2482226D01*
G01X508243Y-2492822D01*
G01X522311Y-2500279D01*
G01X537752Y-2504166D01*
G01X553674Y-2504260D01*
G01X569159Y-2500555D01*
G01X583313Y-2493264D01*
G01X1082175Y-2493264D01*
G01X1126236Y-2537325D01*
G01X1126236Y-2974475D01*
G01X1126236Y-2974475D01*
G01X1094875Y-3005836D01*
G01X1058779Y-3005836D01*
G01X1044624Y-2998545D01*
G01X1029139Y-2994840D01*
G01X1013217Y-2994934D01*
G01X997777Y-2998821D01*
G01X983708Y-3006278D01*
G01X971824Y-3016874D01*
G01X962809Y-3029998D01*
G01X957183Y-3044893D01*
G01X955271Y-3060700D01*
G01X957183Y-3076507D01*
G01X962809Y-3091402D01*
G01X971824Y-3104526D01*
G01X983708Y-3115122D01*
G01X997777Y-3122579D01*
G01X1013217Y-3126466D01*
G01X1029139Y-3126560D01*
G01X1044624Y-3122855D01*
G01X1058779Y-3115564D01*
G01X1117600Y-3115564D01*
G01X1131800Y-3113695D01*
G01X1145032Y-3108214D01*
G01X1156395Y-3099495D01*
G01X1219895Y-3035995D01*
G01X1228614Y-3024632D01*
G01X1234095Y-3011400D01*
G01X1235964Y-2997200D01*
G01X1235964Y-2514600D01*
G01X1234095Y-2500400D01*
G01X1228614Y-2487168D01*
G01X1219895Y-2475805D01*
G01X1143695Y-2399605D01*
G01X1132332Y-2390886D01*
G01X1119100Y-2385405D01*
G01X1104900Y-2383536D01*
G01X583313Y-2383536D01*
G01X569159Y-2376245D01*
G01X553674Y-2372540D01*
G01X537752Y-2372634D01*
G01X522311Y-2376521D01*
G01X508243Y-2383978D01*
G01X496359Y-2394574D01*
G01X487344Y-2407698D01*
G01X481718Y-2422593D01*
G01X479806Y-2438400D01*
G01X35814Y-2438400D01*
G01X35814Y-1171194D01*
G01X823321Y-1171194D01*
G01X825293Y-1192475D01*
G01X831141Y-1213031D01*
G01X840668Y-1232162D01*
G01X853547Y-1249217D01*
G01X869341Y-1263615D01*
G01X887512Y-1274866D01*
G01X907441Y-1282587D01*
G01X928449Y-1286514D01*
G01X949820Y-1286514D01*
G01X970828Y-1282587D01*
G01X990757Y-1274866D01*
G01X1008928Y-1263615D01*
G01X1024722Y-1249217D01*
G01X1037601Y-1232162D01*
G01X1047128Y-1213031D01*
G01X1052976Y-1192475D01*
G01X1054948Y-1171194D01*
G01X1054948Y-1171194D01*
G01X4456186Y-1171194D01*
G01X4458158Y-1192475D01*
G01X4464007Y-1213031D01*
G01X4473533Y-1232162D01*
G01X4486413Y-1249217D01*
G01X4502207Y-1263615D01*
G01X4520377Y-1274866D01*
G01X4540306Y-1282587D01*
G01X4561314Y-1286514D01*
G01X4582686Y-1286514D01*
G01X4603694Y-1282587D01*
G01X4623623Y-1274866D01*
G01X4641793Y-1263615D01*
G01X4657587Y-1249217D01*
G01X4670467Y-1232162D01*
G01X4679993Y-1213031D01*
G01X4685842Y-1192475D01*
G01X4687814Y-1171194D01*
G01X4687814Y-1171194D01*
G01X5345186Y-1171194D01*
G01X5347158Y-1192475D01*
G01X5353007Y-1213031D01*
G01X5362533Y-1232162D01*
G01X5375413Y-1249217D01*
G01X5391207Y-1263615D01*
G01X5409377Y-1274866D01*
G01X5429306Y-1282587D01*
G01X5450314Y-1286514D01*
G01X5471686Y-1286514D01*
G01X5492694Y-1282587D01*
G01X5512623Y-1274866D01*
G01X5530793Y-1263615D01*
G01X5546587Y-1249217D01*
G01X5559467Y-1232162D01*
G01X5568993Y-1213031D01*
G01X5574842Y-1192475D01*
G01X5576814Y-1171194D01*
G01X5574842Y-1149913D01*
G01X5568993Y-1129357D01*
G01X5559467Y-1110226D01*
G01X5546587Y-1093171D01*
G01X5530793Y-1078773D01*
G01X5512623Y-1067522D01*
G01X5492694Y-1059801D01*
G01X5471686Y-1055874D01*
G01X5450314Y-1055874D01*
G01X5429306Y-1059801D01*
G01X5409377Y-1067522D01*
G01X5391207Y-1078773D01*
G01X5375413Y-1093171D01*
G01X5362533Y-1110226D01*
G01X5353007Y-1129357D01*
G01X5347158Y-1149913D01*
G01X5345186Y-1171194D01*
G01X5345186Y-1171194D01*
G01X4687814Y-1171194D01*
G01X4685842Y-1149913D01*
G01X4679993Y-1129357D01*
G01X4670467Y-1110226D01*
G01X4657587Y-1093171D01*
G01X4641793Y-1078773D01*
G01X4623623Y-1067522D01*
G01X4603694Y-1059801D01*
G01X4582686Y-1055874D01*
G01X4561314Y-1055874D01*
G01X4540306Y-1059801D01*
G01X4520377Y-1067522D01*
G01X4502207Y-1078773D01*
G01X4486413Y-1093171D01*
G01X4473533Y-1110226D01*
G01X4464007Y-1129357D01*
G01X4458158Y-1149913D01*
G01X4456186Y-1171194D01*
G01X4456186Y-1171194D01*
G01X1054948Y-1171194D01*
G01X1052976Y-1149913D01*
G01X1047128Y-1129357D01*
G01X1037601Y-1110226D01*
G01X1024722Y-1093171D01*
G01X1008928Y-1078773D01*
G01X990757Y-1067522D01*
G01X970828Y-1059801D01*
G01X949820Y-1055874D01*
G01X928449Y-1055874D01*
G01X907441Y-1059801D01*
G01X887512Y-1067522D01*
G01X869341Y-1078773D01*
G01X853547Y-1093171D01*
G01X840668Y-1110226D01*
G01X831141Y-1129357D01*
G01X825293Y-1149913D01*
G01X823321Y-1171194D01*
G01X823321Y-1171194D01*
G01X35814Y-1171194D01*
G01X35814Y-807999D01*
G01X2290286Y-807999D01*
G01X2292266Y-833156D01*
G01X2298157Y-857694D01*
G01X2307814Y-881007D01*
G01X2320999Y-902523D01*
G01X2337388Y-921712D01*
G01X2356576Y-938100D01*
G01X2378092Y-951286D01*
G01X2401406Y-960942D01*
G01X2425943Y-966833D01*
G01X2451100Y-968813D01*
G01X2476257Y-966833D01*
G01X2500794Y-960942D01*
G01X2524108Y-951286D01*
G01X2545624Y-938100D01*
G01X2564812Y-921712D01*
G01X2581201Y-902523D01*
G01X2594386Y-881007D01*
G01X2604043Y-857694D01*
G01X2609934Y-833156D01*
G01X2611914Y-807999D01*
G01X2609934Y-782843D01*
G01X2604043Y-758305D01*
G01X2594386Y-734991D01*
G01X2581201Y-713475D01*
G01X2564812Y-694287D01*
G01X2545624Y-677898D01*
G01X2524108Y-664713D01*
G01X2500794Y-655056D01*
G01X2476257Y-649166D01*
G01X2451100Y-647186D01*
G01X2451100Y-647186D01*
G01X2425943Y-649166D01*
G01X2401406Y-655056D01*
G01X2378092Y-664713D01*
G01X2356576Y-677898D01*
G01X2337388Y-694287D01*
G01X2320999Y-713475D01*
G01X2307814Y-734991D01*
G01X2298157Y-758305D01*
G01X2292266Y-782843D01*
G01X2290286Y-807999D01*
G01X35814Y-807999D01*
G01X35814Y-632206D01*
G01X823321Y-632206D01*
G01X825293Y-653487D01*
G01X831141Y-674043D01*
G01X840668Y-693174D01*
G01X853547Y-710229D01*
G01X869341Y-724627D01*
G01X887512Y-735878D01*
G01X907441Y-743599D01*
G01X928449Y-747526D01*
G01X949820Y-747526D01*
G01X970828Y-743599D01*
G01X990757Y-735878D01*
G01X1008928Y-724627D01*
G01X1024722Y-710229D01*
G01X1037601Y-693174D01*
G01X1047128Y-674043D01*
G01X1052976Y-653487D01*
G01X1054948Y-632206D01*
G01X4913386Y-632206D01*
G01X4915358Y-653487D01*
G01X4921207Y-674043D01*
G01X4930733Y-693174D01*
G01X4943613Y-710229D01*
G01X4959407Y-724627D01*
G01X4977577Y-735878D01*
G01X4997506Y-743599D01*
G01X5018514Y-747526D01*
G01X5039886Y-747526D01*
G01X5060894Y-743599D01*
G01X5080823Y-735878D01*
G01X5098993Y-724627D01*
G01X5114787Y-710229D01*
G01X5127667Y-693174D01*
G01X5137193Y-674043D01*
G01X5143042Y-653487D01*
G01X5145014Y-632206D01*
G01X5145014Y-632206D01*
G01X5145014Y-632206D01*
G01X5802386Y-632206D01*
G01X5804358Y-653487D01*
G01X5810207Y-674043D01*
G01X5819733Y-693174D01*
G01X5832613Y-710229D01*
G01X5848407Y-724627D01*
G01X5866577Y-735878D01*
G01X5886506Y-743599D01*
G01X5907514Y-747526D01*
G01X5928886Y-747526D01*
G01X5949894Y-743599D01*
G01X5969823Y-735878D01*
G01X5987993Y-724627D01*
G01X6003787Y-710229D01*
G01X6016667Y-693174D01*
G01X6026193Y-674043D01*
G01X6032042Y-653487D01*
G01X6034014Y-632206D01*
G01X6034014Y-632206D01*
G01X6032042Y-610925D01*
G01X6026193Y-590369D01*
G01X6016667Y-571238D01*
G01X6003787Y-554183D01*
G01X5987993Y-539785D01*
G01X5969823Y-528534D01*
G01X5949894Y-520813D01*
G01X5928886Y-516886D01*
G01X5907514Y-516886D01*
G01X5886506Y-520813D01*
G01X5866577Y-528534D01*
G01X5848407Y-539785D01*
G01X5832613Y-554183D01*
G01X5819733Y-571238D01*
G01X5810207Y-590369D01*
G01X5804358Y-610925D01*
G01X5802386Y-632206D01*
G01X5145014Y-632206D01*
G01X5143042Y-610925D01*
G01X5137193Y-590369D01*
G01X5127667Y-571238D01*
G01X5114787Y-554183D01*
G01X5098993Y-539785D01*
G01X5080823Y-528534D01*
G01X5060894Y-520813D01*
G01X5039886Y-516886D01*
G01X5018514Y-516886D01*
G01X4997506Y-520813D01*
G01X4977577Y-528534D01*
G01X4959407Y-539785D01*
G01X4943613Y-554183D01*
G01X4930733Y-571238D01*
G01X4921207Y-590369D01*
G01X4915358Y-610925D01*
G01X4913386Y-632206D01*
G01X1054948Y-632206D01*
G01X1054948Y-632206D01*
G01X1054948Y-632206D01*
G01X1052976Y-610925D01*
G01X1047128Y-590369D01*
G01X1037601Y-571238D01*
G01X1024722Y-554183D01*
G01X1008928Y-539785D01*
G01X990757Y-528534D01*
G01X970828Y-520813D01*
G01X949820Y-516886D01*
G01X928449Y-516886D01*
G01X907441Y-520813D01*
G01X887512Y-528534D01*
G01X869341Y-539785D01*
G01X853547Y-554183D01*
G01X840668Y-571238D01*
G01X831141Y-590369D01*
G01X825293Y-610925D01*
G01X823321Y-632206D01*
G01X35814Y-632206D01*
G01X35814Y-208001D01*
G01X2290286Y-208001D01*
G01X2292266Y-233157D01*
G01X2298157Y-257695D01*
G01X2307814Y-281009D01*
G01X2320999Y-302525D01*
G01X2337388Y-321713D01*
G01X2356576Y-338102D01*
G01X2378092Y-351287D01*
G01X2401406Y-360944D01*
G01X2425943Y-366834D01*
G01X2451100Y-368814D01*
G01X2476257Y-366834D01*
G01X2500794Y-360944D01*
G01X2524108Y-351287D01*
G01X2545624Y-338102D01*
G01X2564812Y-321713D01*
G01X2581201Y-302525D01*
G01X2594386Y-281009D01*
G01X2604043Y-257695D01*
G01X2609934Y-233157D01*
G01X2611914Y-208001D01*
G01X2609934Y-182844D01*
G01X2604043Y-158306D01*
G01X2594386Y-134993D01*
G01X2581201Y-113477D01*
G01X2564812Y-94288D01*
G01X2545624Y-77900D01*
G01X2524108Y-64714D01*
G01X2500794Y-55058D01*
G01X2476257Y-49167D01*
G01X2451100Y-47187D01*
G01X2451100Y-47187D01*
G01X2425943Y-49167D01*
G01X2401406Y-55058D01*
G01X2378092Y-64714D01*
G01X2356576Y-77900D01*
G01X2337388Y-94288D01*
G01X2320999Y-113477D01*
G01X2307814Y-134993D01*
G01X2298157Y-158306D01*
G01X2292266Y-182844D01*
G01X2290286Y-208001D01*
G01X35814Y-208001D01*
G01X35814Y-35814D01*
G01X6618986Y-35814D01*
G01X6618986Y-651690D01*
G01X6620776Y-662872D01*
G01X6625969Y-672936D01*
G01X6634044Y-680876D01*
G01X6644195Y-685898D01*
G01X6518075Y-812017D01*
G01X6512384Y-819434D01*
G01X6508806Y-828072D01*
G01X6507586Y-837341D01*
G01X6507586Y-1320779D01*
G01X6508806Y-1330048D01*
G01X6512384Y-1338686D01*
G01X6518075Y-1346103D01*
G01X6543575Y-1371603D01*
G01X6550993Y-1377295D01*
G01X6559630Y-1380872D01*
G01X6568900Y-1382093D01*
G01X7000700Y-1382093D01*
G01X7009969Y-1380872D01*
G01X7018607Y-1377295D01*
G01X7026024Y-1371603D01*
G01X7057806Y-1339821D01*
G01X7147086Y-1339821D01*
G01X7147086Y-1629820D01*
G01X7148839Y-1640887D01*
G01X7153926Y-1650871D01*
G01X7161849Y-1658794D01*
G01X7171833Y-1663881D01*
G01X7182900Y-1665634D01*
G01X7472900Y-1665634D01*
G01X7483967Y-1663881D01*
G01X7493951Y-1658794D01*
G01X7501874Y-1650871D01*
G01X7506961Y-1640887D01*
G01X7508714Y-1629820D01*
G01X7508714Y-1339821D01*
G01X7508714Y-1339821D01*
G01X7506961Y-1328754D01*
G01X7501874Y-1318770D01*
G01X7493951Y-1310847D01*
G01X7483967Y-1305760D01*
G01X7472900Y-1304007D01*
G01X7182900Y-1304007D01*
G01X7171833Y-1305760D01*
G01X7161849Y-1310847D01*
G01X7153926Y-1318770D01*
G01X7148839Y-1328754D01*
G01X7147086Y-1339821D01*
G01X7057806Y-1339821D01*
G01X7218734Y-1178893D01*
G01X7584900Y-1178893D01*
G01X7590536Y-1178446D01*
G01X7590536Y-1908538D01*
G01X7582119Y-1916955D01*
G01X7566955Y-1921809D01*
G01X7553385Y-1930138D01*
G01X7542193Y-1941463D01*
G01X7534024Y-1955130D01*
G01X7529349Y-1970350D01*
G01X7528438Y-1986246D01*
G01X7531344Y-2001901D01*
G01X7537898Y-2016411D01*
G01X7547723Y-2028941D01*
G01X7560252Y-2038766D01*
G01X7574763Y-2045320D01*
G01X7590418Y-2048226D01*
G01X7606314Y-2047315D01*
G01X7621534Y-2042640D01*
G01X7635201Y-2034471D01*
G01X7646525Y-2023278D01*
G01X7654855Y-2009709D01*
G01X7659709Y-1994544D01*
G01X7684195Y-1970058D01*
G01X7692914Y-1958696D01*
G01X7698395Y-1945463D01*
G01X7700264Y-1931264D01*
G01X7700264Y-687504D01*
G01X8276886Y-687504D01*
G01X8276886Y-3342103D01*
G01X8265419Y-3318522D01*
G01X8250478Y-3296975D01*
G01X8232415Y-3277968D01*
G01X8211656Y-3261950D01*
G01X8188690Y-3249297D01*
G01X8164058Y-3240309D01*
G01X8138341Y-3235196D01*
G01X8112144Y-3234080D01*
G01X8086085Y-3236987D01*
G01X8060778Y-3243847D01*
G01X8036819Y-3254500D01*
G01X8014773Y-3268694D01*
G01X7995159Y-3286096D01*
G01X7978439Y-3306294D01*
G01X7965008Y-3328814D01*
G01X7955181Y-3353123D01*
G01X7949191Y-3378651D01*
G01X7947179Y-3404794D01*
G01X7947179Y-3504794D01*
G37*
G36*
G01X4363181Y-2385314D02*
G01X4393143Y-2385314D01*
G01X4443652Y-2435823D01*
G01X4453699Y-2443533D01*
G01X4465400Y-2448379D01*
G01X4477956Y-2450032D01*
G01X4510890Y-2450032D01*
G01X4720733Y-2659876D01*
G01X4721796Y-2669569D01*
G01X4334659Y-2669569D01*
G01X4283964Y-2618875D01*
G01X4283964Y-2562126D01*
G01X4290266Y-2550478D01*
G01X4294127Y-2537810D01*
G01X4295393Y-2524627D01*
G01X4294014Y-2511456D01*
G01X4290044Y-2498821D01*
G01X4283642Y-2487228D01*
G01X4275063Y-2477139D01*
G01X4264650Y-2468956D01*
G01X4277161Y-2458662D01*
G01X4286802Y-2445640D01*
G01X4292996Y-2430668D01*
G01X4295374Y-2414641D01*
G01X4293792Y-2398516D01*
G01X4308154Y-2402359D01*
G01X4323011Y-2402904D01*
G01X4337615Y-2400126D01*
G01X4351234Y-2394162D01*
G01X4363181Y-2385314D01*
G37*
G54D10*
G01X6664960Y-641530D02*
G01X6664960Y-35814D01*
G01X8276886Y-35814D01*
G01X8276886Y-641530D01*
G01X6664960Y-641530D01*
G01X7564185Y-430480D02*
G03X7696773Y-430480I66294J0D01*
G03X7564185Y-430480I-66294J0D01*
G01X7964185Y-430480D02*
G03X8096773Y-430480I66294J0D01*
G03X7964185Y-430480I-66294J0D01*
G01X4447543Y-2302495D02*
G03X4416162Y-2288374I-34305J-34305D01*
G01X3893437Y-1765649D01*
G03X3886253Y-1762674I-7184J-7184D01*
G01X3611794Y-1762674D01*
G01X3611794Y-1419860D01*
G01X3856592Y-1419860D01*
G01X4679116Y-2242384D01*
G03X4686300Y-2245360I7184J7184D01*
G01X5082540Y-2245360D01*
G01X5082540Y-2400214D01*
G01X4611123Y-2400214D01*
G01X4545618Y-2334708D01*
G03X4538434Y-2331733I-7184J-7184D01*
G01X4476780Y-2331733D01*
G01X4447543Y-2302495D01*
G01X6553560Y-841550D02*
G01X6707605Y-687504D01*
G01X7574740Y-687504D01*
G01X7574740Y-1132919D01*
G01X7203900Y-1132919D01*
G03X7196716Y-1135895I0J-10160D01*
G01X6996491Y-1336119D01*
G01X6573108Y-1336119D01*
G01X6553560Y-1316570D01*
G01X6553560Y-841550D01*
G01X645160Y-3685540D02*
G01X645160Y-3235960D01*
G01X1018540Y-3235960D01*
G01X1018540Y-3685540D01*
G01X645160Y-3685540D01*
G01X4701540Y-3126740D02*
G01X4468792Y-3126740D01*
G03X4395808Y-3126740I-36492J-55347D01*
G01X4335850Y-3126740D01*
G01X4335850Y-2915961D01*
G01X4701540Y-2915961D01*
G01X4701540Y-3126740D01*
G01X5509260Y-4149726D02*
G01X5509260Y-3794760D01*
G01X6200140Y-3794760D01*
G01X6200140Y-4149726D01*
G01X5509260Y-4149726D01*
G01X6485969Y-1958340D02*
G01X6485969Y-1769364D01*
G01X6873240Y-1769364D01*
G01X6873240Y-1958340D01*
G01X6485969Y-1958340D01*
G01X2905760Y-4295140D02*
G01X2905760Y-3883660D01*
G01X3456940Y-3883660D01*
G01X3456940Y-4295140D01*
G01X2905760Y-4295140D01*
G01X7947179Y-3504794D02*
G03X8276886Y-3567485I170814J0D01*
G01X8276886Y-4300386D01*
G01X7828813Y-4300386D01*
G03X7747000Y-4078991I-81813J95581D01*
G03X7665187Y-4300386I0J-125814D01*
G01X7320813Y-4300386D01*
G03X7239000Y-4078991I-81813J95581D01*
G03X7157187Y-4300386I0J-125814D01*
G01X3502914Y-4300386D01*
G01X3502914Y-3873500D01*
G03X3467100Y-3837686I-35814J0D01*
G01X2895600Y-3837686D01*
G03X2859786Y-3873500I0J-35814D01*
G01X2859786Y-4300386D01*
G01X35814Y-4300386D01*
G01X35814Y-35814D01*
G01X6618986Y-35814D01*
G01X6618986Y-651690D01*
G03X6644195Y-685898I35814J0D01*
G01X6518075Y-812017D01*
G03X6507586Y-837341I25324J-25324D01*
G01X6507586Y-1320779D01*
G03X6518075Y-1346103I35814J0D01*
G01X6543575Y-1371603D01*
G03X6568900Y-1382093I25324J25324D01*
G01X7000700Y-1382093D01*
G03X7026024Y-1371603I0J35814D01*
G01X7218734Y-1178893D01*
G01X7584900Y-1178893D01*
G03X7590536Y-1178446I0J35814D01*
G01X7590536Y-1908538D01*
G01X7582119Y-1916955D01*
G03X7547723Y-2028941I12481J-65109D01*
G03X7659709Y-1994544I46877J46877D01*
G01X7684195Y-1970058D01*
G03X7700264Y-1931264I-38795J38795D01*
G01X7700264Y-687504D01*
G01X8276886Y-687504D01*
G01X8276886Y-3342103D01*
G03X7947179Y-3404794I-158894J-62691D01*
G01X7947179Y-3504794D01*
G01X148336Y-2870200D02*
G03X164405Y-2908995I54864J0D01*
G01X200503Y-2945093D01*
G03X239298Y-2961162I38795J38795D01*
G01X984352Y-2961162D01*
G03X1087859Y-2906298I37213J54864D01*
G03X984352Y-2851434I-66294J0D01*
G01X262023Y-2851434D01*
G01X258064Y-2847475D01*
G01X258064Y-2704213D01*
G03X203200Y-2600706I-54864J37213D01*
G03X148336Y-2704213I0J-66294D01*
G01X148336Y-2870200D01*
G01X1126236Y-2974475D02*
G01X1094875Y-3005836D01*
G01X1058779Y-3005836D01*
G03X955271Y-3060700I-37213J-54864D01*
G03X1058779Y-3115564I66294J0D01*
G01X1117600Y-3115564D01*
G03X1156395Y-3099495I0J54864D01*
G01X1219895Y-3035995D01*
G03X1235964Y-2997200I-38795J38795D01*
G01X1235964Y-2514600D01*
G03X1219895Y-2475805I-54864J0D01*
G01X1143695Y-2399605D01*
G03X1104900Y-2383536I-38795J-38795D01*
G01X583313Y-2383536D01*
G03X479806Y-2438400I-37213J-54864D01*
G03X583313Y-2493264I66294J0D01*
G01X1082175Y-2493264D01*
G01X1126236Y-2537325D01*
G01X1126236Y-2974475D01*
G01X4272301Y-2288774D02*
G03X4253308Y-2351284I45699J-48026D01*
G03X4191887Y-2358136I-24208J-61716D01*
G01X4178300Y-2358136D01*
G03X4139505Y-2374205I0J-54864D01*
G01X4114105Y-2399605D01*
G03X4098036Y-2438400I38795J-38795D01*
G01X4098036Y-2768600D01*
G03X4114105Y-2807395I54864J0D01*
G01X4139505Y-2832795D01*
G03X4178300Y-2848864I38795J38795D01*
G01X4671234Y-2848864D01*
G01X4685290Y-2862920D01*
G03X4687052Y-2869987I65109J12481D01*
G01X4325690Y-2869987D01*
G03X4290761Y-2897886I0J-35814D01*
G01X3909377Y-2897886D01*
G01X3261645Y-2250155D01*
G03X3200400Y-2224786I-61245J-61245D01*
G01X2095500Y-2224786D01*
G03X2034255Y-2250155I0J-86614D01*
G01X1064092Y-3220317D01*
G03X1028700Y-3189986I-35392J-5483D01*
G01X635000Y-3189986D01*
G03X599186Y-3225800I0J-35814D01*
G01X599186Y-3695700D01*
G03X635000Y-3731514I35814J0D01*
G01X1028700Y-3731514D01*
G03X1064514Y-3695700I0J35814D01*
G01X1064514Y-3464877D01*
G01X2131377Y-2398014D01*
G01X3164523Y-2398014D01*
G01X3786886Y-3020377D01*
G01X3786886Y-3759200D01*
G03X3812255Y-3820445I86614J0D01*
G01X4129755Y-4137945D01*
G03X4191000Y-4163314I61245J61245D01*
G01X5463450Y-4163314D01*
G03X5499100Y-4195700I35650J3428D01*
G01X6210300Y-4195700D01*
G03X6246114Y-4159886I0J35814D01*
G01X6246114Y-3985585D01*
G03X6463114Y-3898900I91186J86685D01*
G03X6246114Y-3812215I-125814J0D01*
G01X6246114Y-3784600D01*
G03X6210300Y-3748786I-35814J0D01*
G01X6182614Y-3748786D01*
G01X6182614Y-3744214D01*
G01X6502400Y-3744214D01*
G03X6572626Y-3715126I0J99314D01*
G01X6662428Y-3625323D01*
G03X6691517Y-3555097I-70226J70226D01*
G01X6691517Y-3151735D01*
G01X6813926Y-3029326D01*
G03X6843014Y-2959100I-70226J70226D01*
G01X6843014Y-2789597D01*
G03X6908800Y-2829814I65786J33697D01*
G01X6959600Y-2829814D01*
G03X7011865Y-2808165I0J73914D01*
G01X7132986Y-2687044D01*
G03X7253398Y-2879782I106014J-67751D01*
G03X7326832Y-2664714I-14398J124987D01*
G01X7467600Y-2664714D01*
G03X7467600Y-2516886I0J73914D01*
G01X7124700Y-2516886D01*
G03X7072435Y-2538535I0J-73914D01*
G01X6928984Y-2681986D01*
G01X6908800Y-2681986D01*
G03X6843014Y-2722203I0J-73914D01*
G01X6843014Y-2235200D01*
G03X6813926Y-2164974I-99314J0D01*
G01X6732212Y-2083260D01*
G01X6732212Y-2004314D01*
G01X6883400Y-2004314D01*
G03X6919214Y-1968500I0J35814D01*
G01X6919214Y-1921899D01*
G03X6920155Y-1910770I-65353J11129D01*
G03X6919214Y-1899640I-66294J0D01*
G01X6919214Y-1769364D01*
G01X6973434Y-1769364D01*
G01X7097691Y-1893622D01*
G03X7209677Y-1928018I65109J12481D01*
G03X7175281Y-1816032I-46877J46877D01*
G01X7034954Y-1675705D01*
G03X6996159Y-1659636I-38795J-38795D01*
G01X6121400Y-1659636D01*
G03X6082605Y-1675705I0J-54864D01*
G01X5946275Y-1812036D01*
G01X5739513Y-1812036D01*
G03X5636006Y-1866900I-37213J-54864D01*
G03X5739513Y-1921764I66294J0D01*
G01X5969000Y-1921764D01*
G03X6007795Y-1905695I0J54864D01*
G01X6144125Y-1769364D01*
G01X6439995Y-1769364D01*
G01X6439995Y-1968500D01*
G03X6475809Y-2004314I35814J0D01*
G01X6533584Y-2004314D01*
G01X6533584Y-2124398D01*
G03X6562672Y-2194623I99314J0D01*
G01X6644386Y-2276337D01*
G01X6644386Y-2628269D01*
G03X6517386Y-2679700I-53086J-51431D01*
G01X6517386Y-2864984D01*
G01X6399335Y-2983035D01*
G03X6377686Y-3035300I52265J-52265D01*
G01X6377686Y-3322184D01*
G01X6268584Y-3431286D01*
G01X5848198Y-3431286D01*
G03X5798837Y-3450184I0J-73914D01*
G01X5787568Y-3450184D01*
G03X5795264Y-3366387I-47168J46584D01*
G01X5795264Y-3208392D01*
G03X5740400Y-3104885I-54864J37213D01*
G03X5685536Y-3208392I0J-66294D01*
G01X5685536Y-3366387D01*
G03X5693232Y-3450184I54864J-37213D01*
G01X5614455Y-3450184D01*
G03X5562190Y-3471833I0J-73914D01*
G01X5339787Y-3694235D01*
G03X5444317Y-3798765I52265J-52265D01*
G01X5463663Y-3779420D01*
G03X5463286Y-3784600I35437J-5180D01*
G01X5463286Y-3990086D01*
G01X4226877Y-3990086D01*
G01X3960114Y-3723323D01*
G01X3960114Y-3071114D01*
G01X4289876Y-3071114D01*
G01X4289876Y-3136900D01*
G03X4325690Y-3172714I35814J0D01*
G01X4366672Y-3172714D01*
G03X4397180Y-3238313I65628J-9373D01*
G03X4469513Y-3236951I35120J56227D01*
G01X4806718Y-3236951D01*
G03X4845513Y-3220881I0J54864D01*
G01X4895399Y-3170995D01*
G03X4929795Y-3059010I-12481J65109D01*
G03X4817809Y-3093406I-46877J-46877D01*
G01X4783992Y-3127223D01*
G01X4747514Y-3127223D01*
G01X4747514Y-2916670D01*
G03X4816244Y-2858142I2885J66231D01*
G03X4762880Y-2785330I-65845J7703D01*
G01X4756846Y-2779297D01*
G01X4825932Y-2779297D01*
G03X4922646Y-2753666I37213J54864D01*
G03X5015613Y-2772664I55754J35866D01*
G01X5220587Y-2772664D01*
G03X5324094Y-2717800I37213J54864D01*
G03X5220587Y-2662936I-66294J0D01*
G01X5015613Y-2662936D01*
G03X4918899Y-2688567I-37213J-54864D01*
G03X4853265Y-2658880I-55754J-35866D01*
G03X4789342Y-2591266I-66280J1361D01*
G01X4644264Y-2446188D01*
G01X5092700Y-2446188D01*
G03X5128514Y-2410374I0J35814D01*
G01X5128514Y-2235200D01*
G03X5092700Y-2199386I-35814J0D01*
G01X4701135Y-2199386D01*
G01X3886124Y-1384376D01*
G03X3860800Y-1373886I-25324J-25324D01*
G01X3606800Y-1373886D01*
G03X3581476Y-1384376I0J-35814D01*
G01X3576309Y-1389542D01*
G03X3565820Y-1414866I25324J-25324D01*
G01X3565820Y-1772834D01*
G03X3601634Y-1808648I35814J0D01*
G01X3871419Y-1808648D01*
G01X4335677Y-2272906D01*
G03X4272301Y-2288774I-17677J-63894D01*
G01X1054948Y-632206D02*
G03X823321Y-632206I-115814J0D01*
G03X1054948Y-632206I115814J0D01*
G01X823321Y-1171194D02*
G03X1054948Y-1171194I115814J0D01*
G03X823321Y-1171194I-115814J0D01*
G01X1158167Y-3614074D02*
G03X1243713Y-3623564I48333J45374D01*
G01X1663700Y-3623564D01*
G03X1702495Y-3607495I0J54864D01*
G01X1726981Y-3583009D01*
G03X1761377Y-3471023I-12481J65109D01*
G03X1649391Y-3505419I-46877J-46877D01*
G01X1640975Y-3513836D01*
G01X1265275Y-3513836D01*
G03X1270287Y-3498328I-60096J27989D01*
G01X1322851Y-3445764D01*
G01X1882275Y-3445764D01*
G01X1977136Y-3540625D01*
G01X1977136Y-3631914D01*
G03X2032000Y-3735421I54864J-37213D01*
G03X2086864Y-3631914I0J66294D01*
G01X2086864Y-3517900D01*
G03X2070795Y-3479105I-54864J0D01*
G01X1943795Y-3352105D01*
G03X1905000Y-3336036I-38795J-38795D01*
G01X1300126Y-3336036D01*
G03X1261331Y-3352105I0J-54864D01*
G01X1192698Y-3420738D01*
G03X1154094Y-3528098I12481J-65109D01*
G03X1158167Y-3614074I52406J-40602D01*
G01X2451100Y-47187D02*
G03X2451100Y-368814I0J-160814D01*
G03X2451100Y-47187I0J160814D01*
G01X2451100Y-647186D02*
G03X2451100Y-968813I0J-160814D01*
G03X2451100Y-647186I0J160814D01*
G01X4456186Y-1171194D02*
G03X4687814Y-1171194I115814J0D01*
G03X4456186Y-1171194I-115814J0D01*
G01X5145014Y-632206D02*
G03X4913386Y-632206I-115814J0D01*
G03X5145014Y-632206I115814J0D01*
G01X5529754Y-3365500D02*
G03X5418280Y-3316986I-66294J0D01*
G01X5366481Y-3316986D01*
G03X5255006Y-3365500I-45181J-48514D01*
G03X5366481Y-3414014I66294J0D01*
G01X5418280Y-3414014D01*
G03X5529754Y-3365500I45181J48514D01*
G01X5360920Y-2781021D02*
G03X5334209Y-2893669I18085J-63779D01*
G03X5444114Y-2857281I44796J48869D01*
G01X5454579Y-2846816D01*
G03X5470648Y-2808021I-38795J38795D01*
G01X5470648Y-2189097D01*
G03X5415784Y-2085590I-54864J37213D01*
G03X5360920Y-2189097I0J-66294D01*
G01X5360920Y-2781021D01*
G01X5345186Y-1171194D02*
G03X5576814Y-1171194I115814J0D01*
G03X5345186Y-1171194I-115814J0D01*
G01X5660136Y-2941009D02*
G03X5715000Y-3044517I54864J-37213D01*
G03X5769864Y-2941009I0J66294D01*
G01X5769864Y-2730926D01*
G03X5848956Y-2721864I33512J57200D01*
G01X6209435Y-2721864D01*
G03X6314658Y-2670424I38965J53634D01*
G03X6213068Y-2612136I-66258J2194D01*
G01X5827904Y-2612136D01*
G03X5769864Y-2616525I-24528J-61589D01*
G01X5769864Y-2272413D01*
G03X5715000Y-2168906I-54864J37213D01*
G03X5660136Y-2272413I0J-66294D01*
G01X5660136Y-2941009D01*
G01X6034014Y-632206D02*
G03X5802386Y-632206I-115814J0D01*
G03X6034014Y-632206I115814J0D01*
G01X6465486Y-3898900D02*
G03X6717114Y-3898900I125814J0D01*
G03X6465486Y-3898900I-125814J0D01*
G01X7038821Y-3504794D02*
G01X7038821Y-3404794D01*
G03X6697194Y-3404794I-170814J0D01*
G01X6697194Y-3504794D01*
G03X7038821Y-3504794I170814J0D01*
G01X7508714Y-1339821D02*
G03X7472900Y-1304007I-35814J0D01*
G01X7182900Y-1304007D01*
G03X7147086Y-1339821I0J-35814D01*
G01X7147086Y-1629820D01*
G03X7182900Y-1665634I35814J0D01*
G01X7472900Y-1665634D01*
G03X7508714Y-1629820I0J35814D01*
G01X7508714Y-1339821D01*
G01X4363181Y-2385314D02*
G01X4393143Y-2385314D01*
G01X4443652Y-2435823D01*
G03X4477956Y-2450032I34305J34305D01*
G01X4510890Y-2450032D01*
G01X4720733Y-2659876D01*
G03X4721796Y-2669569I66252J2357D01*
G01X4334659Y-2669569D01*
G01X4283964Y-2618875D01*
G01X4283964Y-2562126D01*
G03X4294014Y-2511456I-54864J37213D01*
G03X4264650Y-2468956I-64914J-13457D01*
G03X4293792Y-2398516I-35550J55956D01*
G03X4363181Y-2385314I24208J61716D01*
G04 Copper End*

G04 Pad Start*
G54D11*
G01X6859829Y-342900D03*
G01X6246571Y-342900D03*
G54D12*
G01X7239000Y-4204805D03*
G01X7493000Y-4204805D03*
G01X7747000Y-4204805D03*
G01X7747000Y-2754795D03*
G01X7239000Y-2754795D03*
G54D13*
G01X8117992Y-3454794D03*
G01X6868008Y-3454794D03*
G54D12*
G01X6591300Y-3898900D03*
G01X6337300Y-3898900D03*
G01X6083300Y-3898900D03*
G54D14*
G01X5829300Y-3898900D03*
G54D15*
G01X5461000Y-1521206D03*
G01X5461000Y-1171194D03*
G01X5029200Y-282194D03*
G01X5029200Y-632206D03*
G01X4572000Y-1521206D03*
G01X4572000Y-1171194D03*
G01X939135Y-282194D03*
G01X939135Y-632206D03*
G01X939135Y-1521206D03*
G01X939135Y-1171194D03*
G01X5918200Y-282194D03*
G01X5918200Y-632206D03*
G54D16*
G01X2451100Y-208001D03*
G01X2451100Y-807999D03*
G54D18*
G01X7327900Y-394779D03*
G54D19*
G01X7327900Y-1484820D03*
G54D18*
G01X7327900Y-939787D03*
G04 Pad End*

G04 Via Start*
G54D20*
G01X4635500Y-2362200D03*
G01X4584700Y-2311400D03*
G01X4901585Y-2370375D03*
G01X5031599Y-2370375D03*
G01X5031599Y-2273300D03*
G01X4901585Y-2273300D03*
G01X4457700Y-2298700D03*
G01X4521200Y-2298700D03*
G01X3657600Y-1701800D03*
G01X3745053Y-1701800D03*
G01X3832505Y-1701800D03*
G01X3657600Y-1614347D03*
G01X3745053Y-1614347D03*
G01X3745053Y-1526895D03*
G01X3832505Y-1614347D03*
G01X3832505Y-1526895D03*
G01X3657600Y-1526895D03*
G01X4229100Y-2524912D03*
G01X4229100Y-2413000D03*
G01X4318000Y-2336800D03*
G01X1021565Y-3060700D03*
G01X546100Y-2438400D03*
G01X1021565Y-2906298D03*
G01X203200Y-2667000D03*
G01X1028700Y-2743200D03*
G01X952500Y-2324100D03*
G01X1714500Y-3517900D03*
G01X1206500Y-3568700D03*
G01X2032000Y-3669127D03*
G01X1205179Y-3485847D03*
G01X4406900Y-2425700D03*
G01X4406900Y-2515409D03*
G01X4406900Y-2605118D03*
G01X4496609Y-2605118D03*
G01X4496609Y-2515409D03*
G01X4863145Y-2724433D03*
G01X4786985Y-2657518D03*
G01X4750399Y-2850439D03*
G01X7594600Y-1982064D03*
G01X5257800Y-2717800D03*
G01X4978400Y-2717800D03*
G01X5803376Y-2673725D03*
G01X6248400Y-2668230D03*
G01X7162800Y-1881141D03*
G01X5702300Y-1866900D03*
G01X5415784Y-2151884D03*
G01X5379005Y-2844800D03*
G01X6629400Y-1003300D03*
G01X6737047Y-1003300D03*
G01X6952341Y-1003300D03*
G01X6844694Y-1003300D03*
G01X7059988Y-1003300D03*
G01X6629400Y-895653D03*
G01X7059988Y-895653D03*
G01X6737047Y-895653D03*
G01X6844694Y-895653D03*
G01X6952341Y-895653D03*
G01X7059988Y-788006D03*
G01X6952341Y-788006D03*
G01X6844694Y-788006D03*
G01X6737047Y-788006D03*
G01X5715000Y-2978223D03*
G01X5715000Y-2235200D03*
G01X6229502Y-3378200D03*
G01X5981700Y-3365500D03*
G01X6261100Y-2794000D03*
G01X6680200Y-1542898D03*
G01X4432300Y-3182087D03*
G01X4882918Y-3105887D03*
G01X5740400Y-3403600D03*
G01X5740400Y-3171179D03*
G01X5321300Y-3365500D03*
G01X5463460Y-3365500D03*
G01X5392052Y-3746500D03*
G01X1936674Y-3263900D03*
G01X1663700Y-3263900D03*
G01X387185Y-4236720D03*
G01X537827Y-4236720D03*
G01X688470Y-4236720D03*
G01X839113Y-4236720D03*
G01X989755Y-4236720D03*
G01X1140398Y-4236720D03*
G01X1291041Y-4236720D03*
G01X1441683Y-4236720D03*
G01X387185Y-4012372D03*
G01X537827Y-4012372D03*
G01X688470Y-4012372D03*
G01X839113Y-4012372D03*
G01X989755Y-4012372D03*
G01X1140398Y-4012372D03*
G01X1291041Y-4012372D03*
G01X1441683Y-4012372D03*
G01X2015048Y-4240043D03*
G01X2015048Y-4089400D03*
G01X1790700Y-4240043D03*
G01X1790700Y-4089400D03*
G01X2536238Y-2935711D03*
G01X2536238Y-2785069D03*
G01X2536238Y-2634426D03*
G01X2536238Y-2483783D03*
G01X2536238Y-3236997D03*
G01X2536238Y-3086354D03*
G01X2686881Y-2483783D03*
G01X2686881Y-2634426D03*
G01X2686881Y-2785069D03*
G01X2686881Y-2935711D03*
G01X2686881Y-3086354D03*
G01X2686881Y-3236997D03*
G01X698500Y-3644900D03*
G01X698500Y-3530600D03*
G01X698500Y-3416300D03*
G01X698500Y-3302000D03*
G01X812800Y-3644900D03*
G01X812800Y-3530600D03*
G01X812800Y-3416300D03*
G01X812800Y-3302000D03*
G01X927100Y-3644900D03*
G01X927100Y-3530600D03*
G01X927100Y-3416300D03*
G01X927100Y-3302000D03*
G01X4445000Y-3073400D03*
G01X4548701Y-3073400D03*
G01X4652402Y-3073400D03*
G01X4652402Y-2969699D03*
G01X4548701Y-2969699D03*
G01X6632898Y-1910770D03*
G01X6743379Y-1910770D03*
G01X6853861Y-1910770D03*
G01X6522416Y-1910770D03*
G01X6522416Y-1803400D03*
G01X6632898Y-1803400D03*
G01X3098800Y-4203700D03*
G01X3207267Y-4203700D03*
G01X3315734Y-4203700D03*
G01X3424201Y-4203700D03*
G01X3424201Y-4102100D03*
G01X3315734Y-4102100D03*
G01X3207267Y-4102100D03*
G01X3098800Y-4102100D03*
G01X3424201Y-4000500D03*
G01X3315734Y-4000500D03*
G01X3207267Y-4000500D03*
G01X3098800Y-4000500D03*
G01X5829300Y-3524098D03*
G01X6591300Y-2679700D03*
G01X6908800Y-2755900D03*
G01X7467600Y-2590800D03*
G01X2758659Y-3759200D03*
G01X4497324Y-122209D03*
G01X4649719Y-122209D03*
G01X4802114Y-122209D03*
G01X4954508Y-122209D03*
G01X5106903Y-122209D03*
G01X5259298Y-122209D03*
G01X5411692Y-122209D03*
G01X5564087Y-122209D03*
G01X5716482Y-122209D03*
G01X5868877Y-122209D03*
G01X6021271Y-122209D03*
G01X6173666Y-122209D03*
G01X7835900Y-1580049D03*
G01X8064500Y-838200D03*
G01X6946900Y-2413000D03*
G01X6083300Y-2273300D03*
G01X5854700Y-1689100D03*
G01X5118100Y-3040888D03*
G01X3848100Y-2133600D03*
G01X3848100Y-2044700D03*
G01X3736478Y-2044700D03*
G01X3624857Y-2044700D03*
G01X3513235Y-2044700D03*
G01X3401613Y-2044700D03*
G01X3736478Y-2133600D03*
G01X3624857Y-2133600D03*
G01X3513235Y-2133600D03*
G01X3401613Y-2133600D03*
G01X3736478Y-2222500D03*
G01X3624857Y-2222500D03*
G01X3513235Y-2222500D03*
G01X3401613Y-2222500D03*
G01X3848100Y-2222500D03*
G01X3911600Y-2857500D03*
G01X3911600Y-2747735D03*
G01X3993741Y-2747735D03*
G01X3993741Y-2857500D03*
G01X4075882Y-2857500D03*
G01X4075882Y-2747735D03*
G01X5038903Y-3683000D03*
G01X5156200Y-3669436D03*
G01X5562600Y-4241800D03*
G01X5372100Y-3886200D03*
G01X82299Y-2692400D03*
G01X82299Y-2544233D03*
G01X82299Y-2396067D03*
G01X82299Y-2247900D03*
G01X82299Y-2099734D03*
G01X82299Y-1951567D03*
G01X82299Y-1803401D03*
G01X230466Y-1951567D03*
G01X230466Y-1803401D03*
G01X232167Y-2099934D03*
G01X232167Y-2248101D03*
G01X230466Y-2396067D03*
G01X139700Y-127000D03*
G01X338717Y-127000D03*
G01X537733Y-127000D03*
G01X736750Y-127000D03*
G01X935767Y-127000D03*
G01X537733Y-326017D03*
G01X338717Y-326017D03*
G01X139700Y-326017D03*
G01X537733Y-525033D03*
G01X338717Y-525033D03*
G01X139700Y-525033D03*
G01X736750Y-326017D03*
G01X3230480Y-430480D03*
G01X6430479Y-430480D03*
G01X7630479Y-430480D03*
G01X8030479Y-430480D03*
G01X5230480Y-1630480D03*
G01X5630479Y-1630480D03*
G01X830480Y-2030480D03*
G01X1230480Y-2030480D03*
G01X1630480Y-2030480D03*
G01X3230480Y-2030480D03*
G01X5230480Y-2030480D03*
G01X6430479Y-2030480D03*
G01X1230480Y-2430480D03*
G01X1630480Y-2430480D03*
G01X2830480Y-2430480D03*
G01X3630480Y-2430480D03*
G01X5230480Y-2430480D03*
G01X8030479Y-2430480D03*
G01X2830480Y-2830480D03*
G01X3230480Y-2830480D03*
G01X5230480Y-2830480D03*
G01X7630479Y-2830480D03*
G01X8030479Y-2830480D03*
G01X2030480Y-3230480D03*
G01X2830480Y-3230480D03*
G01X3230480Y-3230480D03*
G01X5230480Y-3230480D03*
G01X7630479Y-3230480D03*
G01X8030479Y-3230480D03*
G01X2830480Y-3630480D03*
G01X7630479Y-3630480D03*
G01X1630480Y-4030480D03*
G01X3630480Y-4030480D03*
G01X6830479Y-4030480D03*
G01X7630479Y-4030480D03*
G01X8030479Y-4030480D03*
G01X4076700Y-3530600D03*
G01X4259057Y-3530600D03*
G01X4441414Y-3530600D03*
G01X4623770Y-3530600D03*
G01X3708400Y-3505200D03*
G01X3581400Y-3606800D03*
G01X3467100Y-3721100D03*
G01X6311900Y-3137764D03*
G01X3225800Y-279400D03*
G01X3225800Y-154612D03*
G01X3080056Y-154612D03*
G01X3365500Y-152400D03*
G04 Via End*

G04 Track Start*
G54D21*
G01X1181100Y-2997200D02*
G01X1181100Y-2514600D01*
G01X1104900Y-2438400D01*
G01X546100Y-2438400D01*
G01X239298Y-2906298D02*
G01X1021565Y-2906298D01*
G01X1021565Y-3060700D02*
G01X1117600Y-3060700D01*
G01X1181100Y-2997200D01*
G01X2032000Y-3669127D02*
G01X2032000Y-3517900D01*
G01X1714500Y-3517900D02*
G01X1663700Y-3568700D01*
G01X1206500Y-3568700D01*
G01X2032000Y-3517900D02*
G01X1905000Y-3390900D01*
G01X1300126Y-3390900D01*
G01X1205179Y-3485847D01*
G01X4229100Y-2524912D02*
G01X4229100Y-2641600D01*
G01X4311933Y-2724433D01*
G01X4863145Y-2724433D01*
G54D22*
G01X4413238Y-2336800D02*
G01X4318000Y-2336800D01*
G01X4530985Y-2401518D02*
G01X4477956Y-2401518D01*
G01X4413238Y-2336800D01*
G01X4786985Y-2657518D02*
G01X4530985Y-2401518D01*
G54D21*
G01X4152900Y-2768600D02*
G01X4152900Y-2438400D01*
G01X4178300Y-2413000D01*
G01X4229100Y-2413000D01*
G01X7468680Y-394779D02*
G01X7327900Y-394779D01*
G01X7645400Y-571500D02*
G01X7468680Y-394779D01*
G01X5257800Y-2717800D02*
G01X4978400Y-2717800D01*
G54D22*
G01X5321300Y-3365500D02*
G01X5463460Y-3365500D01*
G54D23*
G01X812800Y-3416300D02*
G01X927100Y-3416300D01*
G54D24*
G01X927100Y-3416300D02*
G01X990600Y-3416300D01*
G01X2095500Y-2311400D01*
G54D21*
G01X4750399Y-2850439D02*
G01X4693960Y-2794000D01*
G01X4178300Y-2794000D01*
G01X4152900Y-2768600D01*
G01X4432300Y-3182087D02*
G01X4806718Y-3182087D01*
G01X4882918Y-3105887D01*
G54D24*
G01X4533900Y-2984500D02*
G01X4548701Y-2969699D01*
G01X2095500Y-2311400D02*
G01X3200400Y-2311400D01*
G01X3873500Y-2984500D01*
G01X4533900Y-2984500D01*
G01X5791200Y-4076700D02*
G01X4191000Y-4076700D01*
G01X5829300Y-3898900D02*
G01X5829300Y-4038600D01*
G01X5791200Y-4076700D01*
G01X4191000Y-4076700D02*
G01X3873500Y-3759200D01*
G01X3873500Y-2984500D01*
G54D23*
G01X6502400Y-3644900D02*
G01X6592202Y-3555098D01*
G01X6592202Y-3110598D02*
G01X6743700Y-2959100D01*
G01X6743700Y-2235200D01*
G01X6592202Y-3555098D02*
G01X6592202Y-3110598D01*
G54D21*
G01X7162800Y-1881141D02*
G01X6996159Y-1714500D01*
G54D23*
G01X6743700Y-2235200D02*
G01X6632898Y-2124398D01*
G01X6632898Y-1910770D01*
G54D25*
G01X5392052Y-3746500D02*
G01X5614455Y-3524098D01*
G01X5829300Y-3524098D01*
G01X6908800Y-2755900D02*
G01X6959600Y-2755900D01*
G01X7124700Y-2590800D01*
G01X7467600Y-2590800D01*
G54D21*
G01X203200Y-2667000D02*
G01X203200Y-2870200D01*
G01X239298Y-2906298D01*
G54D23*
G01X6083300Y-3898900D02*
G01X6083300Y-3683000D01*
G01X6121400Y-3644900D01*
G01X6502400Y-3644900D01*
G54D21*
G01X5740400Y-3403600D02*
G01X5740400Y-3171179D01*
G01X6247170Y-2667000D02*
G01X6248400Y-2668230D01*
G01X5803376Y-2673725D02*
G01X5810101Y-2667000D01*
G01X6247170Y-2667000D01*
G54D25*
G01X6299200Y-3505200D02*
G01X5848198Y-3505200D01*
G01X5829300Y-3524098D01*
G01X6451600Y-3352800D02*
G01X6299200Y-3505200D01*
G01X6591300Y-2679700D02*
G01X6591300Y-2895600D01*
G01X6451600Y-3035300D01*
G01X6451600Y-3352800D01*
G54D21*
G01X7594600Y-1982064D02*
G01X7645400Y-1931264D01*
G01X7645400Y-571500D01*
G01X5715000Y-2978223D02*
G01X5715000Y-2235200D01*
G01X6996159Y-1714500D02*
G01X6121400Y-1714500D01*
G01X5969000Y-1866900D01*
G01X5702300Y-1866900D01*
G01X5415784Y-2151884D02*
G01X5415784Y-2808021D01*
G01X5379005Y-2844800D01*
G04 Track End*

M02*

