G04 Layer: BottomSilkscreenLayer*
G04 EasyEDA Pro v3.2.69, 2026-03-31 14:48:10*
G04 Gerber Generator version 0.3*
G04 Scale: 100 percent, Rotated: No, Reflected: No*
G04 Dimensions in millimeters*
G04 Leading zeros omitted, absolute positions, 4 integers and 5 decimals*
G04 Generated by one-click*
%FSLAX45Y45*%
%MOMM*%
%ADD10C,0.1524*%
%ADD11C,0.254*%
%ADD12C,0.1999*%
%ADD13C,0.2*%
%ADD14C,0.7517*%
G75*


G04 Text Start*
G54D10*
G01X6159586Y-653113D02*
G01X6159586Y-588089D01*
G01X6159586Y-653113D02*
G01X6187526Y-653113D01*
G01X6196670Y-650065D01*
G01X6199718Y-647017D01*
G01X6203020Y-640667D01*
G01X6203020Y-634571D01*
G01X6199718Y-628475D01*
G01X6196670Y-625427D01*
G01X6187526Y-622125D01*
G01X6159586Y-622125D01*
G01X6181176Y-622125D02*
G01X6203020Y-588089D01*
G01X6233246Y-640667D02*
G01X6239342Y-643969D01*
G01X6248486Y-653113D01*
G01X6248486Y-588089D01*
G01X6309446Y-653113D02*
G01X6278712Y-609933D01*
G01X6324940Y-609933D01*
G01X6309446Y-653113D02*
G01X6309446Y-588089D01*
G01X5697220Y-5010089D02*
G01X5697220Y-4963607D01*
G01X5700268Y-4954463D01*
G01X5706618Y-4948113D01*
G01X5715762Y-4945065D01*
G01X5722112Y-4945065D01*
G01X5731256Y-4948113D01*
G01X5737352Y-4954463D01*
G01X5740654Y-4963607D01*
G01X5740654Y-5010089D01*
G01X5770880Y-4997643D02*
G01X5776976Y-5000945D01*
G01X5786120Y-5010089D01*
G01X5786120Y-4945065D01*
G01X5834888Y-5010089D02*
G01X5825490Y-5007041D01*
G01X5819394Y-4997643D01*
G01X5816346Y-4982403D01*
G01X5816346Y-4973005D01*
G01X5819394Y-4957511D01*
G01X5825490Y-4948113D01*
G01X5834888Y-4945065D01*
G01X5840984Y-4945065D01*
G01X5850382Y-4948113D01*
G01X5856478Y-4957511D01*
G01X5859526Y-4973005D01*
G01X5859526Y-4982403D01*
G01X5856478Y-4997643D01*
G01X5850382Y-5007041D01*
G01X5840984Y-5010089D01*
G01X5834888Y-5010089D01*
G01X7754831Y-1718721D02*
G01X7751783Y-1724817D01*
G01X7745687Y-1731167D01*
G01X7739337Y-1734215D01*
G01X7730193Y-1737263D01*
G01X7714699Y-1737263D01*
G01X7705301Y-1734215D01*
G01X7699205Y-1731167D01*
G01X7692855Y-1724817D01*
G01X7689807Y-1718721D01*
G01X7689807Y-1706275D01*
G01X7692855Y-1700179D01*
G01X7699205Y-1693829D01*
G01X7705301Y-1690781D01*
G01X7714699Y-1687733D01*
G01X7730193Y-1687733D01*
G01X7739337Y-1690781D01*
G01X7745687Y-1693829D01*
G01X7751783Y-1700179D01*
G01X7754831Y-1706275D01*
G01X7754831Y-1718721D01*
G01X7702253Y-1709323D02*
G01X7683711Y-1690781D01*
G01X7754831Y-1620423D02*
G01X7754831Y-1651411D01*
G01X7727145Y-1654459D01*
G01X7730193Y-1651411D01*
G01X7733241Y-1642267D01*
G01X7733241Y-1632869D01*
G01X7730193Y-1623471D01*
G01X7723843Y-1617375D01*
G01X7714699Y-1614327D01*
G01X7708349Y-1614327D01*
G01X7699205Y-1617375D01*
G01X7692855Y-1623471D01*
G01X7689807Y-1632869D01*
G01X7689807Y-1642267D01*
G01X7692855Y-1651411D01*
G01X7696157Y-1654459D01*
G01X7702253Y-1657507D01*
G04 Text End*

G04 PolygonModel Start*
G01X6803319Y-147241D02*
G01X6946814Y-147241D01*
G01X6946814Y-147241D02*
G01X6946814Y-538559D01*
G01X6946814Y-538559D02*
G01X6803319Y-538559D01*
G01X6303081Y-147241D02*
G01X6159586Y-147241D01*
G01X6159586Y-147241D02*
G01X6159586Y-538559D01*
G01X6159586Y-538559D02*
G01X6303081Y-538559D01*
G54D11*
G01X6337300Y-4279900D02*
G01X6337300Y-4879901D01*
G01X6083300Y-4279900D02*
G01X6083300Y-4879901D01*
G01X6591300Y-4279900D02*
G01X6591300Y-4879901D01*
G01X5829300Y-4279900D02*
G01X5829300Y-4879901D01*
G01X5702300Y-4279900D02*
G01X5702300Y-4025900D01*
G01X6718300Y-4025900D01*
G01X6718300Y-4279900D01*
G01X5702300Y-4279900D01*
G54D12*
G01X7637902Y-1734883D02*
G01X7107804Y-1734883D01*
G01X7107804Y-1734883D02*
G01X7107804Y-144843D01*
G01X7107804Y-144843D02*
G01X7637902Y-144843D01*
G01X7637902Y-144843D02*
G01X7637902Y-1734883D01*
G01X7587864Y-1734883D02*
G01X7587864Y-144843D01*
G54D13*
G01X7124974Y-1734883D02*
G02X7277374Y-1734883I76200J0D01*
G01X7277100Y-152400D02*
G02X7124700Y-152400I-76200J0D01*

M02*

