G04 Layer: TopLayer*
G04 EasyEDA Pro v3.2.69, 2026-03-31 14:48:10*
G04 Gerber Generator version 0.3*
G04 Scale: 100 percent, Rotated: No, Reflected: No*
G04 Dimensions in millimeters*
G04 Leading zeros omitted, absolute positions, 4 integers and 5 decimals*
G04 Generated by one-click*
%FSLAX45Y45*%
%MOMM*%
%AMPolygonMacro1*4,1,16,-2.28001,-1.84,-2.775,-1.84,-2.775,-0.935,-2.28001,-0.935,-2.28001,2.26499,-1.52999,2.26499,-1.52999,1.765,1.52999,1.765,1.52999,2.26499,2.28001,2.26499,2.28001,-0.935,2.775,-0.935,2.775,-1.84,2.28001,-1.84,2.28001,-2.26499,-2.28001,-2.26499,-2.28001,-1.84,0*%
%ADD10C,0.2032*%
%ADD11R,0.8X0.9*%
%ADD12R,1.41X1.35001*%
%ADD13R,1.72799X1.48501*%
%ADD14R,1.48501X1.72799*%
%ADD15R,1.35001X1.41*%
%ADD16R,0.9X0.8*%
%ADD17R,2.0X4.49999*%
%ADD18R,0.7546X1.0*%
%ADD19R,0.75001X1.0*%
%ADD20PolygonMacro1*%
%ADD21R,0.7X1.25001*%
%ADD22R,0.80648X0.86401*%
%ADD23R,0.86401X0.80648*%
%ADD24C,1.8*%
%ADD25O,2.69999X3.69999*%
%ADD26R,0.9X0.4*%
%ADD27R,2.49999X1.7*%
%ADD28R,0.35001X0.62499*%
%ADD29R,1.4X1.2*%
%ADD30O,2.045X0.58801*%
%ADD31R,1.49352X0.35001*%
%ADD32R,1.0X2.79999*%
%ADD33R,0.6X1.7*%
%ADD34R,1.8X1.8*%
%ADD35R,0.665X0.28001*%
%ADD36R,1.65001X2.4*%
%ADD37O,4.3X2.3*%
%ADD38R,1.15001X1.4*%
%ADD39C,1.6*%
%ADD40R,1.13254X1.37701*%
%ADD41C,2.49999*%
%ADD42C,2.89999*%
%ADD43R,2.89999X2.89999*%
%ADD44C,0.6096*%
%ADD45C,0.254*%
%ADD46C,0.381*%
%ADD47C,0.3048*%
%ADD48C,1.27*%
%ADD49C,0.889*%
%ADD50C,0.762*%
G75*


G04 Copper Start*
G36*
G01X6227692Y-425460D02*
G01X6441440Y-639208D01*
G01X6441440Y-1341992D01*
G01X6383892Y-1399540D01*
G01X4659595Y-1399540D01*
G01X4124960Y-864905D01*
G01X4124960Y-702499D01*
G01X4124187Y-698611D01*
G01X4121984Y-695315D01*
G01X4067185Y-640516D01*
G01X4063889Y-638313D01*
G01X4060001Y-637540D01*
G01X3534808Y-637540D01*
G01X3515360Y-618092D01*
G01X3515360Y-137160D01*
G01X4275692Y-137160D01*
G01X4342140Y-203609D01*
G01X4342140Y-415300D01*
G01X4343501Y-420380D01*
G01X4347220Y-424099D01*
G01X4352300Y-425460D01*
G01X6227692Y-425460D01*
G37*
G36*
G01X4076483Y-865052D02*
G01X4078986Y-867554D01*
G01X4078986Y-869114D01*
G01X4080206Y-878383D01*
G01X4083784Y-887021D01*
G01X4089476Y-894438D01*
G01X4320540Y-1125503D01*
G01X4320540Y-1485900D01*
G01X4321313Y-1489788D01*
G01X4323516Y-1493084D01*
G01X4483805Y-1653373D01*
G01X4487101Y-1655576D01*
G01X4490989Y-1656349D01*
G01X4804281Y-1656349D01*
G01X4968240Y-1820308D01*
G01X4968240Y-1976992D01*
G01X4936092Y-2009140D01*
G01X4800976Y-2009140D01*
G01X4742062Y-1950226D01*
G01X4738766Y-1948024D01*
G01X4734878Y-1947250D01*
G01X4571060Y-1947250D01*
G01X4571060Y-1843100D01*
G01X4569699Y-1838020D01*
G01X4565980Y-1834301D01*
G01X4560900Y-1832940D01*
G01X4387309Y-1832940D01*
G01X4163060Y-1608692D01*
G01X4163060Y-1193800D01*
G01X4162287Y-1189912D01*
G01X4160084Y-1186616D01*
G01X3947160Y-973692D01*
G01X3947160Y-712843D01*
G01X4073507Y-712843D01*
G01X4073507Y-857867D01*
G01X4074281Y-861756D01*
G01X4076483Y-865052D01*
G37*
G36*
G01X3947160Y-1824467D02*
G01X4313818Y-1824467D01*
G01X4357776Y-1868425D01*
G01X4364783Y-1873876D01*
G01X4372917Y-1877436D01*
G01X4381676Y-1878886D01*
G01X4391972Y-1889182D01*
G01X4395268Y-1891384D01*
G01X4399156Y-1892158D01*
G01X4525086Y-1892158D01*
G01X4525086Y-1957410D01*
G01X4525340Y-1961668D01*
G01X4525340Y-2016050D01*
G01X4519552Y-2021839D01*
G01X3953907Y-2021839D01*
G01X3947160Y-2015092D01*
G01X3947160Y-1824467D01*
G37*
G36*
G01X4610753Y-2250440D02*
G01X4597527Y-2246359D01*
G01X4594860Y-2243692D01*
G01X4594860Y-2118721D01*
G01X4746879Y-2118721D01*
G01X4750767Y-2117947D01*
G01X4754063Y-2115745D01*
G01X4802248Y-2067560D01*
G01X4920000Y-2067560D01*
G01X4920000Y-2173049D01*
G01X4827191Y-2173049D01*
G01X4823303Y-2173822D01*
G01X4820007Y-2176025D01*
G01X4793416Y-2202616D01*
G01X4791213Y-2205912D01*
G01X4790440Y-2209800D01*
G01X4790440Y-2409867D01*
G01X4749309Y-2450998D01*
G01X4638867Y-2450998D01*
G01X4629304Y-2449698D01*
G01X4573627Y-2449698D01*
G01X4573627Y-2449327D01*
G01X4629304Y-2449327D01*
G01X4639853Y-2447738D01*
G01X4649466Y-2443112D01*
G01X4657290Y-2435860D01*
G01X4686300Y-2435860D01*
G01X4690188Y-2435087D01*
G01X4693484Y-2432884D01*
G01X4706184Y-2420184D01*
G01X4708387Y-2416888D01*
G01X4709160Y-2413000D01*
G01X4709160Y-2311400D01*
G01X4708387Y-2307512D01*
G01X4706184Y-2304216D01*
G01X4655384Y-2253416D01*
G01X4652088Y-2251213D01*
G01X4648200Y-2250440D01*
G01X4610753Y-2250440D01*
G37*
G36*
G01X4866797Y-2400214D02*
G01X4866797Y-2245360D01*
G01X5082540Y-2245360D01*
G01X5082540Y-2400214D01*
G01X4866797Y-2400214D01*
G37*
G36*
G01X4423808Y-2270760D02*
G01X4557201Y-2270845D01*
G01X4559376Y-2273224D01*
G01X4572076Y-2285924D01*
G01X4579493Y-2291616D01*
G01X4588131Y-2295194D01*
G01X4597400Y-2296414D01*
G01X4633365Y-2296414D01*
G01X4663186Y-2326235D01*
G01X4663186Y-2389886D01*
G01X4573627Y-2389886D01*
G01X4573627Y-2379513D01*
G01X4572030Y-2368939D01*
G01X4567383Y-2359308D01*
G01X4560099Y-2351478D01*
G01X4550829Y-2346148D01*
G01X4542187Y-2337506D01*
G01X4538891Y-2335304D01*
G01X4535003Y-2334530D01*
G01X4423629Y-2334530D01*
G01X4423629Y-2270940D01*
G01X4423808Y-2270760D01*
G37*
G36*
G01X4260600Y-2303631D02*
G01X4216273Y-2347959D01*
G01X4201295Y-2352819D01*
G01X4187886Y-2361074D01*
G01X4176802Y-2372259D01*
G01X4168669Y-2385743D01*
G01X4163945Y-2400764D01*
G01X4162897Y-2416476D01*
G01X4165585Y-2431992D01*
G01X4171855Y-2446436D01*
G01X4181356Y-2458993D01*
G01X4193550Y-2468956D01*
G01X4181288Y-2478990D01*
G01X4171756Y-2491647D01*
G01X4165501Y-2506204D01*
G01X4162878Y-2521829D01*
G01X4164037Y-2537631D01*
G01X4168914Y-2552706D01*
G01X4177228Y-2566194D01*
G01X4188505Y-2577324D01*
G01X4202101Y-2585459D01*
G01X4217239Y-2590137D01*
G01X4233054Y-2591088D01*
G01X4248644Y-2588260D01*
G01X4255445Y-2588260D01*
G01X4262960Y-2594249D01*
G01X4271798Y-2598025D01*
G01X4281321Y-2599314D01*
G01X4303389Y-2599314D01*
G01X4314571Y-2600554D01*
G01X4335407Y-2600554D01*
G01X4335407Y-2656840D01*
G01X4144408Y-2656840D01*
G01X4075760Y-2588192D01*
G01X4075760Y-2084781D01*
G01X4513600Y-2084781D01*
G01X4513600Y-2160349D01*
G01X4391640Y-2160349D01*
G01X4387752Y-2161122D01*
G01X4384455Y-2163325D01*
G01X4348916Y-2198864D01*
G01X4346713Y-2202160D01*
G01X4345940Y-2206048D01*
G01X4345940Y-2243692D01*
G01X4319116Y-2270515D01*
G01X4307409Y-2271357D01*
G01X4296035Y-2274251D01*
G01X4285348Y-2279105D01*
G01X4275686Y-2285767D01*
G01X4267349Y-2294029D01*
G01X4260600Y-2303631D01*
G37*
G36*
G01X251460Y-2810284D02*
G01X251460Y-2791915D01*
G01X338103Y-2791915D01*
G01X348525Y-2790365D01*
G01X358044Y-2785850D01*
G01X365838Y-2778760D01*
G01X402192Y-2778760D01*
G01X459740Y-2836308D01*
G01X459740Y-3119992D01*
G01X386516Y-3193216D01*
G01X384313Y-3196512D01*
G01X383540Y-3200400D01*
G01X383540Y-3202686D01*
G01X369591Y-3202686D01*
G01X364384Y-3204081D01*
G01X360572Y-3207893D01*
G01X359177Y-3213100D01*
G01X359177Y-3616300D01*
G01X360572Y-3621507D01*
G01X364384Y-3625318D01*
G01X369591Y-3626714D01*
G01X383540Y-3626714D01*
G01X383540Y-3653863D01*
G01X108173Y-3653863D01*
G01X108173Y-3093895D01*
G01X194708Y-3007360D01*
G01X292100Y-3007360D01*
G01X295988Y-3006587D01*
G01X299284Y-3004384D01*
G01X362784Y-2940884D01*
G01X364987Y-2937588D01*
G01X365760Y-2933700D01*
G01X365760Y-2908852D01*
G01X370211Y-2901964D01*
G01X372978Y-2894245D01*
G01X373917Y-2886098D01*
G01X373917Y-2846098D01*
G01X372164Y-2835031D01*
G01X367077Y-2825047D01*
G01X359154Y-2817124D01*
G01X349170Y-2812037D01*
G01X338103Y-2810284D01*
G01X251460Y-2810284D01*
G37*
G36*
G01X406400Y-2732786D02*
G01X259258Y-2732786D01*
G01X259258Y-2727960D01*
G01X342900Y-2727960D01*
G01X346788Y-2727187D01*
G01X350084Y-2724984D01*
G01X350289Y-2724779D01*
G01X359866Y-2719546D01*
G01X367421Y-2711672D01*
G01X372255Y-2701888D01*
G01X373917Y-2691102D01*
G01X373917Y-2651102D01*
G01X372978Y-2642955D01*
G01X370211Y-2635236D01*
G01X365760Y-2628348D01*
G01X365760Y-2514600D01*
G01X364399Y-2509520D01*
G01X360680Y-2505801D01*
G01X355600Y-2504440D01*
G01X347108Y-2504440D01*
G01X327660Y-2484992D01*
G01X327660Y-1714500D01*
G01X326887Y-1710612D01*
G01X324684Y-1707316D01*
G01X138574Y-1521206D01*
G01X823321Y-1521206D01*
G01X825293Y-1542487D01*
G01X831141Y-1563043D01*
G01X840668Y-1582174D01*
G01X853547Y-1599229D01*
G01X869341Y-1613627D01*
G01X887512Y-1624878D01*
G01X907441Y-1632599D01*
G01X928449Y-1636526D01*
G01X949820Y-1636526D01*
G01X970828Y-1632599D01*
G01X990757Y-1624878D01*
G01X1008928Y-1613627D01*
G01X1024722Y-1599229D01*
G01X1037601Y-1582174D01*
G01X1047128Y-1563043D01*
G01X1052976Y-1542487D01*
G01X1054948Y-1521206D01*
G01X1052976Y-1499925D01*
G01X1047128Y-1479369D01*
G01X1037601Y-1460238D01*
G01X1024722Y-1443183D01*
G01X1008928Y-1428785D01*
G01X990757Y-1417534D01*
G01X970828Y-1409813D01*
G01X949820Y-1405886D01*
G01X928449Y-1405886D01*
G01X907441Y-1409813D01*
G01X887512Y-1417534D01*
G01X869341Y-1428785D01*
G01X853547Y-1443183D01*
G01X840668Y-1460238D01*
G01X831141Y-1479369D01*
G01X825293Y-1499925D01*
G01X823321Y-1521206D01*
G01X823321Y-1521206D01*
G01X138574Y-1521206D01*
G01X48260Y-1430892D01*
G01X48260Y-713100D01*
G01X605160Y-713100D01*
G01X609048Y-712327D01*
G01X612344Y-710124D01*
G01X858908Y-463560D01*
G01X1034295Y-463560D01*
G01X1038183Y-462787D01*
G01X1041480Y-460584D01*
G01X1124784Y-377280D01*
G01X1126987Y-373984D01*
G01X1127760Y-370095D01*
G01X1127760Y-73660D01*
G01X2700892Y-73660D01*
G01X2771140Y-143908D01*
G01X2771140Y-452992D01*
G01X2738992Y-485140D01*
G01X2298700Y-485140D01*
G01X2294812Y-485913D01*
G01X2291516Y-488116D01*
G01X1694616Y-1085016D01*
G01X1692413Y-1088312D01*
G01X1691640Y-1092200D01*
G01X1691640Y-1430892D01*
G01X1380092Y-1742440D01*
G01X812800Y-1742440D01*
G01X808912Y-1743213D01*
G01X805616Y-1745416D01*
G01X640516Y-1910516D01*
G01X638313Y-1913812D01*
G01X637540Y-1917700D01*
G01X637540Y-2446892D01*
G01X579992Y-2504440D01*
G01X475208Y-2504440D01*
G01X470128Y-2505801D01*
G01X466409Y-2509520D01*
G01X465048Y-2514600D01*
G01X465048Y-2643737D01*
G01X464283Y-2651102D01*
G01X464283Y-2691102D01*
G01X465048Y-2698467D01*
G01X465048Y-2708736D01*
G01X464283Y-2716101D01*
G01X464283Y-2717718D01*
G01X435225Y-2746776D01*
G01X431724Y-2743276D01*
G01X424307Y-2737584D01*
G01X415669Y-2734006D01*
G01X406400Y-2732786D01*
G37*
G36*
G01X517803Y-2969858D02*
G01X505714Y-2957769D01*
G01X505714Y-2856913D01*
G01X590097Y-2856913D01*
G01X594387Y-2856655D01*
G01X615058Y-2877326D01*
G01X615058Y-3112132D01*
G01X605639Y-3121551D01*
G01X520779Y-3121551D01*
G01X520779Y-2977043D01*
G01X520005Y-2973154D01*
G01X517803Y-2969858D01*
G37*
G36*
G01X1554197Y-3431085D02*
G01X1548508Y-3431540D01*
G01X1490108Y-3431540D01*
G01X1457960Y-3399392D01*
G01X1457960Y-3086100D01*
G01X1456599Y-3081020D01*
G01X1452880Y-3077301D01*
G01X1447800Y-3075940D01*
G01X1432560Y-3075940D01*
G01X1432560Y-2556908D01*
G01X1439308Y-2550160D01*
G01X1621392Y-2550160D01*
G01X1666240Y-2595008D01*
G01X1666240Y-2631186D01*
G01X1651000Y-2631186D01*
G01X1645793Y-2632581D01*
G01X1641981Y-2636393D01*
G01X1640586Y-2641600D01*
G01X1640586Y-3048000D01*
G01X1641605Y-3052492D01*
G01X1644461Y-3056105D01*
G01X1648597Y-3058133D01*
G01X1595943Y-3110787D01*
G01X1593740Y-3114083D01*
G01X1592967Y-3117971D01*
G01X1592967Y-3290268D01*
G01X1548915Y-3290268D01*
G01X1545027Y-3291042D01*
G01X1541731Y-3293244D01*
G01X1532763Y-3302212D01*
G01X1530560Y-3305508D01*
G01X1529787Y-3309396D01*
G01X1529787Y-3310695D01*
G01X1523613Y-3318266D01*
G01X1519715Y-3327224D01*
G01X1518383Y-3336902D01*
G01X1518383Y-3376902D01*
G01X1520136Y-3387969D01*
G01X1525223Y-3397953D01*
G01X1533146Y-3405876D01*
G01X1543130Y-3410963D01*
G01X1554197Y-3412716D01*
G01X1640840Y-3412716D01*
G01X1640840Y-3431085D01*
G01X1554197Y-3431085D01*
G37*
G36*
G01X1294009Y-3367037D02*
G01X1292860Y-3367037D01*
G01X1292860Y-3139549D01*
G01X1411986Y-3139549D01*
G01X1411986Y-3361546D01*
G01X1405058Y-3368473D01*
G01X1398741Y-3366688D01*
G01X1392203Y-3366087D01*
G01X1302203Y-3366087D01*
G01X1294009Y-3367037D01*
G37*
G36*
G01X2219960Y-4251083D02*
G01X2219960Y-3880154D01*
G01X2320831Y-3880154D01*
G01X2320831Y-3887643D01*
G01X2319282Y-3900589D01*
G01X2319282Y-3974346D01*
G01X2321153Y-3988553D01*
G01X2326640Y-4001791D01*
G01X2326640Y-4038600D01*
G01X2327413Y-4042488D01*
G01X2329616Y-4045784D01*
G01X2402840Y-4119008D01*
G01X2402840Y-4262992D01*
G01X2393281Y-4272551D01*
G01X2241428Y-4272551D01*
G01X2219960Y-4251083D01*
G37*
G36*
G01X2834640Y-4282445D02*
G01X2404513Y-4282445D01*
G01X2401968Y-4279900D01*
G01X2408880Y-4272988D01*
G01X2411083Y-4269692D01*
G01X2411856Y-4265804D01*
G01X2411856Y-4116613D01*
G01X2834640Y-4116613D01*
G01X2834640Y-4282445D01*
G37*
G36*
G01X1763014Y-2641600D02*
G01X1762760Y-2639314D01*
G01X1762760Y-2397760D01*
G01X2313940Y-2397760D01*
G01X2313940Y-3505200D01*
G01X2314713Y-3509088D01*
G01X2316916Y-3512384D01*
G01X2328049Y-3523518D01*
G01X2328049Y-3565278D01*
G01X2322684Y-3575471D01*
G01X2320831Y-3586841D01*
G01X2320831Y-3638526D01*
G01X2216634Y-3638526D01*
G01X2208108Y-3639555D01*
G01X2200073Y-3642585D01*
G01X2192990Y-3647440D01*
G01X2188608Y-3647440D01*
G01X2106541Y-3565373D01*
G01X2106541Y-2628900D01*
G01X2105180Y-2623820D01*
G01X2101461Y-2620101D01*
G01X2096381Y-2618740D01*
G01X2044700Y-2618740D01*
G01X2039620Y-2620101D01*
G01X2035901Y-2623820D01*
G01X2034540Y-2628900D01*
G01X2034540Y-3069192D01*
G01X2002392Y-3101340D01*
G01X1762760Y-3101340D01*
G01X1762760Y-3050286D01*
G01X1763014Y-3048000D01*
G01X1763014Y-2641600D01*
G37*
G36*
G01X4569460Y-2692400D02*
G01X4569460Y-2636278D01*
G01X4572570Y-2628150D01*
G01X4573627Y-2619512D01*
G01X4573627Y-2599314D01*
G01X4629304Y-2599314D01*
G01X4638827Y-2598025D01*
G01X4647665Y-2594249D01*
G01X4655180Y-2588260D01*
G01X4669392Y-2588260D01*
G01X4699436Y-2618304D01*
G01X4699436Y-2808040D01*
G01X4691073Y-2820852D01*
G01X4685870Y-2835241D01*
G01X4684105Y-2850439D01*
G01X4685870Y-2865637D01*
G01X4691073Y-2880025D01*
G01X4699436Y-2892838D01*
G01X4699436Y-2918501D01*
G01X4544060Y-2918501D01*
G01X4544060Y-2722008D01*
G01X4566484Y-2699584D01*
G01X4568687Y-2696288D01*
G01X4569460Y-2692400D01*
G37*
G36*
G01X4215964Y-2725124D02*
G01X4238274Y-2702814D01*
G01X4345567Y-2702814D01*
G01X4349825Y-2702560D01*
G01X4368800Y-2702560D01*
G01X4373880Y-2701199D01*
G01X4377599Y-2697480D01*
G01X4378960Y-2692400D01*
G01X4378960Y-2679944D01*
G01X4380770Y-2673584D01*
G01X4381381Y-2667000D01*
G01X4381381Y-2626017D01*
G01X4383067Y-2619866D01*
G01X4383635Y-2613513D01*
G01X4383635Y-2585512D01*
G01X4382908Y-2578334D01*
G01X4380758Y-2571447D01*
G01X4378960Y-2565156D01*
G01X4378960Y-2531205D01*
G01X4382446Y-2522662D01*
G01X4383635Y-2513513D01*
G01X4383635Y-2485512D01*
G01X4381902Y-2474506D01*
G01X4383635Y-2463500D01*
G01X4383635Y-2435499D01*
G01X4381906Y-2424506D01*
G01X4383635Y-2413513D01*
G01X4383635Y-2385512D01*
G01X4383632Y-2385060D01*
G01X4523486Y-2385060D01*
G01X4523486Y-2471468D01*
G01X4524373Y-2479390D01*
G01X4526990Y-2486918D01*
G01X4526990Y-2513513D01*
G01X4528719Y-2524506D01*
G01X4526990Y-2535499D01*
G01X4526990Y-2562650D01*
G01X4524373Y-2570179D01*
G01X4523486Y-2578100D01*
G01X4523486Y-2650346D01*
G01X4463216Y-2710616D01*
G01X4461013Y-2713912D01*
G01X4460240Y-2717800D01*
G01X4460240Y-2869931D01*
G01X4411670Y-2918501D01*
G01X4215964Y-2918501D01*
G01X4215964Y-2725124D01*
G37*
G36*
G01X7488792Y-1729740D02*
G01X6969760Y-1729740D01*
G01X6969760Y-1604408D01*
G01X7042984Y-1531184D01*
G01X7045187Y-1527888D01*
G01X7045960Y-1524000D01*
G01X7045960Y-1343660D01*
G01X7495540Y-1343660D01*
G01X7495540Y-1722992D01*
G01X7488792Y-1729740D01*
G37*
G36*
G01X4768532Y-2496793D02*
G01X4778665Y-2486660D01*
G01X4979322Y-2486660D01*
G01X4979322Y-2558159D01*
G01X4755575Y-2558159D01*
G01X4704877Y-2507460D01*
G01X4704696Y-2507282D01*
G01X4743207Y-2507282D01*
G01X4752477Y-2506062D01*
G01X4761114Y-2502484D01*
G01X4768532Y-2496793D01*
G37*
G36*
G01X4866749Y-2558157D02*
G01X4866749Y-2476579D01*
G01X4979322Y-2476579D01*
G01X4979322Y-2558157D01*
G01X4866749Y-2558157D01*
G37*
G36*
G01X7193716Y-1135816D02*
G01X7031598Y-1297933D01*
G01X7020174Y-1301275D01*
G01X7010476Y-1308176D01*
G01X7003575Y-1317874D01*
G01X7000233Y-1329298D01*
G01X6993492Y-1336040D01*
G01X6570108Y-1336040D01*
G01X6550560Y-1316491D01*
G01X6550560Y-841471D01*
G01X6708771Y-683260D01*
G01X7717392Y-683260D01*
G01X7837865Y-803733D01*
G01X7837865Y-1132840D01*
G01X7200900Y-1132840D01*
G01X7197012Y-1133613D01*
G01X7193716Y-1135816D01*
G37*
G36*
G01X6688692Y-3591560D02*
G01X6708140Y-3611008D01*
G01X6708140Y-4130040D01*
G01X6245860Y-4130040D01*
G01X6245860Y-3591560D01*
G01X6688692Y-3591560D01*
G37*
G36*
G01X4213860Y-3073267D02*
G01X4213860Y-2727960D01*
G01X4359810Y-2727960D01*
G01X4359810Y-3073267D01*
G01X4213860Y-3073267D01*
G37*
G36*
G01X5510873Y-3936914D02*
G01X5510873Y-3825016D01*
G01X5515724Y-3820165D01*
G01X5664231Y-3820165D01*
G01X5668119Y-3819392D01*
G01X5671415Y-3817189D01*
G01X5693840Y-3794765D01*
G01X6187440Y-3794765D01*
G01X6187440Y-4130040D01*
G01X5699791Y-4130040D01*
G01X5699791Y-4000531D01*
G01X5699018Y-3996643D01*
G01X5696815Y-3993347D01*
G01X5643358Y-3939889D01*
G01X5640062Y-3937687D01*
G01X5636174Y-3936914D01*
G01X5510873Y-3936914D01*
G37*
G36*
G01X1828721Y-4031773D02*
G01X1567616Y-4292878D01*
G01X1565912Y-4295140D01*
G01X276860Y-4295140D01*
G01X276860Y-3972560D01*
G01X1574800Y-3972560D01*
G01X1578688Y-3971787D01*
G01X1581984Y-3969584D01*
G01X1747084Y-3804484D01*
G01X1749287Y-3801188D01*
G01X1750060Y-3797300D01*
G01X1750060Y-3782060D01*
G01X1828721Y-3782060D01*
G01X1828721Y-4031773D01*
G37*
G36*
G01X2374379Y-3344100D02*
G01X2374379Y-2410460D01*
G01X2733040Y-2410460D01*
G01X2733040Y-3344100D01*
G01X2374379Y-3344100D01*
G37*
G36*
G01X480314Y-3213100D02*
G01X480060Y-3210814D01*
G01X480060Y-3172460D01*
G01X719692Y-3172460D01*
G01X739140Y-3191908D01*
G01X739140Y-3226002D01*
G01X740503Y-3231085D01*
G01X744226Y-3234805D01*
G01X749310Y-3236162D01*
G01X948296Y-3235964D01*
G01X980440Y-3268108D01*
G01X980440Y-3479800D01*
G01X981801Y-3484880D01*
G01X985520Y-3488599D01*
G01X990600Y-3489960D01*
G01X1135104Y-3489960D01*
G01X1139423Y-3494280D01*
G01X1142198Y-3506541D01*
G01X1147237Y-3518058D01*
G01X1147237Y-3538989D01*
G01X1141988Y-3553434D01*
G01X1140206Y-3568700D01*
G01X1141988Y-3583966D01*
G01X1147237Y-3598411D01*
G01X1147237Y-3619172D01*
G01X1148010Y-3623060D01*
G01X1150213Y-3626357D01*
G01X1198981Y-3675125D01*
G01X1202277Y-3677327D01*
G01X1206165Y-3678100D01*
G01X1422400Y-3678100D01*
G01X1427480Y-3676739D01*
G01X1431199Y-3673020D01*
G01X1432560Y-3667940D01*
G01X1432560Y-3496708D01*
G01X1454012Y-3475256D01*
G01X1473384Y-3475256D01*
G01X1479541Y-3476945D01*
G01X1485900Y-3477514D01*
G01X1550411Y-3477514D01*
G01X1554197Y-3477715D01*
G01X1639653Y-3477715D01*
G01X1639653Y-3496084D01*
G01X1554197Y-3496084D01*
G01X1543411Y-3497747D01*
G01X1533627Y-3502580D01*
G01X1525753Y-3510136D01*
G01X1520520Y-3519712D01*
G01X1516816Y-3523416D01*
G01X1514613Y-3526712D01*
G01X1513840Y-3530600D01*
G01X1513840Y-3722707D01*
G01X1514613Y-3726595D01*
G01X1516816Y-3729891D01*
G01X1539213Y-3752288D01*
G01X1542509Y-3754491D01*
G01X1546397Y-3755264D01*
G01X1548937Y-3755264D01*
G01X1548937Y-3915578D01*
G01X389870Y-3915578D01*
G01X354001Y-3879708D01*
G01X354001Y-3731260D01*
G01X406400Y-3731260D01*
G01X410288Y-3730487D01*
G01X413584Y-3728284D01*
G01X477084Y-3664784D01*
G01X479287Y-3661488D01*
G01X480060Y-3657600D01*
G01X480060Y-3618586D01*
G01X480314Y-3616300D01*
G01X480314Y-3213100D01*
G37*
G36*
G01X4701885Y-3126740D02*
G01X4468792Y-3126740D01*
G01X4456848Y-3120505D01*
G01X4443890Y-3116814D01*
G01X4430453Y-3115818D01*
G01X4417092Y-3117560D01*
G01X4404360Y-3121968D01*
G01X4404360Y-3093424D01*
G01X4405784Y-3083427D01*
G01X4405784Y-2969260D01*
G01X4483100Y-2969260D01*
G01X4486988Y-2968487D01*
G01X4490284Y-2966284D01*
G01X4522224Y-2934344D01*
G01X4524426Y-2931048D01*
G01X4525200Y-2927160D01*
G01X4525200Y-2755112D01*
G01X4560013Y-2720299D01*
G01X4694611Y-2720299D01*
G01X4714240Y-2739928D01*
G01X4714240Y-2794874D01*
G01X4703080Y-2804008D01*
G01X4694159Y-2815339D01*
G01X4687900Y-2828331D01*
G01X4684598Y-2842369D01*
G01X4684410Y-2856789D01*
G01X4687344Y-2870909D01*
G01X4693262Y-2884059D01*
G01X4701885Y-2895619D01*
G01X4701885Y-3126740D01*
G37*
G36*
G01X6873240Y-1958340D02*
G01X6868116Y-1958340D01*
G01X6856725Y-1955158D01*
G01X6844947Y-1954085D01*
G01X6699247Y-1954085D01*
G01X6687469Y-1955158D01*
G01X6676078Y-1958340D01*
G01X6525260Y-1958340D01*
G01X6525260Y-1635760D01*
G01X6873240Y-1635760D01*
G01X6873240Y-1958340D01*
G37*
G36*
G01X6487160Y-1958340D02*
G01X6487160Y-1742931D01*
G01X6488774Y-1732300D01*
G01X6488774Y-1645900D01*
G01X6487309Y-1635760D01*
G01X6619240Y-1635760D01*
G01X6619240Y-1958340D01*
G01X6487160Y-1958340D01*
G37*
G36*
G01X2905760Y-4295140D02*
G01X2905760Y-3883660D01*
G01X3456940Y-3883660D01*
G01X3456940Y-4295140D01*
G01X2905760Y-4295140D01*
G37*
G36*
G01X2067560Y-3776108D02*
G01X2159924Y-3683745D01*
G01X2167179Y-3689002D01*
G01X2175511Y-3692293D01*
G01X2184400Y-3693414D01*
G01X2338209Y-3693414D01*
G01X2346408Y-3692463D01*
G01X2354172Y-3689660D01*
G01X2361088Y-3685154D01*
G01X2391646Y-3685154D01*
G01X2399317Y-3684323D01*
G01X2406632Y-3681868D01*
G01X2413947Y-3684323D01*
G01X2421618Y-3685154D01*
G01X2456619Y-3685154D01*
G01X2466340Y-3683810D01*
G01X2466340Y-3830727D01*
G01X2361402Y-3830727D01*
G01X2354122Y-3825408D01*
G01X2345745Y-3822075D01*
G01X2336800Y-3820940D01*
G01X2209800Y-3820940D01*
G01X2198177Y-3822878D01*
G01X2187813Y-3828484D01*
G01X2179828Y-3837149D01*
G01X2175088Y-3847937D01*
G01X2174240Y-3852001D01*
G01X2174240Y-3852496D01*
G01X2173986Y-3856754D01*
G01X2173986Y-4255291D01*
G01X2174240Y-4259549D01*
G01X2174240Y-4295140D01*
G01X1534160Y-4295140D01*
G01X1534160Y-4023360D01*
G01X1993900Y-4023360D01*
G01X1998980Y-4021999D01*
G01X2002699Y-4018280D01*
G01X2004060Y-4013200D01*
G01X2004060Y-3928508D01*
G01X2064584Y-3867984D01*
G01X2066787Y-3864688D01*
G01X2067560Y-3860800D01*
G01X2067560Y-3776108D01*
G37*
G36*
G01X136906Y-2667000D02*
G01X138085Y-2679446D01*
G01X141579Y-2691449D01*
G01X147265Y-2702583D01*
G01X154940Y-2712452D01*
G01X154940Y-2724150D01*
G01X155713Y-2728038D01*
G01X157916Y-2731334D01*
G01X193040Y-2766458D01*
G01X193040Y-2830716D01*
G01X193813Y-2834605D01*
G01X196016Y-2837901D01*
G01X210099Y-2851984D01*
G01X212956Y-2853992D01*
G01X220820Y-2861481D01*
G01X230567Y-2866268D01*
G01X241300Y-2867914D01*
G01X319786Y-2867914D01*
G01X319786Y-2918865D01*
G01X317114Y-2921538D01*
G01X180006Y-2921538D01*
G01X50004Y-2791535D01*
G01X50004Y-1728085D01*
G01X258738Y-1728085D01*
G01X258738Y-2300898D01*
G01X259511Y-2304786D01*
G01X261714Y-2308082D01*
G01X281686Y-2328054D01*
G01X281686Y-2485246D01*
G01X157916Y-2609016D01*
G01X155713Y-2612312D01*
G01X154940Y-2616200D01*
G01X154940Y-2621548D01*
G01X147265Y-2631417D01*
G01X141579Y-2642551D01*
G01X138085Y-2654554D01*
G01X136906Y-2667000D01*
G37*
G36*
G01X829382Y-396240D02*
G01X825494Y-397013D01*
G01X822198Y-399216D01*
G01X583874Y-637540D01*
G01X48260Y-637540D01*
G01X48260Y-48260D01*
G01X1010209Y-48260D01*
G01X1053369Y-91419D01*
G01X1053369Y-380063D01*
G01X1037192Y-396240D01*
G01X829382Y-396240D01*
G37*
G36*
G01X4377624Y-174076D02*
G01X4340418Y-136870D01*
G01X4403628Y-73660D01*
G01X6244192Y-73660D01*
G01X6327140Y-156608D01*
G01X6327140Y-459891D01*
G01X6257224Y-389976D01*
G01X6249807Y-384284D01*
G01X6241170Y-380706D01*
G01X6231900Y-379486D01*
G01X4388114Y-379486D01*
G01X4388114Y-199400D01*
G01X4386894Y-190131D01*
G01X4383316Y-181493D01*
G01X4377624Y-174076D01*
G37*
G36*
G01X2997200Y-683260D02*
G01X3526342Y-683260D01*
G01X3530600Y-683514D01*
G01X3906748Y-683514D01*
G01X3902605Y-692703D01*
G01X3901186Y-702683D01*
G01X3901186Y-977900D01*
G01X3902406Y-987169D01*
G01X3905984Y-995807D01*
G01X3911676Y-1003224D01*
G01X3914140Y-1005689D01*
G01X3914140Y-1116554D01*
G01X3914913Y-1120442D01*
G01X3917116Y-1123738D01*
G01X4091940Y-1298562D01*
G01X4091940Y-1748392D01*
G01X4072492Y-1767840D01*
G01X3426460Y-1767840D01*
G01X3426460Y-1485900D01*
G01X3425687Y-1482012D01*
G01X3423484Y-1478716D01*
G01X3042484Y-1097716D01*
G01X3039188Y-1095513D01*
G01X3035300Y-1094740D01*
G01X2429908Y-1094740D01*
G01X2283460Y-948292D01*
G01X2283460Y-728108D01*
G01X2341008Y-670560D01*
G01X2980292Y-670560D01*
G01X2990016Y-680284D01*
G01X2993312Y-682487D01*
G01X2997200Y-683260D01*
G37*
G36*
G01X3331608Y-1826260D02*
G01X3901186Y-1826260D01*
G01X3901186Y-2019300D01*
G01X3901440Y-2023558D01*
G01X3901440Y-2281792D01*
G01X3843892Y-2339340D01*
G01X3382408Y-2339340D01*
G01X3312160Y-2269092D01*
G01X3312160Y-1845708D01*
G01X3331608Y-1826260D01*
G37*
G36*
G01X3883660Y-2702560D02*
G01X4135942Y-2702560D01*
G01X4140200Y-2702814D01*
G01X4340056Y-2702814D01*
G01X4365883Y-2728642D01*
G01X4365883Y-2937173D01*
G01X4360312Y-2947513D01*
G01X4358386Y-2959100D01*
G01X4358386Y-3067942D01*
G01X4353061Y-3073267D01*
G01X3938535Y-3073267D01*
G01X3883660Y-3018392D01*
G01X3883660Y-2702560D01*
G37*
G36*
G01X6195060Y-3520440D02*
G01X6195060Y-3375660D01*
G01X6466840Y-3375660D01*
G01X6466840Y-3520440D01*
G01X6195060Y-3520440D01*
G37*
G36*
G01X2184476Y-4280616D02*
G01X2204246Y-4300386D01*
G01X35814Y-4300386D01*
G01X35814Y-1483463D01*
G01X281686Y-1729335D01*
G01X281686Y-2489200D01*
G01X282906Y-2498469D01*
G01X286484Y-2507107D01*
G01X292176Y-2514524D01*
G01X317576Y-2539924D01*
G01X319786Y-2541957D01*
G01X319786Y-2615288D01*
G01X248103Y-2615288D01*
G01X244865Y-2615435D01*
G01X230967Y-2606801D01*
G01X215379Y-2601834D01*
G01X199049Y-2600836D01*
G01X182971Y-2603868D01*
G01X168126Y-2610744D01*
G01X155417Y-2621047D01*
G01X145618Y-2634149D01*
G01X139326Y-2649252D01*
G01X136924Y-2665435D01*
G01X138559Y-2681714D01*
G01X144131Y-2697096D01*
G01X153301Y-2710646D01*
G01X165510Y-2721537D01*
G01X180014Y-2729107D01*
G01X195930Y-2732894D01*
G01X212289Y-2732668D01*
G01X212289Y-2747599D01*
G01X207229Y-2757562D01*
G01X205486Y-2768600D01*
G01X205486Y-2832100D01*
G01X207239Y-2843167D01*
G01X212326Y-2853151D01*
G01X220249Y-2861074D01*
G01X230233Y-2866161D01*
G01X241300Y-2867914D01*
G01X319786Y-2867914D01*
G01X319786Y-2918865D01*
G01X277265Y-2961386D01*
G01X190500Y-2961386D01*
G01X181231Y-2962606D01*
G01X172593Y-2966184D01*
G01X165176Y-2971876D01*
G01X72689Y-3064363D01*
G01X66997Y-3071780D01*
G01X63419Y-3080418D01*
G01X62199Y-3089687D01*
G01X62199Y-3664023D01*
G01X63952Y-3675090D01*
G01X69039Y-3685074D01*
G01X76962Y-3692997D01*
G01X86946Y-3698084D01*
G01X98013Y-3699837D01*
G01X315022Y-3699837D01*
G01X309820Y-3709908D01*
G01X308027Y-3721100D01*
G01X308027Y-3883917D01*
G01X309247Y-3893186D01*
G01X312825Y-3901824D01*
G01X318516Y-3909241D01*
G01X360337Y-3951062D01*
G01X367755Y-3956753D01*
G01X376392Y-3960331D01*
G01X385662Y-3961552D01*
G01X1559097Y-3961552D01*
G01X1570164Y-3959799D01*
G01X1580148Y-3954712D01*
G01X1588071Y-3946789D01*
G01X1593158Y-3936805D01*
G01X1594911Y-3925738D01*
G01X1594911Y-3745104D01*
G01X1593292Y-3734457D01*
G01X1588580Y-3724772D01*
G01X1581203Y-3716927D01*
G01X1571827Y-3711629D01*
G01X1561299Y-3709358D01*
G01X1559814Y-3707872D01*
G01X1559814Y-3694735D01*
G01X1561405Y-3696395D01*
G01X1572932Y-3707922D01*
G01X1584295Y-3716641D01*
G01X1597527Y-3722122D01*
G01X1611727Y-3723991D01*
G01X1711816Y-3723991D01*
G01X1716983Y-3733758D01*
G01X1724882Y-3741485D01*
G01X1734760Y-3746437D01*
G01X1745677Y-3748141D01*
G01X1826325Y-3748141D01*
G01X1835939Y-3746827D01*
G01X1844847Y-3742980D01*
G01X1852395Y-3736883D01*
G01X1858030Y-3728983D01*
G01X1861337Y-3719861D01*
G01X1865369Y-3730295D01*
G01X1872422Y-3738975D01*
G01X1881810Y-3745057D01*
G01X1881810Y-3757922D01*
G01X1873315Y-3763450D01*
G01X1866710Y-3771137D01*
G01X1862523Y-3780367D01*
G01X1861088Y-3790400D01*
G01X1861088Y-3880400D01*
G01X1862841Y-3891467D01*
G01X1867928Y-3901451D01*
G01X1875852Y-3909374D01*
G01X1885835Y-3914461D01*
G01X1896902Y-3916214D01*
G01X1976902Y-3916214D01*
G01X1987969Y-3914461D01*
G01X1997953Y-3909374D01*
G01X2005876Y-3901451D01*
G01X2010963Y-3891467D01*
G01X2012716Y-3880400D01*
G01X2012716Y-3790400D01*
G01X2011247Y-3780246D01*
G01X2006959Y-3770926D01*
G01X2000204Y-3763204D01*
G01X1991538Y-3757713D01*
G01X1991538Y-3745057D01*
G01X2000706Y-3739170D01*
G01X2007680Y-3730799D01*
G01X2023254Y-3734842D01*
G01X2039343Y-3735013D01*
G01X2054999Y-3731304D01*
G01X2069300Y-3723932D01*
G01X2081405Y-3713332D01*
G01X2090599Y-3700128D01*
G01X2096342Y-3685098D01*
G01X2098294Y-3669127D01*
G01X2096342Y-3653156D01*
G01X2090599Y-3638126D01*
G01X2081405Y-3624922D01*
G01X2069300Y-3614322D01*
G01X2054999Y-3606950D01*
G01X2039343Y-3603241D01*
G01X2023254Y-3603413D01*
G01X2007680Y-3607455D01*
G01X2001684Y-3599981D01*
G01X1993921Y-3594363D01*
G01X1984946Y-3591006D01*
G01X1993460Y-3587891D01*
G01X2000919Y-3582738D01*
G01X2006845Y-3575878D01*
G01X2010859Y-3567749D01*
G01X2060567Y-3567749D01*
G01X2060567Y-3569581D01*
G01X2061787Y-3578850D01*
G01X2065365Y-3587488D01*
G01X2071057Y-3594905D01*
G01X2159076Y-3682924D01*
G01X2166493Y-3688616D01*
G01X2175131Y-3692194D01*
G01X2184400Y-3693414D01*
G01X2338209Y-3693414D01*
G01X2346408Y-3692463D01*
G01X2354172Y-3689660D01*
G01X2361088Y-3685154D01*
G01X2391646Y-3685154D01*
G01X2399317Y-3684323D01*
G01X2406632Y-3681868D01*
G01X2413947Y-3684323D01*
G01X2421618Y-3685154D01*
G01X2456619Y-3685154D01*
G01X2467687Y-3683401D01*
G01X2477670Y-3678314D01*
G01X2485594Y-3670391D01*
G01X2490681Y-3660407D01*
G01X2492433Y-3649340D01*
G01X2492433Y-3631037D01*
G01X2493983Y-3618090D01*
G01X2493983Y-3518858D01*
G01X2499181Y-3508789D01*
G01X2500974Y-3497600D01*
G01X2500974Y-3411200D01*
G01X2499221Y-3400133D01*
G01X2494134Y-3390149D01*
G01X2486211Y-3382226D01*
G01X2476227Y-3377139D01*
G01X2465160Y-3375386D01*
G01X2384513Y-3375386D01*
G01X2375570Y-3376520D01*
G01X2367193Y-3379852D01*
G01X2359914Y-3385170D01*
G01X2359914Y-2387600D01*
G01X2358161Y-2376533D01*
G01X2353074Y-2366549D01*
G01X2345151Y-2358626D01*
G01X2335167Y-2353539D01*
G01X2324100Y-2351786D01*
G01X1752600Y-2351786D01*
G01X1741533Y-2353539D01*
G01X1731549Y-2358626D01*
G01X1723626Y-2366549D01*
G01X1718539Y-2376533D01*
G01X1716786Y-2387600D01*
G01X1716786Y-2631186D01*
G01X1712214Y-2631186D01*
G01X1712214Y-2590800D01*
G01X1710994Y-2581531D01*
G01X1707416Y-2572893D01*
G01X1701724Y-2565476D01*
G01X1650924Y-2514676D01*
G01X1643507Y-2508984D01*
G01X1634869Y-2505406D01*
G01X1625600Y-2504186D01*
G01X1435100Y-2504186D01*
G01X1425831Y-2505406D01*
G01X1417193Y-2508984D01*
G01X1409776Y-2514676D01*
G01X1397076Y-2527376D01*
G01X1391384Y-2534793D01*
G01X1387806Y-2543431D01*
G01X1386586Y-2552700D01*
G01X1386586Y-3086100D01*
G01X1387375Y-3093575D01*
G01X1282700Y-3093575D01*
G01X1271633Y-3095328D01*
G01X1261649Y-3100415D01*
G01X1253726Y-3108338D01*
G01X1248639Y-3118322D01*
G01X1246886Y-3129389D01*
G01X1246886Y-3356234D01*
G01X1233542Y-3350644D01*
G01X1219200Y-3348736D01*
G01X1166443Y-3348736D01*
G01X1160831Y-3340688D01*
G01X1153246Y-3334465D01*
G01X1144256Y-3330533D01*
G01X1134537Y-3329189D01*
G01X1048136Y-3329189D01*
G01X1036672Y-3331074D01*
G01X1026414Y-3336529D01*
G01X1026414Y-3267575D01*
G01X1156395Y-3137595D01*
G01X1165114Y-3126232D01*
G01X1170595Y-3113000D01*
G01X1172464Y-3098800D01*
G01X1172464Y-2616200D01*
G01X1170595Y-2602000D01*
G01X1165114Y-2588768D01*
G01X1156395Y-2577405D01*
G01X1118295Y-2539305D01*
G01X1106932Y-2530586D01*
G01X1093700Y-2525105D01*
G01X1079500Y-2523236D01*
G01X1019550Y-2523236D01*
G01X1014383Y-2513469D01*
G01X1006485Y-2505742D01*
G01X996606Y-2500790D01*
G01X985689Y-2499086D01*
G01X905041Y-2499086D01*
G01X895428Y-2500400D01*
G01X886519Y-2504247D01*
G01X878971Y-2510344D01*
G01X873336Y-2518244D01*
G01X870029Y-2527366D01*
G01X865997Y-2516933D01*
G01X858944Y-2508252D01*
G01X849556Y-2502170D01*
G01X849556Y-2500962D01*
G01X858259Y-2495480D01*
G01X865044Y-2487751D01*
G01X869353Y-2478412D01*
G01X870830Y-2468233D01*
G01X870830Y-2381832D01*
G01X869077Y-2370765D01*
G01X863990Y-2360781D01*
G01X856067Y-2352858D01*
G01X846083Y-2347771D01*
G01X835016Y-2346018D01*
G01X754369Y-2346018D01*
G01X743301Y-2347771D01*
G01X733318Y-2352858D01*
G01X725394Y-2360781D01*
G01X720307Y-2370765D01*
G01X718555Y-2381832D01*
G01X718555Y-2468233D01*
G01X720031Y-2478412D01*
G01X724340Y-2487751D01*
G01X731126Y-2495480D01*
G01X739828Y-2500962D01*
G01X739828Y-2502170D01*
G01X731524Y-2507318D01*
G01X724919Y-2514518D01*
G01X720507Y-2523236D01*
G01X674641Y-2523236D01*
G01X660441Y-2525105D01*
G01X647209Y-2530586D01*
G01X635846Y-2539305D01*
G01X608905Y-2566246D01*
G01X600186Y-2577609D01*
G01X594705Y-2590841D01*
G01X592836Y-2605041D01*
G01X592836Y-2615393D01*
G01X590097Y-2615288D01*
G01X511022Y-2615288D01*
G01X511022Y-2550414D01*
G01X584200Y-2550414D01*
G01X593469Y-2549194D01*
G01X602107Y-2545616D01*
G01X609524Y-2539924D01*
G01X673024Y-2476424D01*
G01X678716Y-2469007D01*
G01X682294Y-2460369D01*
G01X683514Y-2451100D01*
G01X683514Y-1932535D01*
G01X827635Y-1788414D01*
G01X1384300Y-1788414D01*
G01X1393569Y-1787194D01*
G01X1402207Y-1783616D01*
G01X1409624Y-1777924D01*
G01X1544204Y-1643345D01*
G01X1544538Y-1732791D01*
G01X1545339Y-1736756D01*
G01X1547589Y-1740116D01*
G01X1934578Y-2127106D01*
G01X1937957Y-2129363D01*
G01X1941942Y-2130156D01*
G01X2021932Y-2130156D01*
G01X2107301Y-2215525D01*
G01X2110680Y-2217782D01*
G01X2114665Y-2218575D01*
G01X2821039Y-2218575D01*
G01X2825024Y-2217782D01*
G01X2828403Y-2215525D01*
G01X2925314Y-2118614D01*
G01X2994251Y-2118614D01*
G01X2998236Y-2117821D01*
G01X3001615Y-2115564D01*
G01X3335988Y-1781191D01*
G01X3338245Y-1777812D01*
G01X3339038Y-1773827D01*
G01X3339038Y-1459287D01*
G01X3380486Y-1500735D01*
G01X3380486Y-1778000D01*
G01X3382239Y-1789067D01*
G01X3387326Y-1799051D01*
G01X3395249Y-1806974D01*
G01X3405233Y-1812061D01*
G01X3416300Y-1813814D01*
G01X3901189Y-1813814D01*
G01X3901186Y-1814307D01*
G01X3901186Y-2019300D01*
G01X3902406Y-2028569D01*
G01X3905984Y-2037207D01*
G01X3911676Y-2044624D01*
G01X3924374Y-2057323D01*
G01X3931792Y-2063015D01*
G01X3940429Y-2066592D01*
G01X3949699Y-2067813D01*
G01X4030439Y-2067813D01*
G01X4029786Y-2074621D01*
G01X4029786Y-2592400D01*
G01X4031007Y-2601670D01*
G01X4034584Y-2610307D01*
G01X4040276Y-2617725D01*
G01X4114876Y-2692324D01*
G01X4122293Y-2698016D01*
G01X4130931Y-2701594D01*
G01X4140200Y-2702814D01*
G01X4345567Y-2702814D01*
G01X4356634Y-2701061D01*
G01X4366618Y-2695974D01*
G01X4374541Y-2688051D01*
G01X4379628Y-2678067D01*
G01X4381381Y-2667000D01*
G01X4381381Y-2626017D01*
G01X4383067Y-2619866D01*
G01X4383635Y-2613513D01*
G01X4383635Y-2585512D01*
G01X4382908Y-2578334D01*
G01X4380758Y-2571447D01*
G01X4377202Y-2561310D01*
G01X4370800Y-2552685D01*
G01X4362128Y-2546345D01*
G01X4370918Y-2540884D01*
G01X4377779Y-2533137D01*
G01X4382140Y-2523753D01*
G01X4383635Y-2513513D01*
G01X4383635Y-2485512D01*
G01X4381902Y-2474506D01*
G01X4383635Y-2463500D01*
G01X4383635Y-2435499D01*
G01X4381906Y-2424506D01*
G01X4383635Y-2413513D01*
G01X4383635Y-2385512D01*
G01X4382109Y-2375168D01*
G01X4377660Y-2365706D01*
G01X4380543Y-2358782D01*
G01X4385984Y-2367653D01*
G01X4393746Y-2374585D01*
G01X4403173Y-2378992D01*
G01X4413469Y-2380504D01*
G01X4520168Y-2380504D01*
G01X4523486Y-2383822D01*
G01X4523486Y-2471468D01*
G01X4523574Y-2473984D01*
G01X4523486Y-2476500D01*
G01X4523486Y-2514600D01*
G01X4524456Y-2522877D01*
G01X4527312Y-2530706D01*
G01X4526990Y-2535499D01*
G01X4526990Y-2562650D01*
G01X4524373Y-2570179D01*
G01X4523486Y-2578100D01*
G01X4523486Y-2677565D01*
G01X4508576Y-2692476D01*
G01X4502984Y-2699721D01*
G01X4499411Y-2708148D01*
G01X4498091Y-2717204D01*
G01X4489715Y-2725580D01*
G01X4484024Y-2732997D01*
G01X4480446Y-2741635D01*
G01X4479226Y-2750904D01*
G01X4479226Y-2912326D01*
G01X4468265Y-2923286D01*
G01X4394200Y-2923286D01*
G01X4383133Y-2925039D01*
G01X4373149Y-2930126D01*
G01X4365226Y-2938049D01*
G01X4360139Y-2948033D01*
G01X4358386Y-2959100D01*
G01X4358386Y-3118065D01*
G01X4350673Y-3111353D01*
G01X4341378Y-3107093D01*
G01X4331259Y-3105634D01*
G01X4312613Y-3105634D01*
G01X4299623Y-3102304D01*
G01X4286259Y-3101184D01*
G01X4205137Y-3101184D01*
G01X4191829Y-3093006D01*
G01X4177404Y-3087016D01*
G01X4162219Y-3083362D01*
G01X4146648Y-3082134D01*
G01X3778152Y-3082134D01*
G01X3758777Y-3084042D01*
G01X3740146Y-3089694D01*
G01X3722976Y-3098871D01*
G01X3707927Y-3111222D01*
G01X3137041Y-3682108D01*
G01X3124690Y-3697157D01*
G01X3115513Y-3714327D01*
G01X3109861Y-3732958D01*
G01X3107953Y-3752333D01*
G01X3107953Y-3837686D01*
G01X2895600Y-3837686D01*
G01X2884533Y-3839439D01*
G01X2874549Y-3844526D01*
G01X2866626Y-3852449D01*
G01X2861539Y-3862433D01*
G01X2859786Y-3873500D01*
G01X2859786Y-4073925D01*
G01X2852471Y-4071470D01*
G01X2844800Y-4070639D01*
G01X2812706Y-4070639D01*
G01X2812706Y-4060107D01*
G01X2821409Y-4054625D01*
G01X2828194Y-4046895D01*
G01X2832503Y-4037556D01*
G01X2833980Y-4027378D01*
G01X2833980Y-3940977D01*
G01X2832227Y-3929910D01*
G01X2827140Y-3919926D01*
G01X2819217Y-3912003D01*
G01X2809233Y-3906916D01*
G01X2798166Y-3905163D01*
G01X2717519Y-3905163D01*
G01X2707905Y-3906477D01*
G01X2698997Y-3910324D01*
G01X2691448Y-3916421D01*
G01X2685813Y-3924321D01*
G01X2682506Y-3933443D01*
G01X2679272Y-3924462D01*
G01X2673782Y-3916655D01*
G01X2666424Y-3910575D01*
G01X2673761Y-3904876D01*
G01X2679386Y-3897483D01*
G01X2682919Y-3888891D01*
G01X2684124Y-3879679D01*
G01X2684124Y-3793278D01*
G01X2682371Y-3782211D01*
G01X2677284Y-3772227D01*
G01X2669361Y-3764304D01*
G01X2659377Y-3759217D01*
G01X2648310Y-3757464D01*
G01X2567663Y-3757464D01*
G01X2556595Y-3759217D01*
G01X2546612Y-3764304D01*
G01X2538688Y-3772227D01*
G01X2533601Y-3782211D01*
G01X2531849Y-3793278D01*
G01X2531849Y-3879679D01*
G01X2532993Y-3888660D01*
G01X2536353Y-3897067D01*
G01X2541713Y-3904363D01*
G01X2548732Y-3910081D01*
G01X2541114Y-3916067D01*
G01X2535378Y-3923876D01*
G01X2531946Y-3932936D01*
G01X2429010Y-3932936D01*
G01X2429010Y-3900589D01*
G01X2427460Y-3887643D01*
G01X2427460Y-3869339D01*
G01X2425707Y-3858272D01*
G01X2420620Y-3848289D01*
G01X2412697Y-3840365D01*
G01X2402713Y-3835278D01*
G01X2391646Y-3833525D01*
G01X2364060Y-3833525D01*
G01X2356329Y-3826732D01*
G01X2346985Y-3822418D01*
G01X2336800Y-3820940D01*
G01X2209800Y-3820940D01*
G01X2198733Y-3822693D01*
G01X2188749Y-3827780D01*
G01X2180826Y-3835703D01*
G01X2175739Y-3845687D01*
G01X2173986Y-3856754D01*
G01X2173986Y-4255291D01*
G01X2175206Y-4264561D01*
G01X2178784Y-4273198D01*
G01X2184476Y-4280616D01*
G37*
G36*
G01X38100Y-667126D02*
G01X35814Y-667199D01*
G01X35814Y-35814D01*
G01X1094882Y-35814D01*
G01X1087823Y-43602D01*
G01X1083328Y-53103D01*
G01X1081786Y-63500D01*
G01X1081786Y-355261D01*
G01X1019461Y-417586D01*
G01X854700Y-417586D01*
G01X845430Y-418806D01*
G01X836793Y-422384D01*
G01X829376Y-428076D01*
G01X590325Y-667126D01*
G01X38100Y-667126D01*
G37*
G36*
G01X686495Y-2680395D02*
G01X695214Y-2669032D01*
G01X700695Y-2655800D01*
G01X702564Y-2641600D01*
G01X702564Y-2632964D01*
G01X720507Y-2632964D01*
G01X725674Y-2642731D01*
G01X733573Y-2650458D01*
G01X743451Y-2655410D01*
G01X754369Y-2657114D01*
G01X835016Y-2657114D01*
G01X844630Y-2655800D01*
G01X853538Y-2651953D01*
G01X861087Y-2645856D01*
G01X866721Y-2637956D01*
G01X870029Y-2628834D01*
G01X873336Y-2637956D01*
G01X878971Y-2645856D01*
G01X886519Y-2651953D01*
G01X895428Y-2655800D01*
G01X905041Y-2657114D01*
G01X985689Y-2657114D01*
G01X996606Y-2655410D01*
G01X1006485Y-2650458D01*
G01X1014383Y-2642731D01*
G01X1019550Y-2632964D01*
G01X1056775Y-2632964D01*
G01X1062736Y-2638925D01*
G01X1062736Y-2854338D01*
G01X1051704Y-2847251D01*
G01X1039494Y-2842474D01*
G01X1026582Y-2840194D01*
G01X1013473Y-2840500D01*
G01X1005673Y-2833378D01*
G01X996135Y-2828841D01*
G01X985689Y-2827284D01*
G01X905041Y-2827284D01*
G01X895428Y-2828598D01*
G01X886519Y-2832445D01*
G01X878971Y-2838542D01*
G01X873336Y-2846442D01*
G01X870029Y-2855564D01*
G01X866510Y-2846046D01*
G01X860463Y-2837896D01*
G01X860463Y-2820784D01*
G01X869044Y-2815274D01*
G01X875724Y-2807569D01*
G01X879961Y-2798293D01*
G01X881413Y-2788200D01*
G01X881413Y-2698200D01*
G01X879660Y-2687133D01*
G01X874573Y-2677149D01*
G01X866650Y-2669226D01*
G01X856666Y-2664139D01*
G01X845599Y-2662386D01*
G01X765599Y-2662386D01*
G01X756069Y-2663677D01*
G01X747226Y-2667458D01*
G01X739708Y-2673455D01*
G01X734057Y-2681237D01*
G01X685653Y-2681237D01*
G01X686495Y-2680395D01*
G37*
G36*
G01X1686814Y-3441700D02*
G01X1686814Y-3394147D01*
G01X1685061Y-3383080D01*
G01X1679974Y-3373096D01*
G01X1672051Y-3365173D01*
G01X1662067Y-3360086D01*
G01X1651000Y-3358333D01*
G01X1575761Y-3358333D01*
G01X1575761Y-3336242D01*
G01X1603127Y-3336242D01*
G01X1614194Y-3334490D01*
G01X1624178Y-3329403D01*
G01X1632101Y-3321479D01*
G01X1637188Y-3311496D01*
G01X1638941Y-3300428D01*
G01X1638941Y-3132806D01*
G01X1701724Y-3070022D01*
G01X1706175Y-3064600D01*
G01X1709483Y-3058414D01*
G01X1716786Y-3058414D01*
G01X1716786Y-3111500D01*
G01X1718539Y-3122567D01*
G01X1723626Y-3132551D01*
G01X1731549Y-3140474D01*
G01X1741533Y-3145561D01*
G01X1752600Y-3147314D01*
G01X2006600Y-3147314D01*
G01X2015869Y-3146094D01*
G01X2024507Y-3142516D01*
G01X2031924Y-3136824D01*
G01X2060567Y-3108182D01*
G01X2060567Y-3458021D01*
G01X2010859Y-3458021D01*
G01X2005692Y-3448254D01*
G01X1997793Y-3440527D01*
G01X1987915Y-3435575D01*
G01X1976998Y-3433870D01*
G01X1896350Y-3433870D01*
G01X1886736Y-3435185D01*
G01X1877828Y-3439032D01*
G01X1870280Y-3445129D01*
G01X1864645Y-3453028D01*
G01X1861337Y-3462151D01*
G01X1857306Y-3451717D01*
G01X1850252Y-3443036D01*
G01X1840865Y-3436955D01*
G01X1840865Y-3432572D01*
G01X1849567Y-3427090D01*
G01X1856353Y-3419361D01*
G01X1860662Y-3410021D01*
G01X1862139Y-3399843D01*
G01X1862139Y-3313442D01*
G01X1860386Y-3302375D01*
G01X1855299Y-3292391D01*
G01X1847376Y-3284468D01*
G01X1837392Y-3279381D01*
G01X1826325Y-3277628D01*
G01X1745677Y-3277628D01*
G01X1734610Y-3279381D01*
G01X1724626Y-3284468D01*
G01X1716703Y-3292391D01*
G01X1711616Y-3302375D01*
G01X1709863Y-3313442D01*
G01X1709863Y-3399843D01*
G01X1711340Y-3410021D01*
G01X1715649Y-3419361D01*
G01X1722435Y-3427090D01*
G01X1731137Y-3432572D01*
G01X1731137Y-3436955D01*
G01X1721797Y-3442994D01*
G01X1714761Y-3451607D01*
G01X1699486Y-3453329D01*
G01X1685018Y-3458522D01*
G01X1684207Y-3455113D01*
G01X1686156Y-3448532D01*
G01X1686814Y-3441700D01*
G37*
G36*
G01X7947179Y-3504794D02*
G01X7949191Y-3530937D01*
G01X7955181Y-3556464D01*
G01X7965008Y-3580774D01*
G01X7978439Y-3603293D01*
G01X7995159Y-3623492D01*
G01X8014773Y-3640893D01*
G01X8036819Y-3655087D01*
G01X8060778Y-3665740D01*
G01X8086085Y-3672601D01*
G01X8112144Y-3675507D01*
G01X8138341Y-3674391D01*
G01X8164058Y-3669278D01*
G01X8188690Y-3660290D01*
G01X8211656Y-3647638D01*
G01X8232415Y-3631619D01*
G01X8250478Y-3612612D01*
G01X8265419Y-3591065D01*
G01X8276886Y-3567485D01*
G01X8276886Y-4300386D01*
G01X7828813Y-4300386D01*
G01X7843417Y-4285631D01*
G01X7855397Y-4268674D01*
G01X7864424Y-4249979D01*
G01X7870254Y-4230053D01*
G01X7872728Y-4209440D01*
G01X7871779Y-4188700D01*
G01X7867432Y-4168400D01*
G01X7859805Y-4149090D01*
G01X7849107Y-4131298D01*
G01X7835628Y-4115507D01*
G01X7819736Y-4102148D01*
G01X7801864Y-4091584D01*
G01X7801864Y-2984500D01*
G01X7799995Y-2970300D01*
G01X7794514Y-2957068D01*
G01X7785795Y-2945705D01*
G01X7696895Y-2856805D01*
G01X7685532Y-2848086D01*
G01X7672300Y-2842605D01*
G01X7658100Y-2840736D01*
G01X7330887Y-2840736D01*
G01X7342710Y-2826023D01*
G01X7352198Y-2809707D01*
G01X7359139Y-2792155D01*
G01X7363376Y-2773762D01*
G01X7364814Y-2754942D01*
G01X7363420Y-2736119D01*
G01X7359226Y-2717716D01*
G01X7352326Y-2700148D01*
G01X7342876Y-2683810D01*
G01X7331088Y-2669069D01*
G01X7317227Y-2656258D01*
G01X7301606Y-2645664D01*
G01X7315200Y-2645664D01*
G01X7329400Y-2643795D01*
G01X7342632Y-2638314D01*
G01X7353995Y-2629595D01*
G01X7393692Y-2589898D01*
G01X7395371Y-2606493D01*
G01X7400729Y-2622288D01*
G01X7409492Y-2636480D01*
G01X7421214Y-2648346D01*
G01X7435298Y-2657282D01*
G01X7451027Y-2662832D01*
G01X7467600Y-2664714D01*
G01X7569200Y-2664714D01*
G01X7583620Y-2663294D01*
G01X7597486Y-2659088D01*
G01X7610264Y-2652257D01*
G01X7621465Y-2643065D01*
G01X7786565Y-2477965D01*
G01X7795757Y-2466764D01*
G01X7802588Y-2453986D01*
G01X7806794Y-2440120D01*
G01X7808214Y-2425700D01*
G01X7808214Y-2303916D01*
G01X8116765Y-1995365D01*
G01X8125957Y-1984164D01*
G01X8132788Y-1971386D01*
G01X8136994Y-1957520D01*
G01X8138414Y-1943100D01*
G01X8138414Y-1815497D01*
G01X8149161Y-1813427D01*
G01X8158780Y-1808208D01*
G01X8166375Y-1800328D01*
G01X8171235Y-1790522D01*
G01X8172907Y-1779707D01*
G01X8172907Y-1659707D01*
G01X8171154Y-1648640D01*
G01X8166067Y-1638656D01*
G01X8158144Y-1630733D01*
G01X8148160Y-1625646D01*
G01X8137093Y-1623893D01*
G01X7997093Y-1623893D01*
G01X7986026Y-1625646D01*
G01X7976043Y-1630733D01*
G01X7968119Y-1638656D01*
G01X7963032Y-1648640D01*
G01X7961279Y-1659707D01*
G01X7961279Y-1779707D01*
G01X7962651Y-1789522D01*
G01X7966660Y-1798586D01*
G01X7972999Y-1806204D01*
G01X7981183Y-1811793D01*
G01X7990586Y-1814925D01*
G01X7990586Y-1912484D01*
G01X7682035Y-2221035D01*
G01X7672843Y-2232236D01*
G01X7666012Y-2245014D01*
G01X7661806Y-2258880D01*
G01X7660386Y-2273300D01*
G01X7660386Y-2395084D01*
G01X7538584Y-2516886D01*
G01X7467600Y-2516886D01*
G01X7455860Y-2517824D01*
G01X7444418Y-2520616D01*
G01X7433564Y-2525189D01*
G01X7433564Y-2517284D01*
G01X7443331Y-2512117D01*
G01X7451058Y-2504218D01*
G01X7456010Y-2494340D01*
G01X7457714Y-2483423D01*
G01X7457714Y-2402775D01*
G01X7456400Y-2393161D01*
G01X7452553Y-2384253D01*
G01X7446456Y-2376705D01*
G01X7438556Y-2371070D01*
G01X7429434Y-2367763D01*
G01X7438556Y-2364455D01*
G01X7446456Y-2358820D01*
G01X7452553Y-2351272D01*
G01X7456400Y-2342364D01*
G01X7457714Y-2332750D01*
G01X7457714Y-2252102D01*
G01X7455961Y-2241035D01*
G01X7450874Y-2231051D01*
G01X7442951Y-2223128D01*
G01X7432967Y-2218041D01*
G01X7421900Y-2216288D01*
G01X7335500Y-2216288D01*
G01X7325321Y-2217765D01*
G01X7315982Y-2222074D01*
G01X7308252Y-2228860D01*
G01X7302770Y-2237562D01*
G01X7289952Y-2237562D01*
G01X7284462Y-2228896D01*
G01X7276739Y-2222141D01*
G01X7267419Y-2217853D01*
G01X7257265Y-2216384D01*
G01X7167265Y-2216384D01*
G01X7157112Y-2217853D01*
G01X7147791Y-2222141D01*
G01X7140069Y-2228896D01*
G01X7134578Y-2237562D01*
G01X7121753Y-2237562D01*
G01X7116271Y-2228860D01*
G01X7108541Y-2222074D01*
G01X7099202Y-2217765D01*
G01X7089023Y-2216288D01*
G01X7002623Y-2216288D01*
G01X6996421Y-2216829D01*
G01X6990407Y-2218436D01*
G01X6880201Y-2218436D01*
G01X6870371Y-2213246D01*
G01X6859802Y-2209800D01*
G01X6870371Y-2206354D01*
G01X6880201Y-2201164D01*
G01X6991551Y-2201164D01*
G01X6997438Y-2202700D01*
G01X7003500Y-2203216D01*
G01X7093500Y-2203216D01*
G01X7104897Y-2201354D01*
G01X7115110Y-2195962D01*
G01X7123075Y-2187600D01*
G01X7137670Y-2187600D01*
G01X7143152Y-2196303D01*
G01X7150882Y-2203088D01*
G01X7160221Y-2207397D01*
G01X7170400Y-2208874D01*
G01X7256800Y-2208874D01*
G01X7267867Y-2207121D01*
G01X7277851Y-2202034D01*
G01X7285774Y-2194111D01*
G01X7290861Y-2184127D01*
G01X7292614Y-2173060D01*
G01X7292614Y-2092413D01*
G01X7291300Y-2082799D01*
G01X7287453Y-2073891D01*
G01X7281356Y-2066342D01*
G01X7273456Y-2060707D01*
G01X7264334Y-2057400D01*
G01X7274767Y-2053368D01*
G01X7283448Y-2046315D01*
G01X7289530Y-2036928D01*
G01X7557387Y-2036928D01*
G01X7570908Y-2043980D01*
G01X7585683Y-2047755D01*
G01X7600930Y-2048055D01*
G01X7615842Y-2044862D01*
G01X7629630Y-2038347D01*
G01X7641564Y-2028853D01*
G01X7651013Y-2016884D01*
G01X7657477Y-2003072D01*
G01X7660614Y-1988148D01*
G01X7660258Y-1972902D01*
G01X7656427Y-1958141D01*
G01X7649325Y-1944646D01*
G01X7639327Y-1933131D01*
G01X7626963Y-1924205D01*
G01X7612885Y-1918341D01*
G01X7597841Y-1915849D01*
G01X7620695Y-1892995D01*
G01X7629414Y-1881632D01*
G01X7634895Y-1868400D01*
G01X7636764Y-1854200D01*
G01X7636764Y-1521325D01*
G01X7671971Y-1486119D01*
G01X7677592Y-1494109D01*
G01X7685163Y-1500283D01*
G01X7694121Y-1504181D01*
G01X7703800Y-1505514D01*
G01X7790200Y-1505514D01*
G01X7800379Y-1504037D01*
G01X7809718Y-1499728D01*
G01X7817448Y-1492943D01*
G01X7822930Y-1484240D01*
G01X7964364Y-1484240D01*
G01X7969846Y-1492943D01*
G01X7977576Y-1499728D01*
G01X7986915Y-1504037D01*
G01X7997093Y-1505514D01*
G01X8137093Y-1505514D01*
G01X8148160Y-1503761D01*
G01X8158144Y-1498674D01*
G01X8166067Y-1490751D01*
G01X8171154Y-1480767D01*
G01X8172907Y-1469700D01*
G01X8172907Y-1349700D01*
G01X8171070Y-1338376D01*
G01X8165746Y-1328214D01*
G01X8169153Y-1319756D01*
G01X8170314Y-1310712D01*
G01X8170314Y-1190713D01*
G01X8168561Y-1179645D01*
G01X8163474Y-1169662D01*
G01X8155551Y-1161738D01*
G01X8145567Y-1156651D01*
G01X8134500Y-1154899D01*
G01X7994500Y-1154899D01*
G01X7983433Y-1156651D01*
G01X7973449Y-1161738D01*
G01X7965526Y-1169662D01*
G01X7960439Y-1179645D01*
G01X7958686Y-1190713D01*
G01X7958686Y-1310712D01*
G01X7960524Y-1322036D01*
G01X7965847Y-1332198D01*
G01X7962440Y-1340656D01*
G01X7961279Y-1349700D01*
G01X7961279Y-1374512D01*
G01X7822930Y-1374512D01*
G01X7817782Y-1366208D01*
G01X7810582Y-1359603D01*
G01X7801864Y-1355191D01*
G01X7801864Y-1305222D01*
G01X7811631Y-1300054D01*
G01X7819358Y-1292156D01*
G01X7824310Y-1282278D01*
G01X7826014Y-1271360D01*
G01X7826014Y-1190713D01*
G01X7825502Y-1184677D01*
G01X7823980Y-1178814D01*
G01X7848025Y-1178814D01*
G01X7859092Y-1177061D01*
G01X7869076Y-1171974D01*
G01X7876999Y-1164051D01*
G01X7882086Y-1154067D01*
G01X7883839Y-1143000D01*
G01X7883839Y-799525D01*
G01X7882618Y-790255D01*
G01X7879041Y-781618D01*
G01X7873349Y-774200D01*
G01X7746924Y-647776D01*
G01X7739507Y-642084D01*
G01X7730869Y-638506D01*
G01X7721600Y-637286D01*
G01X6704563Y-637286D01*
G01X6695293Y-638506D01*
G01X6686656Y-642084D01*
G01X6679238Y-647776D01*
G01X6515075Y-811938D01*
G01X6509384Y-819356D01*
G01X6505806Y-827993D01*
G01X6504586Y-837263D01*
G01X6504586Y-1320700D01*
G01X6505806Y-1329969D01*
G01X6509384Y-1338607D01*
G01X6515075Y-1346024D01*
G01X6540576Y-1371524D01*
G01X6547993Y-1377216D01*
G01X6556631Y-1380794D01*
G01X6565900Y-1382014D01*
G01X6997700Y-1382014D01*
G01X6999986Y-1381941D01*
G01X6999986Y-1509165D01*
G01X6934276Y-1574876D01*
G01X6928584Y-1582293D01*
G01X6925006Y-1590931D01*
G01X6923786Y-1600200D01*
G01X6923786Y-1739900D01*
G01X6925539Y-1750967D01*
G01X6930626Y-1760951D01*
G01X6938549Y-1768874D01*
G01X6948533Y-1773961D01*
G01X6959600Y-1775714D01*
G01X6969160Y-1775714D01*
G01X6967401Y-1781988D01*
G01X6966809Y-1788476D01*
G01X6966809Y-1869124D01*
G01X6968733Y-1880705D01*
G01X6974299Y-1891042D01*
G01X6982908Y-1899023D01*
G01X6993636Y-1903792D01*
G01X6993636Y-1912969D01*
G01X6984078Y-1917307D01*
G01X6976189Y-1924230D01*
G01X6970645Y-1933143D01*
G01X6959409Y-1936076D01*
G01X6949042Y-1941307D01*
G01X6940008Y-1948603D01*
G01X6924175Y-1964436D01*
G01X6919214Y-1964436D01*
G01X6919214Y-1921899D01*
G01X6920155Y-1910770D01*
G01X6919214Y-1899640D01*
G01X6919214Y-1625600D01*
G01X6917461Y-1614533D01*
G01X6912374Y-1604549D01*
G01X6904451Y-1596626D01*
G01X6894467Y-1591539D01*
G01X6883400Y-1589786D01*
G01X6477000Y-1589786D01*
G01X6467500Y-1591069D01*
G01X6467500Y-1586636D01*
G01X6465631Y-1572437D01*
G01X6460150Y-1559204D01*
G01X6451431Y-1547842D01*
G01X6349103Y-1445514D01*
G01X6388100Y-1445514D01*
G01X6397369Y-1444294D01*
G01X6406007Y-1440716D01*
G01X6413424Y-1435024D01*
G01X6476924Y-1371524D01*
G01X6482616Y-1364107D01*
G01X6486194Y-1355469D01*
G01X6487414Y-1346200D01*
G01X6487414Y-635000D01*
G01X6486194Y-625731D01*
G01X6482616Y-617093D01*
G01X6476924Y-609676D01*
G01X6257224Y-389976D01*
G01X6249807Y-384284D01*
G01X6242523Y-381267D01*
G01X7147592Y-381267D01*
G01X7147592Y-408292D01*
G01X7151620Y-435014D01*
G01X7159585Y-460838D01*
G01X7171311Y-485186D01*
G01X7186534Y-507515D01*
G01X7204915Y-527325D01*
G01X7226044Y-544175D01*
G01X7249448Y-557687D01*
G01X7274604Y-567560D01*
G01X7300951Y-573574D01*
G01X7327900Y-575593D01*
G01X7327900Y-575593D01*
G01X7354849Y-573574D01*
G01X7381196Y-567560D01*
G01X7406352Y-557687D01*
G01X7429756Y-544175D01*
G01X7450885Y-527325D01*
G01X7469266Y-507515D01*
G01X7484489Y-485186D01*
G01X7496215Y-460838D01*
G01X7504180Y-435014D01*
G01X7508208Y-408292D01*
G01X7508208Y-381267D01*
G01X7504180Y-354545D01*
G01X7496215Y-328721D01*
G01X7484489Y-304373D01*
G01X7469266Y-282044D01*
G01X7450885Y-262234D01*
G01X7429756Y-245384D01*
G01X7406352Y-231872D01*
G01X7381196Y-221999D01*
G01X7354849Y-215985D01*
G01X7327900Y-213966D01*
G01X7300951Y-215985D01*
G01X7274604Y-221999D01*
G01X7249448Y-231872D01*
G01X7226044Y-245384D01*
G01X7204915Y-262234D01*
G01X7186534Y-282044D01*
G01X7171311Y-304373D01*
G01X7159585Y-328721D01*
G01X7151620Y-354545D01*
G01X7147592Y-381267D01*
G01X6242523Y-381267D01*
G01X6241170Y-380706D01*
G01X6231900Y-379486D01*
G01X4388114Y-379486D01*
G01X4388114Y-199400D01*
G01X4386894Y-190131D01*
G01X4383316Y-181493D01*
G01X4377624Y-174076D01*
G01X4305224Y-101676D01*
G01X4297807Y-95984D01*
G01X4289169Y-92406D01*
G01X4279900Y-91186D01*
G01X3505200Y-91186D01*
G01X3494133Y-92939D01*
G01X3484149Y-98026D01*
G01X3476226Y-105949D01*
G01X3471139Y-115933D01*
G01X3469386Y-127000D01*
G01X3469386Y-622300D01*
G01X3470217Y-629971D01*
G01X3472672Y-637286D01*
G01X3375660Y-637286D01*
G01X3375503Y-632102D01*
G01X3372864Y-627636D01*
G01X2928364Y-183136D01*
G01X2924985Y-180879D01*
G01X2921000Y-180086D01*
G01X2817114Y-180086D01*
G01X2817114Y-139700D01*
G01X2815894Y-130431D01*
G01X2812316Y-121793D01*
G01X2806624Y-114376D01*
G01X2730424Y-38176D01*
G01X2727818Y-35814D01*
G01X8276886Y-35814D01*
G01X8276886Y-3342103D01*
G01X8265419Y-3318522D01*
G01X8250478Y-3296975D01*
G01X8232415Y-3277968D01*
G01X8211656Y-3261950D01*
G01X8188690Y-3249297D01*
G01X8164058Y-3240309D01*
G01X8138341Y-3235196D01*
G01X8112144Y-3234080D01*
G01X8086085Y-3236987D01*
G01X8060778Y-3243847D01*
G01X8036819Y-3254500D01*
G01X8014773Y-3268694D01*
G01X7995159Y-3286096D01*
G01X7978439Y-3306294D01*
G01X7965008Y-3328814D01*
G01X7955181Y-3353123D01*
G01X7949191Y-3378651D01*
G01X7947179Y-3404794D01*
G01X7947179Y-3504794D01*
G37*
G36*
G01X4146648Y-3280762D02*
G01X4162219Y-3279534D01*
G01X4177404Y-3275879D01*
G01X4191829Y-3269889D01*
G01X4205137Y-3261712D01*
G01X4286259Y-3261712D01*
G01X4299623Y-3260591D01*
G01X4312613Y-3257262D01*
G01X4331259Y-3257262D01*
G01X4341352Y-3255810D01*
G01X4350628Y-3251572D01*
G01X4358333Y-3244892D01*
G01X4363843Y-3236312D01*
G01X4394162Y-3236312D01*
G01X4407686Y-3243642D01*
G01X4422535Y-3247657D01*
G01X4437910Y-3248143D01*
G01X4452983Y-3245072D01*
G01X4466942Y-3238609D01*
G01X4479037Y-3229104D01*
G01X4488614Y-3217066D01*
G01X4495160Y-3203146D01*
G01X4498321Y-3188092D01*
G01X4497928Y-3172714D01*
G01X4707426Y-3172714D01*
G01X4711313Y-3178937D01*
G01X4716094Y-3184503D01*
G01X4801805Y-3270214D01*
G01X4811852Y-3277924D01*
G01X4823553Y-3282770D01*
G01X4836109Y-3284423D01*
G01X4873104Y-3284423D01*
G01X4873104Y-3310636D01*
G01X4826000Y-3310636D01*
G01X4811800Y-3312505D01*
G01X4798568Y-3317986D01*
G01X4787205Y-3326705D01*
G01X4750096Y-3363815D01*
G01X4741377Y-3375177D01*
G01X4735896Y-3388410D01*
G01X4734027Y-3402609D01*
G01X4734027Y-3681418D01*
G01X4729713Y-3686426D01*
G01X4726394Y-3692141D01*
G01X4720868Y-3683632D01*
G01X4713178Y-3677014D01*
G01X4703941Y-3672818D01*
G01X4693897Y-3671381D01*
G01X4633897Y-3671381D01*
G01X4622830Y-3673134D01*
G01X4612846Y-3678221D01*
G01X4604923Y-3686144D01*
G01X4599836Y-3696128D01*
G01X4598083Y-3707195D01*
G01X4598083Y-3718281D01*
G01X3688105Y-3718281D01*
G01X3673685Y-3719701D01*
G01X3659820Y-3723907D01*
G01X3647041Y-3730737D01*
G01X3635840Y-3739930D01*
G01X3502908Y-3872862D01*
G01X3501000Y-3861948D01*
G01X3495847Y-3852140D01*
G01X3487944Y-3844376D01*
G01X3478046Y-3839400D01*
G01X3467100Y-3837686D01*
G01X3306581Y-3837686D01*
G01X3306581Y-3793470D01*
G01X3819289Y-3280762D01*
G01X4146648Y-3280762D01*
G37*
G36*
G01X7184136Y-4091584D02*
G01X7166264Y-4102148D01*
G01X7150372Y-4115507D01*
G01X7136893Y-4131298D01*
G01X7126195Y-4149090D01*
G01X7118568Y-4168400D01*
G01X7114221Y-4188700D01*
G01X7113272Y-4209440D01*
G01X7115746Y-4230053D01*
G01X7121576Y-4249979D01*
G01X7130603Y-4268674D01*
G01X7142583Y-4285631D01*
G01X7157187Y-4300386D01*
G01X3502914Y-4300386D01*
G01X3502914Y-4247205D01*
G01X4393095Y-4247205D01*
G01X4394848Y-4258272D01*
G01X4399935Y-4268256D01*
G01X4407858Y-4276179D01*
G01X4417842Y-4281266D01*
G01X4428909Y-4283019D01*
G01X4528909Y-4283019D01*
G01X4539976Y-4281266D01*
G01X4549960Y-4276179D01*
G01X4557883Y-4268256D01*
G01X4562970Y-4258272D01*
G01X4564723Y-4247205D01*
G01X4564723Y-3967206D01*
G01X4562970Y-3956139D01*
G01X4557883Y-3946155D01*
G01X4549960Y-3938232D01*
G01X4539976Y-3933145D01*
G01X4528909Y-3931392D01*
G01X4428909Y-3931392D01*
G01X4417842Y-3933145D01*
G01X4407858Y-3938232D01*
G01X4399935Y-3946155D01*
G01X4394848Y-3956139D01*
G01X4393095Y-3967206D01*
G01X4393095Y-4247205D01*
G01X4393095Y-4247205D01*
G01X3502914Y-4247205D01*
G01X3502914Y-4070707D01*
G01X3518542Y-4063447D01*
G01X3532065Y-4052765D01*
G01X3718722Y-3866109D01*
G01X4589983Y-3866109D01*
G01X4589983Y-3901897D01*
G01X4591403Y-3916317D01*
G01X4595610Y-3930183D01*
G01X4602440Y-3942962D01*
G01X4611632Y-3954162D01*
G01X4672135Y-4014665D01*
G01X4683336Y-4023857D01*
G01X4696114Y-4030688D01*
G01X4709980Y-4034894D01*
G01X4724400Y-4036314D01*
G01X5080000Y-4036314D01*
G01X5094420Y-4034894D01*
G01X5108286Y-4030688D01*
G01X5121064Y-4023857D01*
G01X5132265Y-4014665D01*
G01X5138077Y-4008853D01*
G01X5138077Y-4247205D01*
G01X5139830Y-4258272D01*
G01X5144917Y-4268256D01*
G01X5152840Y-4276179D01*
G01X5162824Y-4281266D01*
G01X5173891Y-4283019D01*
G01X5273891Y-4283019D01*
G01X5284958Y-4281266D01*
G01X5294942Y-4276179D01*
G01X5302865Y-4268256D01*
G01X5307952Y-4258272D01*
G01X5309705Y-4247205D01*
G01X5309705Y-3967206D01*
G01X5307952Y-3956139D01*
G01X5302865Y-3946155D01*
G01X5294942Y-3938232D01*
G01X5284958Y-3933145D01*
G01X5273891Y-3931392D01*
G01X5215539Y-3931392D01*
G01X5250316Y-3896614D01*
G01X5315852Y-3896614D01*
G01X5330272Y-3895194D01*
G01X5344138Y-3890988D01*
G01X5356917Y-3884157D01*
G01X5368117Y-3874965D01*
G01X5444317Y-3798765D01*
G01X5453489Y-3787595D01*
G01X5460312Y-3774853D01*
G01X5464525Y-3761028D01*
G01X5465966Y-3746647D01*
G01X5464582Y-3732260D01*
G01X5469407Y-3722483D01*
G01X5471067Y-3711706D01*
G01X5471067Y-3631059D01*
G01X5469752Y-3621445D01*
G01X5465905Y-3612537D01*
G01X5459808Y-3604988D01*
G01X5451909Y-3599354D01*
G01X5442786Y-3596046D01*
G01X5453220Y-3592015D01*
G01X5461901Y-3584961D01*
G01X5467982Y-3575574D01*
G01X5485043Y-3575574D01*
G01X5490397Y-3584764D01*
G01X5498214Y-3591977D01*
G01X5507805Y-3596576D01*
G01X5518323Y-3598156D01*
G01X5608323Y-3598156D01*
G01X5619390Y-3596403D01*
G01X5629374Y-3591316D01*
G01X5637297Y-3583393D01*
G01X5642384Y-3573409D01*
G01X5644137Y-3562342D01*
G01X5644137Y-3482342D01*
G01X5642384Y-3471275D01*
G01X5637297Y-3461291D01*
G01X5629374Y-3453368D01*
G01X5619390Y-3448281D01*
G01X5608323Y-3446528D01*
G01X5518323Y-3446528D01*
G01X5508666Y-3447855D01*
G01X5499724Y-3451736D01*
G01X5492160Y-3457885D01*
G01X5486535Y-3465846D01*
G01X5467982Y-3465846D01*
G01X5461570Y-3456096D01*
G01X5452364Y-3448924D01*
G01X5452364Y-3430859D01*
G01X5465668Y-3431757D01*
G01X5478883Y-3429975D01*
G01X5491473Y-3425585D01*
G01X5502931Y-3418763D01*
G01X5508638Y-3419221D01*
G01X5657990Y-3419221D01*
G01X5666803Y-3418120D01*
G01X5675073Y-3414884D01*
G01X5678922Y-3428406D01*
G01X5685536Y-3440813D01*
G01X5685536Y-3449669D01*
G01X5675120Y-3454579D01*
G01X5666800Y-3462541D01*
G01X5661437Y-3472732D01*
G01X5659586Y-3484098D01*
G01X5659586Y-3564098D01*
G01X5661339Y-3575165D01*
G01X5666426Y-3585148D01*
G01X5674349Y-3593072D01*
G01X5684333Y-3598159D01*
G01X5695400Y-3599912D01*
G01X5785400Y-3599912D01*
G01X5796910Y-3598012D01*
G01X5829300Y-3598012D01*
G01X5845461Y-3596223D01*
G01X5860840Y-3590944D01*
G01X5874693Y-3582431D01*
G01X5886349Y-3571094D01*
G01X5895245Y-3557483D01*
G01X5900949Y-3542256D01*
G01X5903185Y-3526151D01*
G01X5901847Y-3509946D01*
G01X5896997Y-3494427D01*
G01X5888872Y-3480343D01*
G01X5901724Y-3493195D01*
G01X5913086Y-3501914D01*
G01X5926319Y-3507395D01*
G01X5940518Y-3509264D01*
G01X6015069Y-3509264D01*
G01X6019979Y-3519680D01*
G01X6027941Y-3528000D01*
G01X6038132Y-3533363D01*
G01X6049498Y-3535214D01*
G01X6129498Y-3535214D01*
G01X6140565Y-3533461D01*
G01X6150548Y-3528374D01*
G01X6158472Y-3520451D01*
G01X6163559Y-3510467D01*
G01X6165312Y-3499400D01*
G01X6165312Y-3409400D01*
G01X6164071Y-3400054D01*
G01X6160434Y-3391356D01*
G01X6213968Y-3337822D01*
G01X6265715Y-3337822D01*
G01X6270922Y-3336426D01*
G01X6274734Y-3332615D01*
G01X6276129Y-3327408D01*
G01X6276129Y-2870208D01*
G01X6274734Y-2865001D01*
G01X6270922Y-2861189D01*
G01X6265715Y-2859794D01*
G01X6072721Y-2859794D01*
G01X6072721Y-2816734D01*
G01X6075477Y-2809029D01*
G01X6076412Y-2800900D01*
G01X6076412Y-2710900D01*
G01X6074659Y-2699833D01*
G01X6069572Y-2689849D01*
G01X6061648Y-2681926D01*
G01X6051665Y-2676839D01*
G01X6040598Y-2675086D01*
G01X5960598Y-2675086D01*
G01X5949232Y-2676937D01*
G01X5939041Y-2682300D01*
G01X5931079Y-2690620D01*
G01X5926169Y-2701036D01*
G01X5918200Y-2701036D01*
G01X5904000Y-2702905D01*
G01X5890768Y-2708386D01*
G01X5879405Y-2717105D01*
G01X5841305Y-2755205D01*
G01X5833364Y-2765263D01*
G01X5833364Y-2732849D01*
G01X5845674Y-2724773D01*
G01X5855897Y-2714178D01*
G01X5863530Y-2701589D01*
G01X5868196Y-2687625D01*
G01X5869666Y-2672976D01*
G01X5867866Y-2658364D01*
G01X6182844Y-2658364D01*
G01X6182164Y-2671012D01*
G01X6183902Y-2683558D01*
G01X6187994Y-2695544D01*
G01X6194292Y-2706534D01*
G01X6202564Y-2716125D01*
G01X6212509Y-2723968D01*
G01X6223764Y-2729777D01*
G01X6235919Y-2733339D01*
G01X6567932Y-3065352D01*
G01X6567932Y-3289990D01*
G01X6566595Y-3288605D01*
G01X6527631Y-3249642D01*
G01X6517305Y-3241537D01*
G01X6514162Y-3232153D01*
G01X6508569Y-3223987D01*
G01X6500956Y-3217664D01*
G01X6491902Y-3213666D01*
G01X6482100Y-3212299D01*
G01X6395700Y-3212299D01*
G01X6384633Y-3214051D01*
G01X6374649Y-3219138D01*
G01X6366726Y-3227062D01*
G01X6361639Y-3237045D01*
G01X6359886Y-3248113D01*
G01X6359886Y-3328760D01*
G01X6361639Y-3339827D01*
G01X6366726Y-3349811D01*
G01X6374649Y-3357734D01*
G01X6384633Y-3362821D01*
G01X6395700Y-3364574D01*
G01X6472936Y-3364574D01*
G01X6472936Y-3429000D01*
G01X6474805Y-3443200D01*
G01X6480286Y-3456432D01*
G01X6489005Y-3467795D01*
G01X6514405Y-3493195D01*
G01X6525417Y-3501709D01*
G01X6538217Y-3507179D01*
G01X6551982Y-3509250D01*
G01X6551982Y-3518501D01*
G01X6553435Y-3528600D01*
G01X6557678Y-3537879D01*
G01X6564365Y-3545586D01*
G01X6235700Y-3545586D01*
G01X6224633Y-3547339D01*
G01X6214649Y-3552426D01*
G01X6206726Y-3560349D01*
G01X6201639Y-3570333D01*
G01X6199886Y-3581400D01*
G01X6199886Y-3748864D01*
G01X6197600Y-3748791D01*
G01X5689631Y-3748791D01*
G01X5680362Y-3750011D01*
G01X5671724Y-3753589D01*
G01X5664307Y-3759281D01*
G01X5649397Y-3774191D01*
G01X5500713Y-3774191D01*
G01X5489646Y-3775944D01*
G01X5479662Y-3781031D01*
G01X5471739Y-3788954D01*
G01X5466652Y-3798938D01*
G01X5464899Y-3810005D01*
G01X5464899Y-3947074D01*
G01X5466652Y-3958141D01*
G01X5471739Y-3968125D01*
G01X5479662Y-3976048D01*
G01X5489646Y-3981135D01*
G01X5500713Y-3982888D01*
G01X5621339Y-3982888D01*
G01X5653817Y-4015366D01*
G01X5653817Y-4140200D01*
G01X5655570Y-4151267D01*
G01X5660657Y-4161251D01*
G01X5668580Y-4169174D01*
G01X5678564Y-4174261D01*
G01X5689631Y-4176014D01*
G01X6197600Y-4176014D01*
G01X6207512Y-4174615D01*
G01X6216650Y-4170527D01*
G01X6225788Y-4174615D01*
G01X6235700Y-4176014D01*
G01X6718300Y-4176014D01*
G01X6729367Y-4174261D01*
G01X6739351Y-4169174D01*
G01X6747274Y-4161251D01*
G01X6752361Y-4151267D01*
G01X6754114Y-4140200D01*
G01X6754114Y-3632095D01*
G01X6774900Y-3648001D01*
G01X6797871Y-3660544D01*
G01X6822490Y-3669431D01*
G01X6848177Y-3674452D01*
G01X6874330Y-3675490D01*
G01X6900334Y-3672521D01*
G01X6925579Y-3665613D01*
G01X6949473Y-3654929D01*
G01X6971454Y-3640721D01*
G01X6991006Y-3623321D01*
G01X7007670Y-3603138D01*
G01X7021056Y-3580646D01*
G01X7030847Y-3556374D01*
G01X7036816Y-3530890D01*
G01X7038821Y-3504794D01*
G01X7038821Y-3404794D01*
G01X7036913Y-3379335D01*
G01X7031233Y-3354446D01*
G01X7021905Y-3330681D01*
G01X7009141Y-3308571D01*
G01X6993223Y-3288611D01*
G01X6974508Y-3271246D01*
G01X6953414Y-3256865D01*
G01X6930413Y-3245788D01*
G01X6906017Y-3238263D01*
G01X6880773Y-3234458D01*
G01X6855243Y-3234458D01*
G01X6829998Y-3238263D01*
G01X6805602Y-3245788D01*
G01X6782601Y-3256865D01*
G01X6761507Y-3271246D01*
G01X6742792Y-3288611D01*
G01X6726875Y-3308571D01*
G01X6714110Y-3330681D01*
G01X6704783Y-3354446D01*
G01X6699102Y-3379335D01*
G01X6697194Y-3404794D01*
G01X6697194Y-3504794D01*
G01X6698516Y-3526004D01*
G01X6702461Y-3546886D01*
G01X6692900Y-3545586D01*
G01X6681227Y-3545586D01*
G01X6687914Y-3537879D01*
G01X6692157Y-3528600D01*
G01X6693610Y-3518501D01*
G01X6693610Y-3393500D01*
G01X6691705Y-3381975D01*
G01X6686193Y-3371676D01*
G01X6677660Y-3363699D01*
G01X6677660Y-3042626D01*
G01X6675791Y-3028426D01*
G01X6670310Y-3015194D01*
G01X6661591Y-3003831D01*
G01X6659023Y-3001264D01*
G01X7165475Y-3001264D01*
G01X7184136Y-3019925D01*
G01X7184136Y-4091584D01*
G37*
G36*
G01X5003724Y-2006524D02*
G01X5009416Y-1999107D01*
G01X5012994Y-1990469D01*
G01X5014214Y-1981200D01*
G01X5014214Y-1816100D01*
G01X5012994Y-1806831D01*
G01X5009416Y-1798193D01*
G01X5003724Y-1790776D01*
G01X4833814Y-1620865D01*
G01X4826396Y-1615173D01*
G01X4817759Y-1611596D01*
G01X4808489Y-1610375D01*
G01X4505824Y-1610375D01*
G01X4366514Y-1471065D01*
G01X4366514Y-1171477D01*
G01X4630062Y-1435024D01*
G01X4637479Y-1440716D01*
G01X4646117Y-1444294D01*
G01X4655386Y-1445514D01*
G01X6193925Y-1445514D01*
G01X6357772Y-1609362D01*
G01X6357772Y-1613170D01*
G01X6348385Y-1619252D01*
G01X6341332Y-1627933D01*
G01X6337300Y-1638366D01*
G01X6333993Y-1629244D01*
G01X6328358Y-1621344D01*
G01X6320809Y-1615247D01*
G01X6311901Y-1611400D01*
G01X6302287Y-1610086D01*
G01X6221640Y-1610086D01*
G01X6210722Y-1611790D01*
G01X6200844Y-1616742D01*
G01X6192946Y-1624469D01*
G01X6187778Y-1634236D01*
G01X6182022Y-1634236D01*
G01X6176854Y-1624469D01*
G01X6168956Y-1616742D01*
G01X6159078Y-1611790D01*
G01X6148160Y-1610086D01*
G01X6067513Y-1610086D01*
G01X6056445Y-1611839D01*
G01X6046462Y-1616926D01*
G01X6038538Y-1624849D01*
G01X6033451Y-1634833D01*
G01X6031699Y-1645900D01*
G01X6031699Y-1732300D01*
G01X6033243Y-1742704D01*
G01X6037743Y-1752210D01*
G01X6044811Y-1760000D01*
G01X6053836Y-1765400D01*
G01X6053836Y-1894975D01*
G01X5958975Y-1989836D01*
G01X5880100Y-1989836D01*
G01X5865900Y-1991705D01*
G01X5852668Y-1997186D01*
G01X5841305Y-2005905D01*
G01X5676205Y-2171005D01*
G01X5667580Y-2182206D01*
G01X5662103Y-2195239D01*
G01X5654622Y-2207825D01*
G01X5650085Y-2221747D01*
G01X5648716Y-2236324D01*
G01X5650579Y-2250847D01*
G01X5655585Y-2264606D01*
G01X5663489Y-2276931D01*
G01X5673905Y-2287220D01*
G01X5686327Y-2294972D01*
G01X5700147Y-2299809D01*
G01X5714691Y-2301493D01*
G01X5729251Y-2299944D01*
G01X5743115Y-2295237D01*
G01X5755608Y-2287601D01*
G01X5766120Y-2277409D01*
G01X5774139Y-2265159D01*
G01X5779272Y-2251447D01*
G01X5781271Y-2236942D01*
G01X5780037Y-2222352D01*
G01X5902825Y-2099564D01*
G01X5981700Y-2099564D01*
G01X5995900Y-2097695D01*
G01X6009132Y-2092214D01*
G01X6020495Y-2083495D01*
G01X6147495Y-1956495D01*
G01X6153555Y-1949293D01*
G01X6161750Y-1953132D01*
G01X6170398Y-1955800D01*
G01X6155575Y-1961230D01*
G01X6142492Y-1970062D01*
G01X6131914Y-1981778D01*
G01X6124461Y-1995694D01*
G01X6120570Y-2010992D01*
G01X6120469Y-2026777D01*
G01X6124163Y-2042124D01*
G01X6131437Y-2056134D01*
G01X6141863Y-2067985D01*
G01X6154832Y-2076985D01*
G01X6169584Y-2082604D01*
G01X6185253Y-2084514D01*
G01X6330953Y-2084514D01*
G01X6346622Y-2082604D01*
G01X6361373Y-2076985D01*
G01X6374342Y-2067985D01*
G01X6384769Y-2056134D01*
G01X6392043Y-2042124D01*
G01X6395737Y-2026777D01*
G01X6395636Y-2010992D01*
G01X6391745Y-1995694D01*
G01X6384292Y-1981778D01*
G01X6373714Y-1970062D01*
G01X6360630Y-1961230D01*
G01X6345808Y-1955800D01*
G01X6360630Y-1950370D01*
G01X6373714Y-1941538D01*
G01X6384292Y-1929822D01*
G01X6391745Y-1915906D01*
G01X6395636Y-1900608D01*
G01X6395737Y-1884823D01*
G01X6392043Y-1869476D01*
G01X6384769Y-1855466D01*
G01X6374342Y-1843615D01*
G01X6361373Y-1834615D01*
G01X6346622Y-1828996D01*
G01X6330953Y-1827085D01*
G01X6185253Y-1827085D01*
G01X6174251Y-1828020D01*
G01X6163564Y-1830798D01*
G01X6163564Y-1764632D01*
G01X6171489Y-1759474D01*
G01X6177788Y-1752420D01*
G01X6182022Y-1743964D01*
G01X6187778Y-1743964D01*
G01X6192946Y-1753731D01*
G01X6200844Y-1761458D01*
G01X6210722Y-1766410D01*
G01X6221640Y-1768114D01*
G01X6302287Y-1768114D01*
G01X6311901Y-1766800D01*
G01X6320809Y-1762953D01*
G01X6328358Y-1756856D01*
G01X6333993Y-1748956D01*
G01X6337300Y-1739834D01*
G01X6340607Y-1748956D01*
G01X6346242Y-1756856D01*
G01X6353791Y-1762953D01*
G01X6362699Y-1766800D01*
G01X6372313Y-1768114D01*
G01X6441186Y-1768114D01*
G01X6441186Y-1968500D01*
G01X6442939Y-1979567D01*
G01X6448026Y-1989551D01*
G01X6455949Y-1997474D01*
G01X6465933Y-2002561D01*
G01X6477000Y-2004314D01*
G01X6635778Y-2004314D01*
G01X6634035Y-2018832D01*
G01X6635570Y-2033374D01*
G01X6640306Y-2047208D01*
G01X6648006Y-2059639D01*
G01X6658282Y-2070042D01*
G01X6670617Y-2077894D01*
G01X6684392Y-2082800D01*
G01X6669502Y-2088264D01*
G01X6656372Y-2097161D01*
G01X6645777Y-2108965D01*
G01X6638346Y-2122978D01*
G01X6634517Y-2138370D01*
G01X6634517Y-2154230D01*
G01X6638346Y-2169622D01*
G01X6645777Y-2183635D01*
G01X6656372Y-2195439D01*
G01X6669502Y-2204336D01*
G01X6684392Y-2209800D01*
G01X6669570Y-2215230D01*
G01X6656486Y-2224062D01*
G01X6645908Y-2235778D01*
G01X6638455Y-2249694D01*
G01X6634564Y-2264992D01*
G01X6634463Y-2280777D01*
G01X6638157Y-2296124D01*
G01X6645431Y-2310134D01*
G01X6655858Y-2321985D01*
G01X6668827Y-2330985D01*
G01X6683578Y-2336604D01*
G01X6699247Y-2338514D01*
G01X6844947Y-2338514D01*
G01X6857288Y-2337336D01*
G01X6869182Y-2333844D01*
G01X6880201Y-2328164D01*
G01X6966809Y-2328164D01*
G01X6966809Y-2332750D01*
G01X6968561Y-2343817D01*
G01X6973648Y-2353801D01*
G01X6981572Y-2361724D01*
G01X6991555Y-2366811D01*
G01X7002623Y-2368564D01*
G01X7089023Y-2368564D01*
G01X7099202Y-2367087D01*
G01X7108541Y-2362778D01*
G01X7116271Y-2355993D01*
G01X7121753Y-2347290D01*
G01X7134787Y-2347290D01*
G01X7140316Y-2355785D01*
G01X7148002Y-2362390D01*
G01X7157232Y-2366577D01*
G01X7167265Y-2368012D01*
G01X7257265Y-2368012D01*
G01X7267298Y-2366577D01*
G01X7276528Y-2362390D01*
G01X7284215Y-2355785D01*
G01X7289744Y-2347290D01*
G01X7302770Y-2347290D01*
G01X7308852Y-2356678D01*
G01X7317533Y-2363731D01*
G01X7327966Y-2367763D01*
G01X7318844Y-2371070D01*
G01X7310944Y-2376705D01*
G01X7304847Y-2384253D01*
G01X7301000Y-2393161D01*
G01X7299686Y-2402775D01*
G01X7299686Y-2483423D01*
G01X7301556Y-2494845D01*
G01X7306972Y-2505075D01*
G01X7315368Y-2513043D01*
G01X7292475Y-2535936D01*
G01X7033125Y-2535936D01*
G01X6858695Y-2361505D01*
G01X6847332Y-2352786D01*
G01X6834100Y-2347305D01*
G01X6819900Y-2345436D01*
G01X5473700Y-2345436D01*
G01X5459500Y-2347305D01*
G01X5446268Y-2352786D01*
G01X5434905Y-2361505D01*
G01X5067486Y-2728924D01*
G01X5057762Y-2727579D01*
G01X5043969Y-2727579D01*
G01X5044437Y-2711972D01*
G01X5041242Y-2696688D01*
G01X5034561Y-2682575D01*
G01X5024764Y-2670416D01*
G01X5012395Y-2660886D01*
G01X4998141Y-2654513D01*
G01X4982791Y-2651652D01*
G01X4967197Y-2652459D01*
G01X4952225Y-2656892D01*
G01X4938705Y-2664704D01*
G01X4927387Y-2675461D01*
G01X4918899Y-2688567D01*
G01X4911056Y-2678613D01*
G01X4901461Y-2670333D01*
G01X4890466Y-2664031D01*
G01X4878473Y-2659936D01*
G01X4865920Y-2658197D01*
G01X4853265Y-2658880D01*
G01X4851701Y-2643139D01*
G01X4846453Y-2628218D01*
G01X4837819Y-2614964D01*
G01X4826291Y-2604133D01*
G01X4989482Y-2604133D01*
G01X5000549Y-2602380D01*
G01X5010533Y-2597293D01*
G01X5018456Y-2589370D01*
G01X5023543Y-2579386D01*
G01X5025296Y-2568319D01*
G01X5025296Y-2487144D01*
G01X5026914Y-2476492D01*
G01X5025291Y-2465841D01*
G01X5023608Y-2455554D01*
G01X5019034Y-2446188D01*
G01X5092700Y-2446188D01*
G01X5103767Y-2444435D01*
G01X5113751Y-2439348D01*
G01X5121674Y-2431425D01*
G01X5126761Y-2421441D01*
G01X5128514Y-2410374D01*
G01X5128514Y-2235200D01*
G01X5126761Y-2224133D01*
G01X5121674Y-2214149D01*
G01X5113751Y-2206226D01*
G01X5103767Y-2201139D01*
G01X5092700Y-2199386D01*
G01X4962112Y-2199386D01*
G01X4964995Y-2191525D01*
G01X4965974Y-2183209D01*
G01X4965974Y-2154150D01*
G01X5349529Y-2154150D01*
G01X5351979Y-2169878D01*
G01X5358107Y-2184569D01*
G01X5367561Y-2197375D01*
G01X5379794Y-2207558D01*
G01X5394103Y-2214532D01*
G01X5409661Y-2217895D01*
G01X5425573Y-2217451D01*
G01X5440920Y-2213228D01*
G01X5454818Y-2205468D01*
G01X5466465Y-2194619D01*
G01X5475191Y-2181306D01*
G01X5480492Y-2166297D01*
G01X5714781Y-1932009D01*
G01X5729945Y-1927155D01*
G01X5743515Y-1918825D01*
G01X5754707Y-1907501D01*
G01X5762876Y-1893834D01*
G01X5767551Y-1878614D01*
G01X5768462Y-1862718D01*
G01X5765556Y-1847063D01*
G01X5759002Y-1832552D01*
G01X5749177Y-1820023D01*
G01X5736648Y-1810198D01*
G01X5722137Y-1803644D01*
G01X5706482Y-1800738D01*
G01X5690586Y-1801649D01*
G01X5675366Y-1806324D01*
G01X5661699Y-1814493D01*
G01X5650375Y-1825685D01*
G01X5642045Y-1839255D01*
G01X5637191Y-1854419D01*
G01X5405165Y-2086446D01*
G01X5405165Y-2086446D01*
G01X5389872Y-2090863D01*
G01X5376074Y-2098799D01*
G01X5364565Y-2109795D01*
G01X5356008Y-2123217D01*
G01X5350898Y-2138292D01*
G01X5349529Y-2154150D01*
G01X4965974Y-2154150D01*
G01X4965974Y-2082369D01*
G01X4972628Y-2072812D01*
G01X4975864Y-2061624D01*
G01X4975339Y-2049990D01*
G01X4971109Y-2039140D01*
G01X5003724Y-2006524D01*
G37*
G36*
G01X5094084Y-3218409D02*
G01X5093184Y-3210427D01*
G01X5090527Y-3202847D01*
G01X5092806Y-3195775D01*
G01X5093576Y-3188386D01*
G01X5093576Y-3153385D01*
G01X5092744Y-3145707D01*
G01X5090284Y-3138386D01*
G01X5092744Y-3131065D01*
G01X5093576Y-3123387D01*
G01X5093576Y-3088386D01*
G01X5091823Y-3077319D01*
G01X5086736Y-3067335D01*
G01X5078813Y-3059412D01*
G01X5068829Y-3054325D01*
G01X5057762Y-3052572D01*
G01X4996033Y-3052572D01*
G01X4983086Y-3051023D01*
G01X4920131Y-3051023D01*
G01X4906418Y-3043898D01*
G01X4891428Y-3040141D01*
G01X4875975Y-3039957D01*
G01X4860899Y-3043356D01*
G01X4860899Y-3020937D01*
G01X4869738Y-3023529D01*
G01X4878908Y-3024403D01*
G01X4890499Y-3024403D01*
G01X4899139Y-3027983D01*
G01X4908410Y-3029204D01*
G01X5057762Y-3029204D01*
G01X5068829Y-3027451D01*
G01X5078813Y-3022364D01*
G01X5086736Y-3014441D01*
G01X5091823Y-3004457D01*
G01X5093576Y-2993390D01*
G01X5093576Y-2963319D01*
G01X5105723Y-2957884D01*
G01X5116204Y-2949686D01*
G01X5144195Y-2921695D01*
G01X5152914Y-2910332D01*
G01X5158395Y-2897100D01*
G01X5160264Y-2882900D01*
G01X5160264Y-2791325D01*
G01X5200481Y-2751108D01*
G01X5210160Y-2763901D01*
G01X5222629Y-2773995D01*
G01X5237157Y-2780798D01*
G01X5252894Y-2783912D01*
G01X5268918Y-2783155D01*
G01X5284291Y-2778571D01*
G01X5298113Y-2770428D01*
G01X5309575Y-2759204D01*
G01X5318004Y-2745555D01*
G01X5322909Y-2730281D01*
G01X5521825Y-2531364D01*
G01X5671447Y-2531364D01*
G01X5544494Y-2658317D01*
G01X5535775Y-2669680D01*
G01X5530294Y-2682912D01*
G01X5528424Y-2697112D01*
G01X5528424Y-2727604D01*
G01X5508612Y-2727604D01*
G01X5497545Y-2729357D01*
G01X5487561Y-2734444D01*
G01X5479638Y-2742367D01*
G01X5474551Y-2752351D01*
G01X5472798Y-2763418D01*
G01X5472798Y-2798420D01*
G01X5473631Y-2806097D01*
G01X5476090Y-2813418D01*
G01X5473631Y-2820739D01*
G01X5472798Y-2828417D01*
G01X5472798Y-2863418D01*
G01X5473631Y-2871096D01*
G01X5476090Y-2878417D01*
G01X5473631Y-2885738D01*
G01X5472798Y-2893416D01*
G01X5472798Y-2921051D01*
G01X5449740Y-2921051D01*
G01X5433869Y-2905180D01*
G01X5433869Y-2882013D01*
G01X5441160Y-2867859D01*
G01X5444865Y-2852374D01*
G01X5444771Y-2836452D01*
G01X5440884Y-2821011D01*
G01X5433427Y-2806943D01*
G01X5422831Y-2795059D01*
G01X5409707Y-2786044D01*
G01X5394812Y-2780418D01*
G01X5379005Y-2778506D01*
G01X5363198Y-2780418D01*
G01X5348303Y-2786044D01*
G01X5335179Y-2795059D01*
G01X5324583Y-2806943D01*
G01X5317126Y-2821011D01*
G01X5313239Y-2836452D01*
G01X5313145Y-2852374D01*
G01X5316850Y-2867859D01*
G01X5324141Y-2882013D01*
G01X5324141Y-2927905D01*
G01X5326010Y-2942105D01*
G01X5331491Y-2955337D01*
G01X5340210Y-2966700D01*
G01X5388220Y-3014710D01*
G01X5399583Y-3023428D01*
G01X5412815Y-3028909D01*
G01X5427015Y-3030779D01*
G01X5472798Y-3030779D01*
G01X5472798Y-3058541D01*
G01X5473624Y-3066185D01*
G01X5476061Y-3073476D01*
G01X5473624Y-3080768D01*
G01X5472798Y-3088411D01*
G01X5472798Y-3116021D01*
G01X5414315Y-3116021D01*
G01X5400115Y-3117891D01*
G01X5386883Y-3123372D01*
G01X5375520Y-3132090D01*
G01X5358705Y-3148905D01*
G01X5349986Y-3160268D01*
G01X5344505Y-3173500D01*
G01X5342636Y-3187700D01*
G01X5342636Y-3302733D01*
G01X5327704Y-3299516D01*
G01X5312432Y-3299802D01*
G01X5297631Y-3303575D01*
G01X5284087Y-3310636D01*
G01X5270500Y-3310636D01*
G01X5256300Y-3312505D01*
G01X5243068Y-3317986D01*
G01X5231705Y-3326705D01*
G01X5193605Y-3364805D01*
G01X5184886Y-3376168D01*
G01X5179405Y-3389400D01*
G01X5177536Y-3403600D01*
G01X5177536Y-3444578D01*
G01X5167769Y-3449746D01*
G01X5160042Y-3457644D01*
G01X5155090Y-3467522D01*
G01X5153386Y-3478440D01*
G01X5153386Y-3559087D01*
G01X5155139Y-3570155D01*
G01X5160226Y-3580138D01*
G01X5168149Y-3588062D01*
G01X5178133Y-3593149D01*
G01X5189200Y-3594901D01*
G01X5275600Y-3594901D01*
G01X5286667Y-3593149D01*
G01X5296651Y-3588062D01*
G01X5304574Y-3580138D01*
G01X5309661Y-3570155D01*
G01X5311414Y-3559087D01*
G01X5311414Y-3478440D01*
G01X5309710Y-3467522D01*
G01X5304758Y-3457644D01*
G01X5297031Y-3449746D01*
G01X5287264Y-3444578D01*
G01X5287264Y-3426325D01*
G01X5289772Y-3423817D01*
G01X5302356Y-3429030D01*
G01X5315740Y-3431560D01*
G01X5329358Y-3431302D01*
G01X5342636Y-3428267D01*
G01X5342636Y-3445116D01*
G01X5333154Y-3448196D01*
G01X5324889Y-3453770D01*
G01X5318481Y-3461407D01*
G01X5314426Y-3470514D01*
G01X5313038Y-3480386D01*
G01X5313038Y-3561034D01*
G01X5314352Y-3570647D01*
G01X5318199Y-3579556D01*
G01X5324296Y-3587104D01*
G01X5332196Y-3592739D01*
G01X5341318Y-3596046D01*
G01X5332196Y-3599354D01*
G01X5324296Y-3604988D01*
G01X5318199Y-3612537D01*
G01X5314352Y-3621445D01*
G01X5313038Y-3631059D01*
G01X5313038Y-3711706D01*
G01X5314014Y-3720009D01*
G01X5285236Y-3748786D01*
G01X5219700Y-3748786D01*
G01X5205280Y-3750206D01*
G01X5191414Y-3754412D01*
G01X5178636Y-3761243D01*
G01X5167435Y-3770435D01*
G01X5049384Y-3888486D01*
G01X4977871Y-3888486D01*
G01X4979698Y-3877194D01*
G01X4979698Y-3707195D01*
G01X4978545Y-3698182D01*
G01X4975161Y-3689749D01*
G01X4969764Y-3682439D01*
G01X4969764Y-3540625D01*
G01X4988425Y-3521964D01*
G01X5074739Y-3521964D01*
G01X5088939Y-3520095D01*
G01X5102171Y-3514614D01*
G01X5113534Y-3505895D01*
G01X5144195Y-3475234D01*
G01X5152914Y-3463871D01*
G01X5158395Y-3450639D01*
G01X5160264Y-3436439D01*
G01X5160264Y-3340100D01*
G01X5158395Y-3325900D01*
G01X5152914Y-3312668D01*
G01X5144195Y-3301305D01*
G01X5104977Y-3262088D01*
G01X5094084Y-3253643D01*
G01X5094084Y-3218409D01*
G37*
G36*
G01X6058789Y-3337822D02*
G01X6050703Y-3345908D01*
G01X6043407Y-3354942D01*
G01X6038176Y-3365309D01*
G01X6035243Y-3376545D01*
G01X6026330Y-3382089D01*
G01X6019407Y-3389978D01*
G01X6015069Y-3399536D01*
G01X5963244Y-3399536D01*
G01X5947664Y-3383956D01*
G01X5947664Y-3352800D01*
G01X5947140Y-3345239D01*
G01X5945580Y-3337822D01*
G01X6058789Y-3337822D01*
G37*
G36*
G01X7692136Y-4091584D02*
G01X7674264Y-4102148D01*
G01X7658372Y-4115507D01*
G01X7644893Y-4131298D01*
G01X7634195Y-4149090D01*
G01X7626568Y-4168400D01*
G01X7622221Y-4188700D01*
G01X7621272Y-4209440D01*
G01X7623746Y-4230053D01*
G01X7629576Y-4249979D01*
G01X7638603Y-4268674D01*
G01X7650583Y-4285631D01*
G01X7665187Y-4300386D01*
G01X7320813Y-4300386D01*
G01X7335417Y-4285631D01*
G01X7347397Y-4268674D01*
G01X7356424Y-4249979D01*
G01X7362254Y-4230053D01*
G01X7364728Y-4209440D01*
G01X7363779Y-4188700D01*
G01X7359432Y-4168400D01*
G01X7351805Y-4149090D01*
G01X7341107Y-4131298D01*
G01X7327628Y-4115507D01*
G01X7311736Y-4102148D01*
G01X7293864Y-4091584D01*
G01X7293864Y-2997200D01*
G01X7291995Y-2983000D01*
G01X7286514Y-2969768D01*
G01X7277795Y-2958405D01*
G01X7269853Y-2950464D01*
G01X7635375Y-2950464D01*
G01X7692136Y-3007225D01*
G01X7692136Y-4091584D01*
G37*
G54D10*
G01X6227692Y-425460D02*
G01X6441440Y-639208D01*
G01X6441440Y-1341992D01*
G01X6383892Y-1399540D01*
G01X4659595Y-1399540D01*
G01X4124960Y-864905D01*
G01X4124960Y-702499D01*
G03X4121984Y-695315I-10160J0D01*
G01X4067185Y-640516D01*
G03X4060001Y-637540I-7184J-7184D01*
G01X3534808Y-637540D01*
G01X3515360Y-618092D01*
G01X3515360Y-137160D01*
G01X4275692Y-137160D01*
G01X4342140Y-203609D01*
G01X4342140Y-415300D01*
G03X4352300Y-425460I10160J0D01*
G01X6227692Y-425460D01*
G01X4076483Y-865052D02*
G01X4078986Y-867554D01*
G01X4078986Y-869114D01*
G03X4089476Y-894438I35814J0D01*
G01X4320540Y-1125503D01*
G01X4320540Y-1485900D01*
G03X4323516Y-1493084I10160J0D01*
G01X4483805Y-1653373D01*
G03X4490989Y-1656349I7184J7184D01*
G01X4804281Y-1656349D01*
G01X4968240Y-1820308D01*
G01X4968240Y-1976992D01*
G01X4936092Y-2009140D01*
G01X4800976Y-2009140D01*
G01X4742062Y-1950226D01*
G03X4734878Y-1947250I-7184J-7184D01*
G01X4571060Y-1947250D01*
G01X4571060Y-1843100D01*
G03X4560900Y-1832940I-10160J0D01*
G01X4387309Y-1832940D01*
G01X4163060Y-1608692D01*
G01X4163060Y-1193800D01*
G03X4160084Y-1186616I-10160J0D01*
G01X3947160Y-973692D01*
G01X3947160Y-712843D01*
G01X4073507Y-712843D01*
G01X4073507Y-857867D01*
G03X4076483Y-865052I10160J0D01*
G01X3947160Y-1824467D02*
G01X4313818Y-1824467D01*
G01X4357776Y-1868425D01*
G03X4381676Y-1878886I25324J25324D01*
G01X4391972Y-1889182D01*
G03X4399156Y-1892158I7184J7184D01*
G01X4525086Y-1892158D01*
G01X4525086Y-1957410D01*
G03X4525340Y-1961668I35814J0D01*
G01X4525340Y-2016050D01*
G01X4519552Y-2021839D01*
G01X3953907Y-2021839D01*
G01X3947160Y-2015092D01*
G01X3947160Y-1824467D01*
G01X4610753Y-2250440D02*
G03X4597527Y-2246359I-26053J-60960D01*
G01X4594860Y-2243692D01*
G01X4594860Y-2118721D01*
G01X4746879Y-2118721D01*
G03X4754063Y-2115745I0J10160D01*
G01X4802248Y-2067560D01*
G01X4920000Y-2067560D01*
G01X4920000Y-2173049D01*
G01X4827191Y-2173049D01*
G03X4820007Y-2176025I0J-10160D01*
G01X4793416Y-2202616D01*
G03X4790440Y-2209800I7184J-7184D01*
G01X4790440Y-2409867D01*
G01X4749309Y-2450998D01*
G01X4638867Y-2450998D01*
G03X4629304Y-2449698I-9563J-34514D01*
G01X4573627Y-2449698D01*
G01X4573627Y-2449327D01*
G01X4629304Y-2449327D01*
G03X4657290Y-2435860I0J35814D01*
G01X4686300Y-2435860D01*
G03X4693484Y-2432884I0J10160D01*
G01X4706184Y-2420184D01*
G03X4709160Y-2413000I-7184J7184D01*
G01X4709160Y-2311400D01*
G03X4706184Y-2304216I-10160J0D01*
G01X4655384Y-2253416D01*
G03X4648200Y-2250440I-7184J-7184D01*
G01X4610753Y-2250440D01*
G01X4866797Y-2400214D02*
G01X4866797Y-2245360D01*
G01X5082540Y-2245360D01*
G01X5082540Y-2400214D01*
G01X4866797Y-2400214D01*
G01X4423808Y-2270760D02*
G01X4557201Y-2270845D01*
G03X4559376Y-2273224I27499J22945D01*
G01X4572076Y-2285924D01*
G03X4597400Y-2296414I25324J25324D01*
G01X4633365Y-2296414D01*
G01X4663186Y-2326235D01*
G01X4663186Y-2389886D01*
G01X4573627Y-2389886D01*
G01X4573627Y-2379513D01*
G03X4550829Y-2346148I-35814J0D01*
G01X4542187Y-2337506D01*
G03X4535003Y-2334530I-7184J-7184D01*
G01X4423629Y-2334530D01*
G01X4423629Y-2270940D01*
G01X4423808Y-2270760D01*
G01X4260600Y-2303631D02*
G01X4216273Y-2347959D01*
G03X4163945Y-2400764I12827J-65041D01*
G03X4193550Y-2468956I65155J-12236D01*
G03X4168914Y-2552706I35550J-55956D01*
G03X4248644Y-2588260I60186J27794D01*
G01X4255445Y-2588260D01*
G03X4281321Y-2599314I25876J24760D01*
G01X4303389Y-2599314D01*
G03X4314571Y-2600554I11182J49814D01*
G01X4335407Y-2600554D01*
G01X4335407Y-2656840D01*
G01X4144408Y-2656840D01*
G01X4075760Y-2588192D01*
G01X4075760Y-2084781D01*
G01X4513600Y-2084781D01*
G01X4513600Y-2160349D01*
G01X4391640Y-2160349D01*
G03X4384455Y-2163325I0J-10160D01*
G01X4348916Y-2198864D01*
G03X4345940Y-2206048I7184J-7184D01*
G01X4345940Y-2243692D01*
G01X4319116Y-2270515D01*
G03X4285348Y-2279105I-1116J-66285D01*
G03X4260600Y-2303631I32652J-57695D01*
G01X251460Y-2810284D02*
G01X251460Y-2791915D01*
G01X338103Y-2791915D01*
G03X365838Y-2778760I0J35814D01*
G01X402192Y-2778760D01*
G01X459740Y-2836308D01*
G01X459740Y-3119992D01*
G01X386516Y-3193216D01*
G03X383540Y-3200400I7184J-7184D01*
G01X383540Y-3202686D01*
G01X369591Y-3202686D01*
G03X359177Y-3213100I0J-10414D01*
G01X359177Y-3616300D01*
G03X369591Y-3626714I10414J0D01*
G01X383540Y-3626714D01*
G01X383540Y-3653863D01*
G01X108173Y-3653863D01*
G01X108173Y-3093895D01*
G01X194708Y-3007360D01*
G01X292100Y-3007360D01*
G03X299284Y-3004384I0J10160D01*
G01X362784Y-2940884D01*
G03X365760Y-2933700I-7184J7184D01*
G01X365760Y-2908852D01*
G03X373917Y-2886098I-27657J22754D01*
G01X373917Y-2846098D01*
G03X338103Y-2810284I-35814J0D01*
G01X251460Y-2810284D01*
G01X406400Y-2732786D02*
G01X259258Y-2732786D01*
G01X259258Y-2727960D01*
G01X342900Y-2727960D01*
G03X350084Y-2724984I0J10160D01*
G01X350289Y-2724779D01*
G03X373917Y-2691102I-12186J33677D01*
G01X373917Y-2651102D01*
G03X365760Y-2628348I-35814J0D01*
G01X365760Y-2514600D01*
G03X355600Y-2504440I-10160J0D01*
G01X347108Y-2504440D01*
G01X327660Y-2484992D01*
G01X327660Y-1714500D01*
G03X324684Y-1707316I-10160J0D01*
G01X48260Y-1430892D01*
G01X48260Y-713100D01*
G01X605160Y-713100D01*
G03X612344Y-710124I0J10160D01*
G01X858908Y-463560D01*
G01X1034295Y-463560D01*
G03X1041480Y-460584I0J10160D01*
G01X1124784Y-377280D01*
G03X1127760Y-370095I-7184J7184D01*
G01X1127760Y-73660D01*
G01X2700892Y-73660D01*
G01X2771140Y-143908D01*
G01X2771140Y-452992D01*
G01X2738992Y-485140D01*
G01X2298700Y-485140D01*
G03X2291516Y-488116I0J-10160D01*
G01X1694616Y-1085016D01*
G03X1691640Y-1092200I7184J-7184D01*
G01X1691640Y-1430892D01*
G01X1380092Y-1742440D01*
G01X812800Y-1742440D01*
G03X805616Y-1745416I0J-10160D01*
G01X640516Y-1910516D01*
G03X637540Y-1917700I7184J-7184D01*
G01X637540Y-2446892D01*
G01X579992Y-2504440D01*
G01X475208Y-2504440D01*
G03X465048Y-2514600I0J-10160D01*
G01X465048Y-2643737D01*
G03X464283Y-2651102I35048J-7365D01*
G01X464283Y-2691102D01*
G03X465048Y-2698467I35814J0D01*
G01X465048Y-2708736D01*
G03X464283Y-2716101I35048J-7365D01*
G01X464283Y-2717718D01*
G01X435225Y-2746776D01*
G01X431724Y-2743276D01*
G03X406400Y-2732786I-25324J-25324D01*
G01X823321Y-1521206D02*
G03X1054948Y-1521206I115814J0D01*
G03X823321Y-1521206I-115814J0D01*
G01X517803Y-2969858D02*
G01X505714Y-2957769D01*
G01X505714Y-2856913D01*
G01X590097Y-2856913D01*
G03X594387Y-2856655I0J35814D01*
G01X615058Y-2877326D01*
G01X615058Y-3112132D01*
G01X605639Y-3121551D01*
G01X520779Y-3121551D01*
G01X520779Y-2977043D01*
G03X517803Y-2969858I-10160J0D01*
G01X1554197Y-3431085D02*
G03X1548508Y-3431540I0J-35814D01*
G01X1490108Y-3431540D01*
G01X1457960Y-3399392D01*
G01X1457960Y-3086100D01*
G03X1447800Y-3075940I-10160J0D01*
G01X1432560Y-3075940D01*
G01X1432560Y-2556908D01*
G01X1439308Y-2550160D01*
G01X1621392Y-2550160D01*
G01X1666240Y-2595008D01*
G01X1666240Y-2631186D01*
G01X1651000Y-2631186D01*
G03X1640586Y-2641600I0J-10414D01*
G01X1640586Y-3048000D01*
G03X1648597Y-3058133I10414J0D01*
G01X1595943Y-3110787D01*
G03X1592967Y-3117971I7184J-7184D01*
G01X1592967Y-3290268D01*
G01X1548915Y-3290268D01*
G03X1541731Y-3293244I0J-10160D01*
G01X1532763Y-3302212D01*
G03X1529787Y-3309396I7184J-7184D01*
G01X1529787Y-3310695D01*
G03X1518383Y-3336902I24410J-26207D01*
G01X1518383Y-3376902D01*
G03X1554197Y-3412716I35814J0D01*
G01X1640840Y-3412716D01*
G01X1640840Y-3431085D01*
G01X1554197Y-3431085D01*
G01X1294009Y-3367037D02*
G01X1292860Y-3367037D01*
G01X1292860Y-3139549D01*
G01X1411986Y-3139549D01*
G01X1411986Y-3361546D01*
G01X1405058Y-3368473D01*
G03X1392203Y-3366087I-12855J-33427D01*
G01X1302203Y-3366087D01*
G03X1294009Y-3367037I0J-35814D01*
G01X2219960Y-4251083D02*
G01X2219960Y-3880154D01*
G01X2320831Y-3880154D01*
G01X2320831Y-3887643D01*
G03X2319282Y-3900589I53315J-12947D01*
G01X2319282Y-3974346D01*
G03X2326640Y-4001791I54864J0D01*
G01X2326640Y-4038600D01*
G03X2329616Y-4045784I10160J0D01*
G01X2402840Y-4119008D01*
G01X2402840Y-4262992D01*
G01X2393281Y-4272551D01*
G01X2241428Y-4272551D01*
G01X2219960Y-4251083D01*
G01X2834640Y-4282445D02*
G01X2404513Y-4282445D01*
G01X2401968Y-4279900D01*
G01X2408880Y-4272988D01*
G03X2411856Y-4265804I-7184J7184D01*
G01X2411856Y-4116613D01*
G01X2834640Y-4116613D01*
G01X2834640Y-4282445D01*
G01X1763014Y-2641600D02*
G01X1762760Y-2639314D01*
G01X1762760Y-2397760D01*
G01X2313940Y-2397760D01*
G01X2313940Y-3505200D01*
G03X2316916Y-3512384I10160J0D01*
G01X2328049Y-3523518D01*
G01X2328049Y-3565278D01*
G03X2320831Y-3586841I28596J-21562D01*
G01X2320831Y-3638526D01*
G01X2216634Y-3638526D01*
G03X2192990Y-3647440I0J-35814D01*
G01X2188608Y-3647440D01*
G01X2106541Y-3565373D01*
G01X2106541Y-2628900D01*
G03X2096381Y-2618740I-10160J0D01*
G01X2044700Y-2618740D01*
G03X2034540Y-2628900I0J-10160D01*
G01X2034540Y-3069192D01*
G01X2002392Y-3101340D01*
G01X1762760Y-3101340D01*
G01X1762760Y-3050286D01*
G01X1763014Y-3048000D01*
G01X1763014Y-2641600D01*
G01X4569460Y-2692400D02*
G01X4569460Y-2636278D01*
G03X4573627Y-2619512I-31647J16766D01*
G01X4573627Y-2599314D01*
G01X4629304Y-2599314D01*
G03X4655180Y-2588260I0J35814D01*
G01X4669392Y-2588260D01*
G01X4699436Y-2618304D01*
G01X4699436Y-2808040D01*
G03X4684105Y-2850439I50963J-42399D01*
G03X4699436Y-2892838I66294J0D01*
G01X4699436Y-2918501D01*
G01X4544060Y-2918501D01*
G01X4544060Y-2722008D01*
G01X4566484Y-2699584D01*
G03X4569460Y-2692400I-7184J7184D01*
G01X4215964Y-2725124D02*
G01X4238274Y-2702814D01*
G01X4345567Y-2702814D01*
G03X4349825Y-2702560I0J35814D01*
G01X4368800Y-2702560D01*
G03X4378960Y-2692400I0J10160D01*
G01X4378960Y-2679944D01*
G03X4381381Y-2667000I-33393J12944D01*
G01X4381381Y-2626017D01*
G03X4383635Y-2613513I-33560J12505D01*
G01X4383635Y-2585512D01*
G03X4380758Y-2571447I-35814J0D01*
G03X4378960Y-2565156I-35191J-6653D01*
G01X4378960Y-2531205D01*
G03X4383635Y-2513513I-31139J17692D01*
G01X4383635Y-2485512D01*
G03X4381902Y-2474506I-35814J0D01*
G03X4383635Y-2463500I-34081J11006D01*
G01X4383635Y-2435499D01*
G03X4381906Y-2424506I-35814J0D01*
G03X4383635Y-2413513I-34085J10993D01*
G01X4383635Y-2385512D01*
G01X4383632Y-2385060D01*
G01X4523486Y-2385060D01*
G01X4523486Y-2471468D01*
G03X4526990Y-2486918I35814J0D01*
G01X4526990Y-2513513D01*
G03X4528719Y-2524506I35814J0D01*
G03X4526990Y-2535499I34085J-10993D01*
G01X4526990Y-2562650D01*
G03X4523486Y-2578100I32310J-15450D01*
G01X4523486Y-2650346D01*
G01X4463216Y-2710616D01*
G03X4460240Y-2717800I7184J-7184D01*
G01X4460240Y-2869931D01*
G01X4411670Y-2918501D01*
G01X4215964Y-2918501D01*
G01X4215964Y-2725124D01*
G01X7488792Y-1729740D02*
G01X6969760Y-1729740D01*
G01X6969760Y-1604408D01*
G01X7042984Y-1531184D01*
G03X7045960Y-1524000I-7184J7184D01*
G01X7045960Y-1343660D01*
G01X7495540Y-1343660D01*
G01X7495540Y-1722992D01*
G01X7488792Y-1729740D01*
G01X4768532Y-2496793D02*
G01X4778665Y-2486660D01*
G01X4979322Y-2486660D01*
G01X4979322Y-2558159D01*
G01X4755575Y-2558159D01*
G01X4704877Y-2507460D01*
G01X4704696Y-2507282D01*
G01X4743207Y-2507282D01*
G03X4768532Y-2496793I0J35814D01*
G01X4866749Y-2558157D02*
G01X4866749Y-2476579D01*
G01X4979322Y-2476579D01*
G01X4979322Y-2558157D01*
G01X4866749Y-2558157D01*
G01X7193716Y-1135816D02*
G01X7031598Y-1297933D01*
G03X7000233Y-1329298I4202J-35567D01*
G01X6993492Y-1336040D01*
G01X6570108Y-1336040D01*
G01X6550560Y-1316491D01*
G01X6550560Y-841471D01*
G01X6708771Y-683260D01*
G01X7717392Y-683260D01*
G01X7837865Y-803733D01*
G01X7837865Y-1132840D01*
G01X7200900Y-1132840D01*
G03X7193716Y-1135816I0J-10160D01*
G01X6688692Y-3591560D02*
G01X6708140Y-3611008D01*
G01X6708140Y-4130040D01*
G01X6245860Y-4130040D01*
G01X6245860Y-3591560D01*
G01X6688692Y-3591560D01*
G01X4213860Y-3073267D02*
G01X4213860Y-2727960D01*
G01X4359810Y-2727960D01*
G01X4359810Y-3073267D01*
G01X4213860Y-3073267D01*
G01X5510873Y-3936914D02*
G01X5510873Y-3825016D01*
G01X5515724Y-3820165D01*
G01X5664231Y-3820165D01*
G03X5671415Y-3817189I0J10160D01*
G01X5693840Y-3794765D01*
G01X6187440Y-3794765D01*
G01X6187440Y-4130040D01*
G01X5699791Y-4130040D01*
G01X5699791Y-4000531D01*
G03X5696815Y-3993347I-10160J0D01*
G01X5643358Y-3939889D01*
G03X5636174Y-3936914I-7184J-7184D01*
G01X5510873Y-3936914D01*
G01X1828721Y-4031773D02*
G01X1567616Y-4292878D01*
G03X1565912Y-4295140I7184J-7184D01*
G01X276860Y-4295140D01*
G01X276860Y-3972560D01*
G01X1574800Y-3972560D01*
G03X1581984Y-3969584I0J10160D01*
G01X1747084Y-3804484D01*
G03X1750060Y-3797300I-7184J7184D01*
G01X1750060Y-3782060D01*
G01X1828721Y-3782060D01*
G01X1828721Y-4031773D01*
G01X2374379Y-3344100D02*
G01X2374379Y-2410460D01*
G01X2733040Y-2410460D01*
G01X2733040Y-3344100D01*
G01X2374379Y-3344100D01*
G01X480314Y-3213100D02*
G01X480060Y-3210814D01*
G01X480060Y-3172460D01*
G01X719692Y-3172460D01*
G01X739140Y-3191908D01*
G01X739140Y-3226002D01*
G03X749310Y-3236162I10160J0D01*
G01X948296Y-3235964D01*
G01X980440Y-3268108D01*
G01X980440Y-3479800D01*
G03X990600Y-3489960I10160J0D01*
G01X1135104Y-3489960D01*
G01X1139423Y-3494280D01*
G03X1147237Y-3518058I65755J8433D01*
G01X1147237Y-3538989D01*
G03X1147237Y-3598411I59263J-29711D01*
G01X1147237Y-3619172D01*
G03X1150213Y-3626357I10160J0D01*
G01X1198981Y-3675125D01*
G03X1206165Y-3678100I7184J7184D01*
G01X1422400Y-3678100D01*
G03X1432560Y-3667940I0J10160D01*
G01X1432560Y-3496708D01*
G01X1454012Y-3475256D01*
G01X1473384Y-3475256D01*
G03X1485900Y-3477514I12516J33556D01*
G01X1550411Y-3477514D01*
G03X1554197Y-3477715I3786J35613D01*
G01X1639653Y-3477715D01*
G01X1639653Y-3496084D01*
G01X1554197Y-3496084D01*
G03X1520520Y-3519712I0J-35814D01*
G01X1516816Y-3523416D01*
G03X1513840Y-3530600I7184J-7184D01*
G01X1513840Y-3722707D01*
G03X1516816Y-3729891I10160J0D01*
G01X1539213Y-3752288D01*
G03X1546397Y-3755264I7184J7184D01*
G01X1548937Y-3755264D01*
G01X1548937Y-3915578D01*
G01X389870Y-3915578D01*
G01X354001Y-3879708D01*
G01X354001Y-3731260D01*
G01X406400Y-3731260D01*
G03X413584Y-3728284I0J10160D01*
G01X477084Y-3664784D01*
G03X480060Y-3657600I-7184J7184D01*
G01X480060Y-3618586D01*
G01X480314Y-3616300D01*
G01X480314Y-3213100D01*
G01X4701885Y-3126740D02*
G01X4468792Y-3126740D01*
G03X4404360Y-3121968I-36492J-55347D01*
G01X4404360Y-3093424D01*
G03X4405784Y-3083427I-34390J9997D01*
G01X4405784Y-2969260D01*
G01X4483100Y-2969260D01*
G03X4490284Y-2966284I0J10160D01*
G01X4522224Y-2934344D01*
G03X4525200Y-2927160I-7184J7184D01*
G01X4525200Y-2755112D01*
G01X4560013Y-2720299D01*
G01X4694611Y-2720299D01*
G01X4714240Y-2739928D01*
G01X4714240Y-2794874D01*
G03X4701885Y-2895619I36159J-55565D01*
G01X4701885Y-3126740D01*
G01X6873240Y-1958340D02*
G01X6868116Y-1958340D01*
G03X6844947Y-1954085I-23169J-60960D01*
G01X6699247Y-1954085D01*
G03X6676078Y-1958340I0J-65214D01*
G01X6525260Y-1958340D01*
G01X6525260Y-1635760D01*
G01X6873240Y-1635760D01*
G01X6873240Y-1958340D01*
G01X6487160Y-1958340D02*
G01X6487160Y-1742931D01*
G03X6488774Y-1732300I-34200J10631D01*
G01X6488774Y-1645900D01*
G03X6487309Y-1635760I-35814J0D01*
G01X6619240Y-1635760D01*
G01X6619240Y-1958340D01*
G01X6487160Y-1958340D01*
G01X2905760Y-4295140D02*
G01X2905760Y-3883660D01*
G01X3456940Y-3883660D01*
G01X3456940Y-4295140D01*
G01X2905760Y-4295140D01*
G01X2067560Y-3776108D02*
G01X2159924Y-3683745D01*
G03X2184400Y-3693414I24476J26145D01*
G01X2338209Y-3693414D01*
G03X2361088Y-3685154I0J35814D01*
G01X2391646Y-3685154D01*
G03X2406632Y-3681868I0J35814D01*
G03X2421618Y-3685154I14986J32528D01*
G01X2456619Y-3685154D01*
G03X2466340Y-3683810I0J35814D01*
G01X2466340Y-3830727D01*
G01X2361402Y-3830727D01*
G03X2336800Y-3820940I-24602J-26026D01*
G01X2209800Y-3820940D01*
G03X2175088Y-3847937I0J-35814D01*
G03X2174240Y-3852001I9312J-4064D01*
G01X2174240Y-3852496D01*
G03X2173986Y-3856754I35560J-4258D01*
G01X2173986Y-4255291D01*
G03X2174240Y-4259549I35814J0D01*
G01X2174240Y-4295140D01*
G01X1534160Y-4295140D01*
G01X1534160Y-4023360D01*
G01X1993900Y-4023360D01*
G03X2004060Y-4013200I0J10160D01*
G01X2004060Y-3928508D01*
G01X2064584Y-3867984D01*
G03X2067560Y-3860800I-7184J7184D01*
G01X2067560Y-3776108D01*
G01X136906Y-2667000D02*
G03X154940Y-2712452I66294J0D01*
G01X154940Y-2724150D01*
G03X157916Y-2731334I10160J0D01*
G01X193040Y-2766458D01*
G01X193040Y-2830716D01*
G03X196016Y-2837901I10160J0D01*
G01X210099Y-2851984D01*
G03X212956Y-2853992I7184J7184D01*
G03X241300Y-2867914I28344J21892D01*
G01X319786Y-2867914D01*
G01X319786Y-2918865D01*
G01X317114Y-2921538D01*
G01X180006Y-2921538D01*
G01X50004Y-2791535D01*
G01X50004Y-1728085D01*
G01X258738Y-1728085D01*
G01X258738Y-2300898D01*
G03X261714Y-2308082I10160J0D01*
G01X281686Y-2328054D01*
G01X281686Y-2485246D01*
G01X157916Y-2609016D01*
G03X154940Y-2616200I7184J-7184D01*
G01X154940Y-2621548D01*
G03X136906Y-2667000I48260J-45452D01*
G01X829382Y-396240D02*
G03X822198Y-399216I0J-10160D01*
G01X583874Y-637540D01*
G01X48260Y-637540D01*
G01X48260Y-48260D01*
G01X1010209Y-48260D01*
G01X1053369Y-91419D01*
G01X1053369Y-380063D01*
G01X1037192Y-396240D01*
G01X829382Y-396240D01*
G01X4377624Y-174076D02*
G01X4340418Y-136870D01*
G01X4403628Y-73660D01*
G01X6244192Y-73660D01*
G01X6327140Y-156608D01*
G01X6327140Y-459891D01*
G01X6257224Y-389976D01*
G03X6231900Y-379486I-25324J-25324D01*
G01X4388114Y-379486D01*
G01X4388114Y-199400D01*
G03X4377624Y-174076I-35814J0D01*
G01X2997200Y-683260D02*
G01X3526342Y-683260D01*
G03X3530600Y-683514I4258J35560D01*
G01X3906748Y-683514D01*
G03X3901186Y-702683I30252J-19169D01*
G01X3901186Y-977900D01*
G03X3911676Y-1003224I35814J0D01*
G01X3914140Y-1005689D01*
G01X3914140Y-1116554D01*
G03X3917116Y-1123738I10160J0D01*
G01X4091940Y-1298562D01*
G01X4091940Y-1748392D01*
G01X4072492Y-1767840D01*
G01X3426460Y-1767840D01*
G01X3426460Y-1485900D01*
G03X3423484Y-1478716I-10160J0D01*
G01X3042484Y-1097716D01*
G03X3035300Y-1094740I-7184J-7184D01*
G01X2429908Y-1094740D01*
G01X2283460Y-948292D01*
G01X2283460Y-728108D01*
G01X2341008Y-670560D01*
G01X2980292Y-670560D01*
G01X2990016Y-680284D01*
G03X2997200Y-683260I7184J7184D01*
G01X3331608Y-1826260D02*
G01X3901186Y-1826260D01*
G01X3901186Y-2019300D01*
G03X3901440Y-2023558I35814J0D01*
G01X3901440Y-2281792D01*
G01X3843892Y-2339340D01*
G01X3382408Y-2339340D01*
G01X3312160Y-2269092D01*
G01X3312160Y-1845708D01*
G01X3331608Y-1826260D01*
G01X3883660Y-2702560D02*
G01X4135942Y-2702560D01*
G03X4140200Y-2702814I4258J35560D01*
G01X4340056Y-2702814D01*
G01X4365883Y-2728642D01*
G01X4365883Y-2937173D01*
G03X4358386Y-2959100I28317J-21927D01*
G01X4358386Y-3067942D01*
G01X4353061Y-3073267D01*
G01X3938535Y-3073267D01*
G01X3883660Y-3018392D01*
G01X3883660Y-2702560D01*
G01X6195060Y-3520440D02*
G01X6195060Y-3375660D01*
G01X6466840Y-3375660D01*
G01X6466840Y-3520440D01*
G01X6195060Y-3520440D01*
G01X2184476Y-4280616D02*
G01X2204246Y-4300386D01*
G01X35814Y-4300386D01*
G01X35814Y-1483463D01*
G01X281686Y-1729335D01*
G01X281686Y-2489200D01*
G03X292176Y-2514524I35814J0D01*
G01X317576Y-2539924D01*
G03X319786Y-2541957I25324J25324D01*
G01X319786Y-2615288D01*
G01X248103Y-2615288D01*
G03X244865Y-2615435I0J-35814D01*
G03X139326Y-2649252I-41665J-51565D01*
G03X212289Y-2732668I63874J-17748D01*
G01X212289Y-2747599D01*
G03X205486Y-2768600I29011J-21001D01*
G01X205486Y-2832100D01*
G03X241300Y-2867914I35814J0D01*
G01X319786Y-2867914D01*
G01X319786Y-2918865D01*
G01X277265Y-2961386D01*
G01X190500Y-2961386D01*
G03X165176Y-2971876I0J-35814D01*
G01X72689Y-3064363D01*
G03X62199Y-3089687I25324J-25324D01*
G01X62199Y-3664023D01*
G03X98013Y-3699837I35814J0D01*
G01X315022Y-3699837D01*
G03X308027Y-3721100I28819J-21263D01*
G01X308027Y-3883917D01*
G03X318516Y-3909241I35814J0D01*
G01X360337Y-3951062D01*
G03X385662Y-3961552I25324J25324D01*
G01X1559097Y-3961552D01*
G03X1594911Y-3925738I0J35814D01*
G01X1594911Y-3745104D01*
G03X1561299Y-3709358I-35814J0D01*
G01X1559814Y-3707872D01*
G01X1559814Y-3694735D01*
G01X1561405Y-3696395D01*
G01X1572932Y-3707922D01*
G03X1611727Y-3723991I38795J38795D01*
G01X1711816Y-3723991D01*
G03X1745677Y-3748141I33861J11664D01*
G01X1826325Y-3748141D01*
G03X1861337Y-3719861I0J35814D01*
G03X1881810Y-3745057I35013J7534D01*
G01X1881810Y-3757922D01*
G03X1861088Y-3790400I15093J-32479D01*
G01X1861088Y-3880400D01*
G03X1896902Y-3916214I35814J0D01*
G01X1976902Y-3916214D01*
G03X2012716Y-3880400I0J35814D01*
G01X2012716Y-3790400D01*
G03X1991538Y-3757713I-35814J0D01*
G01X1991538Y-3745057D01*
G03X2007680Y-3730799I-14540J32730D01*
G03X2098294Y-3669127I24320J61672D01*
G03X2007680Y-3607455I-66294J0D01*
G03X1984946Y-3591006I-30683J-18472D01*
G03X2010859Y-3567749I-7948J34921D01*
G01X2060567Y-3567749D01*
G01X2060567Y-3569581D01*
G03X2071057Y-3594905I35814J0D01*
G01X2159076Y-3682924D01*
G03X2184400Y-3693414I25324J25324D01*
G01X2338209Y-3693414D01*
G03X2361088Y-3685154I0J35814D01*
G01X2391646Y-3685154D01*
G03X2406632Y-3681868I0J35814D01*
G03X2421618Y-3685154I14986J32528D01*
G01X2456619Y-3685154D01*
G03X2492433Y-3649340I0J35814D01*
G01X2492433Y-3631037D01*
G03X2493983Y-3618090I-53315J12947D01*
G01X2493983Y-3518858D01*
G03X2500974Y-3497600I-28823J21258D01*
G01X2500974Y-3411200D01*
G03X2465160Y-3375386I-35814J0D01*
G01X2384513Y-3375386D01*
G03X2359914Y-3385170I0J-35814D01*
G01X2359914Y-2387600D01*
G03X2324100Y-2351786I-35814J0D01*
G01X1752600Y-2351786D01*
G03X1716786Y-2387600I0J-35814D01*
G01X1716786Y-2631186D01*
G01X1712214Y-2631186D01*
G01X1712214Y-2590800D01*
G03X1701724Y-2565476I-35814J0D01*
G01X1650924Y-2514676D01*
G03X1625600Y-2504186I-25324J-25324D01*
G01X1435100Y-2504186D01*
G03X1409776Y-2514676I0J-35814D01*
G01X1397076Y-2527376D01*
G03X1386586Y-2552700I25324J-25324D01*
G01X1386586Y-3086100D01*
G03X1387375Y-3093575I35814J0D01*
G01X1282700Y-3093575D01*
G03X1246886Y-3129389I0J-35814D01*
G01X1246886Y-3356234D01*
G03X1219200Y-3348736I-27686J-47366D01*
G01X1166443Y-3348736D01*
G03X1134537Y-3329189I-31906J-16267D01*
G01X1048136Y-3329189D01*
G03X1026414Y-3336529I0J-35814D01*
G01X1026414Y-3267575D01*
G01X1156395Y-3137595D01*
G03X1172464Y-3098800I-38795J38795D01*
G01X1172464Y-2616200D01*
G03X1156395Y-2577405I-54864J0D01*
G01X1118295Y-2539305D01*
G03X1079500Y-2523236I-38795J-38795D01*
G01X1019550Y-2523236D01*
G03X985689Y-2499086I-33861J-11664D01*
G01X905041Y-2499086D01*
G03X870029Y-2527366I0J-35814D01*
G03X849556Y-2502170I-35013J-7534D01*
G01X849556Y-2500962D01*
G03X870830Y-2468233I-14540J32730D01*
G01X870830Y-2381832D01*
G03X835016Y-2346018I-35814J0D01*
G01X754369Y-2346018D01*
G03X718555Y-2381832I0J-35814D01*
G01X718555Y-2468233D01*
G03X739828Y-2500962I35814J0D01*
G01X739828Y-2502170D01*
G03X720507Y-2523236I14540J-32730D01*
G01X674641Y-2523236D01*
G03X635846Y-2539305I0J-54864D01*
G01X608905Y-2566246D01*
G03X592836Y-2605041I38795J-38795D01*
G01X592836Y-2615393D01*
G03X590097Y-2615288I-2739J-35709D01*
G01X511022Y-2615288D01*
G01X511022Y-2550414D01*
G01X584200Y-2550414D01*
G03X609524Y-2539924I0J35814D01*
G01X673024Y-2476424D01*
G03X683514Y-2451100I-25324J25324D01*
G01X683514Y-1932535D01*
G01X827635Y-1788414D01*
G01X1384300Y-1788414D01*
G03X1409624Y-1777924I0J35814D01*
G01X1544204Y-1643345D01*
G01X1544538Y-1732791D01*
G03X1547589Y-1740116I10414J39D01*
G01X1934578Y-2127106D01*
G03X1941942Y-2130156I7364J7364D01*
G01X2021932Y-2130156D01*
G01X2107301Y-2215525D01*
G03X2114665Y-2218575I7364J7364D01*
G01X2821039Y-2218575D01*
G03X2828403Y-2215525I0J10414D01*
G01X2925314Y-2118614D01*
G01X2994251Y-2118614D01*
G03X3001615Y-2115564I0J10414D01*
G01X3335988Y-1781191D01*
G03X3339038Y-1773827I-7364J7364D01*
G01X3339038Y-1459287D01*
G01X3380486Y-1500735D01*
G01X3380486Y-1778000D01*
G03X3416300Y-1813814I35814J0D01*
G01X3901189Y-1813814D01*
G01X3901186Y-1814307D01*
G01X3901186Y-2019300D01*
G03X3911676Y-2044624I35814J0D01*
G01X3924374Y-2057323D01*
G03X3949699Y-2067813I25324J25324D01*
G01X4030439Y-2067813D01*
G03X4029786Y-2074621I35161J-6808D01*
G01X4029786Y-2592400D01*
G03X4040276Y-2617725I35814J0D01*
G01X4114876Y-2692324D01*
G03X4140200Y-2702814I25324J25324D01*
G01X4345567Y-2702814D01*
G03X4381381Y-2667000I0J35814D01*
G01X4381381Y-2626017D01*
G03X4383635Y-2613513I-33560J12505D01*
G01X4383635Y-2585512D01*
G03X4380758Y-2571447I-35814J0D01*
G03X4362128Y-2546345I-35191J-6653D01*
G03X4383635Y-2513513I-14307J32832D01*
G01X4383635Y-2485512D01*
G03X4381902Y-2474506I-35814J0D01*
G03X4383635Y-2463500I-34081J11006D01*
G01X4383635Y-2435499D01*
G03X4381906Y-2424506I-35814J0D01*
G03X4383635Y-2413513I-34085J10993D01*
G01X4383635Y-2385512D01*
G03X4377660Y-2365706I-35814J0D01*
G03X4380543Y-2358782I-59660J28906D01*
G03X4413469Y-2380504I32925J14092D01*
G01X4520168Y-2380504D01*
G01X4523486Y-2383822D01*
G01X4523486Y-2471468D01*
G01X4523574Y-2473984D01*
G01X4523486Y-2476500D01*
G01X4523486Y-2514600D01*
G03X4527312Y-2530706I35814J0D01*
G03X4526990Y-2535499I35492J-4793D01*
G01X4526990Y-2562650D01*
G03X4523486Y-2578100I32310J-15450D01*
G01X4523486Y-2677565D01*
G01X4508576Y-2692476D01*
G03X4498091Y-2717204I25324J-25324D01*
G01X4489715Y-2725580D01*
G03X4479226Y-2750904I25324J-25324D01*
G01X4479226Y-2912326D01*
G01X4468265Y-2923286D01*
G01X4394200Y-2923286D01*
G03X4358386Y-2959100I0J-35814D01*
G01X4358386Y-3118065D01*
G03X4331259Y-3105634I-27127J-23383D01*
G01X4312613Y-3105634D01*
G03X4286259Y-3101184I-26354J-75814D01*
G01X4205137Y-3101184D01*
G03X4146648Y-3082134I-58489J-80264D01*
G01X3778152Y-3082134D01*
G03X3707927Y-3111222I0J-99314D01*
G01X3137041Y-3682108D01*
G03X3107953Y-3752333I70226J-70226D01*
G01X3107953Y-3837686D01*
G01X2895600Y-3837686D01*
G03X2859786Y-3873500I0J-35814D01*
G01X2859786Y-4073925D01*
G03X2844800Y-4070639I-14986J-32528D01*
G01X2812706Y-4070639D01*
G01X2812706Y-4060107D01*
G03X2833980Y-4027378I-14540J32730D01*
G01X2833980Y-3940977D01*
G03X2798166Y-3905163I-35814J0D01*
G01X2717519Y-3905163D01*
G03X2682506Y-3933443I0J-35814D01*
G03X2666424Y-3910575I-35013J-7534D01*
G03X2684124Y-3879679I-18113J30896D01*
G01X2684124Y-3793278D01*
G03X2648310Y-3757464I-35814J0D01*
G01X2567663Y-3757464D01*
G03X2531849Y-3793278I0J-35814D01*
G01X2531849Y-3879679D01*
G03X2548732Y-3910081I35814J0D01*
G03X2531946Y-3932936I18113J-30896D01*
G01X2429010Y-3932936D01*
G01X2429010Y-3900589D01*
G03X2427460Y-3887643I-54864J0D01*
G01X2427460Y-3869339D01*
G03X2391646Y-3833525I-35814J0D01*
G01X2364060Y-3833525D01*
G03X2336800Y-3820940I-27260J-23228D01*
G01X2209800Y-3820940D01*
G03X2173986Y-3856754I0J-35814D01*
G01X2173986Y-4255291D01*
G03X2184476Y-4280616I35814J0D01*
G01X38100Y-667126D02*
G01X35814Y-667199D01*
G01X35814Y-35814D01*
G01X1094882Y-35814D01*
G03X1081786Y-63500I22718J-27686D01*
G01X1081786Y-355261D01*
G01X1019461Y-417586D01*
G01X854700Y-417586D01*
G03X829376Y-428076I0J-35814D01*
G01X590325Y-667126D01*
G01X38100Y-667126D01*
G01X686495Y-2680395D02*
G03X702564Y-2641600I-38795J38795D01*
G01X702564Y-2632964D01*
G01X720507Y-2632964D01*
G03X754369Y-2657114I33861J11664D01*
G01X835016Y-2657114D01*
G03X870029Y-2628834I0J35814D01*
G03X905041Y-2657114I35013J7534D01*
G01X985689Y-2657114D01*
G03X1019550Y-2632964I0J35814D01*
G01X1056775Y-2632964D01*
G01X1062736Y-2638925D01*
G01X1062736Y-2854338D01*
G03X1013473Y-2840500I-41171J-51960D01*
G03X985689Y-2827284I-27784J-22598D01*
G01X905041Y-2827284D01*
G03X870029Y-2855564I0J-35814D01*
G03X860463Y-2837896I-35013J-7534D01*
G01X860463Y-2820784D01*
G03X881413Y-2788200I-14864J32584D01*
G01X881413Y-2698200D01*
G03X845599Y-2662386I-35814J0D01*
G01X765599Y-2662386D01*
G03X734057Y-2681237I0J-35814D01*
G01X685653Y-2681237D01*
G01X686495Y-2680395D01*
G01X1686814Y-3441700D02*
G01X1686814Y-3394147D01*
G03X1651000Y-3358333I-35814J0D01*
G01X1575761Y-3358333D01*
G01X1575761Y-3336242D01*
G01X1603127Y-3336242D01*
G03X1638941Y-3300428I0J35814D01*
G01X1638941Y-3132806D01*
G01X1701724Y-3070022D01*
G03X1709483Y-3058414I-25324J25324D01*
G01X1716786Y-3058414D01*
G01X1716786Y-3111500D01*
G03X1752600Y-3147314I35814J0D01*
G01X2006600Y-3147314D01*
G03X2031924Y-3136824I0J35814D01*
G01X2060567Y-3108182D01*
G01X2060567Y-3458021D01*
G01X2010859Y-3458021D01*
G03X1976998Y-3433870I-33861J-11664D01*
G01X1896350Y-3433870D01*
G03X1861337Y-3462151I0J-35814D01*
G03X1840865Y-3436955I-35013J-7534D01*
G01X1840865Y-3432572D01*
G03X1862139Y-3399843I-14540J32730D01*
G01X1862139Y-3313442D01*
G03X1826325Y-3277628I-35814J0D01*
G01X1745677Y-3277628D01*
G03X1709863Y-3313442I0J-35814D01*
G01X1709863Y-3399843D01*
G03X1731137Y-3432572I35814J0D01*
G01X1731137Y-3436955D01*
G03X1714761Y-3451607I14540J-32730D01*
G03X1685018Y-3458522I-261J-66293D01*
G03X1684207Y-3455113I-35206J-6574D01*
G03X1686814Y-3441700I-33207J13413D01*
G01X7947179Y-3504794D02*
G03X8276886Y-3567485I170814J0D01*
G01X8276886Y-4300386D01*
G01X7828813Y-4300386D01*
G03X7801864Y-4091584I-81813J95581D01*
G01X7801864Y-2984500D01*
G03X7785795Y-2945705I-54864J0D01*
G01X7696895Y-2856805D01*
G03X7658100Y-2840736I-38795J-38795D01*
G01X7330887Y-2840736D01*
G03X7363420Y-2736119I-91887J85941D01*
G03X7301606Y-2645664I-124420J-18676D01*
G01X7315200Y-2645664D01*
G03X7353995Y-2629595I0J54864D01*
G01X7393692Y-2589898D01*
G03X7467600Y-2664714I73908J-902D01*
G01X7569200Y-2664714D01*
G03X7621465Y-2643065I0J73914D01*
G01X7786565Y-2477965D01*
G03X7808214Y-2425700I-52265J52265D01*
G01X7808214Y-2303916D01*
G01X8116765Y-1995365D01*
G03X8138414Y-1943100I-52265J52265D01*
G01X8138414Y-1815497D01*
G03X8172907Y-1779707I-1321J35790D01*
G01X8172907Y-1659707D01*
G03X8137093Y-1623893I-35814J0D01*
G01X7997093Y-1623893D01*
G03X7961279Y-1659707I0J-35814D01*
G01X7961279Y-1779707D01*
G03X7990586Y-1814925I35814J0D01*
G01X7990586Y-1912484D01*
G01X7682035Y-2221035D01*
G03X7660386Y-2273300I52265J-52265D01*
G01X7660386Y-2395084D01*
G01X7538584Y-2516886D01*
G01X7467600Y-2516886D01*
G03X7433564Y-2525189I0J-73914D01*
G01X7433564Y-2517284D01*
G03X7457714Y-2483423I-11664J33861D01*
G01X7457714Y-2402775D01*
G03X7429434Y-2367763I-35814J0D01*
G03X7457714Y-2332750I-7534J35013D01*
G01X7457714Y-2252102D01*
G03X7421900Y-2216288I-35814J0D01*
G01X7335500Y-2216288D01*
G03X7302770Y-2237562I0J-35814D01*
G01X7289952Y-2237562D01*
G03X7257265Y-2216384I-32687J-14635D01*
G01X7167265Y-2216384D01*
G03X7134578Y-2237562I0J-35814D01*
G01X7121753Y-2237562D01*
G03X7089023Y-2216288I-32730J-14540D01*
G01X7002623Y-2216288D01*
G03X6990407Y-2218436I0J-35814D01*
G01X6880201Y-2218436D01*
G03X6859802Y-2209800I-35254J-54864D01*
G03X6880201Y-2201164I-14855J63500D01*
G01X6991551Y-2201164D01*
G03X7003500Y-2203216I11950J33762D01*
G01X7093500Y-2203216D01*
G03X7123075Y-2187600I0J35814D01*
G01X7137670Y-2187600D01*
G03X7170400Y-2208874I32730J14540D01*
G01X7256800Y-2208874D01*
G03X7292614Y-2173060I0J35814D01*
G01X7292614Y-2092413D01*
G03X7264334Y-2057400I-35814J0D01*
G03X7289530Y-2036928I-7534J35013D01*
G01X7557387Y-2036928D01*
G03X7657477Y-2003072I37213J54864D01*
G03X7597841Y-1915849I-62877J21008D01*
G01X7620695Y-1892995D01*
G03X7636764Y-1854200I-38795J38795D01*
G01X7636764Y-1521325D01*
G01X7671971Y-1486119D01*
G03X7703800Y-1505514I31829J16419D01*
G01X7790200Y-1505514D01*
G03X7822930Y-1484240I0J35814D01*
G01X7964364Y-1484240D01*
G03X7997093Y-1505514I32730J14540D01*
G01X8137093Y-1505514D01*
G03X8172907Y-1469700I0J35814D01*
G01X8172907Y-1349700D01*
G03X8165746Y-1328214I-35814J0D01*
G03X8170314Y-1310712I-31246J17502D01*
G01X8170314Y-1190713D01*
G03X8134500Y-1154899I-35814J0D01*
G01X7994500Y-1154899D01*
G03X7958686Y-1190713I0J-35814D01*
G01X7958686Y-1310712D01*
G03X7965847Y-1332198I35814J0D01*
G03X7961279Y-1349700I31246J-17502D01*
G01X7961279Y-1374512D01*
G01X7822930Y-1374512D01*
G03X7801864Y-1355191I-32730J-14540D01*
G01X7801864Y-1305222D01*
G03X7826014Y-1271360I-11664J33861D01*
G01X7826014Y-1190713D01*
G03X7823980Y-1178814I-35814J0D01*
G01X7848025Y-1178814D01*
G03X7883839Y-1143000I0J35814D01*
G01X7883839Y-799525D01*
G03X7873349Y-774200I-35814J0D01*
G01X7746924Y-647776D01*
G03X7721600Y-637286I-25324J-25324D01*
G01X6704563Y-637286D01*
G03X6679238Y-647776I0J-35814D01*
G01X6515075Y-811938D01*
G03X6504586Y-837263I25324J-25324D01*
G01X6504586Y-1320700D01*
G03X6515075Y-1346024I35814J0D01*
G01X6540576Y-1371524D01*
G03X6565900Y-1382014I25324J25324D01*
G01X6997700Y-1382014D01*
G01X6999986Y-1381941D01*
G01X6999986Y-1509165D01*
G01X6934276Y-1574876D01*
G03X6923786Y-1600200I25324J-25324D01*
G01X6923786Y-1739900D01*
G03X6959600Y-1775714I35814J0D01*
G01X6969160Y-1775714D01*
G03X6966809Y-1788476I33463J-12762D01*
G01X6966809Y-1869124D01*
G03X6993636Y-1903792I35814J0D01*
G01X6993636Y-1912969D01*
G03X6970645Y-1933143I9864J-34429D01*
G03X6940008Y-1948603I8157J-54254D01*
G01X6924175Y-1964436D01*
G01X6919214Y-1964436D01*
G01X6919214Y-1921899D01*
G03X6919214Y-1899640I-65353J11129D01*
G01X6919214Y-1625600D01*
G03X6883400Y-1589786I-35814J0D01*
G01X6477000Y-1589786D01*
G03X6467500Y-1591069I0J-35814D01*
G01X6467500Y-1586636D01*
G03X6451431Y-1547842I-54864J0D01*
G01X6349103Y-1445514D01*
G01X6388100Y-1445514D01*
G03X6413424Y-1435024I0J35814D01*
G01X6476924Y-1371524D01*
G03X6487414Y-1346200I-25324J25324D01*
G01X6487414Y-635000D01*
G03X6476924Y-609676I-35814J0D01*
G01X6257224Y-389976D01*
G03X6231900Y-379486I-25324J-25324D01*
G01X4388114Y-379486D01*
G01X4388114Y-199400D01*
G03X4377624Y-174076I-35814J0D01*
G01X4305224Y-101676D01*
G03X4279900Y-91186I-25324J-25324D01*
G01X3505200Y-91186D01*
G03X3469386Y-127000I0J-35814D01*
G01X3469386Y-622300D01*
G03X3472672Y-637286I35814J0D01*
G01X3375660Y-637286D01*
G03X3372864Y-627636I-10160J2286D01*
G01X2928364Y-183136D01*
G03X2921000Y-180086I-7364J-7364D01*
G01X2817114Y-180086D01*
G01X2817114Y-139700D01*
G03X2806624Y-114376I-35814J0D01*
G01X2730424Y-38176D01*
G03X2727818Y-35814I-25324J-25324D01*
G01X8276886Y-35814D01*
G01X8276886Y-3342103D01*
G03X7947179Y-3404794I-158894J-62691D01*
G01X7947179Y-3504794D01*
G01X7327900Y-575593D02*
G03X7327900Y-213966I0J180814D01*
G03X7327900Y-575593I0J-180814D01*
G01X4146648Y-3280762D02*
G03X4205137Y-3261712I0J99314D01*
G01X4286259Y-3261712D01*
G03X4312613Y-3257262I0J80264D01*
G01X4331259Y-3257262D01*
G03X4363843Y-3236312I0J35814D01*
G01X4394162Y-3236312D01*
G03X4466942Y-3238609I38138J54225D01*
G03X4497928Y-3172714I-34642J56523D01*
G01X4707426Y-3172714D01*
G03X4716094Y-3184503I42973J22515D01*
G01X4801805Y-3270214D01*
G03X4836109Y-3284423I34305J34305D01*
G01X4873104Y-3284423D01*
G01X4873104Y-3310636D01*
G01X4826000Y-3310636D01*
G03X4787205Y-3326705I0J-54864D01*
G01X4750096Y-3363815D01*
G03X4734027Y-3402609I38795J-38795D01*
G01X4734027Y-3681418D01*
G03X4726394Y-3692141I24864J-25776D01*
G03X4693897Y-3671381I-32497J-15053D01*
G01X4633897Y-3671381D01*
G03X4598083Y-3707195I0J-35814D01*
G01X4598083Y-3718281D01*
G01X3688105Y-3718281D01*
G03X3635840Y-3739930I0J-73914D01*
G01X3502908Y-3872862D01*
G03X3467100Y-3837686I-35808J-638D01*
G01X3306581Y-3837686D01*
G01X3306581Y-3793470D01*
G01X3819289Y-3280762D01*
G01X4146648Y-3280762D01*
G01X7184136Y-4091584D02*
G03X7157187Y-4300386I54864J-113221D01*
G01X3502914Y-4300386D01*
G01X3502914Y-4070707D01*
G03X3532065Y-4052765I-23114J70207D01*
G01X3718722Y-3866109D01*
G01X4589983Y-3866109D01*
G01X4589983Y-3901897D01*
G03X4611632Y-3954162I73914J0D01*
G01X4672135Y-4014665D01*
G03X4724400Y-4036314I52265J52265D01*
G01X5080000Y-4036314D01*
G03X5132265Y-4014665I0J73914D01*
G01X5138077Y-4008853D01*
G01X5138077Y-4247205D01*
G03X5173891Y-4283019I35814J0D01*
G01X5273891Y-4283019D01*
G03X5309705Y-4247205I0J35814D01*
G01X5309705Y-3967206D01*
G03X5273891Y-3931392I-35814J0D01*
G01X5215539Y-3931392D01*
G01X5250316Y-3896614D01*
G01X5315852Y-3896614D01*
G03X5368117Y-3874965I0J73914D01*
G01X5444317Y-3798765D01*
G03X5464582Y-3732260I-52265J52265D01*
G03X5471067Y-3711706I-29329J20554D01*
G01X5471067Y-3631059D01*
G03X5442786Y-3596046I-35814J0D01*
G03X5467982Y-3575574I-7534J35013D01*
G01X5485043Y-3575574D01*
G03X5518323Y-3598156I33280J13232D01*
G01X5608323Y-3598156D01*
G03X5644137Y-3562342I0J35814D01*
G01X5644137Y-3482342D01*
G03X5608323Y-3446528I-35814J0D01*
G01X5518323Y-3446528D01*
G03X5486535Y-3465846I0J-35814D01*
G01X5467982Y-3465846D01*
G03X5452364Y-3448924I-32730J-14540D01*
G01X5452364Y-3430859D01*
G03X5502931Y-3418763I11096J65359D01*
G03X5508638Y-3419221I5707J35356D01*
G01X5657990Y-3419221D01*
G03X5675073Y-3414884I0J35814D01*
G03X5685536Y-3440813I65327J11284D01*
G01X5685536Y-3449669D01*
G03X5659586Y-3484098I9864J-34429D01*
G01X5659586Y-3564098D01*
G03X5695400Y-3599912I35814J0D01*
G01X5785400Y-3599912D01*
G03X5796910Y-3598012I0J35814D01*
G01X5829300Y-3598012D01*
G03X5888872Y-3480343I0J73914D01*
G01X5901724Y-3493195D01*
G03X5940518Y-3509264I38795J38795D01*
G01X6015069Y-3509264D01*
G03X6049498Y-3535214I34429J9864D01*
G01X6129498Y-3535214D01*
G03X6165312Y-3499400I0J35814D01*
G01X6165312Y-3409400D01*
G03X6160434Y-3391356I-35814J0D01*
G01X6213968Y-3337822D01*
G01X6265715Y-3337822D01*
G03X6276129Y-3327408I0J10414D01*
G01X6276129Y-2870208D01*
G03X6265715Y-2859794I-10414J0D01*
G01X6072721Y-2859794D01*
G01X6072721Y-2816734D01*
G03X6076412Y-2800900I-32123J15834D01*
G01X6076412Y-2710900D01*
G03X6040598Y-2675086I-35814J0D01*
G01X5960598Y-2675086D01*
G03X5926169Y-2701036I0J-35814D01*
G01X5918200Y-2701036D01*
G03X5879405Y-2717105I0J-54864D01*
G01X5841305Y-2755205D01*
G03X5833364Y-2765263I38795J-38795D01*
G01X5833364Y-2732849D01*
G03X5867866Y-2658364I-29988J59124D01*
G01X6182844Y-2658364D01*
G03X6194292Y-2706534I65556J-9866D01*
G03X6235919Y-2733339I54108J38304D01*
G01X6567932Y-3065352D01*
G01X6567932Y-3289990D01*
G01X6566595Y-3288605D01*
G01X6527631Y-3249642D01*
G03X6517305Y-3241537I-38795J-38795D01*
G03X6482100Y-3212299I-35205J-6576D01*
G01X6395700Y-3212299D01*
G03X6359886Y-3248113I0J-35814D01*
G01X6359886Y-3328760D01*
G03X6395700Y-3364574I35814J0D01*
G01X6472936Y-3364574D01*
G01X6472936Y-3429000D01*
G03X6489005Y-3467795I54864J0D01*
G01X6514405Y-3493195D01*
G03X6551982Y-3509250I38795J38795D01*
G01X6551982Y-3518501D01*
G03X6564365Y-3545586I35814J0D01*
G01X6235700Y-3545586D01*
G03X6199886Y-3581400I0J-35814D01*
G01X6199886Y-3748864D01*
G01X6197600Y-3748791D01*
G01X5689631Y-3748791D01*
G03X5664307Y-3759281I0J-35814D01*
G01X5649397Y-3774191D01*
G01X5500713Y-3774191D01*
G03X5464899Y-3810005I0J-35814D01*
G01X5464899Y-3947074D01*
G03X5500713Y-3982888I35814J0D01*
G01X5621339Y-3982888D01*
G01X5653817Y-4015366D01*
G01X5653817Y-4140200D01*
G03X5689631Y-4176014I35814J0D01*
G01X6197600Y-4176014D01*
G03X6216650Y-4170527I0J35814D01*
G03X6235700Y-4176014I19050J30327D01*
G01X6718300Y-4176014D01*
G03X6754114Y-4140200I0J35814D01*
G01X6754114Y-3632095D01*
G03X7038821Y-3504794I113894J127301D01*
G01X7038821Y-3404794D01*
G03X6697194Y-3404794I-170814J0D01*
G01X6697194Y-3504794D01*
G03X6702461Y-3546886I170814J0D01*
G03X6692900Y-3545586I-9561J-34514D01*
G01X6681227Y-3545586D01*
G03X6693610Y-3518501I-23431J27085D01*
G01X6693610Y-3393500D01*
G03X6677660Y-3363699I-35814J0D01*
G01X6677660Y-3042626D01*
G03X6661591Y-3003831I-54864J0D01*
G01X6659023Y-3001264D01*
G01X7165475Y-3001264D01*
G01X7184136Y-3019925D01*
G01X7184136Y-4091584D01*
G01X4393095Y-4247205D02*
G03X4428909Y-4283019I35814J0D01*
G01X4528909Y-4283019D01*
G03X4564723Y-4247205I0J35814D01*
G01X4564723Y-3967206D01*
G03X4528909Y-3931392I-35814J0D01*
G01X4428909Y-3931392D01*
G03X4393095Y-3967206I0J-35814D01*
G01X4393095Y-4247205D01*
G01X5003724Y-2006524D02*
G03X5014214Y-1981200I-25324J25324D01*
G01X5014214Y-1816100D01*
G03X5003724Y-1790776I-35814J0D01*
G01X4833814Y-1620865D01*
G03X4808489Y-1610375I-25324J-25324D01*
G01X4505824Y-1610375D01*
G01X4366514Y-1471065D01*
G01X4366514Y-1171477D01*
G01X4630062Y-1435024D01*
G03X4655386Y-1445514I25324J25324D01*
G01X6193925Y-1445514D01*
G01X6357772Y-1609362D01*
G01X6357772Y-1613170D01*
G03X6337300Y-1638366I14540J-32730D01*
G03X6302287Y-1610086I-35013J-7534D01*
G01X6221640Y-1610086D01*
G03X6187778Y-1634236I0J-35814D01*
G01X6182022Y-1634236D01*
G03X6148160Y-1610086I-33861J-11664D01*
G01X6067513Y-1610086D01*
G03X6031699Y-1645900I0J-35814D01*
G01X6031699Y-1732300D01*
G03X6053836Y-1765400I35814J0D01*
G01X6053836Y-1894975D01*
G01X5958975Y-1989836D01*
G01X5880100Y-1989836D01*
G03X5841305Y-2005905I0J-54864D01*
G01X5676205Y-2171005D01*
G03X5662103Y-2195239I38795J-38795D01*
G03X5700147Y-2299809I52897J-39961D01*
G03X5780037Y-2222352I14853J64609D01*
G01X5902825Y-2099564D01*
G01X5981700Y-2099564D01*
G03X6020495Y-2083495I0J54864D01*
G01X6147495Y-1956495D01*
G03X6153555Y-1949293I-38795J38795D01*
G03X6170398Y-1955800I31698J56993D01*
G03X6185253Y-2084514I14855J-63500D01*
G01X6330953Y-2084514D01*
G03X6345808Y-1955800I0J65215D01*
G03X6330953Y-1827085I-14855J63500D01*
G01X6185253Y-1827085D01*
G03X6163564Y-1830798I0J-65214D01*
G01X6163564Y-1764632D01*
G03X6182022Y-1743964I-15404J32332D01*
G01X6187778Y-1743964D01*
G03X6221640Y-1768114I33861J11664D01*
G01X6302287Y-1768114D01*
G03X6337300Y-1739834I0J35814D01*
G03X6372313Y-1768114I35013J7534D01*
G01X6441186Y-1768114D01*
G01X6441186Y-1968500D01*
G03X6477000Y-2004314I35814J0D01*
G01X6635778Y-2004314D01*
G03X6684392Y-2082800I63469J-14986D01*
G03X6684392Y-2209800I14855J-63500D01*
G03X6699247Y-2338514I14855J-63500D01*
G01X6844947Y-2338514D01*
G03X6880201Y-2328164I0J65215D01*
G01X6966809Y-2328164D01*
G01X6966809Y-2332750D01*
G03X7002623Y-2368564I35814J0D01*
G01X7089023Y-2368564D01*
G03X7121753Y-2347290I0J35814D01*
G01X7134787Y-2347290D01*
G03X7167265Y-2368012I32479J15093D01*
G01X7257265Y-2368012D01*
G03X7289744Y-2347290I0J35814D01*
G01X7302770Y-2347290D01*
G03X7327966Y-2367763I32730J14540D01*
G03X7299686Y-2402775I7534J-35013D01*
G01X7299686Y-2483423D01*
G03X7315368Y-2513043I35814J0D01*
G01X7292475Y-2535936D01*
G01X7033125Y-2535936D01*
G01X6858695Y-2361505D01*
G03X6819900Y-2345436I-38795J-38795D01*
G01X5473700Y-2345436D01*
G03X5434905Y-2361505I0J-54864D01*
G01X5067486Y-2728924D01*
G03X5057762Y-2727579I-9724J-34469D01*
G01X5043969Y-2727579D01*
G03X4998141Y-2654513I-65569J9779D01*
G03X4918899Y-2688567I-19741J-63287D01*
G03X4890466Y-2664031I-55754J-35866D01*
G03X4853265Y-2658880I-27321J-60402D01*
G03X4826291Y-2604133I-66280J1361D01*
G01X4989482Y-2604133D01*
G03X5025296Y-2568319I0J35814D01*
G01X5025296Y-2487144D01*
G03X5025291Y-2465841I-34196J10644D01*
G03X5019034Y-2446188I-35809J-578D01*
G01X5092700Y-2446188D01*
G03X5128514Y-2410374I0J35814D01*
G01X5128514Y-2235200D01*
G03X5092700Y-2199386I-35814J0D01*
G01X4962112Y-2199386D01*
G03X4965974Y-2183209I-31952J16177D01*
G01X4965974Y-2082369D01*
G03X4971109Y-2039140I-25674J24969D01*
G01X5003724Y-2006524D01*
G01X5405165Y-2086446D02*
G03X5367561Y-2197375I10619J-65438D01*
G03X5480492Y-2166297I48223J45491D01*
G01X5714781Y-1932009D01*
G03X5749177Y-1820023I-12481J65109D01*
G03X5637191Y-1854419I-46877J-46877D01*
G01X5405165Y-2086446D01*
G01X5094084Y-3218409D02*
G03X5090527Y-3202847I-35814J0D01*
G03X5093576Y-3188386I-32765J14461D01*
G01X5093576Y-3153385D01*
G03X5090284Y-3138386I-35814J0D01*
G03X5093576Y-3123387I-32522J14999D01*
G01X5093576Y-3088386D01*
G03X5057762Y-3052572I-35814J0D01*
G01X4996033Y-3052572D01*
G03X4983086Y-3051023I-12947J-53315D01*
G01X4920131Y-3051023D01*
G03X4860899Y-3043356I-37213J-54864D01*
G01X4860899Y-3020937D01*
G03X4878908Y-3024403I18009J45048D01*
G01X4890499Y-3024403D01*
G03X4908410Y-3029204I17911J31013D01*
G01X5057762Y-3029204D01*
G03X5093576Y-2993390I0J35814D01*
G01X5093576Y-2963319D01*
G03X5116204Y-2949686I-16167J52428D01*
G01X5144195Y-2921695D01*
G03X5160264Y-2882900I-38795J38795D01*
G01X5160264Y-2791325D01*
G01X5200481Y-2751108D01*
G03X5268918Y-2783155I57319J33308D01*
G03X5322909Y-2730281I-11118J65355D01*
G01X5521825Y-2531364D01*
G01X5671447Y-2531364D01*
G01X5544494Y-2658317D01*
G03X5528424Y-2697112I38795J-38795D01*
G01X5528424Y-2727604D01*
G01X5508612Y-2727604D01*
G03X5472798Y-2763418I0J-35814D01*
G01X5472798Y-2798420D01*
G03X5476090Y-2813418I35814J0D01*
G03X5472798Y-2828417I32522J-14999D01*
G01X5472798Y-2863418D01*
G03X5476090Y-2878417I35814J0D01*
G03X5472798Y-2893416I32522J-14999D01*
G01X5472798Y-2921051D01*
G01X5449740Y-2921051D01*
G01X5433869Y-2905180D01*
G01X5433869Y-2882013D01*
G03X5379005Y-2778506I-54864J37213D01*
G03X5324141Y-2882013I0J-66294D01*
G01X5324141Y-2927905D01*
G03X5340210Y-2966700I54864J0D01*
G01X5388220Y-3014710D01*
G03X5427015Y-3030779I38795J38795D01*
G01X5472798Y-3030779D01*
G01X5472798Y-3058541D01*
G03X5476061Y-3073476I35814J0D01*
G03X5472798Y-3088411I32551J-14935D01*
G01X5472798Y-3116021D01*
G01X5414315Y-3116021D01*
G03X5375520Y-3132090I0J-54864D01*
G01X5358705Y-3148905D01*
G03X5342636Y-3187700I38795J-38795D01*
G01X5342636Y-3302733D01*
G03X5284087Y-3310636I-21336J-62767D01*
G01X5270500Y-3310636D01*
G03X5231705Y-3326705I0J-54864D01*
G01X5193605Y-3364805D01*
G03X5177536Y-3403600I38795J-38795D01*
G01X5177536Y-3444578D01*
G03X5153386Y-3478440I11664J-33861D01*
G01X5153386Y-3559087D01*
G03X5189200Y-3594901I35814J0D01*
G01X5275600Y-3594901D01*
G03X5311414Y-3559087I0J35814D01*
G01X5311414Y-3478440D01*
G03X5287264Y-3444578I-35814J0D01*
G01X5287264Y-3426325D01*
G01X5289772Y-3423817D01*
G03X5342636Y-3428267I31528J58317D01*
G01X5342636Y-3445116D01*
G03X5313038Y-3480386I6216J-35270D01*
G01X5313038Y-3561034D01*
G03X5341318Y-3596046I35814J0D01*
G03X5313038Y-3631059I7534J-35013D01*
G01X5313038Y-3711706D01*
G03X5314014Y-3720009I35814J0D01*
G01X5285236Y-3748786D01*
G01X5219700Y-3748786D01*
G03X5167435Y-3770435I0J-73914D01*
G01X5049384Y-3888486D01*
G01X4977871Y-3888486D01*
G03X4979698Y-3877194I-33987J11292D01*
G01X4979698Y-3707195D01*
G03X4969764Y-3682439I-35814J0D01*
G01X4969764Y-3540625D01*
G01X4988425Y-3521964D01*
G01X5074739Y-3521964D01*
G03X5113534Y-3505895I0J54864D01*
G01X5144195Y-3475234D01*
G03X5160264Y-3436439I-38795J38795D01*
G01X5160264Y-3340100D01*
G03X5144195Y-3301305I-54864J0D01*
G01X5104977Y-3262088D01*
G03X5094084Y-3253643I-38795J-38795D01*
G01X5094084Y-3218409D01*
G01X6058789Y-3337822D02*
G01X6050703Y-3345908D01*
G03X6035243Y-3376545I38795J-38795D01*
G03X6015069Y-3399536I14254J-32855D01*
G01X5963244Y-3399536D01*
G01X5947664Y-3383956D01*
G01X5947664Y-3352800D01*
G03X5945580Y-3337822I-54864J0D01*
G01X6058789Y-3337822D01*
G01X7692136Y-4091584D02*
G03X7665187Y-4300386I54864J-113221D01*
G01X7320813Y-4300386D01*
G03X7293864Y-4091584I-81813J95581D01*
G01X7293864Y-2997200D01*
G03X7277795Y-2958405I-54864J0D01*
G01X7269853Y-2950464D01*
G01X7635375Y-2950464D01*
G01X7692136Y-3007225D01*
G01X7692136Y-4091584D01*
G04 Copper End*

G04 Pad Start*
G54D11*
G01X805599Y-2743200D03*
G01X945604Y-2743200D03*
G01X425298Y-3060700D03*
G01X565302Y-3060700D03*
G54D12*
G01X417500Y-2400300D03*
G01X217500Y-2400300D03*
G54D13*
G01X711200Y-3815842D03*
G01X711200Y-4134358D03*
G01X448638Y-3817280D03*
G01X448638Y-4135796D03*
G54D14*
G01X475057Y-1920281D03*
G01X156541Y-1920281D03*
G54D12*
G01X2309800Y-4192350D03*
G01X2109800Y-4192350D03*
G54D11*
G01X1936902Y-3835400D03*
G01X1796898Y-3835400D03*
G01X1517802Y-3200400D03*
G01X1377798Y-3200400D03*
G54D15*
G01X1473200Y-3849700D03*
G01X1473200Y-4049700D03*
G54D14*
G01X2189019Y-2780388D03*
G01X2507535Y-2780388D03*
G01X2189019Y-3037618D03*
G01X2507535Y-3037618D03*
G54D13*
G01X990600Y-3815842D03*
G01X990600Y-4134358D03*
G01X1244600Y-3815842D03*
G01X1244600Y-4134358D03*
G54D14*
G01X476758Y-2171700D03*
G01X158242Y-2171700D03*
G54D16*
G01X6769100Y-1542898D03*
G01X6769100Y-1682902D03*
G54D13*
G01X4483100Y-552958D03*
G01X4483100Y-234442D03*
G54D14*
G01X2189019Y-2523159D03*
G01X2507535Y-2523159D03*
G54D16*
G01X7048500Y-1987398D03*
G01X7048500Y-2127402D03*
G01X7212265Y-2292198D03*
G01X7212265Y-2432202D03*
G54D11*
G01X6000598Y-2755900D03*
G01X6140602Y-2755900D03*
G01X6089498Y-3454400D03*
G01X6229502Y-3454400D03*
G54D16*
G01X5563323Y-3662347D03*
G01X5563323Y-3522342D03*
G01X4286259Y-3181448D03*
G01X4286259Y-3041443D03*
G01X5740400Y-3524098D03*
G01X5740400Y-3664102D03*
G01X4927600Y-2368398D03*
G01X4927600Y-2508402D03*
G54D14*
G01X4616958Y-2819400D03*
G01X4298442Y-2819400D03*
G54D17*
G01X254102Y-3416300D03*
G01X584098Y-3416300D03*
G01X1536700Y-2844698D03*
G01X1866697Y-2844698D03*
G54D19*
G01X4000501Y-1885246D03*
G01X3873501Y-1885246D03*
G01X3746501Y-1885246D03*
G01X3619501Y-1885246D03*
G54D20*
G01X3810001Y-1510246D03*
G54D19*
G01X4000501Y-779300D03*
G01X3873501Y-779300D03*
G01X3746501Y-779300D03*
G01X3619501Y-779300D03*
G54D20*
G01X3810001Y-404299D03*
G54D21*
G01X6622796Y-3456000D03*
G01X6432804Y-3456000D03*
G01X6527800Y-3656000D03*
G54D22*
G01X794692Y-3059365D03*
G01X945365Y-3059365D03*
G01X794692Y-2578100D03*
G01X945365Y-2578100D03*
G01X945365Y-2425032D03*
G01X794692Y-2425032D03*
G01X794692Y-2906298D03*
G01X945365Y-2906298D03*
G54D23*
G01X1091336Y-3405327D03*
G01X1091336Y-3556000D03*
G54D22*
G01X1786001Y-3512885D03*
G01X1936674Y-3512885D03*
G01X1936674Y-3356642D03*
G01X1786001Y-3356642D03*
G01X1936674Y-3669127D03*
G01X1786001Y-3669127D03*
G54D23*
G01X4457700Y-1956664D03*
G01X4457700Y-2107336D03*
G01X4864100Y-1943964D03*
G01X4864100Y-2094636D03*
G54D22*
G01X6412636Y-1689100D03*
G01X6261964Y-1689100D03*
G54D23*
G01X5392052Y-3671383D03*
G01X5392052Y-3520710D03*
G01X5232400Y-3669436D03*
G01X5232400Y-3518764D03*
G54D22*
G01X6107836Y-1689100D03*
G01X5957164Y-1689100D03*
G54D23*
G01X7747000Y-1080364D03*
G01X7747000Y-1231036D03*
G01X7747000Y-1429376D03*
G01X7747000Y-1580049D03*
G01X7045823Y-1678127D03*
G01X7045823Y-1828800D03*
G01X7378700Y-2443099D03*
G01X7378700Y-2292426D03*
G01X7045823Y-2443099D03*
G01X7045823Y-2292426D03*
G01X7213600Y-2132736D03*
G01X7213600Y-1982064D03*
G54D24*
G01X7239000Y-4204805D03*
G01X7493000Y-4204805D03*
G01X7747000Y-4204805D03*
G01X7747000Y-2754795D03*
G01X7239000Y-2754795D03*
G54D25*
G01X8117992Y-3454794D03*
G01X6868008Y-3454794D03*
G54D26*
G01X293103Y-2671102D03*
G01X293103Y-2736101D03*
G01X293103Y-2801099D03*
G01X293103Y-2866098D03*
G01X545097Y-2866098D03*
G01X545097Y-2801099D03*
G01X545097Y-2736101D03*
G01X545097Y-2671102D03*
G54D27*
G01X2341634Y-3759340D03*
G54D28*
G01X2244148Y-3618090D03*
G01X2309122Y-3618090D03*
G01X2374146Y-3618090D03*
G01X2439119Y-3618090D03*
G01X2439119Y-3900589D03*
G01X2374146Y-3900589D03*
G01X2309122Y-3900589D03*
G01X2244148Y-3900589D03*
G54D26*
G01X1599197Y-3551898D03*
G01X1599197Y-3486899D03*
G01X1599197Y-3421901D03*
G01X1599197Y-3356902D03*
G01X1347203Y-3356902D03*
G01X1347203Y-3421901D03*
G01X1347203Y-3486899D03*
G01X1347203Y-3551898D03*
G54D29*
G01X8064500Y-1250713D03*
G01X8064500Y-940706D03*
G01X4254500Y-2199714D03*
G01X4254500Y-1889707D03*
G01X4660900Y-2187014D03*
G01X4660900Y-1877007D03*
G54D30*
G01X6772097Y-2273300D03*
G01X6772097Y-2146300D03*
G01X6772097Y-2019300D03*
G01X6772097Y-1892300D03*
G01X6258103Y-2273300D03*
G01X6258103Y-2146300D03*
G01X6258103Y-2019300D03*
G01X6258103Y-1892300D03*
G54D31*
G01X5583288Y-3105912D03*
G01X5583288Y-3041040D03*
G01X5583288Y-2975915D03*
G01X5583288Y-2910916D03*
G01X4983594Y-3300882D03*
G01X5583288Y-3300882D03*
G01X5583288Y-3235909D03*
G01X5583288Y-3170885D03*
G01X4983086Y-2845892D03*
G01X4983086Y-2910891D03*
G01X4983086Y-2975889D03*
G01X4983086Y-3040888D03*
G01X4983086Y-3105887D03*
G01X4983086Y-3170885D03*
G01X5583288Y-2845918D03*
G01X4983594Y-3235909D03*
G01X5583314Y-3365906D03*
G01X5583288Y-2780919D03*
G01X4983086Y-2780894D03*
G01X4983086Y-3365906D03*
G54D32*
G01X4478909Y-4107205D03*
G54D33*
G01X5038903Y-3792195D03*
G01X4913884Y-3792195D03*
G01X4788891Y-3792195D03*
G01X4663897Y-3792195D03*
G54D32*
G01X5223891Y-4107205D03*
G54D24*
G01X6591300Y-3898900D03*
G01X6337300Y-3898900D03*
G01X6083300Y-3898900D03*
G54D34*
G01X5829300Y-3898900D03*
G54D35*
G01X4596054Y-2599512D03*
G01X4596054Y-2549500D03*
G01X4596054Y-2499512D03*
G01X4596054Y-2449500D03*
G01X4596054Y-2399513D03*
G01X4314571Y-2399513D03*
G01X4314571Y-2449500D03*
G01X4314571Y-2499512D03*
G01X4314571Y-2549500D03*
G01X4314571Y-2599512D03*
G54D36*
G01X4455312Y-2499512D03*
G54D37*
G01X6210300Y-1193800D03*
G01X6783300Y-1190463D03*
G54D38*
G01X6017857Y-3208795D03*
G01X6017857Y-2988805D03*
G01X6177852Y-2988805D03*
G01X6177852Y-3208795D03*
G54D39*
G01X5461000Y-1521206D03*
G01X5461000Y-1171194D03*
G01X5029200Y-282194D03*
G01X5029200Y-632206D03*
G01X4572000Y-1521206D03*
G01X4572000Y-1171194D03*
G01X939135Y-282194D03*
G01X939135Y-632206D03*
G01X939135Y-1521206D03*
G01X939135Y-1171194D03*
G01X5918200Y-282194D03*
G01X5918200Y-632206D03*
G54D40*
G01X2773578Y-4191000D03*
G01X2966822Y-4191000D03*
G54D41*
G01X2451100Y-208001D03*
G01X2451100Y-807999D03*
G54D29*
G01X8067093Y-1719707D03*
G01X8067093Y-1409700D03*
G54D37*
G01X268200Y-1305560D03*
G01X268200Y-416560D03*
G54D12*
G01X2249500Y-3263900D03*
G01X2449500Y-3263900D03*
G54D22*
G01X2607170Y-3984177D03*
G01X2757842Y-3984177D03*
G01X2758659Y-3836479D03*
G01X2607986Y-3836479D03*
G01X2274164Y-3454400D03*
G01X2424836Y-3454400D03*
G54D16*
G01X5562600Y-3905098D03*
G01X5562600Y-4045102D03*
G54D23*
G01X6438900Y-3137764D03*
G01X6438900Y-3288436D03*
G54D42*
G01X7327900Y-394779D03*
G54D43*
G01X7327900Y-1484820D03*
G54D42*
G01X7327900Y-939787D03*
G54D22*
G01X7085736Y-1435100D03*
G01X6935064Y-1435100D03*
G04 Pad End*

G04 Via Start*
G54D44*
G01X4635500Y-2362200D03*
G01X4584700Y-2311400D03*
G01X4901585Y-2370375D03*
G01X5031599Y-2370375D03*
G01X5031599Y-2273300D03*
G01X4901585Y-2273300D03*
G01X4457700Y-2298700D03*
G01X4521200Y-2298700D03*
G01X3657600Y-1701800D03*
G01X3745053Y-1701800D03*
G01X3832505Y-1701800D03*
G01X3657600Y-1614347D03*
G01X3745053Y-1614347D03*
G01X3745053Y-1526895D03*
G01X3832505Y-1614347D03*
G01X3832505Y-1526895D03*
G01X3657600Y-1526895D03*
G01X4229100Y-2524912D03*
G01X4229100Y-2413000D03*
G01X4318000Y-2336800D03*
G01X1021565Y-3060700D03*
G01X546100Y-2438400D03*
G01X1021565Y-2906298D03*
G01X203200Y-2667000D03*
G01X1028700Y-2743200D03*
G01X952500Y-2324100D03*
G01X1714500Y-3517900D03*
G01X1206500Y-3568700D03*
G01X2032000Y-3669127D03*
G01X1205179Y-3485847D03*
G01X4406900Y-2425700D03*
G01X4406900Y-2515409D03*
G01X4406900Y-2605118D03*
G01X4496609Y-2605118D03*
G01X4496609Y-2515409D03*
G01X4863145Y-2724433D03*
G01X4786985Y-2657518D03*
G01X4750399Y-2850439D03*
G01X7594600Y-1982064D03*
G01X5257800Y-2717800D03*
G01X4978400Y-2717800D03*
G01X5803376Y-2673725D03*
G01X6248400Y-2668230D03*
G01X7162800Y-1881141D03*
G01X5702300Y-1866900D03*
G01X5415784Y-2151884D03*
G01X5379005Y-2844800D03*
G01X6629400Y-1003300D03*
G01X6737047Y-1003300D03*
G01X6952341Y-1003300D03*
G01X6844694Y-1003300D03*
G01X7059988Y-1003300D03*
G01X6629400Y-895653D03*
G01X7059988Y-895653D03*
G01X6737047Y-895653D03*
G01X6844694Y-895653D03*
G01X6952341Y-895653D03*
G01X7059988Y-788006D03*
G01X6952341Y-788006D03*
G01X6844694Y-788006D03*
G01X6737047Y-788006D03*
G01X5715000Y-2978223D03*
G01X5715000Y-2235200D03*
G01X6229502Y-3378200D03*
G01X5981700Y-3365500D03*
G01X6261100Y-2794000D03*
G01X6680200Y-1542898D03*
G01X4432300Y-3182087D03*
G01X4882918Y-3105887D03*
G01X5740400Y-3403600D03*
G01X5740400Y-3171179D03*
G01X5321300Y-3365500D03*
G01X5463460Y-3365500D03*
G01X5392052Y-3746500D03*
G01X1936674Y-3263900D03*
G01X1663700Y-3263900D03*
G01X387185Y-4236720D03*
G01X537827Y-4236720D03*
G01X688470Y-4236720D03*
G01X839113Y-4236720D03*
G01X989755Y-4236720D03*
G01X1140398Y-4236720D03*
G01X1291041Y-4236720D03*
G01X1441683Y-4236720D03*
G01X387185Y-4012372D03*
G01X537827Y-4012372D03*
G01X688470Y-4012372D03*
G01X839113Y-4012372D03*
G01X989755Y-4012372D03*
G01X1140398Y-4012372D03*
G01X1291041Y-4012372D03*
G01X1441683Y-4012372D03*
G01X2015048Y-4240043D03*
G01X2015048Y-4089400D03*
G01X1790700Y-4240043D03*
G01X1790700Y-4089400D03*
G01X2536238Y-2935711D03*
G01X2536238Y-2785069D03*
G01X2536238Y-2634426D03*
G01X2536238Y-2483783D03*
G01X2536238Y-3236997D03*
G01X2536238Y-3086354D03*
G01X2686881Y-2483783D03*
G01X2686881Y-2634426D03*
G01X2686881Y-2785069D03*
G01X2686881Y-2935711D03*
G01X2686881Y-3086354D03*
G01X2686881Y-3236997D03*
G01X698500Y-3644900D03*
G01X698500Y-3530600D03*
G01X698500Y-3416300D03*
G01X698500Y-3302000D03*
G01X812800Y-3644900D03*
G01X812800Y-3530600D03*
G01X812800Y-3416300D03*
G01X812800Y-3302000D03*
G01X927100Y-3644900D03*
G01X927100Y-3530600D03*
G01X927100Y-3416300D03*
G01X927100Y-3302000D03*
G01X4445000Y-3073400D03*
G01X4548701Y-3073400D03*
G01X4652402Y-3073400D03*
G01X4652402Y-2969699D03*
G01X4548701Y-2969699D03*
G01X6632898Y-1910770D03*
G01X6743379Y-1910770D03*
G01X6853861Y-1910770D03*
G01X6522416Y-1910770D03*
G01X6522416Y-1803400D03*
G01X6632898Y-1803400D03*
G01X3098800Y-4203700D03*
G01X3207267Y-4203700D03*
G01X3315734Y-4203700D03*
G01X3424201Y-4203700D03*
G01X3424201Y-4102100D03*
G01X3315734Y-4102100D03*
G01X3207267Y-4102100D03*
G01X3098800Y-4102100D03*
G01X3424201Y-4000500D03*
G01X3315734Y-4000500D03*
G01X3207267Y-4000500D03*
G01X3098800Y-4000500D03*
G01X5829300Y-3524098D03*
G01X6591300Y-2679700D03*
G01X6908800Y-2755900D03*
G01X7467600Y-2590800D03*
G01X2758659Y-3759200D03*
G01X4497324Y-122209D03*
G01X4649719Y-122209D03*
G01X4802114Y-122209D03*
G01X4954508Y-122209D03*
G01X5106903Y-122209D03*
G01X5259298Y-122209D03*
G01X5411692Y-122209D03*
G01X5564087Y-122209D03*
G01X5716482Y-122209D03*
G01X5868877Y-122209D03*
G01X6021271Y-122209D03*
G01X6173666Y-122209D03*
G01X7835900Y-1580049D03*
G01X8064500Y-838200D03*
G01X6946900Y-2413000D03*
G01X6083300Y-2273300D03*
G01X5854700Y-1689100D03*
G01X5118100Y-3040888D03*
G01X3848100Y-2133600D03*
G01X3848100Y-2044700D03*
G01X3736478Y-2044700D03*
G01X3624857Y-2044700D03*
G01X3513235Y-2044700D03*
G01X3401613Y-2044700D03*
G01X3736478Y-2133600D03*
G01X3624857Y-2133600D03*
G01X3513235Y-2133600D03*
G01X3401613Y-2133600D03*
G01X3736478Y-2222500D03*
G01X3624857Y-2222500D03*
G01X3513235Y-2222500D03*
G01X3401613Y-2222500D03*
G01X3848100Y-2222500D03*
G01X3911600Y-2857500D03*
G01X3911600Y-2747735D03*
G01X3993741Y-2747735D03*
G01X3993741Y-2857500D03*
G01X4075882Y-2857500D03*
G01X4075882Y-2747735D03*
G01X5038903Y-3683000D03*
G01X5156200Y-3669436D03*
G01X5562600Y-4241800D03*
G01X5372100Y-3886200D03*
G01X82299Y-2692400D03*
G01X82299Y-2544233D03*
G01X82299Y-2396067D03*
G01X82299Y-2247900D03*
G01X82299Y-2099734D03*
G01X82299Y-1951567D03*
G01X82299Y-1803401D03*
G01X230466Y-1951567D03*
G01X230466Y-1803401D03*
G01X232167Y-2099934D03*
G01X232167Y-2248101D03*
G01X230466Y-2396067D03*
G01X139700Y-127000D03*
G01X338717Y-127000D03*
G01X537733Y-127000D03*
G01X736750Y-127000D03*
G01X935767Y-127000D03*
G01X537733Y-326017D03*
G01X338717Y-326017D03*
G01X139700Y-326017D03*
G01X537733Y-525033D03*
G01X338717Y-525033D03*
G01X139700Y-525033D03*
G01X736750Y-326017D03*
G01X3230480Y-430480D03*
G01X6430479Y-430480D03*
G01X7630479Y-430480D03*
G01X8030479Y-430480D03*
G01X5230480Y-1630480D03*
G01X5630479Y-1630480D03*
G01X830480Y-2030480D03*
G01X1230480Y-2030480D03*
G01X1630480Y-2030480D03*
G01X3230480Y-2030480D03*
G01X5230480Y-2030480D03*
G01X6430479Y-2030480D03*
G01X1230480Y-2430480D03*
G01X1630480Y-2430480D03*
G01X2830480Y-2430480D03*
G01X3630480Y-2430480D03*
G01X5230480Y-2430480D03*
G01X8030479Y-2430480D03*
G01X2830480Y-2830480D03*
G01X3230480Y-2830480D03*
G01X5230480Y-2830480D03*
G01X7630479Y-2830480D03*
G01X8030479Y-2830480D03*
G01X2030480Y-3230480D03*
G01X2830480Y-3230480D03*
G01X3230480Y-3230480D03*
G01X5230480Y-3230480D03*
G01X7630479Y-3230480D03*
G01X8030479Y-3230480D03*
G01X2830480Y-3630480D03*
G01X7630479Y-3630480D03*
G01X1630480Y-4030480D03*
G01X3630480Y-4030480D03*
G01X6830479Y-4030480D03*
G01X7630479Y-4030480D03*
G01X8030479Y-4030480D03*
G01X4076700Y-3530600D03*
G01X4259057Y-3530600D03*
G01X4441414Y-3530600D03*
G01X4623770Y-3530600D03*
G01X3708400Y-3505200D03*
G01X3581400Y-3606800D03*
G01X3467100Y-3721100D03*
G01X6311900Y-3137764D03*
G01X3225800Y-279400D03*
G01X3225800Y-154612D03*
G01X3080056Y-154612D03*
G01X3365500Y-152400D03*
G04 Via End*

G04 Track Start*
G54D45*
G01X4596054Y-2449500D02*
G01X4713300Y-2449500D01*
G01X4749800Y-2413000D01*
G01X4749800Y-2275914D02*
G01X4660900Y-2187014D01*
G01X4749800Y-2413000D02*
G01X4749800Y-2275914D01*
G01X4314571Y-2499512D02*
G01X4254500Y-2499512D01*
G01X4229100Y-2524912D01*
G01X4314571Y-2449500D02*
G01X4265600Y-2449500D01*
G01X4229100Y-2413000D01*
G01X4314571Y-2399513D02*
G01X4318000Y-2396084D01*
G01X4318000Y-2336800D01*
G54D46*
G01X545097Y-2736101D02*
G01X798500Y-2736101D01*
G01X805599Y-2743200D01*
G01X805599Y-2895391D01*
G01X794692Y-2906298D01*
G01X545097Y-2801099D02*
G01X616699Y-2801099D01*
G01X793358Y-3060700D02*
G01X794692Y-3059365D01*
G01X616699Y-2801099D02*
G01X685800Y-2870200D01*
G01X685800Y-3022600D01*
G01X723900Y-3060700D01*
G01X793358Y-3060700D01*
G01X794692Y-2425032D02*
G01X794692Y-2578100D01*
G01X545097Y-2671102D02*
G01X618198Y-2671102D01*
G01X647700Y-2641600D01*
G01X647700Y-2605041D01*
G01X674641Y-2578100D01*
G01X794692Y-2578100D01*
G01X945365Y-2425032D02*
G01X952500Y-2417898D01*
G01X952500Y-2324100D01*
G54D45*
G01X945365Y-2906298D02*
G01X1021565Y-2906298D01*
G54D46*
G01X945365Y-3059365D02*
G01X946700Y-3060700D01*
G01X1021565Y-3060700D01*
G01X945604Y-2743200D02*
G01X1028700Y-2743200D01*
G01X2607986Y-3836479D02*
G01X2607986Y-3983360D01*
G01X2607170Y-3984177D01*
G01X2374146Y-3974346D02*
G01X2387600Y-3987800D01*
G01X2374146Y-3900589D02*
G01X2374146Y-3974346D01*
G01X2387600Y-3987800D02*
G01X2603547Y-3987800D01*
G01X2757842Y-3984177D02*
G01X2757842Y-4175264D01*
G01X2773578Y-4191000D01*
G01X1936674Y-3512885D02*
G01X2087815Y-3512885D01*
G01X2146300Y-3454400D01*
G01X2274164Y-3454400D01*
G01X1786001Y-3356642D02*
G01X1786001Y-3512885D01*
G01X1611727Y-3669127D02*
G01X1600200Y-3657600D01*
G01X1786001Y-3669127D02*
G01X1611727Y-3669127D01*
G01X1600200Y-3657600D02*
G01X1600200Y-3552901D01*
G01X1599197Y-3551898D01*
G01X1786001Y-3512885D02*
G01X1780986Y-3517900D01*
G01X1714500Y-3517900D01*
G01X1936674Y-3669127D02*
G01X1936674Y-3835171D01*
G01X1936902Y-3835400D01*
G01X1936674Y-3669127D02*
G01X2032000Y-3669127D01*
G01X1091336Y-3556000D02*
G01X1091336Y-3715106D01*
G01X990600Y-3815842D01*
G01X1347203Y-3551898D02*
G01X1223302Y-3551898D01*
G01X1206500Y-3568700D01*
G01X1347203Y-3486899D02*
G01X1206232Y-3486899D01*
G01X1205179Y-3485847D01*
G01X1347203Y-3421901D02*
G01X1237501Y-3421901D01*
G01X1219200Y-3403600D01*
G01X1093064Y-3403600D01*
G01X1091336Y-3405327D01*
G01X945365Y-2578100D02*
G01X1079500Y-2578100D01*
G01X1117600Y-2616200D01*
G01X971550Y-3796792D02*
G01X990600Y-3815842D01*
G01X2439119Y-3618090D02*
G01X2439119Y-3468682D01*
G01X2424836Y-3454400D01*
G54D47*
G01X4314571Y-2549500D02*
G01X4405325Y-2549500D01*
G01X4455312Y-2499512D01*
G54D46*
G01X6772097Y-2019300D02*
G01X6946900Y-2019300D01*
G01X6978802Y-1987398D02*
G01X7048500Y-1987398D01*
G01X6946900Y-2019300D02*
G01X6978802Y-1987398D01*
G01X7045823Y-1828800D02*
G01X7048500Y-1831477D01*
G01X7048500Y-1987398D01*
G01X7213600Y-2132736D02*
G01X7053834Y-2132736D01*
G01X7048500Y-2127402D01*
G01X7029602Y-2146300D01*
G01X6772097Y-2146300D01*
G01X7378700Y-2292426D02*
G01X7212265Y-2292426D01*
G01X7045823Y-2292426D01*
G01X7026697Y-2273300D01*
G01X6772097Y-2273300D01*
G54D45*
G01X6258103Y-1892300D02*
G01X6258103Y-2019300D01*
G54D46*
G01X6261964Y-1689100D02*
G01X6107836Y-1689100D01*
G01X6000598Y-2755900D02*
G01X6017857Y-2773159D01*
G01X6017857Y-2988805D01*
G01X5583288Y-3235909D02*
G01X5844591Y-3235909D01*
G01X5880100Y-3200400D01*
G01X5880100Y-2794000D01*
G01X5918200Y-2755900D01*
G01X6000598Y-2755900D01*
G01X5583288Y-3300882D02*
G01X5840882Y-3300882D01*
G01X5892800Y-3352800D01*
G01X6089498Y-3454400D02*
G01X6089498Y-3384702D01*
G01X6177852Y-3296348D02*
G01X6177852Y-3208795D01*
G01X6089498Y-3384702D02*
G01X6177852Y-3296348D01*
G54D45*
G01X4983086Y-2975889D02*
G01X4878908Y-2975889D01*
G01X4862119Y-2959100D01*
G01X4596054Y-2499512D02*
G01X4918710Y-2499512D01*
G01X4927600Y-2508402D01*
G01X4862119Y-2959100D02*
G01X4862119Y-2725460D01*
G01X4863145Y-2724433D01*
G01X4786985Y-2657518D02*
G01X4786985Y-2730835D01*
G01X4836109Y-3235909D02*
G01X4983594Y-3235909D01*
G54D46*
G01X5105400Y-2768600D02*
G01X5105400Y-2882900D01*
G01X5077409Y-2910891D02*
G01X4983086Y-2910891D01*
G01X5105400Y-2882900D02*
G01X5077409Y-2910891D01*
G01X4978400Y-2717800D02*
G01X4978400Y-2776207D01*
G01X4983086Y-2780894D01*
G01X7747000Y-2984500D02*
G01X7747000Y-4204805D01*
G01X7658100Y-2895600D02*
G01X7747000Y-2984500D01*
G01X7239000Y-4204805D02*
G01X7239000Y-2997200D01*
G01X7188200Y-2946400D01*
G01X5499100Y-2476500D02*
G01X5257800Y-2717800D01*
G01X5473700Y-2400300D02*
G01X5105400Y-2768600D01*
G01X6324600Y-2540000D02*
G01X6677660Y-2893060D01*
G01X7210294Y-2893060D01*
G01X7212834Y-2895600D01*
G01X7658100Y-2895600D01*
G01X7188200Y-2946400D02*
G01X6642100Y-2946400D01*
G01X6299200Y-2603500D01*
G01X6258103Y-2146300D02*
G01X6258103Y-2273300D01*
G01X6769100Y-1682902D02*
G01X6769100Y-1889303D01*
G01X6772097Y-1892300D01*
G01X6412636Y-1689100D02*
G01X6412636Y-1586636D01*
G01X6210300Y-1384300D01*
G01X6210300Y-1193800D01*
G01X7378700Y-2443099D02*
G01X7378700Y-2527300D01*
G01X7315200Y-2590800D01*
G01X7747000Y-1231036D02*
G01X7747000Y-1429376D01*
G01X7581900Y-1498600D02*
G01X7581900Y-1854200D01*
G01X7747000Y-1429376D02*
G01X7651124Y-1429376D01*
G01X7581900Y-1498600D01*
G01X5379005Y-2844800D02*
G01X5379005Y-2927905D01*
G01X5427015Y-2975915D01*
G01X5583288Y-2975915D01*
G01X7581900Y-1854200D02*
G01X7554959Y-1881141D01*
G01X7162800Y-1881141D01*
G01X8064500Y-1250713D02*
G01X8064500Y-1407107D01*
G01X8067093Y-1409700D01*
G01X7747000Y-1429376D02*
G01X8047417Y-1429376D01*
G01X8067093Y-1409700D01*
G01X6140602Y-2755900D02*
G01X6140602Y-2838602D01*
G01X6177852Y-2875851D02*
G01X6177852Y-2988805D01*
G01X6140602Y-2838602D02*
G01X6177852Y-2875851D01*
G01X6229502Y-3454400D02*
G01X6229502Y-3378200D01*
G01X6017857Y-3208795D02*
G01X6017857Y-3329343D01*
G01X5981700Y-3365500D01*
G01X6140602Y-2755900D02*
G01X6223000Y-2755900D01*
G01X6261100Y-2794000D01*
G01X6769100Y-1542898D02*
G01X6680200Y-1542898D01*
G01X5892800Y-3352800D02*
G01X5892800Y-3406682D01*
G01X5940518Y-3454400D01*
G01X6089498Y-3454400D01*
G01X5414315Y-3170885D02*
G01X5397500Y-3187700D01*
G01X5583288Y-3170885D02*
G01X5414315Y-3170885D01*
G01X5397500Y-3187700D02*
G01X5397500Y-3515262D01*
G01X5392052Y-3520710D01*
G01X5561691Y-3520710D01*
G01X5563323Y-3522342D01*
G54D45*
G01X4847285Y-3170885D02*
G01X4983086Y-3170885D01*
G54D46*
G01X4983086Y-3105887D02*
G01X4882918Y-3105887D01*
G54D45*
G01X4750399Y-2850439D02*
G01X4750399Y-3150199D01*
G01X4836109Y-3235909D01*
G01X4786985Y-2730835D02*
G01X4812385Y-2756235D01*
G01X4812385Y-3135985D01*
G01X4847285Y-3170885D01*
G54D46*
G01X5740400Y-3524098D02*
G01X5740400Y-3403600D01*
G01X5232400Y-3518764D02*
G01X5232400Y-3403600D01*
G54D45*
G01X5582907Y-3365500D02*
G01X5583314Y-3365906D01*
G01X5463460Y-3365500D02*
G01X5582907Y-3365500D01*
G54D46*
G01X5232400Y-3403600D02*
G01X5270500Y-3365500D01*
G01X5321300Y-3365500D01*
G01X5392052Y-3671383D02*
G01X5392052Y-3746500D01*
G01X4788891Y-3792195D02*
G01X4788891Y-3402609D01*
G01X4826000Y-3365500D01*
G01X4982680Y-3365500D01*
G01X4983086Y-3365906D01*
G01X4983594Y-3300882D02*
G01X5066182Y-3300882D01*
G01X4914900Y-3517900D02*
G01X4914900Y-3791179D01*
G01X4913884Y-3792195D01*
G01X5074739Y-3467100D02*
G01X4965700Y-3467100D01*
G01X4914900Y-3517900D01*
G01X5066182Y-3300882D02*
G01X5105400Y-3340100D01*
G01X5105400Y-3436439D01*
G01X5074739Y-3467100D01*
G01X1936674Y-3356642D02*
G01X1936674Y-3263900D01*
G01X1646898Y-3356902D02*
G01X1663700Y-3340100D01*
G01X1599197Y-3356902D02*
G01X1646898Y-3356902D01*
G01X1663700Y-3340100D02*
G01X1663700Y-3263900D01*
G01X2439119Y-3900589D02*
G01X2439119Y-3785319D01*
G01X2413140Y-3759340D01*
G01X2341634Y-3759340D01*
G01X1117600Y-2616200D02*
G01X1117600Y-3098800D01*
G01X971550Y-3244850D01*
G01X4286259Y-3181448D02*
G01X4431661Y-3181448D01*
G01X4432300Y-3182087D01*
G01X6108700Y-1689964D02*
G01X6107836Y-1689100D01*
G01X5880100Y-2044700D02*
G01X5981700Y-2044700D01*
G01X6108700Y-1917700D01*
G01X6108700Y-1689964D01*
G01X971550Y-3796792D02*
G01X971550Y-3244850D01*
G54D48*
G01X3207267Y-3752333D02*
G01X3207267Y-4000500D01*
G54D49*
G01X4286259Y-3181448D02*
G01X4146648Y-3181448D01*
G54D48*
G01X3778152Y-3181448D02*
G01X4146648Y-3181448D01*
G01X3778152Y-3181448D02*
G01X3207267Y-3752333D01*
G54D50*
G01X4663897Y-3792195D02*
G01X3688105Y-3792195D01*
G01X3479800Y-4000500D02*
G01X3424201Y-4000500D01*
G01X3688105Y-3792195D02*
G01X3479800Y-4000500D01*
G01X4663897Y-3792195D02*
G01X4663897Y-3901897D01*
G01X4724400Y-3962400D01*
G01X5080000Y-3962400D01*
G01X5740400Y-3524098D02*
G01X5829300Y-3524098D01*
G54D46*
G01X7315200Y-2590800D02*
G01X7010400Y-2590800D01*
G01X6819900Y-2400300D01*
G01X5473700Y-2400300D01*
G01X5499100Y-2476500D02*
G01X6781800Y-2476500D01*
G01X7060095Y-2754795D01*
G01X7239000Y-2754795D01*
G54D50*
G01X7467600Y-2590800D02*
G01X7569200Y-2590800D01*
G01X7734300Y-2425700D02*
G01X7734300Y-2273300D01*
G01X8064500Y-1943100D01*
G01X7569200Y-2590800D02*
G01X7734300Y-2425700D01*
G01X8064500Y-1722300D02*
G01X8067093Y-1719707D01*
G01X8064500Y-1722300D02*
G01X8064500Y-1943100D01*
G54D46*
G01X2758659Y-3836479D02*
G01X2758659Y-3759200D01*
G54D45*
G01X203200Y-2667000D02*
G01X207302Y-2671102D01*
G01X293103Y-2671102D01*
G54D46*
G01X7747000Y-1580049D02*
G01X7835900Y-1580049D01*
G01X8064500Y-940706D02*
G01X8064500Y-838200D01*
G01X7212265Y-2432202D02*
G01X7201369Y-2443099D01*
G01X7045823Y-2443099D01*
G01X6976999Y-2443099D01*
G01X6946900Y-2413000D01*
G01X6258103Y-2273300D02*
G01X6083300Y-2273300D01*
G01X5957164Y-1689100D02*
G01X5854700Y-1689100D01*
G01X4983086Y-3040888D02*
G01X5118100Y-3040888D01*
G01X5038903Y-3792195D02*
G01X5038903Y-3683000D01*
G01X5232400Y-3669436D02*
G01X5156200Y-3669436D01*
G01X5562600Y-4045102D02*
G01X5562600Y-4241800D01*
G01X5740400Y-3664102D02*
G01X5565079Y-3664102D01*
G01X5563323Y-3662347D01*
G54D50*
G01X5080000Y-3962400D02*
G01X5219700Y-3822700D01*
G01X5315852Y-3822700D01*
G01X5392052Y-3746500D01*
G54D46*
G01X5563323Y-3662347D02*
G01X5563323Y-3694977D01*
G01X5372100Y-3886200D01*
G01X5675017Y-2845918D02*
G01X5583288Y-2845918D01*
G01X5692214Y-3001008D02*
G01X5715000Y-2978223D01*
G01X5583288Y-3041040D02*
G01X5658776Y-3041040D01*
G01X5692214Y-3007602D01*
G01X5692214Y-3001008D01*
G01X5740400Y-3171179D02*
G01X5675133Y-3105912D01*
G01X5583288Y-3105912D01*
G01X6248400Y-2668230D02*
G01X6622796Y-3042626D01*
G01X6622796Y-3456000D01*
G01X5583288Y-2780919D02*
G01X5583288Y-2697112D01*
G01X5740400Y-2540000D01*
G01X6324600Y-2540000D01*
G01X5675017Y-2845918D02*
G01X5715000Y-2805934D01*
G01X5715000Y-2667000D02*
G01X5778500Y-2603500D01*
G01X5715000Y-2805934D02*
G01X5715000Y-2667000D01*
G01X5778500Y-2603500D02*
G01X6299200Y-2603500D01*
G01X5583288Y-2910916D02*
G01X5712384Y-2910916D01*
G01X5778500Y-2844800D01*
G01X5778500Y-2698601D01*
G01X5803376Y-2673725D01*
G54D50*
G01X6591300Y-2679700D02*
G01X6832600Y-2679700D01*
G01X6908800Y-2755900D01*
G54D46*
G01X7213600Y-1982064D02*
G01X7594600Y-1982064D01*
G01X5715000Y-2235200D02*
G01X5715000Y-2209800D01*
G01X5880100Y-2044700D01*
G01X5702300Y-1866900D02*
G01X5417316Y-2151884D01*
G01X5415784Y-2151884D01*
G01X6622796Y-3456000D02*
G01X6621196Y-3454400D01*
G01X6553200Y-3454400D01*
G01X6527800Y-3429000D01*
G01X6527800Y-3327400D01*
G01X6488836Y-3288436D01*
G01X6438900Y-3288436D01*
G01X6438900Y-3137764D02*
G01X6311900Y-3137764D01*
G04 Track End*

M02*

