G04 Layer: DrillDrawingLayer*
G04 EasyEDA Pro v3.2.69, 2026-03-31 14:48:10*
G04 Gerber Generator version 0.3*
G04 Scale: 100 percent, Rotated: No, Reflected: No*
G04 Dimensions in millimeters*
G04 Leading zeros omitted, absolute positions, 4 integers and 5 decimals*
G04 Generated by one-click*
%FSLAX45Y45*%
%MOMM*%
%AMIconRect*4,1,4,0.28,-0.28,-0.28,-0.28,-0.28,0.28,0.28,0.28,0.28,-0.28,0*4,0,4,0.233333,-0.233333,0.233333,0.233333,-0.233333,0.233333,-0.233333,-0.233333,0.233333,-0.233333,0*%
%AMIconTriangle*4,1,3,-0.339593,0.240473,0.339593,0.240473,0,-0.37884,-0.339593,0.240473,0*4,0,3,-0.265673,0.19404,0,-0.27342,0.266233,0.19404,-0.265673,0.19404,0*%
%AMIconStar6*4,1,12,0.12068,0.20888,0.298527,0.172713,0.241313,0,0.298527,-0.17206,0.12068,-0.208227,0,-0.344073,-0.120073,-0.208227,-0.298573,-0.17206,-0.240707,0,-0.298573,0.17206,-0.120073,0.20888,0,0.344073,0.12068,0.20888,0*4,0,12,-0.000467,0.273467,-0.090067,0.171733,-0.237533,0.136733,-0.193667,-0.007467,-0.237533,-0.1372,-0.090067,-0.171733,-0.000467,-0.273933,0.090067,-0.171733,0.237533,-0.1372,0.194133,0.007,0.237533,0.1372,0.090067,0.171267,-0.000467,0.273467,0*%
%AMIconStar4*4,1,8,-0.311733,0.311733,0,0.202533,0.311733,0.311733,0.202533,0,0.311733,-0.311733,0,-0.202533,-0.304407,-0.311733,-0.202533,0,-0.311733,0.311733,0*4,0,8,0.233333,-0.233333,0.1512,0,0.233333,0.233333,0,0.1512,-0.233333,0.233333,-0.1512,0,-0.233333,-0.233333,0,-0.1512,0.233333,-0.233333,0*%
%AMIconPlus*4,1,12,0.1736,-0.28,-0.1736,-0.28,-0.1736,-0.1736,-0.28,-0.1736,-0.28,0.1736,-0.1736,0.1736,-0.1736,0.28,0.1736,0.28,0.1736,0.1736,0.28,0.1736,0.28,-0.1736,0.1736,-0.1736,0.1736,-0.28,0*4,0,12,0.126933,-0.233333,0.126933,-0.126933,0.233333,-0.126933,0.233333,0.126933,0.126933,0.126933,0.126933,0.233333,-0.126933,0.233333,-0.126933,0.126933,-0.233333,0.126933,-0.233333,-0.126933,-0.126933,-0.126933,-0.126933,-0.233333,0.126933,-0.233333,0*%
%AMIconX*4,1,16,0.28,-0.28,0.076347,-0.28,0,-0.203653,-0.076347,-0.28,-0.28,-0.28,-0.28,-0.076347,-0.203653,0,-0.28,0.076347,-0.28,0.28,-0.076347,0.28,0,0.203653,0.076347,0.28,0.28,0.28,0.28,0.076347,0.203653,0,0.28,-0.076347,0.28,-0.28,0*4,0,16,0.23352,-0.23296,0.23352,-0.095853,0.137107,0.000093,0.23352,0.095853,0.23352,0.2331,0.095853,0.2331,0,0.137107,-0.095853,0.2331,-0.23352,0.2331,-0.23352,0.095853,-0.137107,0.000093,-0.23352,-0.095853,-0.23352,-0.23296,-0.095853,-0.23296,0,-0.137107,0.095853,-0.23296,0.23352,-0.23296,0*%
%AMIconDiamond*4,1,4,0,-0.364,-0.364,0,0,0.364,0.364,0,0,-0.364,0*4,0,4,0,-0.284807,0.284807,0,0,0.28504,-0.284807,0,0,-0.284807,0*%
%ADD10IconRect*%
%ADD11C,0.616X0.522667*%
%ADD12IconTriangle*%
%ADD13IconStar6*%
%ADD14IconStar4*%
%ADD15IconPlus*%
%ADD16IconX*%
%ADD17IconDiamond*%
%ADD18C,0.2032*%
%ADD19C,0.254*%
G75*


G04 Drill Drawing Start*
G54D10*
G01X7327900Y-1484820D03*
G54D11*
G01X6868003Y-3454794D03*
G01X8118000Y-3454794D03*
G54D12*
G01X2451100Y-807999D03*
G01X2451100Y-208001D03*
G54D13*
G01X7327900Y-939800D03*
G01X7327900Y-394779D03*
G54D14*
G01X5829300Y-3898900D03*
G01X6083300Y-3898900D03*
G01X6337300Y-3898900D03*
G01X6591300Y-3898900D03*
G54D15*
G01X7239000Y-4204805D03*
G01X7239000Y-2754795D03*
G01X7493000Y-4204805D03*
G01X7747000Y-4204805D03*
G01X7747000Y-2754795D03*
G54D16*
G01X939132Y-1521196D03*
G01X939132Y-1171184D03*
G01X939137Y-632216D03*
G01X939137Y-282204D03*
G01X4571997Y-1521196D03*
G01X4571997Y-1171184D03*
G01X5029203Y-632216D03*
G01X5029203Y-282204D03*
G01X5460997Y-1521196D03*
G01X5460997Y-1171184D03*
G01X5918203Y-632216D03*
G01X5918203Y-282204D03*
G54D17*
G01X82299Y-2692400D03*
G01X82299Y-2544233D03*
G01X82299Y-2396067D03*
G01X82299Y-2247900D03*
G01X82299Y-2099734D03*
G01X82299Y-1951567D03*
G01X82299Y-1803401D03*
G01X139700Y-525033D03*
G01X139700Y-326017D03*
G01X139700Y-127000D03*
G01X203200Y-2667000D03*
G01X230466Y-2396067D03*
G01X230466Y-1951567D03*
G01X230466Y-1803401D03*
G01X232167Y-2248101D03*
G01X232167Y-2099934D03*
G01X338717Y-525033D03*
G01X338717Y-326017D03*
G01X338717Y-127000D03*
G01X387185Y-4236720D03*
G01X387185Y-4012372D03*
G01X537733Y-525033D03*
G01X537733Y-326017D03*
G01X537733Y-127000D03*
G01X537827Y-4236720D03*
G01X537827Y-4012372D03*
G01X546100Y-2438400D03*
G01X688470Y-4236720D03*
G01X688470Y-4012372D03*
G01X698500Y-3644900D03*
G01X698500Y-3530600D03*
G01X698500Y-3416300D03*
G01X698500Y-3302000D03*
G01X736750Y-326017D03*
G01X736750Y-127000D03*
G01X812800Y-3644900D03*
G01X812800Y-3530600D03*
G01X812800Y-3416300D03*
G01X812800Y-3302000D03*
G01X830480Y-2030480D03*
G01X839113Y-4236720D03*
G01X839113Y-4012372D03*
G01X927100Y-3644900D03*
G01X927100Y-3530600D03*
G01X927100Y-3416300D03*
G01X927100Y-3302000D03*
G01X935767Y-127000D03*
G01X952500Y-2324100D03*
G01X989755Y-4236720D03*
G01X989755Y-4012372D03*
G01X1021565Y-3060700D03*
G01X1021565Y-2906298D03*
G01X1028700Y-2743200D03*
G01X1140398Y-4236720D03*
G01X1140398Y-4012372D03*
G01X1205179Y-3485847D03*
G01X1206500Y-3568700D03*
G01X1230480Y-2430480D03*
G01X1230480Y-2030480D03*
G01X1291041Y-4236720D03*
G01X1291041Y-4012372D03*
G01X1441683Y-4236720D03*
G01X1441683Y-4012372D03*
G01X1630480Y-4030480D03*
G01X1630480Y-2430480D03*
G01X1630480Y-2030480D03*
G01X1663700Y-3263900D03*
G01X1714500Y-3517900D03*
G01X1790700Y-4240043D03*
G01X1790700Y-4089400D03*
G01X1936674Y-3263900D03*
G01X2015048Y-4240043D03*
G01X2015048Y-4089400D03*
G01X2030480Y-3230480D03*
G01X2032000Y-3669127D03*
G01X2536238Y-3236997D03*
G01X2536238Y-3086354D03*
G01X2536238Y-2935711D03*
G01X2536238Y-2785069D03*
G01X2536238Y-2634426D03*
G01X2536238Y-2483783D03*
G01X2686881Y-3236997D03*
G01X2686881Y-3086354D03*
G01X2686881Y-2935711D03*
G01X2686881Y-2785069D03*
G01X2686881Y-2634426D03*
G01X2686881Y-2483783D03*
G01X2758659Y-3759200D03*
G01X2830480Y-3630480D03*
G01X2830480Y-3230480D03*
G01X2830480Y-2830480D03*
G01X2830480Y-2430480D03*
G01X3080056Y-154612D03*
G01X3098800Y-4203700D03*
G01X3098800Y-4102100D03*
G01X3098800Y-4000500D03*
G01X3207267Y-4203700D03*
G01X3207267Y-4102100D03*
G01X3207267Y-4000500D03*
G01X3225800Y-279400D03*
G01X3225800Y-154612D03*
G01X3230480Y-3230480D03*
G01X3230480Y-2830480D03*
G01X3230480Y-2030480D03*
G01X3230480Y-430480D03*
G01X3315734Y-4203700D03*
G01X3315734Y-4102100D03*
G01X3315734Y-4000500D03*
G01X3365500Y-152400D03*
G01X3401613Y-2222500D03*
G01X3401613Y-2133600D03*
G01X3401613Y-2044700D03*
G01X3424201Y-4203700D03*
G01X3424201Y-4102100D03*
G01X3424201Y-4000500D03*
G01X3467100Y-3721100D03*
G01X3513235Y-2222500D03*
G01X3513235Y-2133600D03*
G01X3513235Y-2044700D03*
G01X3581400Y-3606800D03*
G01X3624857Y-2222500D03*
G01X3624857Y-2133600D03*
G01X3624857Y-2044700D03*
G01X3630480Y-4030480D03*
G01X3630480Y-2430480D03*
G01X3657600Y-1701800D03*
G01X3657600Y-1614347D03*
G01X3657600Y-1526895D03*
G01X3708400Y-3505200D03*
G01X3736478Y-2222500D03*
G01X3736478Y-2133600D03*
G01X3736478Y-2044700D03*
G01X3745053Y-1701800D03*
G01X3745053Y-1614347D03*
G01X3745053Y-1526895D03*
G01X3832505Y-1701800D03*
G01X3832505Y-1614347D03*
G01X3832505Y-1526895D03*
G01X3848100Y-2222500D03*
G01X3848100Y-2133600D03*
G01X3848100Y-2044700D03*
G01X3911600Y-2857500D03*
G01X3911600Y-2747735D03*
G01X3993741Y-2857500D03*
G01X3993741Y-2747735D03*
G01X4075882Y-2857500D03*
G01X4075882Y-2747735D03*
G01X4076700Y-3530600D03*
G01X4229100Y-2524912D03*
G01X4229100Y-2413000D03*
G01X4259057Y-3530600D03*
G01X4318000Y-2336800D03*
G01X4406900Y-2605118D03*
G01X4406900Y-2515409D03*
G01X4406900Y-2425700D03*
G01X4432300Y-3182087D03*
G01X4441414Y-3530600D03*
G01X4445000Y-3073400D03*
G01X4457700Y-2298700D03*
G01X4496609Y-2605118D03*
G01X4496609Y-2515409D03*
G01X4497324Y-122209D03*
G01X4521200Y-2298700D03*
G01X4548701Y-3073400D03*
G01X4548701Y-2969699D03*
G01X4584700Y-2311400D03*
G01X4623770Y-3530600D03*
G01X4635500Y-2362200D03*
G01X4649719Y-122209D03*
G01X4652402Y-3073400D03*
G01X4652402Y-2969699D03*
G01X4750399Y-2850439D03*
G01X4786985Y-2657518D03*
G01X4802114Y-122209D03*
G01X4863145Y-2724433D03*
G01X4882918Y-3105887D03*
G01X4901585Y-2370375D03*
G01X4901585Y-2273300D03*
G01X4954508Y-122209D03*
G01X4978400Y-2717800D03*
G01X5031599Y-2370375D03*
G01X5031599Y-2273300D03*
G01X5038903Y-3683000D03*
G01X5106903Y-122209D03*
G01X5118100Y-3040888D03*
G01X5156200Y-3669436D03*
G01X5230480Y-3230480D03*
G01X5230480Y-2830480D03*
G01X5230480Y-2430480D03*
G01X5230480Y-2030480D03*
G01X5230480Y-1630480D03*
G01X5257800Y-2717800D03*
G01X5259298Y-122209D03*
G01X5321300Y-3365500D03*
G01X5372100Y-3886200D03*
G01X5379005Y-2844800D03*
G01X5392052Y-3746500D03*
G01X5411692Y-122209D03*
G01X5415784Y-2151884D03*
G01X5463460Y-3365500D03*
G01X5562600Y-4241800D03*
G01X5564087Y-122209D03*
G01X5630479Y-1630480D03*
G01X5702300Y-1866900D03*
G01X5715000Y-2978223D03*
G01X5715000Y-2235200D03*
G01X5716482Y-122209D03*
G01X5740400Y-3403600D03*
G01X5740400Y-3171179D03*
G01X5803376Y-2673725D03*
G01X5829300Y-3524098D03*
G01X5854700Y-1689100D03*
G01X5868877Y-122209D03*
G01X5981700Y-3365500D03*
G01X6021271Y-122209D03*
G01X6083300Y-2273300D03*
G01X6173666Y-122209D03*
G01X6229502Y-3378200D03*
G01X6248400Y-2668230D03*
G01X6261100Y-2794000D03*
G01X6311900Y-3137764D03*
G01X6430479Y-2030480D03*
G01X6430479Y-430480D03*
G01X6522416Y-1910770D03*
G01X6522416Y-1803400D03*
G01X6591300Y-2679700D03*
G01X6629400Y-1003300D03*
G01X6629400Y-895653D03*
G01X6632898Y-1910770D03*
G01X6632898Y-1803400D03*
G01X6680200Y-1542898D03*
G01X6737047Y-1003300D03*
G01X6737047Y-895653D03*
G01X6737047Y-788006D03*
G01X6743379Y-1910770D03*
G01X6830479Y-4030480D03*
G01X6844694Y-1003300D03*
G01X6844694Y-895653D03*
G01X6844694Y-788006D03*
G01X6853861Y-1910770D03*
G01X6908800Y-2755900D03*
G01X6946900Y-2413000D03*
G01X6952341Y-1003300D03*
G01X6952341Y-895653D03*
G01X6952341Y-788006D03*
G01X7059988Y-1003300D03*
G01X7059988Y-895653D03*
G01X7059988Y-788006D03*
G01X7162800Y-1881141D03*
G01X7467600Y-2590800D03*
G01X7594600Y-1982064D03*
G01X7630479Y-4030480D03*
G01X7630479Y-3630480D03*
G01X7630479Y-3230480D03*
G01X7630479Y-2830480D03*
G01X7630479Y-430480D03*
G01X7835900Y-1580049D03*
G01X8030479Y-4030480D03*
G01X8030479Y-3230480D03*
G01X8030479Y-2830480D03*
G01X8030479Y-2430480D03*
G01X8030479Y-430480D03*
G01X8064500Y-838200D03*
G04 Drill Drawing End*

G04 Text Start*
G54D18*
G01X10613146Y-221706D02*
G01X10613146Y-341848D01*
G01X10613146Y-221706D02*
G01X10658866Y-341848D01*
G01X10704586Y-221706D02*
G01X10658866Y-341848D01*
G01X10704586Y-221706D02*
G01X10704586Y-341848D01*
G01X10820918Y-261838D02*
G01X10820918Y-341848D01*
G01X10820918Y-278856D02*
G01X10809488Y-267426D01*
G01X10798058Y-261838D01*
G01X10781040Y-261838D01*
G01X10769610Y-267426D01*
G01X10758180Y-278856D01*
G01X10752338Y-296128D01*
G01X10752338Y-307558D01*
G01X10758180Y-324576D01*
G01X10769610Y-336006D01*
G01X10781040Y-341848D01*
G01X10798058Y-341848D01*
G01X10809488Y-336006D01*
G01X10820918Y-324576D01*
G01X10868670Y-261838D02*
G01X10868670Y-341848D01*
G01X10868670Y-296128D02*
G01X10874512Y-278856D01*
G01X10885942Y-267426D01*
G01X10897372Y-261838D01*
G01X10914390Y-261838D01*
G01X10962142Y-221706D02*
G01X10962142Y-341848D01*
G01X11019292Y-261838D02*
G01X10962142Y-318988D01*
G01X10985002Y-296128D02*
G01X11025134Y-341848D01*
G01X12150426Y-250408D02*
G01X12144584Y-238978D01*
G01X12133154Y-227548D01*
G01X12121724Y-221706D01*
G01X12098864Y-221706D01*
G01X12087434Y-227548D01*
G01X12076004Y-238978D01*
G01X12070416Y-250408D01*
G01X12064574Y-267426D01*
G01X12064574Y-296128D01*
G01X12070416Y-313146D01*
G01X12076004Y-324576D01*
G01X12087434Y-336006D01*
G01X12098864Y-341848D01*
G01X12121724Y-341848D01*
G01X12133154Y-336006D01*
G01X12144584Y-324576D01*
G01X12150426Y-313146D01*
G01X12226880Y-261838D02*
G01X12215450Y-267426D01*
G01X12204020Y-278856D01*
G01X12198178Y-296128D01*
G01X12198178Y-307558D01*
G01X12204020Y-324576D01*
G01X12215450Y-336006D01*
G01X12226880Y-341848D01*
G01X12243898Y-341848D01*
G01X12255328Y-336006D01*
G01X12266758Y-324576D01*
G01X12272600Y-307558D01*
G01X12272600Y-296128D01*
G01X12266758Y-278856D01*
G01X12255328Y-267426D01*
G01X12243898Y-261838D01*
G01X12226880Y-261838D01*
G01X12320352Y-261838D02*
G01X12320352Y-318988D01*
G01X12326194Y-336006D01*
G01X12337624Y-341848D01*
G01X12354642Y-341848D01*
G01X12366072Y-336006D01*
G01X12383344Y-318988D01*
G01X12383344Y-261838D02*
G01X12383344Y-341848D01*
G01X12431096Y-261838D02*
G01X12431096Y-341848D01*
G01X12431096Y-284698D02*
G01X12448368Y-267426D01*
G01X12459798Y-261838D01*
G01X12476816Y-261838D01*
G01X12488246Y-267426D01*
G01X12494088Y-284698D01*
G01X12494088Y-341848D01*
G01X12559112Y-221706D02*
G01X12559112Y-318988D01*
G01X12564700Y-336006D01*
G01X12576130Y-341848D01*
G01X12587560Y-341848D01*
G01X12541840Y-261838D02*
G01X12581972Y-261838D01*
G01X13558747Y-238978D02*
G01X13547317Y-227548D01*
G01X13530299Y-221706D01*
G01X13507439Y-221706D01*
G01X13490167Y-227548D01*
G01X13478737Y-238978D01*
G01X13478737Y-250408D01*
G01X13484579Y-261838D01*
G01X13490167Y-267426D01*
G01X13501597Y-273268D01*
G01X13535887Y-284698D01*
G01X13547317Y-290286D01*
G01X13553159Y-296128D01*
G01X13558747Y-307558D01*
G01X13558747Y-324576D01*
G01X13547317Y-336006D01*
G01X13530299Y-341848D01*
G01X13507439Y-341848D01*
G01X13490167Y-336006D01*
G01X13478737Y-324576D01*
G01X13606499Y-221706D02*
G01X13612341Y-227548D01*
G01X13617929Y-221706D01*
G01X13612341Y-216118D01*
G01X13606499Y-221706D01*
G01X13612341Y-261838D02*
G01X13612341Y-341848D01*
G01X13728673Y-261838D02*
G01X13665681Y-341848D01*
G01X13665681Y-261838D02*
G01X13728673Y-261838D01*
G01X13665681Y-341848D02*
G01X13728673Y-341848D01*
G01X13776425Y-296128D02*
G01X13845005Y-296128D01*
G01X13845005Y-284698D01*
G01X13839417Y-273268D01*
G01X13833575Y-267426D01*
G01X13822145Y-261838D01*
G01X13805127Y-261838D01*
G01X13793697Y-267426D01*
G01X13782267Y-278856D01*
G01X13776425Y-296128D01*
G01X13776425Y-307558D01*
G01X13782267Y-324576D01*
G01X13793697Y-336006D01*
G01X13805127Y-341848D01*
G01X13822145Y-341848D01*
G01X13833575Y-336006D01*
G01X13845005Y-324576D01*
G01X17329268Y-221706D02*
G01X17329268Y-341848D01*
G01X17329268Y-221706D02*
G01X17380830Y-221706D01*
G01X17397848Y-227548D01*
G01X17403690Y-233136D01*
G01X17409278Y-244566D01*
G01X17409278Y-261838D01*
G01X17403690Y-273268D01*
G01X17397848Y-278856D01*
G01X17380830Y-284698D01*
G01X17329268Y-284698D01*
G01X17457030Y-221706D02*
G01X17457030Y-341848D01*
G01X17573362Y-261838D02*
G01X17573362Y-341848D01*
G01X17573362Y-278856D02*
G01X17561932Y-267426D01*
G01X17550502Y-261838D01*
G01X17533484Y-261838D01*
G01X17522054Y-267426D01*
G01X17510624Y-278856D01*
G01X17504782Y-296128D01*
G01X17504782Y-307558D01*
G01X17510624Y-324576D01*
G01X17522054Y-336006D01*
G01X17533484Y-341848D01*
G01X17550502Y-341848D01*
G01X17561932Y-336006D01*
G01X17573362Y-324576D01*
G01X17638386Y-221706D02*
G01X17638386Y-318988D01*
G01X17643974Y-336006D01*
G01X17655404Y-341848D01*
G01X17666834Y-341848D01*
G01X17621114Y-261838D02*
G01X17661246Y-261838D01*
G01X17714586Y-296128D02*
G01X17783166Y-296128D01*
G01X17783166Y-284698D01*
G01X17777578Y-273268D01*
G01X17771736Y-267426D01*
G01X17760306Y-261838D01*
G01X17743288Y-261838D01*
G01X17731858Y-267426D01*
G01X17720428Y-278856D01*
G01X17714586Y-296128D01*
G01X17714586Y-307558D01*
G01X17720428Y-324576D01*
G01X17731858Y-336006D01*
G01X17743288Y-341848D01*
G01X17760306Y-341848D01*
G01X17771736Y-336006D01*
G01X17783166Y-324576D01*
G01X17899498Y-221706D02*
G01X17899498Y-341848D01*
G01X17899498Y-278856D02*
G01X17888068Y-267426D01*
G01X17876638Y-261838D01*
G01X17859620Y-261838D01*
G01X17848190Y-267426D01*
G01X17836760Y-278856D01*
G01X17830918Y-296128D01*
G01X17830918Y-307558D01*
G01X17836760Y-324576D01*
G01X17848190Y-336006D01*
G01X17859620Y-341848D01*
G01X17876638Y-341848D01*
G01X17888068Y-336006D01*
G01X17899498Y-324576D01*
G01X18870686Y-238978D02*
G01X18859256Y-227548D01*
G01X18842238Y-221706D01*
G01X18819378Y-221706D01*
G01X18802106Y-227548D01*
G01X18790676Y-238978D01*
G01X18790676Y-250408D01*
G01X18796518Y-261838D01*
G01X18802106Y-267426D01*
G01X18813536Y-273268D01*
G01X18847826Y-284698D01*
G01X18859256Y-290286D01*
G01X18865098Y-296128D01*
G01X18870686Y-307558D01*
G01X18870686Y-324576D01*
G01X18859256Y-336006D01*
G01X18842238Y-341848D01*
G01X18819378Y-341848D01*
G01X18802106Y-336006D01*
G01X18790676Y-324576D01*
G01X18918438Y-221706D02*
G01X18918438Y-341848D01*
G01X18918438Y-284698D02*
G01X18935710Y-267426D01*
G01X18947140Y-261838D01*
G01X18964158Y-261838D01*
G01X18975588Y-267426D01*
G01X18981430Y-284698D01*
G01X18981430Y-341848D01*
G01X19097762Y-261838D02*
G01X19097762Y-341848D01*
G01X19097762Y-278856D02*
G01X19086332Y-267426D01*
G01X19074902Y-261838D01*
G01X19057884Y-261838D01*
G01X19046454Y-267426D01*
G01X19035024Y-278856D01*
G01X19029182Y-296128D01*
G01X19029182Y-307558D01*
G01X19035024Y-324576D01*
G01X19046454Y-336006D01*
G01X19057884Y-341848D01*
G01X19074902Y-341848D01*
G01X19086332Y-336006D01*
G01X19097762Y-324576D01*
G01X19145514Y-261838D02*
G01X19145514Y-381726D01*
G01X19145514Y-278856D02*
G01X19156944Y-267426D01*
G01X19168374Y-261838D01*
G01X19185646Y-261838D01*
G01X19197076Y-267426D01*
G01X19208506Y-278856D01*
G01X19214094Y-296128D01*
G01X19214094Y-307558D01*
G01X19208506Y-324576D01*
G01X19197076Y-336006D01*
G01X19185646Y-341848D01*
G01X19168374Y-341848D01*
G01X19156944Y-336006D01*
G01X19145514Y-324576D01*
G01X19261846Y-296128D02*
G01X19330426Y-296128D01*
G01X19330426Y-284698D01*
G01X19324838Y-273268D01*
G01X19318996Y-267426D01*
G01X19307566Y-261838D01*
G01X19290548Y-261838D01*
G01X19279118Y-267426D01*
G01X19267688Y-278856D01*
G01X19261846Y-296128D01*
G01X19261846Y-307558D01*
G01X19267688Y-324576D01*
G01X19279118Y-336006D01*
G01X19290548Y-341848D01*
G01X19307566Y-341848D01*
G01X19318996Y-336006D01*
G01X19330426Y-324576D01*
G01X20221857Y-221706D02*
G01X20267577Y-341848D01*
G01X20313297Y-221706D02*
G01X20267577Y-341848D01*
G01X20361049Y-221706D02*
G01X20366891Y-227548D01*
G01X20372479Y-221706D01*
G01X20366891Y-216118D01*
G01X20361049Y-221706D01*
G01X20366891Y-261838D02*
G01X20366891Y-341848D01*
G01X20488811Y-261838D02*
G01X20488811Y-341848D01*
G01X20488811Y-278856D02*
G01X20477381Y-267426D01*
G01X20465951Y-261838D01*
G01X20448933Y-261838D01*
G01X20437503Y-267426D01*
G01X20426073Y-278856D01*
G01X20420231Y-296128D01*
G01X20420231Y-307558D01*
G01X20426073Y-324576D01*
G01X20437503Y-336006D01*
G01X20448933Y-341848D01*
G01X20465951Y-341848D01*
G01X20477381Y-336006D01*
G01X20488811Y-324576D01*
G01X20639433Y-198846D02*
G01X20536563Y-381726D01*
G01X20687185Y-221706D02*
G01X20687185Y-341848D01*
G01X20687185Y-221706D02*
G01X20738747Y-221706D01*
G01X20755765Y-227548D01*
G01X20761607Y-233136D01*
G01X20767195Y-244566D01*
G01X20767195Y-261838D01*
G01X20761607Y-273268D01*
G01X20755765Y-278856D01*
G01X20738747Y-284698D01*
G01X20687185Y-284698D01*
G01X20883527Y-261838D02*
G01X20883527Y-341848D01*
G01X20883527Y-278856D02*
G01X20872097Y-267426D01*
G01X20860667Y-261838D01*
G01X20843649Y-261838D01*
G01X20832219Y-267426D01*
G01X20820789Y-278856D01*
G01X20814947Y-296128D01*
G01X20814947Y-307558D01*
G01X20820789Y-324576D01*
G01X20832219Y-336006D01*
G01X20843649Y-341848D01*
G01X20860667Y-341848D01*
G01X20872097Y-336006D01*
G01X20883527Y-324576D01*
G01X20999859Y-221706D02*
G01X20999859Y-341848D01*
G01X20999859Y-278856D02*
G01X20988429Y-267426D01*
G01X20976999Y-261838D01*
G01X20959981Y-261838D01*
G01X20948551Y-267426D01*
G01X20937121Y-278856D01*
G01X20931279Y-296128D01*
G01X20931279Y-307558D01*
G01X20937121Y-324576D01*
G01X20948551Y-336006D01*
G01X20959981Y-341848D01*
G01X20976999Y-341848D01*
G01X20988429Y-336006D01*
G01X20999859Y-324576D01*
G01X21891036Y-221706D02*
G01X21891036Y-341848D01*
G01X21891036Y-221706D02*
G01X21942598Y-221706D01*
G01X21959616Y-227548D01*
G01X21965458Y-233136D01*
G01X21971046Y-244566D01*
G01X21971046Y-261838D01*
G01X21965458Y-273268D01*
G01X21959616Y-278856D01*
G01X21942598Y-284698D01*
G01X21891036Y-284698D01*
G01X22087378Y-261838D02*
G01X22087378Y-341848D01*
G01X22087378Y-278856D02*
G01X22075948Y-267426D01*
G01X22064518Y-261838D01*
G01X22047500Y-261838D01*
G01X22036070Y-267426D01*
G01X22024640Y-278856D01*
G01X22018798Y-296128D01*
G01X22018798Y-307558D01*
G01X22024640Y-324576D01*
G01X22036070Y-336006D01*
G01X22047500Y-341848D01*
G01X22064518Y-341848D01*
G01X22075948Y-336006D01*
G01X22087378Y-324576D01*
G01X22203710Y-221706D02*
G01X22203710Y-341848D01*
G01X22203710Y-278856D02*
G01X22192280Y-267426D01*
G01X22180850Y-261838D01*
G01X22163832Y-261838D01*
G01X22152402Y-267426D01*
G01X22140972Y-278856D01*
G01X22135130Y-296128D01*
G01X22135130Y-307558D01*
G01X22140972Y-324576D01*
G01X22152402Y-336006D01*
G01X22163832Y-341848D01*
G01X22180850Y-341848D01*
G01X22192280Y-336006D01*
G01X22203710Y-324576D01*
G01X22459488Y-238978D02*
G01X22448058Y-227548D01*
G01X22431040Y-221706D01*
G01X22408180Y-221706D01*
G01X22390908Y-227548D01*
G01X22379478Y-238978D01*
G01X22379478Y-250408D01*
G01X22385320Y-261838D01*
G01X22390908Y-267426D01*
G01X22402338Y-273268D01*
G01X22436628Y-284698D01*
G01X22448058Y-290286D01*
G01X22453900Y-296128D01*
G01X22459488Y-307558D01*
G01X22459488Y-324576D01*
G01X22448058Y-336006D01*
G01X22431040Y-341848D01*
G01X22408180Y-341848D01*
G01X22390908Y-336006D01*
G01X22379478Y-324576D01*
G01X22507240Y-221706D02*
G01X22507240Y-341848D01*
G01X22507240Y-284698D02*
G01X22524512Y-267426D01*
G01X22535942Y-261838D01*
G01X22552960Y-261838D01*
G01X22564390Y-267426D01*
G01X22570232Y-284698D01*
G01X22570232Y-341848D01*
G01X22686564Y-261838D02*
G01X22686564Y-341848D01*
G01X22686564Y-278856D02*
G01X22675134Y-267426D01*
G01X22663704Y-261838D01*
G01X22646686Y-261838D01*
G01X22635256Y-267426D01*
G01X22623826Y-278856D01*
G01X22617984Y-296128D01*
G01X22617984Y-307558D01*
G01X22623826Y-324576D01*
G01X22635256Y-336006D01*
G01X22646686Y-341848D01*
G01X22663704Y-341848D01*
G01X22675134Y-336006D01*
G01X22686564Y-324576D01*
G01X22734316Y-261838D02*
G01X22734316Y-381726D01*
G01X22734316Y-278856D02*
G01X22745746Y-267426D01*
G01X22757176Y-261838D01*
G01X22774448Y-261838D01*
G01X22785878Y-267426D01*
G01X22797308Y-278856D01*
G01X22802896Y-296128D01*
G01X22802896Y-307558D01*
G01X22797308Y-324576D01*
G01X22785878Y-336006D01*
G01X22774448Y-341848D01*
G01X22757176Y-341848D01*
G01X22745746Y-336006D01*
G01X22734316Y-324576D01*
G01X22850648Y-296128D02*
G01X22919228Y-296128D01*
G01X22919228Y-284698D01*
G01X22913640Y-273268D01*
G01X22907798Y-267426D01*
G01X22896368Y-261838D01*
G01X22879350Y-261838D01*
G01X22867920Y-267426D01*
G01X22856490Y-278856D01*
G01X22850648Y-296128D01*
G01X22850648Y-307558D01*
G01X22856490Y-324576D01*
G01X22867920Y-336006D01*
G01X22879350Y-341848D01*
G01X22896368Y-341848D01*
G01X22907798Y-336006D01*
G01X22919228Y-324576D01*
G01X23810405Y-221706D02*
G01X23810405Y-341848D01*
G01X23810405Y-341848D02*
G01X23878985Y-341848D01*
G01X23995317Y-261838D02*
G01X23995317Y-341848D01*
G01X23995317Y-278856D02*
G01X23983887Y-267426D01*
G01X23972457Y-261838D01*
G01X23955439Y-261838D01*
G01X23944009Y-267426D01*
G01X23932579Y-278856D01*
G01X23926737Y-296128D01*
G01X23926737Y-307558D01*
G01X23932579Y-324576D01*
G01X23944009Y-336006D01*
G01X23955439Y-341848D01*
G01X23972457Y-341848D01*
G01X23983887Y-336006D01*
G01X23995317Y-324576D01*
G01X24048911Y-261838D02*
G01X24083201Y-341848D01*
G01X24117491Y-261838D02*
G01X24083201Y-341848D01*
G01X24071771Y-364708D01*
G01X24060341Y-376138D01*
G01X24048911Y-381726D01*
G01X24043069Y-381726D01*
G01X24165243Y-296128D02*
G01X24233823Y-296128D01*
G01X24233823Y-284698D01*
G01X24228235Y-273268D01*
G01X24222393Y-267426D01*
G01X24210963Y-261838D01*
G01X24193945Y-261838D01*
G01X24182515Y-267426D01*
G01X24171085Y-278856D01*
G01X24165243Y-296128D01*
G01X24165243Y-307558D01*
G01X24171085Y-324576D01*
G01X24182515Y-336006D01*
G01X24193945Y-341848D01*
G01X24210963Y-341848D01*
G01X24222393Y-336006D01*
G01X24233823Y-324576D01*
G01X24281575Y-261838D02*
G01X24281575Y-341848D01*
G01X24281575Y-296128D02*
G01X24287417Y-278856D01*
G01X24298847Y-267426D01*
G01X24310277Y-261838D01*
G01X24327295Y-261838D01*
G01X24503063Y-221706D02*
G01X24503063Y-341848D01*
G01X24503063Y-221706D02*
G01X24554625Y-221706D01*
G01X24571643Y-227548D01*
G01X24577485Y-233136D01*
G01X24583073Y-244566D01*
G01X24583073Y-261838D01*
G01X24577485Y-273268D01*
G01X24571643Y-278856D01*
G01X24554625Y-284698D01*
G01X24503063Y-284698D01*
G01X24699405Y-261838D02*
G01X24699405Y-341848D01*
G01X24699405Y-278856D02*
G01X24687975Y-267426D01*
G01X24676545Y-261838D01*
G01X24659527Y-261838D01*
G01X24648097Y-267426D01*
G01X24636667Y-278856D01*
G01X24630825Y-296128D01*
G01X24630825Y-307558D01*
G01X24636667Y-324576D01*
G01X24648097Y-336006D01*
G01X24659527Y-341848D01*
G01X24676545Y-341848D01*
G01X24687975Y-336006D01*
G01X24699405Y-324576D01*
G01X24747157Y-221706D02*
G01X24752999Y-227548D01*
G01X24758587Y-221706D01*
G01X24752999Y-216118D01*
G01X24747157Y-221706D01*
G01X24752999Y-261838D02*
G01X24752999Y-341848D01*
G01X24806339Y-261838D02*
G01X24806339Y-341848D01*
G01X24806339Y-296128D02*
G01X24812181Y-278856D01*
G01X24823611Y-267426D01*
G01X24835041Y-261838D01*
G01X24852059Y-261838D01*
G01X12064574Y-825137D02*
G01X12076004Y-819549D01*
G01X12093276Y-802277D01*
G01X12093276Y-922419D01*
G01X13547317Y-819549D02*
G01X13541729Y-808119D01*
G01X13524457Y-802277D01*
G01X13513027Y-802277D01*
G01X13496009Y-808119D01*
G01X13484579Y-825137D01*
G01X13478737Y-853839D01*
G01X13478737Y-882287D01*
G01X13484579Y-905147D01*
G01X13496009Y-916577D01*
G01X13513027Y-922419D01*
G01X13518869Y-922419D01*
G01X13535887Y-916577D01*
G01X13547317Y-905147D01*
G01X13553159Y-888129D01*
G01X13553159Y-882287D01*
G01X13547317Y-865269D01*
G01X13535887Y-853839D01*
G01X13518869Y-847997D01*
G01X13513027Y-847997D01*
G01X13496009Y-853839D01*
G01X13484579Y-865269D01*
G01X13478737Y-882287D01*
G01X13669491Y-819549D02*
G01X13663903Y-808119D01*
G01X13646631Y-802277D01*
G01X13635201Y-802277D01*
G01X13618183Y-808119D01*
G01X13606753Y-825137D01*
G01X13600911Y-853839D01*
G01X13600911Y-882287D01*
G01X13606753Y-905147D01*
G01X13618183Y-916577D01*
G01X13635201Y-922419D01*
G01X13641043Y-922419D01*
G01X13658061Y-916577D01*
G01X13669491Y-905147D01*
G01X13675333Y-888129D01*
G01X13675333Y-882287D01*
G01X13669491Y-865269D01*
G01X13658061Y-853839D01*
G01X13641043Y-847997D01*
G01X13635201Y-847997D01*
G01X13618183Y-853839D01*
G01X13606753Y-865269D01*
G01X13600911Y-882287D01*
G01X13728927Y-893717D02*
G01X13723085Y-899559D01*
G01X13728927Y-905147D01*
G01X13734515Y-899559D01*
G01X13728927Y-893717D01*
G01X13856689Y-842409D02*
G01X13850847Y-859427D01*
G01X13839417Y-870857D01*
G01X13822399Y-876699D01*
G01X13816557Y-876699D01*
G01X13799539Y-870857D01*
G01X13788109Y-859427D01*
G01X13782267Y-842409D01*
G01X13782267Y-836567D01*
G01X13788109Y-819549D01*
G01X13799539Y-808119D01*
G01X13816557Y-802277D01*
G01X13822399Y-802277D01*
G01X13839417Y-808119D01*
G01X13850847Y-819549D01*
G01X13856689Y-842409D01*
G01X13856689Y-870857D01*
G01X13850847Y-899559D01*
G01X13839417Y-916577D01*
G01X13822399Y-922419D01*
G01X13810969Y-922419D01*
G01X13793697Y-916577D01*
G01X13788109Y-905147D01*
G01X13904441Y-842409D02*
G01X13967433Y-922419D01*
G01X13967433Y-842409D02*
G01X13904441Y-922419D01*
G01X14095195Y-802277D02*
G01X14038045Y-922419D01*
G01X14015185Y-802277D02*
G01X14095195Y-802277D01*
G01X14177237Y-802277D02*
G01X14160219Y-808119D01*
G01X14148789Y-825137D01*
G01X14142947Y-853839D01*
G01X14142947Y-870857D01*
G01X14148789Y-899559D01*
G01X14160219Y-916577D01*
G01X14177237Y-922419D01*
G01X14188667Y-922419D01*
G01X14205939Y-916577D01*
G01X14217369Y-899559D01*
G01X14222957Y-870857D01*
G01X14222957Y-853839D01*
G01X14217369Y-825137D01*
G01X14205939Y-808119D01*
G01X14188667Y-802277D01*
G01X14177237Y-802277D01*
G01X14276551Y-893717D02*
G01X14270709Y-899559D01*
G01X14276551Y-905147D01*
G01X14282139Y-899559D01*
G01X14276551Y-893717D01*
G01X14341321Y-802277D02*
G01X14404313Y-802277D01*
G01X14370023Y-847997D01*
G01X14387041Y-847997D01*
G01X14398471Y-853839D01*
G01X14404313Y-859427D01*
G01X14409901Y-876699D01*
G01X14409901Y-888129D01*
G01X14404313Y-905147D01*
G01X14392883Y-916577D01*
G01X14375611Y-922419D01*
G01X14358593Y-922419D01*
G01X14341321Y-916577D01*
G01X14335733Y-910989D01*
G01X14329891Y-899559D01*
G01X14457653Y-842409D02*
G01X14457653Y-922419D01*
G01X14457653Y-865269D02*
G01X14474925Y-847997D01*
G01X14486355Y-842409D01*
G01X14503373Y-842409D01*
G01X14514803Y-847997D01*
G01X14520645Y-865269D01*
G01X14520645Y-922419D01*
G01X14520645Y-865269D02*
G01X14537663Y-847997D01*
G01X14549093Y-842409D01*
G01X14566365Y-842409D01*
G01X14577795Y-847997D01*
G01X14583383Y-865269D01*
G01X14583383Y-922419D01*
G01X14631135Y-802277D02*
G01X14636977Y-808119D01*
G01X14642565Y-802277D01*
G01X14636977Y-796689D01*
G01X14631135Y-802277D01*
G01X14636977Y-842409D02*
G01X14636977Y-922419D01*
G01X14690317Y-802277D02*
G01X14690317Y-922419D01*
G01X14778201Y-779417D02*
G01X14766771Y-790847D01*
G01X14755341Y-808119D01*
G01X14743911Y-830979D01*
G01X14738069Y-859427D01*
G01X14738069Y-882287D01*
G01X14743911Y-910989D01*
G01X14755341Y-933849D01*
G01X14766771Y-950867D01*
G01X14778201Y-962297D01*
G01X14825953Y-825137D02*
G01X14837383Y-819549D01*
G01X14854655Y-802277D01*
G01X14854655Y-922419D01*
G01X14908249Y-893717D02*
G01X14902407Y-899559D01*
G01X14908249Y-905147D01*
G01X14913837Y-899559D01*
G01X14908249Y-893717D01*
G01X15041599Y-802277D02*
G01X14984449Y-922419D01*
G01X14961589Y-802277D02*
G01X15041599Y-802277D01*
G01X15123641Y-802277D02*
G01X15106623Y-808119D01*
G01X15095193Y-825137D01*
G01X15089351Y-853839D01*
G01X15089351Y-870857D01*
G01X15095193Y-899559D01*
G01X15106623Y-916577D01*
G01X15123641Y-922419D01*
G01X15135071Y-922419D01*
G01X15152343Y-916577D01*
G01X15163773Y-899559D01*
G01X15169361Y-870857D01*
G01X15169361Y-853839D01*
G01X15163773Y-825137D01*
G01X15152343Y-808119D01*
G01X15135071Y-802277D01*
G01X15123641Y-802277D01*
G01X15251403Y-802277D02*
G01X15234385Y-808119D01*
G01X15222955Y-825137D01*
G01X15217113Y-853839D01*
G01X15217113Y-870857D01*
G01X15222955Y-899559D01*
G01X15234385Y-916577D01*
G01X15251403Y-922419D01*
G01X15262833Y-922419D01*
G01X15280105Y-916577D01*
G01X15291535Y-899559D01*
G01X15297123Y-870857D01*
G01X15297123Y-853839D01*
G01X15291535Y-825137D01*
G01X15280105Y-808119D01*
G01X15262833Y-802277D01*
G01X15251403Y-802277D01*
G01X15344875Y-842409D02*
G01X15407867Y-922419D01*
G01X15407867Y-842409D02*
G01X15344875Y-922419D01*
G01X15455619Y-825137D02*
G01X15467049Y-819549D01*
G01X15484321Y-802277D01*
G01X15484321Y-922419D01*
G01X15537915Y-893717D02*
G01X15532073Y-899559D01*
G01X15537915Y-905147D01*
G01X15543503Y-899559D01*
G01X15537915Y-893717D01*
G01X15671265Y-802277D02*
G01X15614115Y-922419D01*
G01X15591255Y-802277D02*
G01X15671265Y-802277D01*
G01X15747719Y-802277D02*
G01X15730447Y-808119D01*
G01X15724859Y-819549D01*
G01X15724859Y-830979D01*
G01X15730447Y-842409D01*
G01X15741877Y-847997D01*
G01X15764737Y-853839D01*
G01X15782009Y-859427D01*
G01X15793439Y-870857D01*
G01X15799027Y-882287D01*
G01X15799027Y-899559D01*
G01X15793439Y-910989D01*
G01X15787597Y-916577D01*
G01X15770579Y-922419D01*
G01X15747719Y-922419D01*
G01X15730447Y-916577D01*
G01X15724859Y-910989D01*
G01X15719017Y-899559D01*
G01X15719017Y-882287D01*
G01X15724859Y-870857D01*
G01X15736289Y-859427D01*
G01X15753307Y-853839D01*
G01X15776167Y-847997D01*
G01X15787597Y-842409D01*
G01X15793439Y-830979D01*
G01X15793439Y-819549D01*
G01X15787597Y-808119D01*
G01X15770579Y-802277D01*
G01X15747719Y-802277D01*
G01X15915359Y-802277D02*
G01X15858209Y-802277D01*
G01X15852621Y-853839D01*
G01X15858209Y-847997D01*
G01X15875481Y-842409D01*
G01X15892499Y-842409D01*
G01X15909771Y-847997D01*
G01X15921201Y-859427D01*
G01X15926789Y-876699D01*
G01X15926789Y-888129D01*
G01X15921201Y-905147D01*
G01X15909771Y-916577D01*
G01X15892499Y-922419D01*
G01X15875481Y-922419D01*
G01X15858209Y-916577D01*
G01X15852621Y-910989D01*
G01X15846779Y-899559D01*
G01X15974541Y-842409D02*
G01X15974541Y-922419D01*
G01X15974541Y-865269D02*
G01X15991813Y-847997D01*
G01X16003243Y-842409D01*
G01X16020261Y-842409D01*
G01X16031691Y-847997D01*
G01X16037533Y-865269D01*
G01X16037533Y-922419D01*
G01X16037533Y-865269D02*
G01X16054551Y-847997D01*
G01X16065981Y-842409D01*
G01X16083253Y-842409D01*
G01X16094683Y-847997D01*
G01X16100271Y-865269D01*
G01X16100271Y-922419D01*
G01X16148023Y-842409D02*
G01X16148023Y-922419D01*
G01X16148023Y-865269D02*
G01X16165295Y-847997D01*
G01X16176725Y-842409D01*
G01X16193743Y-842409D01*
G01X16205173Y-847997D01*
G01X16211015Y-865269D01*
G01X16211015Y-922419D01*
G01X16211015Y-865269D02*
G01X16228033Y-847997D01*
G01X16239463Y-842409D01*
G01X16256735Y-842409D01*
G01X16268165Y-847997D01*
G01X16273753Y-865269D01*
G01X16273753Y-922419D01*
G01X16321505Y-779417D02*
G01X16332935Y-790847D01*
G01X16344365Y-808119D01*
G01X16355795Y-830979D01*
G01X16361637Y-859427D01*
G01X16361637Y-882287D01*
G01X16355795Y-910989D01*
G01X16344365Y-933849D01*
G01X16332935Y-950867D01*
G01X16321505Y-962297D01*
G01X17329268Y-802277D02*
G01X17329268Y-922419D01*
G01X17329268Y-802277D02*
G01X17380830Y-802277D01*
G01X17397848Y-808119D01*
G01X17403690Y-813707D01*
G01X17409278Y-825137D01*
G01X17409278Y-842409D01*
G01X17403690Y-853839D01*
G01X17397848Y-859427D01*
G01X17380830Y-865269D01*
G01X17329268Y-865269D01*
G01X17497162Y-802277D02*
G01X17497162Y-922419D01*
G01X17457030Y-802277D02*
G01X17537040Y-802277D01*
G01X17584792Y-802277D02*
G01X17584792Y-922419D01*
G01X17664802Y-802277D02*
G01X17664802Y-922419D01*
G01X17584792Y-859427D02*
G01X17664802Y-859427D01*
G01X18870686Y-819549D02*
G01X18859256Y-808119D01*
G01X18842238Y-802277D01*
G01X18819378Y-802277D01*
G01X18802106Y-808119D01*
G01X18790676Y-819549D01*
G01X18790676Y-830979D01*
G01X18796518Y-842409D01*
G01X18802106Y-847997D01*
G01X18813536Y-853839D01*
G01X18847826Y-865269D01*
G01X18859256Y-870857D01*
G01X18865098Y-876699D01*
G01X18870686Y-888129D01*
G01X18870686Y-905147D01*
G01X18859256Y-916577D01*
G01X18842238Y-922419D01*
G01X18819378Y-922419D01*
G01X18802106Y-916577D01*
G01X18790676Y-905147D01*
G01X18918438Y-802277D02*
G01X18918438Y-922419D01*
G01X18994892Y-842409D02*
G01X18983462Y-847997D01*
G01X18972032Y-859427D01*
G01X18966190Y-876699D01*
G01X18966190Y-888129D01*
G01X18972032Y-905147D01*
G01X18983462Y-916577D01*
G01X18994892Y-922419D01*
G01X19011910Y-922419D01*
G01X19023340Y-916577D01*
G01X19034770Y-905147D01*
G01X19040612Y-888129D01*
G01X19040612Y-876699D01*
G01X19034770Y-859427D01*
G01X19023340Y-847997D01*
G01X19011910Y-842409D01*
G01X18994892Y-842409D01*
G01X19105636Y-802277D02*
G01X19105636Y-899559D01*
G01X19111224Y-916577D01*
G01X19122654Y-922419D01*
G01X19134084Y-922419D01*
G01X19088364Y-842409D02*
G01X19128496Y-842409D01*
G01X20221857Y-802277D02*
G01X20221857Y-922419D01*
G01X20221857Y-802277D02*
G01X20273419Y-802277D01*
G01X20290437Y-808119D01*
G01X20296279Y-813707D01*
G01X20301867Y-825137D01*
G01X20301867Y-842409D01*
G01X20296279Y-853839D01*
G01X20290437Y-859427D01*
G01X20273419Y-865269D01*
G01X20221857Y-865269D01*
G01X20418199Y-842409D02*
G01X20418199Y-922419D01*
G01X20418199Y-859427D02*
G01X20406769Y-847997D01*
G01X20395339Y-842409D01*
G01X20378321Y-842409D01*
G01X20366891Y-847997D01*
G01X20355461Y-859427D01*
G01X20349619Y-876699D01*
G01X20349619Y-888129D01*
G01X20355461Y-905147D01*
G01X20366891Y-916577D01*
G01X20378321Y-922419D01*
G01X20395339Y-922419D01*
G01X20406769Y-916577D01*
G01X20418199Y-905147D01*
G01X20534531Y-802277D02*
G01X20534531Y-922419D01*
G01X20534531Y-859427D02*
G01X20523101Y-847997D01*
G01X20511671Y-842409D01*
G01X20494653Y-842409D01*
G01X20483223Y-847997D01*
G01X20471793Y-859427D01*
G01X20465951Y-876699D01*
G01X20465951Y-888129D01*
G01X20471793Y-905147D01*
G01X20483223Y-916577D01*
G01X20494653Y-922419D01*
G01X20511671Y-922419D01*
G01X20523101Y-916577D01*
G01X20534531Y-905147D01*
G01X21891036Y-802277D02*
G01X21891036Y-922419D01*
G01X21891036Y-802277D02*
G01X21942598Y-802277D01*
G01X21959616Y-808119D01*
G01X21965458Y-813707D01*
G01X21971046Y-825137D01*
G01X21971046Y-836567D01*
G01X21965458Y-847997D01*
G01X21959616Y-853839D01*
G01X21942598Y-859427D01*
G01X21891036Y-859427D01*
G01X21931168Y-859427D02*
G01X21971046Y-922419D01*
G01X22018798Y-876699D02*
G01X22087378Y-876699D01*
G01X22087378Y-865269D01*
G01X22081790Y-853839D01*
G01X22075948Y-847997D01*
G01X22064518Y-842409D01*
G01X22047500Y-842409D01*
G01X22036070Y-847997D01*
G01X22024640Y-859427D01*
G01X22018798Y-876699D01*
G01X22018798Y-888129D01*
G01X22024640Y-905147D01*
G01X22036070Y-916577D01*
G01X22047500Y-922419D01*
G01X22064518Y-922419D01*
G01X22075948Y-916577D01*
G01X22087378Y-905147D01*
G01X22203710Y-859427D02*
G01X22192280Y-847997D01*
G01X22180850Y-842409D01*
G01X22163832Y-842409D01*
G01X22152402Y-847997D01*
G01X22140972Y-859427D01*
G01X22135130Y-876699D01*
G01X22135130Y-888129D01*
G01X22140972Y-905147D01*
G01X22152402Y-916577D01*
G01X22163832Y-922419D01*
G01X22180850Y-922419D01*
G01X22192280Y-916577D01*
G01X22203710Y-905147D01*
G01X22268734Y-802277D02*
G01X22268734Y-899559D01*
G01X22274322Y-916577D01*
G01X22285752Y-922419D01*
G01X22297182Y-922419D01*
G01X22251462Y-842409D02*
G01X22291594Y-842409D01*
G01X22413514Y-842409D02*
G01X22413514Y-922419D01*
G01X22413514Y-859427D02*
G01X22402084Y-847997D01*
G01X22390654Y-842409D01*
G01X22373636Y-842409D01*
G01X22362206Y-847997D01*
G01X22350776Y-859427D01*
G01X22344934Y-876699D01*
G01X22344934Y-888129D01*
G01X22350776Y-905147D01*
G01X22362206Y-916577D01*
G01X22373636Y-922419D01*
G01X22390654Y-922419D01*
G01X22402084Y-916577D01*
G01X22413514Y-905147D01*
G01X22461266Y-842409D02*
G01X22461266Y-922419D01*
G01X22461266Y-865269D02*
G01X22478538Y-847997D01*
G01X22489968Y-842409D01*
G01X22506986Y-842409D01*
G01X22518416Y-847997D01*
G01X22524258Y-865269D01*
G01X22524258Y-922419D01*
G01X22640590Y-842409D02*
G01X22640590Y-933849D01*
G01X22635002Y-950867D01*
G01X22629160Y-956709D01*
G01X22617730Y-962297D01*
G01X22600712Y-962297D01*
G01X22589282Y-956709D01*
G01X22640590Y-859427D02*
G01X22629160Y-847997D01*
G01X22617730Y-842409D01*
G01X22600712Y-842409D01*
G01X22589282Y-847997D01*
G01X22577852Y-859427D01*
G01X22572010Y-876699D01*
G01X22572010Y-888129D01*
G01X22577852Y-905147D01*
G01X22589282Y-916577D01*
G01X22600712Y-922419D01*
G01X22617730Y-922419D01*
G01X22629160Y-916577D01*
G01X22640590Y-905147D01*
G01X22688342Y-802277D02*
G01X22688342Y-922419D01*
G01X22736094Y-876699D02*
G01X22804674Y-876699D01*
G01X22804674Y-865269D01*
G01X22799086Y-853839D01*
G01X22793244Y-847997D01*
G01X22781814Y-842409D01*
G01X22764796Y-842409D01*
G01X22753366Y-847997D01*
G01X22741936Y-859427D01*
G01X22736094Y-876699D01*
G01X22736094Y-888129D01*
G01X22741936Y-905147D01*
G01X22753366Y-916577D01*
G01X22764796Y-922419D01*
G01X22781814Y-922419D01*
G01X22793244Y-916577D01*
G01X22804674Y-905147D01*
G01X23850537Y-802277D02*
G01X23850537Y-922419D01*
G01X23810405Y-802277D02*
G01X23890415Y-802277D01*
G01X23966869Y-842409D02*
G01X23955439Y-847997D01*
G01X23944009Y-859427D01*
G01X23938167Y-876699D01*
G01X23938167Y-888129D01*
G01X23944009Y-905147D01*
G01X23955439Y-916577D01*
G01X23966869Y-922419D01*
G01X23983887Y-922419D01*
G01X23995317Y-916577D01*
G01X24006747Y-905147D01*
G01X24012589Y-888129D01*
G01X24012589Y-876699D01*
G01X24006747Y-859427D01*
G01X23995317Y-847997D01*
G01X23983887Y-842409D01*
G01X23966869Y-842409D01*
G01X24060341Y-842409D02*
G01X24060341Y-962297D01*
G01X24060341Y-859427D02*
G01X24071771Y-847997D01*
G01X24083201Y-842409D01*
G01X24100473Y-842409D01*
G01X24111903Y-847997D01*
G01X24123333Y-859427D01*
G01X24128921Y-876699D01*
G01X24128921Y-888129D01*
G01X24123333Y-905147D01*
G01X24111903Y-916577D01*
G01X24100473Y-922419D01*
G01X24083201Y-922419D01*
G01X24071771Y-916577D01*
G01X24060341Y-905147D01*
G01X24304689Y-802277D02*
G01X24304689Y-922419D01*
G01X24304689Y-922419D02*
G01X24373269Y-922419D01*
G01X24489601Y-842409D02*
G01X24489601Y-922419D01*
G01X24489601Y-859427D02*
G01X24478171Y-847997D01*
G01X24466741Y-842409D01*
G01X24449723Y-842409D01*
G01X24438293Y-847997D01*
G01X24426863Y-859427D01*
G01X24421021Y-876699D01*
G01X24421021Y-888129D01*
G01X24426863Y-905147D01*
G01X24438293Y-916577D01*
G01X24449723Y-922419D01*
G01X24466741Y-922419D01*
G01X24478171Y-916577D01*
G01X24489601Y-905147D01*
G01X24543195Y-842409D02*
G01X24577485Y-922419D01*
G01X24611775Y-842409D02*
G01X24577485Y-922419D01*
G01X24566055Y-945279D01*
G01X24554625Y-956709D01*
G01X24543195Y-962297D01*
G01X24537353Y-962297D01*
G01X24659527Y-876699D02*
G01X24728107Y-876699D01*
G01X24728107Y-865269D01*
G01X24722519Y-853839D01*
G01X24716677Y-847997D01*
G01X24705247Y-842409D01*
G01X24688229Y-842409D01*
G01X24676799Y-847997D01*
G01X24665369Y-859427D01*
G01X24659527Y-876699D01*
G01X24659527Y-888129D01*
G01X24665369Y-905147D01*
G01X24676799Y-916577D01*
G01X24688229Y-922419D01*
G01X24705247Y-922419D01*
G01X24716677Y-916577D01*
G01X24728107Y-905147D01*
G01X24775859Y-842409D02*
G01X24775859Y-922419D01*
G01X24775859Y-876699D02*
G01X24781701Y-859427D01*
G01X24793131Y-847997D01*
G01X24804561Y-842409D01*
G01X24821579Y-842409D01*
G01X24869331Y-870857D02*
G01X24972201Y-870857D01*
G01X25019953Y-802277D02*
G01X25019953Y-922419D01*
G01X25019953Y-802277D02*
G01X25071515Y-802277D01*
G01X25088533Y-808119D01*
G01X25094375Y-813707D01*
G01X25099963Y-825137D01*
G01X25099963Y-836567D01*
G01X25094375Y-847997D01*
G01X25088533Y-853839D01*
G01X25071515Y-859427D01*
G01X25019953Y-859427D02*
G01X25071515Y-859427D01*
G01X25088533Y-865269D01*
G01X25094375Y-870857D01*
G01X25099963Y-882287D01*
G01X25099963Y-899559D01*
G01X25094375Y-910989D01*
G01X25088533Y-916577D01*
G01X25071515Y-922419D01*
G01X25019953Y-922419D01*
G01X25176417Y-842409D02*
G01X25164987Y-847997D01*
G01X25153557Y-859427D01*
G01X25147715Y-876699D01*
G01X25147715Y-888129D01*
G01X25153557Y-905147D01*
G01X25164987Y-916577D01*
G01X25176417Y-922419D01*
G01X25193435Y-922419D01*
G01X25204865Y-916577D01*
G01X25216295Y-905147D01*
G01X25222137Y-888129D01*
G01X25222137Y-876699D01*
G01X25216295Y-859427D01*
G01X25204865Y-847997D01*
G01X25193435Y-842409D01*
G01X25176417Y-842409D01*
G01X25287161Y-802277D02*
G01X25287161Y-899559D01*
G01X25292749Y-916577D01*
G01X25304179Y-922419D01*
G01X25315609Y-922419D01*
G01X25269889Y-842409D02*
G01X25310021Y-842409D01*
G01X25380633Y-802277D02*
G01X25380633Y-899559D01*
G01X25386221Y-916577D01*
G01X25397651Y-922419D01*
G01X25409081Y-922419D01*
G01X25363361Y-842409D02*
G01X25403493Y-842409D01*
G01X25485535Y-842409D02*
G01X25474105Y-847997D01*
G01X25462675Y-859427D01*
G01X25456833Y-876699D01*
G01X25456833Y-888129D01*
G01X25462675Y-905147D01*
G01X25474105Y-916577D01*
G01X25485535Y-922419D01*
G01X25502553Y-922419D01*
G01X25513983Y-916577D01*
G01X25525413Y-905147D01*
G01X25531255Y-888129D01*
G01X25531255Y-876699D01*
G01X25525413Y-859427D01*
G01X25513983Y-847997D01*
G01X25502553Y-842409D01*
G01X25485535Y-842409D01*
G01X25579007Y-842409D02*
G01X25579007Y-922419D01*
G01X25579007Y-865269D02*
G01X25596279Y-847997D01*
G01X25607709Y-842409D01*
G01X25624727Y-842409D01*
G01X25636157Y-847997D01*
G01X25641999Y-865269D01*
G01X25641999Y-922419D01*
G01X25641999Y-865269D02*
G01X25659017Y-847997D01*
G01X25670447Y-842409D01*
G01X25687719Y-842409D01*
G01X25699149Y-847997D01*
G01X25704737Y-865269D01*
G01X25704737Y-922419D01*
G01X25880505Y-802277D02*
G01X25880505Y-922419D01*
G01X25880505Y-922419D02*
G01X25949085Y-922419D01*
G01X26065417Y-842409D02*
G01X26065417Y-922419D01*
G01X26065417Y-859427D02*
G01X26053987Y-847997D01*
G01X26042557Y-842409D01*
G01X26025539Y-842409D01*
G01X26014109Y-847997D01*
G01X26002679Y-859427D01*
G01X25996837Y-876699D01*
G01X25996837Y-888129D01*
G01X26002679Y-905147D01*
G01X26014109Y-916577D01*
G01X26025539Y-922419D01*
G01X26042557Y-922419D01*
G01X26053987Y-916577D01*
G01X26065417Y-905147D01*
G01X26119011Y-842409D02*
G01X26153301Y-922419D01*
G01X26187591Y-842409D02*
G01X26153301Y-922419D01*
G01X26141871Y-945279D01*
G01X26130441Y-956709D01*
G01X26119011Y-962297D01*
G01X26113169Y-962297D01*
G01X26235343Y-876699D02*
G01X26303923Y-876699D01*
G01X26303923Y-865269D01*
G01X26298335Y-853839D01*
G01X26292493Y-847997D01*
G01X26281063Y-842409D01*
G01X26264045Y-842409D01*
G01X26252615Y-847997D01*
G01X26241185Y-859427D01*
G01X26235343Y-876699D01*
G01X26235343Y-888129D01*
G01X26241185Y-905147D01*
G01X26252615Y-916577D01*
G01X26264045Y-922419D01*
G01X26281063Y-922419D01*
G01X26292493Y-916577D01*
G01X26303923Y-905147D01*
G01X26351675Y-842409D02*
G01X26351675Y-922419D01*
G01X26351675Y-876699D02*
G01X26357517Y-859427D01*
G01X26368947Y-847997D01*
G01X26380377Y-842409D01*
G01X26397395Y-842409D01*
G01X12070416Y-1411551D02*
G01X12070416Y-1405709D01*
G01X12076004Y-1394279D01*
G01X12081846Y-1388691D01*
G01X12093276Y-1382849D01*
G01X12116136Y-1382849D01*
G01X12127566Y-1388691D01*
G01X12133154Y-1394279D01*
G01X12138996Y-1405709D01*
G01X12138996Y-1417139D01*
G01X12133154Y-1428569D01*
G01X12121724Y-1445841D01*
G01X12064574Y-1502991D01*
G01X12144584Y-1502991D01*
G01X13547317Y-1400121D02*
G01X13541729Y-1388691D01*
G01X13524457Y-1382849D01*
G01X13513027Y-1382849D01*
G01X13496009Y-1388691D01*
G01X13484579Y-1405709D01*
G01X13478737Y-1434411D01*
G01X13478737Y-1462859D01*
G01X13484579Y-1485719D01*
G01X13496009Y-1497149D01*
G01X13513027Y-1502991D01*
G01X13518869Y-1502991D01*
G01X13535887Y-1497149D01*
G01X13547317Y-1485719D01*
G01X13553159Y-1468701D01*
G01X13553159Y-1462859D01*
G01X13547317Y-1445841D01*
G01X13535887Y-1434411D01*
G01X13518869Y-1428569D01*
G01X13513027Y-1428569D01*
G01X13496009Y-1434411D01*
G01X13484579Y-1445841D01*
G01X13478737Y-1462859D01*
G01X13669491Y-1400121D02*
G01X13663903Y-1388691D01*
G01X13646631Y-1382849D01*
G01X13635201Y-1382849D01*
G01X13618183Y-1388691D01*
G01X13606753Y-1405709D01*
G01X13600911Y-1434411D01*
G01X13600911Y-1462859D01*
G01X13606753Y-1485719D01*
G01X13618183Y-1497149D01*
G01X13635201Y-1502991D01*
G01X13641043Y-1502991D01*
G01X13658061Y-1497149D01*
G01X13669491Y-1485719D01*
G01X13675333Y-1468701D01*
G01X13675333Y-1462859D01*
G01X13669491Y-1445841D01*
G01X13658061Y-1434411D01*
G01X13641043Y-1428569D01*
G01X13635201Y-1428569D01*
G01X13618183Y-1434411D01*
G01X13606753Y-1445841D01*
G01X13600911Y-1462859D01*
G01X13728927Y-1474289D02*
G01X13723085Y-1480131D01*
G01X13728927Y-1485719D01*
G01X13734515Y-1480131D01*
G01X13728927Y-1474289D01*
G01X13856689Y-1422981D02*
G01X13850847Y-1439999D01*
G01X13839417Y-1451429D01*
G01X13822399Y-1457271D01*
G01X13816557Y-1457271D01*
G01X13799539Y-1451429D01*
G01X13788109Y-1439999D01*
G01X13782267Y-1422981D01*
G01X13782267Y-1417139D01*
G01X13788109Y-1400121D01*
G01X13799539Y-1388691D01*
G01X13816557Y-1382849D01*
G01X13822399Y-1382849D01*
G01X13839417Y-1388691D01*
G01X13850847Y-1400121D01*
G01X13856689Y-1422981D01*
G01X13856689Y-1451429D01*
G01X13850847Y-1480131D01*
G01X13839417Y-1497149D01*
G01X13822399Y-1502991D01*
G01X13810969Y-1502991D01*
G01X13793697Y-1497149D01*
G01X13788109Y-1485719D01*
G01X13904441Y-1422981D02*
G01X13967433Y-1502991D01*
G01X13967433Y-1422981D02*
G01X13904441Y-1502991D01*
G01X14015185Y-1405709D02*
G01X14026615Y-1400121D01*
G01X14043887Y-1382849D01*
G01X14043887Y-1502991D01*
G01X14091639Y-1405709D02*
G01X14103069Y-1400121D01*
G01X14120341Y-1382849D01*
G01X14120341Y-1502991D01*
G01X14202383Y-1382849D02*
G01X14185365Y-1388691D01*
G01X14173935Y-1405709D01*
G01X14168093Y-1434411D01*
G01X14168093Y-1451429D01*
G01X14173935Y-1480131D01*
G01X14185365Y-1497149D01*
G01X14202383Y-1502991D01*
G01X14213813Y-1502991D01*
G01X14231085Y-1497149D01*
G01X14242515Y-1480131D01*
G01X14248103Y-1451429D01*
G01X14248103Y-1434411D01*
G01X14242515Y-1405709D01*
G01X14231085Y-1388691D01*
G01X14213813Y-1382849D01*
G01X14202383Y-1382849D01*
G01X14301697Y-1474289D02*
G01X14295855Y-1480131D01*
G01X14301697Y-1485719D01*
G01X14307285Y-1480131D01*
G01X14301697Y-1474289D01*
G01X14360879Y-1411551D02*
G01X14360879Y-1405709D01*
G01X14366467Y-1394279D01*
G01X14372309Y-1388691D01*
G01X14383739Y-1382849D01*
G01X14406599Y-1382849D01*
G01X14418029Y-1388691D01*
G01X14423617Y-1394279D01*
G01X14429459Y-1405709D01*
G01X14429459Y-1417139D01*
G01X14423617Y-1428569D01*
G01X14412187Y-1445841D01*
G01X14355037Y-1502991D01*
G01X14435047Y-1502991D01*
G01X14482799Y-1422981D02*
G01X14482799Y-1502991D01*
G01X14482799Y-1445841D02*
G01X14500071Y-1428569D01*
G01X14511501Y-1422981D01*
G01X14528519Y-1422981D01*
G01X14539949Y-1428569D01*
G01X14545791Y-1445841D01*
G01X14545791Y-1502991D01*
G01X14545791Y-1445841D02*
G01X14562809Y-1428569D01*
G01X14574239Y-1422981D01*
G01X14591511Y-1422981D01*
G01X14602941Y-1428569D01*
G01X14608529Y-1445841D01*
G01X14608529Y-1502991D01*
G01X14656281Y-1382849D02*
G01X14662123Y-1388691D01*
G01X14667711Y-1382849D01*
G01X14662123Y-1377261D01*
G01X14656281Y-1382849D01*
G01X14662123Y-1422981D02*
G01X14662123Y-1502991D01*
G01X14715463Y-1382849D02*
G01X14715463Y-1502991D01*
G01X14803347Y-1359989D02*
G01X14791917Y-1371419D01*
G01X14780487Y-1388691D01*
G01X14769057Y-1411551D01*
G01X14763215Y-1439999D01*
G01X14763215Y-1462859D01*
G01X14769057Y-1491561D01*
G01X14780487Y-1514421D01*
G01X14791917Y-1531439D01*
G01X14803347Y-1542869D01*
G01X14851099Y-1405709D02*
G01X14862529Y-1400121D01*
G01X14879801Y-1382849D01*
G01X14879801Y-1502991D01*
G01X14933395Y-1474289D02*
G01X14927553Y-1480131D01*
G01X14933395Y-1485719D01*
G01X14938983Y-1480131D01*
G01X14933395Y-1474289D01*
G01X15066745Y-1382849D02*
G01X15009595Y-1502991D01*
G01X14986735Y-1382849D02*
G01X15066745Y-1382849D01*
G01X15148787Y-1382849D02*
G01X15131769Y-1388691D01*
G01X15120339Y-1405709D01*
G01X15114497Y-1434411D01*
G01X15114497Y-1451429D01*
G01X15120339Y-1480131D01*
G01X15131769Y-1497149D01*
G01X15148787Y-1502991D01*
G01X15160217Y-1502991D01*
G01X15177489Y-1497149D01*
G01X15188919Y-1480131D01*
G01X15194507Y-1451429D01*
G01X15194507Y-1434411D01*
G01X15188919Y-1405709D01*
G01X15177489Y-1388691D01*
G01X15160217Y-1382849D01*
G01X15148787Y-1382849D01*
G01X15276549Y-1382849D02*
G01X15259531Y-1388691D01*
G01X15248101Y-1405709D01*
G01X15242259Y-1434411D01*
G01X15242259Y-1451429D01*
G01X15248101Y-1480131D01*
G01X15259531Y-1497149D01*
G01X15276549Y-1502991D01*
G01X15287979Y-1502991D01*
G01X15305251Y-1497149D01*
G01X15316681Y-1480131D01*
G01X15322269Y-1451429D01*
G01X15322269Y-1434411D01*
G01X15316681Y-1405709D01*
G01X15305251Y-1388691D01*
G01X15287979Y-1382849D01*
G01X15276549Y-1382849D01*
G01X15370021Y-1422981D02*
G01X15433013Y-1502991D01*
G01X15433013Y-1422981D02*
G01X15370021Y-1502991D01*
G01X15486607Y-1411551D02*
G01X15486607Y-1405709D01*
G01X15492195Y-1394279D01*
G01X15498037Y-1388691D01*
G01X15509467Y-1382849D01*
G01X15532327Y-1382849D01*
G01X15543757Y-1388691D01*
G01X15549345Y-1394279D01*
G01X15555187Y-1405709D01*
G01X15555187Y-1417139D01*
G01X15549345Y-1428569D01*
G01X15537915Y-1445841D01*
G01X15480765Y-1502991D01*
G01X15560775Y-1502991D01*
G01X15614369Y-1474289D02*
G01X15608527Y-1480131D01*
G01X15614369Y-1485719D01*
G01X15619957Y-1480131D01*
G01X15614369Y-1474289D01*
G01X15696411Y-1382849D02*
G01X15679139Y-1388691D01*
G01X15673551Y-1400121D01*
G01X15673551Y-1411551D01*
G01X15679139Y-1422981D01*
G01X15690569Y-1428569D01*
G01X15713429Y-1434411D01*
G01X15730701Y-1439999D01*
G01X15742131Y-1451429D01*
G01X15747719Y-1462859D01*
G01X15747719Y-1480131D01*
G01X15742131Y-1491561D01*
G01X15736289Y-1497149D01*
G01X15719271Y-1502991D01*
G01X15696411Y-1502991D01*
G01X15679139Y-1497149D01*
G01X15673551Y-1491561D01*
G01X15667709Y-1480131D01*
G01X15667709Y-1462859D01*
G01X15673551Y-1451429D01*
G01X15684981Y-1439999D01*
G01X15701999Y-1434411D01*
G01X15724859Y-1428569D01*
G01X15736289Y-1422981D01*
G01X15742131Y-1411551D01*
G01X15742131Y-1400121D01*
G01X15736289Y-1388691D01*
G01X15719271Y-1382849D01*
G01X15696411Y-1382849D01*
G01X15829761Y-1382849D02*
G01X15812743Y-1388691D01*
G01X15801313Y-1405709D01*
G01X15795471Y-1434411D01*
G01X15795471Y-1451429D01*
G01X15801313Y-1480131D01*
G01X15812743Y-1497149D01*
G01X15829761Y-1502991D01*
G01X15841191Y-1502991D01*
G01X15858463Y-1497149D01*
G01X15869893Y-1480131D01*
G01X15875481Y-1451429D01*
G01X15875481Y-1434411D01*
G01X15869893Y-1405709D01*
G01X15858463Y-1388691D01*
G01X15841191Y-1382849D01*
G01X15829761Y-1382849D01*
G01X15957523Y-1382849D02*
G01X15940505Y-1388691D01*
G01X15929075Y-1405709D01*
G01X15923233Y-1434411D01*
G01X15923233Y-1451429D01*
G01X15929075Y-1480131D01*
G01X15940505Y-1497149D01*
G01X15957523Y-1502991D01*
G01X15968953Y-1502991D01*
G01X15986225Y-1497149D01*
G01X15997655Y-1480131D01*
G01X16003243Y-1451429D01*
G01X16003243Y-1434411D01*
G01X15997655Y-1405709D01*
G01X15986225Y-1388691D01*
G01X15968953Y-1382849D01*
G01X15957523Y-1382849D01*
G01X16050995Y-1422981D02*
G01X16050995Y-1502991D01*
G01X16050995Y-1445841D02*
G01X16068267Y-1428569D01*
G01X16079697Y-1422981D01*
G01X16096715Y-1422981D01*
G01X16108145Y-1428569D01*
G01X16113987Y-1445841D01*
G01X16113987Y-1502991D01*
G01X16113987Y-1445841D02*
G01X16131005Y-1428569D01*
G01X16142435Y-1422981D01*
G01X16159707Y-1422981D01*
G01X16171137Y-1428569D01*
G01X16176725Y-1445841D01*
G01X16176725Y-1502991D01*
G01X16224477Y-1422981D02*
G01X16224477Y-1502991D01*
G01X16224477Y-1445841D02*
G01X16241749Y-1428569D01*
G01X16253179Y-1422981D01*
G01X16270197Y-1422981D01*
G01X16281627Y-1428569D01*
G01X16287469Y-1445841D01*
G01X16287469Y-1502991D01*
G01X16287469Y-1445841D02*
G01X16304487Y-1428569D01*
G01X16315917Y-1422981D01*
G01X16333189Y-1422981D01*
G01X16344619Y-1428569D01*
G01X16350207Y-1445841D01*
G01X16350207Y-1502991D01*
G01X16397959Y-1359989D02*
G01X16409389Y-1371419D01*
G01X16420819Y-1388691D01*
G01X16432249Y-1411551D01*
G01X16438091Y-1439999D01*
G01X16438091Y-1462859D01*
G01X16432249Y-1491561D01*
G01X16420819Y-1514421D01*
G01X16409389Y-1531439D01*
G01X16397959Y-1542869D01*
G01X17329268Y-1382849D02*
G01X17329268Y-1502991D01*
G01X17329268Y-1382849D02*
G01X17380830Y-1382849D01*
G01X17397848Y-1388691D01*
G01X17403690Y-1394279D01*
G01X17409278Y-1405709D01*
G01X17409278Y-1422981D01*
G01X17403690Y-1434411D01*
G01X17397848Y-1439999D01*
G01X17380830Y-1445841D01*
G01X17329268Y-1445841D01*
G01X17497162Y-1382849D02*
G01X17497162Y-1502991D01*
G01X17457030Y-1382849D02*
G01X17537040Y-1382849D01*
G01X17584792Y-1382849D02*
G01X17584792Y-1502991D01*
G01X17664802Y-1382849D02*
G01X17664802Y-1502991D01*
G01X17584792Y-1439999D02*
G01X17664802Y-1439999D01*
G01X18870686Y-1400121D02*
G01X18859256Y-1388691D01*
G01X18842238Y-1382849D01*
G01X18819378Y-1382849D01*
G01X18802106Y-1388691D01*
G01X18790676Y-1400121D01*
G01X18790676Y-1411551D01*
G01X18796518Y-1422981D01*
G01X18802106Y-1428569D01*
G01X18813536Y-1434411D01*
G01X18847826Y-1445841D01*
G01X18859256Y-1451429D01*
G01X18865098Y-1457271D01*
G01X18870686Y-1468701D01*
G01X18870686Y-1485719D01*
G01X18859256Y-1497149D01*
G01X18842238Y-1502991D01*
G01X18819378Y-1502991D01*
G01X18802106Y-1497149D01*
G01X18790676Y-1485719D01*
G01X18918438Y-1382849D02*
G01X18918438Y-1502991D01*
G01X18994892Y-1422981D02*
G01X18983462Y-1428569D01*
G01X18972032Y-1439999D01*
G01X18966190Y-1457271D01*
G01X18966190Y-1468701D01*
G01X18972032Y-1485719D01*
G01X18983462Y-1497149D01*
G01X18994892Y-1502991D01*
G01X19011910Y-1502991D01*
G01X19023340Y-1497149D01*
G01X19034770Y-1485719D01*
G01X19040612Y-1468701D01*
G01X19040612Y-1457271D01*
G01X19034770Y-1439999D01*
G01X19023340Y-1428569D01*
G01X19011910Y-1422981D01*
G01X18994892Y-1422981D01*
G01X19105636Y-1382849D02*
G01X19105636Y-1480131D01*
G01X19111224Y-1497149D01*
G01X19122654Y-1502991D01*
G01X19134084Y-1502991D01*
G01X19088364Y-1422981D02*
G01X19128496Y-1422981D01*
G01X20221857Y-1382849D02*
G01X20221857Y-1502991D01*
G01X20221857Y-1382849D02*
G01X20273419Y-1382849D01*
G01X20290437Y-1388691D01*
G01X20296279Y-1394279D01*
G01X20301867Y-1405709D01*
G01X20301867Y-1422981D01*
G01X20296279Y-1434411D01*
G01X20290437Y-1439999D01*
G01X20273419Y-1445841D01*
G01X20221857Y-1445841D01*
G01X20418199Y-1422981D02*
G01X20418199Y-1502991D01*
G01X20418199Y-1439999D02*
G01X20406769Y-1428569D01*
G01X20395339Y-1422981D01*
G01X20378321Y-1422981D01*
G01X20366891Y-1428569D01*
G01X20355461Y-1439999D01*
G01X20349619Y-1457271D01*
G01X20349619Y-1468701D01*
G01X20355461Y-1485719D01*
G01X20366891Y-1497149D01*
G01X20378321Y-1502991D01*
G01X20395339Y-1502991D01*
G01X20406769Y-1497149D01*
G01X20418199Y-1485719D01*
G01X20534531Y-1382849D02*
G01X20534531Y-1502991D01*
G01X20534531Y-1439999D02*
G01X20523101Y-1428569D01*
G01X20511671Y-1422981D01*
G01X20494653Y-1422981D01*
G01X20483223Y-1428569D01*
G01X20471793Y-1439999D01*
G01X20465951Y-1457271D01*
G01X20465951Y-1468701D01*
G01X20471793Y-1485719D01*
G01X20483223Y-1497149D01*
G01X20494653Y-1502991D01*
G01X20511671Y-1502991D01*
G01X20523101Y-1497149D01*
G01X20534531Y-1485719D01*
G01X21925326Y-1382849D02*
G01X21913896Y-1388691D01*
G01X21902466Y-1400121D01*
G01X21896878Y-1411551D01*
G01X21891036Y-1428569D01*
G01X21891036Y-1457271D01*
G01X21896878Y-1474289D01*
G01X21902466Y-1485719D01*
G01X21913896Y-1497149D01*
G01X21925326Y-1502991D01*
G01X21948186Y-1502991D01*
G01X21959616Y-1497149D01*
G01X21971046Y-1485719D01*
G01X21976888Y-1474289D01*
G01X21982476Y-1457271D01*
G01X21982476Y-1428569D01*
G01X21976888Y-1411551D01*
G01X21971046Y-1400121D01*
G01X21959616Y-1388691D01*
G01X21948186Y-1382849D01*
G01X21925326Y-1382849D01*
G01X22030228Y-1422981D02*
G01X22064518Y-1502991D01*
G01X22098808Y-1422981D02*
G01X22064518Y-1502991D01*
G01X22215140Y-1422981D02*
G01X22215140Y-1502991D01*
G01X22215140Y-1439999D02*
G01X22203710Y-1428569D01*
G01X22192280Y-1422981D01*
G01X22175262Y-1422981D01*
G01X22163832Y-1428569D01*
G01X22152402Y-1439999D01*
G01X22146560Y-1457271D01*
G01X22146560Y-1468701D01*
G01X22152402Y-1485719D01*
G01X22163832Y-1497149D01*
G01X22175262Y-1502991D01*
G01X22192280Y-1502991D01*
G01X22203710Y-1497149D01*
G01X22215140Y-1485719D01*
G01X22262892Y-1382849D02*
G01X22262892Y-1502991D01*
G01X23850537Y-1382849D02*
G01X23850537Y-1502991D01*
G01X23810405Y-1382849D02*
G01X23890415Y-1382849D01*
G01X23966869Y-1422981D02*
G01X23955439Y-1428569D01*
G01X23944009Y-1439999D01*
G01X23938167Y-1457271D01*
G01X23938167Y-1468701D01*
G01X23944009Y-1485719D01*
G01X23955439Y-1497149D01*
G01X23966869Y-1502991D01*
G01X23983887Y-1502991D01*
G01X23995317Y-1497149D01*
G01X24006747Y-1485719D01*
G01X24012589Y-1468701D01*
G01X24012589Y-1457271D01*
G01X24006747Y-1439999D01*
G01X23995317Y-1428569D01*
G01X23983887Y-1422981D01*
G01X23966869Y-1422981D01*
G01X24060341Y-1422981D02*
G01X24060341Y-1542869D01*
G01X24060341Y-1439999D02*
G01X24071771Y-1428569D01*
G01X24083201Y-1422981D01*
G01X24100473Y-1422981D01*
G01X24111903Y-1428569D01*
G01X24123333Y-1439999D01*
G01X24128921Y-1457271D01*
G01X24128921Y-1468701D01*
G01X24123333Y-1485719D01*
G01X24111903Y-1497149D01*
G01X24100473Y-1502991D01*
G01X24083201Y-1502991D01*
G01X24071771Y-1497149D01*
G01X24060341Y-1485719D01*
G01X24304689Y-1382849D02*
G01X24304689Y-1502991D01*
G01X24304689Y-1502991D02*
G01X24373269Y-1502991D01*
G01X24489601Y-1422981D02*
G01X24489601Y-1502991D01*
G01X24489601Y-1439999D02*
G01X24478171Y-1428569D01*
G01X24466741Y-1422981D01*
G01X24449723Y-1422981D01*
G01X24438293Y-1428569D01*
G01X24426863Y-1439999D01*
G01X24421021Y-1457271D01*
G01X24421021Y-1468701D01*
G01X24426863Y-1485719D01*
G01X24438293Y-1497149D01*
G01X24449723Y-1502991D01*
G01X24466741Y-1502991D01*
G01X24478171Y-1497149D01*
G01X24489601Y-1485719D01*
G01X24543195Y-1422981D02*
G01X24577485Y-1502991D01*
G01X24611775Y-1422981D02*
G01X24577485Y-1502991D01*
G01X24566055Y-1525851D01*
G01X24554625Y-1537281D01*
G01X24543195Y-1542869D01*
G01X24537353Y-1542869D01*
G01X24659527Y-1457271D02*
G01X24728107Y-1457271D01*
G01X24728107Y-1445841D01*
G01X24722519Y-1434411D01*
G01X24716677Y-1428569D01*
G01X24705247Y-1422981D01*
G01X24688229Y-1422981D01*
G01X24676799Y-1428569D01*
G01X24665369Y-1439999D01*
G01X24659527Y-1457271D01*
G01X24659527Y-1468701D01*
G01X24665369Y-1485719D01*
G01X24676799Y-1497149D01*
G01X24688229Y-1502991D01*
G01X24705247Y-1502991D01*
G01X24716677Y-1497149D01*
G01X24728107Y-1485719D01*
G01X24775859Y-1422981D02*
G01X24775859Y-1502991D01*
G01X24775859Y-1457271D02*
G01X24781701Y-1439999D01*
G01X24793131Y-1428569D01*
G01X24804561Y-1422981D01*
G01X24821579Y-1422981D01*
G01X24869331Y-1451429D02*
G01X24972201Y-1451429D01*
G01X25019953Y-1382849D02*
G01X25019953Y-1502991D01*
G01X25019953Y-1382849D02*
G01X25071515Y-1382849D01*
G01X25088533Y-1388691D01*
G01X25094375Y-1394279D01*
G01X25099963Y-1405709D01*
G01X25099963Y-1417139D01*
G01X25094375Y-1428569D01*
G01X25088533Y-1434411D01*
G01X25071515Y-1439999D01*
G01X25019953Y-1439999D02*
G01X25071515Y-1439999D01*
G01X25088533Y-1445841D01*
G01X25094375Y-1451429D01*
G01X25099963Y-1462859D01*
G01X25099963Y-1480131D01*
G01X25094375Y-1491561D01*
G01X25088533Y-1497149D01*
G01X25071515Y-1502991D01*
G01X25019953Y-1502991D01*
G01X25176417Y-1422981D02*
G01X25164987Y-1428569D01*
G01X25153557Y-1439999D01*
G01X25147715Y-1457271D01*
G01X25147715Y-1468701D01*
G01X25153557Y-1485719D01*
G01X25164987Y-1497149D01*
G01X25176417Y-1502991D01*
G01X25193435Y-1502991D01*
G01X25204865Y-1497149D01*
G01X25216295Y-1485719D01*
G01X25222137Y-1468701D01*
G01X25222137Y-1457271D01*
G01X25216295Y-1439999D01*
G01X25204865Y-1428569D01*
G01X25193435Y-1422981D01*
G01X25176417Y-1422981D01*
G01X25287161Y-1382849D02*
G01X25287161Y-1480131D01*
G01X25292749Y-1497149D01*
G01X25304179Y-1502991D01*
G01X25315609Y-1502991D01*
G01X25269889Y-1422981D02*
G01X25310021Y-1422981D01*
G01X25380633Y-1382849D02*
G01X25380633Y-1480131D01*
G01X25386221Y-1497149D01*
G01X25397651Y-1502991D01*
G01X25409081Y-1502991D01*
G01X25363361Y-1422981D02*
G01X25403493Y-1422981D01*
G01X25485535Y-1422981D02*
G01X25474105Y-1428569D01*
G01X25462675Y-1439999D01*
G01X25456833Y-1457271D01*
G01X25456833Y-1468701D01*
G01X25462675Y-1485719D01*
G01X25474105Y-1497149D01*
G01X25485535Y-1502991D01*
G01X25502553Y-1502991D01*
G01X25513983Y-1497149D01*
G01X25525413Y-1485719D01*
G01X25531255Y-1468701D01*
G01X25531255Y-1457271D01*
G01X25525413Y-1439999D01*
G01X25513983Y-1428569D01*
G01X25502553Y-1422981D01*
G01X25485535Y-1422981D01*
G01X25579007Y-1422981D02*
G01X25579007Y-1502991D01*
G01X25579007Y-1445841D02*
G01X25596279Y-1428569D01*
G01X25607709Y-1422981D01*
G01X25624727Y-1422981D01*
G01X25636157Y-1428569D01*
G01X25641999Y-1445841D01*
G01X25641999Y-1502991D01*
G01X25641999Y-1445841D02*
G01X25659017Y-1428569D01*
G01X25670447Y-1422981D01*
G01X25687719Y-1422981D01*
G01X25699149Y-1428569D01*
G01X25704737Y-1445841D01*
G01X25704737Y-1502991D01*
G01X25880505Y-1382849D02*
G01X25880505Y-1502991D01*
G01X25880505Y-1502991D02*
G01X25949085Y-1502991D01*
G01X26065417Y-1422981D02*
G01X26065417Y-1502991D01*
G01X26065417Y-1439999D02*
G01X26053987Y-1428569D01*
G01X26042557Y-1422981D01*
G01X26025539Y-1422981D01*
G01X26014109Y-1428569D01*
G01X26002679Y-1439999D01*
G01X25996837Y-1457271D01*
G01X25996837Y-1468701D01*
G01X26002679Y-1485719D01*
G01X26014109Y-1497149D01*
G01X26025539Y-1502991D01*
G01X26042557Y-1502991D01*
G01X26053987Y-1497149D01*
G01X26065417Y-1485719D01*
G01X26119011Y-1422981D02*
G01X26153301Y-1502991D01*
G01X26187591Y-1422981D02*
G01X26153301Y-1502991D01*
G01X26141871Y-1525851D01*
G01X26130441Y-1537281D01*
G01X26119011Y-1542869D01*
G01X26113169Y-1542869D01*
G01X26235343Y-1457271D02*
G01X26303923Y-1457271D01*
G01X26303923Y-1445841D01*
G01X26298335Y-1434411D01*
G01X26292493Y-1428569D01*
G01X26281063Y-1422981D01*
G01X26264045Y-1422981D01*
G01X26252615Y-1428569D01*
G01X26241185Y-1439999D01*
G01X26235343Y-1457271D01*
G01X26235343Y-1468701D01*
G01X26241185Y-1485719D01*
G01X26252615Y-1497149D01*
G01X26264045Y-1502991D01*
G01X26281063Y-1502991D01*
G01X26292493Y-1497149D01*
G01X26303923Y-1485719D01*
G01X26351675Y-1422981D02*
G01X26351675Y-1502991D01*
G01X26351675Y-1457271D02*
G01X26357517Y-1439999D01*
G01X26368947Y-1428569D01*
G01X26380377Y-1422981D01*
G01X26397395Y-1422981D01*
G01X12070416Y-1992122D02*
G01X12070416Y-1986280D01*
G01X12076004Y-1974850D01*
G01X12081846Y-1969262D01*
G01X12093276Y-1963420D01*
G01X12116136Y-1963420D01*
G01X12127566Y-1969262D01*
G01X12133154Y-1974850D01*
G01X12138996Y-1986280D01*
G01X12138996Y-1997710D01*
G01X12133154Y-2009140D01*
G01X12121724Y-2026412D01*
G01X12064574Y-2083562D01*
G01X12144584Y-2083562D01*
G01X13547317Y-1963420D02*
G01X13490167Y-1963420D01*
G01X13484579Y-2014982D01*
G01X13490167Y-2009140D01*
G01X13507439Y-2003552D01*
G01X13524457Y-2003552D01*
G01X13541729Y-2009140D01*
G01X13553159Y-2020570D01*
G01X13558747Y-2037842D01*
G01X13558747Y-2049272D01*
G01X13553159Y-2066290D01*
G01X13541729Y-2077720D01*
G01X13524457Y-2083562D01*
G01X13507439Y-2083562D01*
G01X13490167Y-2077720D01*
G01X13484579Y-2072132D01*
G01X13478737Y-2060702D01*
G01X13675079Y-1963420D02*
G01X13617929Y-1963420D01*
G01X13612341Y-2014982D01*
G01X13617929Y-2009140D01*
G01X13635201Y-2003552D01*
G01X13652219Y-2003552D01*
G01X13669491Y-2009140D01*
G01X13680921Y-2020570D01*
G01X13686509Y-2037842D01*
G01X13686509Y-2049272D01*
G01X13680921Y-2066290D01*
G01X13669491Y-2077720D01*
G01X13652219Y-2083562D01*
G01X13635201Y-2083562D01*
G01X13617929Y-2077720D01*
G01X13612341Y-2072132D01*
G01X13606499Y-2060702D01*
G01X13740103Y-2054860D02*
G01X13734261Y-2060702D01*
G01X13740103Y-2066290D01*
G01X13745691Y-2060702D01*
G01X13740103Y-2054860D01*
G01X13793443Y-1986280D02*
G01X13804873Y-1980692D01*
G01X13822145Y-1963420D01*
G01X13822145Y-2083562D01*
G01X13869897Y-2003552D02*
G01X13932889Y-2083562D01*
G01X13932889Y-2003552D02*
G01X13869897Y-2083562D01*
G01X14049221Y-1963420D02*
G01X13992071Y-1963420D01*
G01X13986483Y-2014982D01*
G01X13992071Y-2009140D01*
G01X14009343Y-2003552D01*
G01X14026361Y-2003552D01*
G01X14043633Y-2009140D01*
G01X14055063Y-2020570D01*
G01X14060651Y-2037842D01*
G01X14060651Y-2049272D01*
G01X14055063Y-2066290D01*
G01X14043633Y-2077720D01*
G01X14026361Y-2083562D01*
G01X14009343Y-2083562D01*
G01X13992071Y-2077720D01*
G01X13986483Y-2072132D01*
G01X13980641Y-2060702D01*
G01X14176983Y-1963420D02*
G01X14119833Y-1963420D01*
G01X14114245Y-2014982D01*
G01X14119833Y-2009140D01*
G01X14137105Y-2003552D01*
G01X14154123Y-2003552D01*
G01X14171395Y-2009140D01*
G01X14182825Y-2020570D01*
G01X14188413Y-2037842D01*
G01X14188413Y-2049272D01*
G01X14182825Y-2066290D01*
G01X14171395Y-2077720D01*
G01X14154123Y-2083562D01*
G01X14137105Y-2083562D01*
G01X14119833Y-2077720D01*
G01X14114245Y-2072132D01*
G01X14108403Y-2060702D01*
G01X14242007Y-2054860D02*
G01X14236165Y-2060702D01*
G01X14242007Y-2066290D01*
G01X14247595Y-2060702D01*
G01X14242007Y-2054860D01*
G01X14295347Y-1986280D02*
G01X14306777Y-1980692D01*
G01X14324049Y-1963420D01*
G01X14324049Y-2083562D01*
G01X14371801Y-2003552D02*
G01X14371801Y-2083562D01*
G01X14371801Y-2026412D02*
G01X14389073Y-2009140D01*
G01X14400503Y-2003552D01*
G01X14417521Y-2003552D01*
G01X14428951Y-2009140D01*
G01X14434793Y-2026412D01*
G01X14434793Y-2083562D01*
G01X14434793Y-2026412D02*
G01X14451811Y-2009140D01*
G01X14463241Y-2003552D01*
G01X14480513Y-2003552D01*
G01X14491943Y-2009140D01*
G01X14497531Y-2026412D01*
G01X14497531Y-2083562D01*
G01X14545283Y-1963420D02*
G01X14551125Y-1969262D01*
G01X14556713Y-1963420D01*
G01X14551125Y-1957832D01*
G01X14545283Y-1963420D01*
G01X14551125Y-2003552D02*
G01X14551125Y-2083562D01*
G01X14604465Y-1963420D02*
G01X14604465Y-2083562D01*
G01X14692349Y-1940560D02*
G01X14680919Y-1951990D01*
G01X14669489Y-1969262D01*
G01X14658059Y-1992122D01*
G01X14652217Y-2020570D01*
G01X14652217Y-2043430D01*
G01X14658059Y-2072132D01*
G01X14669489Y-2094992D01*
G01X14680919Y-2112010D01*
G01X14692349Y-2123440D01*
G01X14740101Y-1986280D02*
G01X14751531Y-1980692D01*
G01X14768803Y-1963420D01*
G01X14768803Y-2083562D01*
G01X14822397Y-2054860D02*
G01X14816555Y-2060702D01*
G01X14822397Y-2066290D01*
G01X14827985Y-2060702D01*
G01X14822397Y-2054860D01*
G01X14932887Y-1963420D02*
G01X14875737Y-2043430D01*
G01X14961589Y-2043430D01*
G01X14932887Y-1963420D02*
G01X14932887Y-2083562D01*
G01X15043631Y-1963420D02*
G01X15026613Y-1969262D01*
G01X15015183Y-1986280D01*
G01X15009341Y-2014982D01*
G01X15009341Y-2032000D01*
G01X15015183Y-2060702D01*
G01X15026613Y-2077720D01*
G01X15043631Y-2083562D01*
G01X15055061Y-2083562D01*
G01X15072333Y-2077720D01*
G01X15083763Y-2060702D01*
G01X15089351Y-2032000D01*
G01X15089351Y-2014982D01*
G01X15083763Y-1986280D01*
G01X15072333Y-1969262D01*
G01X15055061Y-1963420D01*
G01X15043631Y-1963420D01*
G01X15171393Y-1963420D02*
G01X15154375Y-1969262D01*
G01X15142945Y-1986280D01*
G01X15137103Y-2014982D01*
G01X15137103Y-2032000D01*
G01X15142945Y-2060702D01*
G01X15154375Y-2077720D01*
G01X15171393Y-2083562D01*
G01X15182823Y-2083562D01*
G01X15200095Y-2077720D01*
G01X15211525Y-2060702D01*
G01X15217113Y-2032000D01*
G01X15217113Y-2014982D01*
G01X15211525Y-1986280D01*
G01X15200095Y-1969262D01*
G01X15182823Y-1963420D01*
G01X15171393Y-1963420D01*
G01X15264865Y-2003552D02*
G01X15327857Y-2083562D01*
G01X15327857Y-2003552D02*
G01X15264865Y-2083562D01*
G01X15375609Y-1986280D02*
G01X15387039Y-1980692D01*
G01X15404311Y-1963420D01*
G01X15404311Y-2083562D01*
G01X15457905Y-2054860D02*
G01X15452063Y-2060702D01*
G01X15457905Y-2066290D01*
G01X15463493Y-2060702D01*
G01X15457905Y-2054860D01*
G01X15568395Y-1963420D02*
G01X15511245Y-2043430D01*
G01X15597097Y-2043430D01*
G01X15568395Y-1963420D02*
G01X15568395Y-2083562D01*
G01X15679139Y-1963420D02*
G01X15662121Y-1969262D01*
G01X15650691Y-1986280D01*
G01X15644849Y-2014982D01*
G01X15644849Y-2032000D01*
G01X15650691Y-2060702D01*
G01X15662121Y-2077720D01*
G01X15679139Y-2083562D01*
G01X15690569Y-2083562D01*
G01X15707841Y-2077720D01*
G01X15719271Y-2060702D01*
G01X15724859Y-2032000D01*
G01X15724859Y-2014982D01*
G01X15719271Y-1986280D01*
G01X15707841Y-1969262D01*
G01X15690569Y-1963420D01*
G01X15679139Y-1963420D01*
G01X15806901Y-1963420D02*
G01X15789883Y-1969262D01*
G01X15778453Y-1986280D01*
G01X15772611Y-2014982D01*
G01X15772611Y-2032000D01*
G01X15778453Y-2060702D01*
G01X15789883Y-2077720D01*
G01X15806901Y-2083562D01*
G01X15818331Y-2083562D01*
G01X15835603Y-2077720D01*
G01X15847033Y-2060702D01*
G01X15852621Y-2032000D01*
G01X15852621Y-2014982D01*
G01X15847033Y-1986280D01*
G01X15835603Y-1969262D01*
G01X15818331Y-1963420D01*
G01X15806901Y-1963420D01*
G01X15900373Y-2003552D02*
G01X15900373Y-2083562D01*
G01X15900373Y-2026412D02*
G01X15917645Y-2009140D01*
G01X15929075Y-2003552D01*
G01X15946093Y-2003552D01*
G01X15957523Y-2009140D01*
G01X15963365Y-2026412D01*
G01X15963365Y-2083562D01*
G01X15963365Y-2026412D02*
G01X15980383Y-2009140D01*
G01X15991813Y-2003552D01*
G01X16009085Y-2003552D01*
G01X16020515Y-2009140D01*
G01X16026103Y-2026412D01*
G01X16026103Y-2083562D01*
G01X16073855Y-2003552D02*
G01X16073855Y-2083562D01*
G01X16073855Y-2026412D02*
G01X16091127Y-2009140D01*
G01X16102557Y-2003552D01*
G01X16119575Y-2003552D01*
G01X16131005Y-2009140D01*
G01X16136847Y-2026412D01*
G01X16136847Y-2083562D01*
G01X16136847Y-2026412D02*
G01X16153865Y-2009140D01*
G01X16165295Y-2003552D01*
G01X16182567Y-2003552D01*
G01X16193997Y-2009140D01*
G01X16199585Y-2026412D01*
G01X16199585Y-2083562D01*
G01X16247337Y-1940560D02*
G01X16258767Y-1951990D01*
G01X16270197Y-1969262D01*
G01X16281627Y-1992122D01*
G01X16287469Y-2020570D01*
G01X16287469Y-2043430D01*
G01X16281627Y-2072132D01*
G01X16270197Y-2094992D01*
G01X16258767Y-2112010D01*
G01X16247337Y-2123440D01*
G01X17329268Y-1963420D02*
G01X17329268Y-2083562D01*
G01X17329268Y-1963420D02*
G01X17380830Y-1963420D01*
G01X17397848Y-1969262D01*
G01X17403690Y-1974850D01*
G01X17409278Y-1986280D01*
G01X17409278Y-2003552D01*
G01X17403690Y-2014982D01*
G01X17397848Y-2020570D01*
G01X17380830Y-2026412D01*
G01X17329268Y-2026412D01*
G01X17497162Y-1963420D02*
G01X17497162Y-2083562D01*
G01X17457030Y-1963420D02*
G01X17537040Y-1963420D01*
G01X17584792Y-1963420D02*
G01X17584792Y-2083562D01*
G01X17664802Y-1963420D02*
G01X17664802Y-2083562D01*
G01X17584792Y-2020570D02*
G01X17664802Y-2020570D01*
G01X18790676Y-1963420D02*
G01X18790676Y-2083562D01*
G01X18790676Y-1963420D02*
G01X18842238Y-1963420D01*
G01X18859256Y-1969262D01*
G01X18865098Y-1974850D01*
G01X18870686Y-1986280D01*
G01X18870686Y-1997710D01*
G01X18865098Y-2009140D01*
G01X18859256Y-2014982D01*
G01X18842238Y-2020570D01*
G01X18790676Y-2020570D01*
G01X18830808Y-2020570D02*
G01X18870686Y-2083562D01*
G01X18947140Y-2003552D02*
G01X18935710Y-2009140D01*
G01X18924280Y-2020570D01*
G01X18918438Y-2037842D01*
G01X18918438Y-2049272D01*
G01X18924280Y-2066290D01*
G01X18935710Y-2077720D01*
G01X18947140Y-2083562D01*
G01X18964158Y-2083562D01*
G01X18975588Y-2077720D01*
G01X18987018Y-2066290D01*
G01X18992860Y-2049272D01*
G01X18992860Y-2037842D01*
G01X18987018Y-2020570D01*
G01X18975588Y-2009140D01*
G01X18964158Y-2003552D01*
G01X18947140Y-2003552D01*
G01X19040612Y-2003552D02*
G01X19040612Y-2060702D01*
G01X19046454Y-2077720D01*
G01X19057884Y-2083562D01*
G01X19074902Y-2083562D01*
G01X19086332Y-2077720D01*
G01X19103604Y-2060702D01*
G01X19103604Y-2003552D02*
G01X19103604Y-2083562D01*
G01X19151356Y-2003552D02*
G01X19151356Y-2083562D01*
G01X19151356Y-2026412D02*
G01X19168628Y-2009140D01*
G01X19180058Y-2003552D01*
G01X19197076Y-2003552D01*
G01X19208506Y-2009140D01*
G01X19214348Y-2026412D01*
G01X19214348Y-2083562D01*
G01X19330680Y-1963420D02*
G01X19330680Y-2083562D01*
G01X19330680Y-2020570D02*
G01X19319250Y-2009140D01*
G01X19307820Y-2003552D01*
G01X19290802Y-2003552D01*
G01X19279372Y-2009140D01*
G01X19267942Y-2020570D01*
G01X19262100Y-2037842D01*
G01X19262100Y-2049272D01*
G01X19267942Y-2066290D01*
G01X19279372Y-2077720D01*
G01X19290802Y-2083562D01*
G01X19307820Y-2083562D01*
G01X19319250Y-2077720D01*
G01X19330680Y-2066290D01*
G01X20221857Y-1963420D02*
G01X20221857Y-2083562D01*
G01X20221857Y-1963420D02*
G01X20273419Y-1963420D01*
G01X20290437Y-1969262D01*
G01X20296279Y-1974850D01*
G01X20301867Y-1986280D01*
G01X20301867Y-2003552D01*
G01X20296279Y-2014982D01*
G01X20290437Y-2020570D01*
G01X20273419Y-2026412D01*
G01X20221857Y-2026412D01*
G01X20418199Y-2003552D02*
G01X20418199Y-2083562D01*
G01X20418199Y-2020570D02*
G01X20406769Y-2009140D01*
G01X20395339Y-2003552D01*
G01X20378321Y-2003552D01*
G01X20366891Y-2009140D01*
G01X20355461Y-2020570D01*
G01X20349619Y-2037842D01*
G01X20349619Y-2049272D01*
G01X20355461Y-2066290D01*
G01X20366891Y-2077720D01*
G01X20378321Y-2083562D01*
G01X20395339Y-2083562D01*
G01X20406769Y-2077720D01*
G01X20418199Y-2066290D01*
G01X20534531Y-1963420D02*
G01X20534531Y-2083562D01*
G01X20534531Y-2020570D02*
G01X20523101Y-2009140D01*
G01X20511671Y-2003552D01*
G01X20494653Y-2003552D01*
G01X20483223Y-2009140D01*
G01X20471793Y-2020570D01*
G01X20465951Y-2037842D01*
G01X20465951Y-2049272D01*
G01X20471793Y-2066290D01*
G01X20483223Y-2077720D01*
G01X20494653Y-2083562D01*
G01X20511671Y-2083562D01*
G01X20523101Y-2077720D01*
G01X20534531Y-2066290D01*
G01X21891036Y-1963420D02*
G01X21891036Y-2083562D01*
G01X21891036Y-1963420D02*
G01X21942598Y-1963420D01*
G01X21959616Y-1969262D01*
G01X21965458Y-1974850D01*
G01X21971046Y-1986280D01*
G01X21971046Y-1997710D01*
G01X21965458Y-2009140D01*
G01X21959616Y-2014982D01*
G01X21942598Y-2020570D01*
G01X21891036Y-2020570D01*
G01X21931168Y-2020570D02*
G01X21971046Y-2083562D01*
G01X22047500Y-2003552D02*
G01X22036070Y-2009140D01*
G01X22024640Y-2020570D01*
G01X22018798Y-2037842D01*
G01X22018798Y-2049272D01*
G01X22024640Y-2066290D01*
G01X22036070Y-2077720D01*
G01X22047500Y-2083562D01*
G01X22064518Y-2083562D01*
G01X22075948Y-2077720D01*
G01X22087378Y-2066290D01*
G01X22093220Y-2049272D01*
G01X22093220Y-2037842D01*
G01X22087378Y-2020570D01*
G01X22075948Y-2009140D01*
G01X22064518Y-2003552D01*
G01X22047500Y-2003552D01*
G01X22140972Y-2003552D02*
G01X22140972Y-2060702D01*
G01X22146814Y-2077720D01*
G01X22158244Y-2083562D01*
G01X22175262Y-2083562D01*
G01X22186692Y-2077720D01*
G01X22203964Y-2060702D01*
G01X22203964Y-2003552D02*
G01X22203964Y-2083562D01*
G01X22251716Y-2003552D02*
G01X22251716Y-2083562D01*
G01X22251716Y-2026412D02*
G01X22268988Y-2009140D01*
G01X22280418Y-2003552D01*
G01X22297436Y-2003552D01*
G01X22308866Y-2009140D01*
G01X22314708Y-2026412D01*
G01X22314708Y-2083562D01*
G01X22431040Y-1963420D02*
G01X22431040Y-2083562D01*
G01X22431040Y-2020570D02*
G01X22419610Y-2009140D01*
G01X22408180Y-2003552D01*
G01X22391162Y-2003552D01*
G01X22379732Y-2009140D01*
G01X22368302Y-2020570D01*
G01X22362460Y-2037842D01*
G01X22362460Y-2049272D01*
G01X22368302Y-2066290D01*
G01X22379732Y-2077720D01*
G01X22391162Y-2083562D01*
G01X22408180Y-2083562D01*
G01X22419610Y-2077720D01*
G01X22431040Y-2066290D01*
G01X23850537Y-1963420D02*
G01X23850537Y-2083562D01*
G01X23810405Y-1963420D02*
G01X23890415Y-1963420D01*
G01X23966869Y-2003552D02*
G01X23955439Y-2009140D01*
G01X23944009Y-2020570D01*
G01X23938167Y-2037842D01*
G01X23938167Y-2049272D01*
G01X23944009Y-2066290D01*
G01X23955439Y-2077720D01*
G01X23966869Y-2083562D01*
G01X23983887Y-2083562D01*
G01X23995317Y-2077720D01*
G01X24006747Y-2066290D01*
G01X24012589Y-2049272D01*
G01X24012589Y-2037842D01*
G01X24006747Y-2020570D01*
G01X23995317Y-2009140D01*
G01X23983887Y-2003552D01*
G01X23966869Y-2003552D01*
G01X24060341Y-2003552D02*
G01X24060341Y-2123440D01*
G01X24060341Y-2020570D02*
G01X24071771Y-2009140D01*
G01X24083201Y-2003552D01*
G01X24100473Y-2003552D01*
G01X24111903Y-2009140D01*
G01X24123333Y-2020570D01*
G01X24128921Y-2037842D01*
G01X24128921Y-2049272D01*
G01X24123333Y-2066290D01*
G01X24111903Y-2077720D01*
G01X24100473Y-2083562D01*
G01X24083201Y-2083562D01*
G01X24071771Y-2077720D01*
G01X24060341Y-2066290D01*
G01X24304689Y-1963420D02*
G01X24304689Y-2083562D01*
G01X24304689Y-2083562D02*
G01X24373269Y-2083562D01*
G01X24489601Y-2003552D02*
G01X24489601Y-2083562D01*
G01X24489601Y-2020570D02*
G01X24478171Y-2009140D01*
G01X24466741Y-2003552D01*
G01X24449723Y-2003552D01*
G01X24438293Y-2009140D01*
G01X24426863Y-2020570D01*
G01X24421021Y-2037842D01*
G01X24421021Y-2049272D01*
G01X24426863Y-2066290D01*
G01X24438293Y-2077720D01*
G01X24449723Y-2083562D01*
G01X24466741Y-2083562D01*
G01X24478171Y-2077720D01*
G01X24489601Y-2066290D01*
G01X24543195Y-2003552D02*
G01X24577485Y-2083562D01*
G01X24611775Y-2003552D02*
G01X24577485Y-2083562D01*
G01X24566055Y-2106422D01*
G01X24554625Y-2117852D01*
G01X24543195Y-2123440D01*
G01X24537353Y-2123440D01*
G01X24659527Y-2037842D02*
G01X24728107Y-2037842D01*
G01X24728107Y-2026412D01*
G01X24722519Y-2014982D01*
G01X24716677Y-2009140D01*
G01X24705247Y-2003552D01*
G01X24688229Y-2003552D01*
G01X24676799Y-2009140D01*
G01X24665369Y-2020570D01*
G01X24659527Y-2037842D01*
G01X24659527Y-2049272D01*
G01X24665369Y-2066290D01*
G01X24676799Y-2077720D01*
G01X24688229Y-2083562D01*
G01X24705247Y-2083562D01*
G01X24716677Y-2077720D01*
G01X24728107Y-2066290D01*
G01X24775859Y-2003552D02*
G01X24775859Y-2083562D01*
G01X24775859Y-2037842D02*
G01X24781701Y-2020570D01*
G01X24793131Y-2009140D01*
G01X24804561Y-2003552D01*
G01X24821579Y-2003552D01*
G01X24869331Y-2032000D02*
G01X24972201Y-2032000D01*
G01X25019953Y-1963420D02*
G01X25019953Y-2083562D01*
G01X25019953Y-1963420D02*
G01X25071515Y-1963420D01*
G01X25088533Y-1969262D01*
G01X25094375Y-1974850D01*
G01X25099963Y-1986280D01*
G01X25099963Y-1997710D01*
G01X25094375Y-2009140D01*
G01X25088533Y-2014982D01*
G01X25071515Y-2020570D01*
G01X25019953Y-2020570D02*
G01X25071515Y-2020570D01*
G01X25088533Y-2026412D01*
G01X25094375Y-2032000D01*
G01X25099963Y-2043430D01*
G01X25099963Y-2060702D01*
G01X25094375Y-2072132D01*
G01X25088533Y-2077720D01*
G01X25071515Y-2083562D01*
G01X25019953Y-2083562D01*
G01X25176417Y-2003552D02*
G01X25164987Y-2009140D01*
G01X25153557Y-2020570D01*
G01X25147715Y-2037842D01*
G01X25147715Y-2049272D01*
G01X25153557Y-2066290D01*
G01X25164987Y-2077720D01*
G01X25176417Y-2083562D01*
G01X25193435Y-2083562D01*
G01X25204865Y-2077720D01*
G01X25216295Y-2066290D01*
G01X25222137Y-2049272D01*
G01X25222137Y-2037842D01*
G01X25216295Y-2020570D01*
G01X25204865Y-2009140D01*
G01X25193435Y-2003552D01*
G01X25176417Y-2003552D01*
G01X25287161Y-1963420D02*
G01X25287161Y-2060702D01*
G01X25292749Y-2077720D01*
G01X25304179Y-2083562D01*
G01X25315609Y-2083562D01*
G01X25269889Y-2003552D02*
G01X25310021Y-2003552D01*
G01X25380633Y-1963420D02*
G01X25380633Y-2060702D01*
G01X25386221Y-2077720D01*
G01X25397651Y-2083562D01*
G01X25409081Y-2083562D01*
G01X25363361Y-2003552D02*
G01X25403493Y-2003552D01*
G01X25485535Y-2003552D02*
G01X25474105Y-2009140D01*
G01X25462675Y-2020570D01*
G01X25456833Y-2037842D01*
G01X25456833Y-2049272D01*
G01X25462675Y-2066290D01*
G01X25474105Y-2077720D01*
G01X25485535Y-2083562D01*
G01X25502553Y-2083562D01*
G01X25513983Y-2077720D01*
G01X25525413Y-2066290D01*
G01X25531255Y-2049272D01*
G01X25531255Y-2037842D01*
G01X25525413Y-2020570D01*
G01X25513983Y-2009140D01*
G01X25502553Y-2003552D01*
G01X25485535Y-2003552D01*
G01X25579007Y-2003552D02*
G01X25579007Y-2083562D01*
G01X25579007Y-2026412D02*
G01X25596279Y-2009140D01*
G01X25607709Y-2003552D01*
G01X25624727Y-2003552D01*
G01X25636157Y-2009140D01*
G01X25641999Y-2026412D01*
G01X25641999Y-2083562D01*
G01X25641999Y-2026412D02*
G01X25659017Y-2009140D01*
G01X25670447Y-2003552D01*
G01X25687719Y-2003552D01*
G01X25699149Y-2009140D01*
G01X25704737Y-2026412D01*
G01X25704737Y-2083562D01*
G01X25880505Y-1963420D02*
G01X25880505Y-2083562D01*
G01X25880505Y-2083562D02*
G01X25949085Y-2083562D01*
G01X26065417Y-2003552D02*
G01X26065417Y-2083562D01*
G01X26065417Y-2020570D02*
G01X26053987Y-2009140D01*
G01X26042557Y-2003552D01*
G01X26025539Y-2003552D01*
G01X26014109Y-2009140D01*
G01X26002679Y-2020570D01*
G01X25996837Y-2037842D01*
G01X25996837Y-2049272D01*
G01X26002679Y-2066290D01*
G01X26014109Y-2077720D01*
G01X26025539Y-2083562D01*
G01X26042557Y-2083562D01*
G01X26053987Y-2077720D01*
G01X26065417Y-2066290D01*
G01X26119011Y-2003552D02*
G01X26153301Y-2083562D01*
G01X26187591Y-2003552D02*
G01X26153301Y-2083562D01*
G01X26141871Y-2106422D01*
G01X26130441Y-2117852D01*
G01X26119011Y-2123440D01*
G01X26113169Y-2123440D01*
G01X26235343Y-2037842D02*
G01X26303923Y-2037842D01*
G01X26303923Y-2026412D01*
G01X26298335Y-2014982D01*
G01X26292493Y-2009140D01*
G01X26281063Y-2003552D01*
G01X26264045Y-2003552D01*
G01X26252615Y-2009140D01*
G01X26241185Y-2020570D01*
G01X26235343Y-2037842D01*
G01X26235343Y-2049272D01*
G01X26241185Y-2066290D01*
G01X26252615Y-2077720D01*
G01X26264045Y-2083562D01*
G01X26281063Y-2083562D01*
G01X26292493Y-2077720D01*
G01X26303923Y-2066290D01*
G01X26351675Y-2003552D02*
G01X26351675Y-2083562D01*
G01X26351675Y-2037842D02*
G01X26357517Y-2020570D01*
G01X26368947Y-2009140D01*
G01X26380377Y-2003552D01*
G01X26397395Y-2003552D01*
G01X12070416Y-2572693D02*
G01X12070416Y-2566851D01*
G01X12076004Y-2555421D01*
G01X12081846Y-2549833D01*
G01X12093276Y-2543991D01*
G01X12116136Y-2543991D01*
G01X12127566Y-2549833D01*
G01X12133154Y-2555421D01*
G01X12138996Y-2566851D01*
G01X12138996Y-2578281D01*
G01X12133154Y-2589711D01*
G01X12121724Y-2606983D01*
G01X12064574Y-2664133D01*
G01X12144584Y-2664133D01*
G01X13547317Y-2561263D02*
G01X13541729Y-2549833D01*
G01X13524457Y-2543991D01*
G01X13513027Y-2543991D01*
G01X13496009Y-2549833D01*
G01X13484579Y-2566851D01*
G01X13478737Y-2595553D01*
G01X13478737Y-2624001D01*
G01X13484579Y-2646861D01*
G01X13496009Y-2658291D01*
G01X13513027Y-2664133D01*
G01X13518869Y-2664133D01*
G01X13535887Y-2658291D01*
G01X13547317Y-2646861D01*
G01X13553159Y-2629843D01*
G01X13553159Y-2624001D01*
G01X13547317Y-2606983D01*
G01X13535887Y-2595553D01*
G01X13518869Y-2589711D01*
G01X13513027Y-2589711D01*
G01X13496009Y-2595553D01*
G01X13484579Y-2606983D01*
G01X13478737Y-2624001D01*
G01X13669491Y-2561263D02*
G01X13663903Y-2549833D01*
G01X13646631Y-2543991D01*
G01X13635201Y-2543991D01*
G01X13618183Y-2549833D01*
G01X13606753Y-2566851D01*
G01X13600911Y-2595553D01*
G01X13600911Y-2624001D01*
G01X13606753Y-2646861D01*
G01X13618183Y-2658291D01*
G01X13635201Y-2664133D01*
G01X13641043Y-2664133D01*
G01X13658061Y-2658291D01*
G01X13669491Y-2646861D01*
G01X13675333Y-2629843D01*
G01X13675333Y-2624001D01*
G01X13669491Y-2606983D01*
G01X13658061Y-2595553D01*
G01X13641043Y-2589711D01*
G01X13635201Y-2589711D01*
G01X13618183Y-2595553D01*
G01X13606753Y-2606983D01*
G01X13600911Y-2624001D01*
G01X13728927Y-2635431D02*
G01X13723085Y-2641273D01*
G01X13728927Y-2646861D01*
G01X13734515Y-2641273D01*
G01X13728927Y-2635431D01*
G01X13856689Y-2584123D02*
G01X13850847Y-2601141D01*
G01X13839417Y-2612571D01*
G01X13822399Y-2618413D01*
G01X13816557Y-2618413D01*
G01X13799539Y-2612571D01*
G01X13788109Y-2601141D01*
G01X13782267Y-2584123D01*
G01X13782267Y-2578281D01*
G01X13788109Y-2561263D01*
G01X13799539Y-2549833D01*
G01X13816557Y-2543991D01*
G01X13822399Y-2543991D01*
G01X13839417Y-2549833D01*
G01X13850847Y-2561263D01*
G01X13856689Y-2584123D01*
G01X13856689Y-2612571D01*
G01X13850847Y-2641273D01*
G01X13839417Y-2658291D01*
G01X13822399Y-2664133D01*
G01X13810969Y-2664133D01*
G01X13793697Y-2658291D01*
G01X13788109Y-2646861D01*
G01X13904441Y-2584123D02*
G01X13967433Y-2664133D01*
G01X13967433Y-2584123D02*
G01X13904441Y-2664133D01*
G01X14083765Y-2561263D02*
G01X14078177Y-2549833D01*
G01X14060905Y-2543991D01*
G01X14049475Y-2543991D01*
G01X14032457Y-2549833D01*
G01X14021027Y-2566851D01*
G01X14015185Y-2595553D01*
G01X14015185Y-2624001D01*
G01X14021027Y-2646861D01*
G01X14032457Y-2658291D01*
G01X14049475Y-2664133D01*
G01X14055317Y-2664133D01*
G01X14072335Y-2658291D01*
G01X14083765Y-2646861D01*
G01X14089607Y-2629843D01*
G01X14089607Y-2624001D01*
G01X14083765Y-2606983D01*
G01X14072335Y-2595553D01*
G01X14055317Y-2589711D01*
G01X14049475Y-2589711D01*
G01X14032457Y-2595553D01*
G01X14021027Y-2606983D01*
G01X14015185Y-2624001D01*
G01X14205939Y-2561263D02*
G01X14200351Y-2549833D01*
G01X14183079Y-2543991D01*
G01X14171649Y-2543991D01*
G01X14154631Y-2549833D01*
G01X14143201Y-2566851D01*
G01X14137359Y-2595553D01*
G01X14137359Y-2624001D01*
G01X14143201Y-2646861D01*
G01X14154631Y-2658291D01*
G01X14171649Y-2664133D01*
G01X14177491Y-2664133D01*
G01X14194509Y-2658291D01*
G01X14205939Y-2646861D01*
G01X14211781Y-2629843D01*
G01X14211781Y-2624001D01*
G01X14205939Y-2606983D01*
G01X14194509Y-2595553D01*
G01X14177491Y-2589711D01*
G01X14171649Y-2589711D01*
G01X14154631Y-2595553D01*
G01X14143201Y-2606983D01*
G01X14137359Y-2624001D01*
G01X14265375Y-2635431D02*
G01X14259533Y-2641273D01*
G01X14265375Y-2646861D01*
G01X14270963Y-2641273D01*
G01X14265375Y-2635431D01*
G01X14393137Y-2584123D02*
G01X14387295Y-2601141D01*
G01X14375865Y-2612571D01*
G01X14358847Y-2618413D01*
G01X14353005Y-2618413D01*
G01X14335987Y-2612571D01*
G01X14324557Y-2601141D01*
G01X14318715Y-2584123D01*
G01X14318715Y-2578281D01*
G01X14324557Y-2561263D01*
G01X14335987Y-2549833D01*
G01X14353005Y-2543991D01*
G01X14358847Y-2543991D01*
G01X14375865Y-2549833D01*
G01X14387295Y-2561263D01*
G01X14393137Y-2584123D01*
G01X14393137Y-2612571D01*
G01X14387295Y-2641273D01*
G01X14375865Y-2658291D01*
G01X14358847Y-2664133D01*
G01X14347417Y-2664133D01*
G01X14330145Y-2658291D01*
G01X14324557Y-2646861D01*
G01X14440889Y-2584123D02*
G01X14440889Y-2664133D01*
G01X14440889Y-2606983D02*
G01X14458161Y-2589711D01*
G01X14469591Y-2584123D01*
G01X14486609Y-2584123D01*
G01X14498039Y-2589711D01*
G01X14503881Y-2606983D01*
G01X14503881Y-2664133D01*
G01X14503881Y-2606983D02*
G01X14520899Y-2589711D01*
G01X14532329Y-2584123D01*
G01X14549601Y-2584123D01*
G01X14561031Y-2589711D01*
G01X14566619Y-2606983D01*
G01X14566619Y-2664133D01*
G01X14614371Y-2543991D02*
G01X14620213Y-2549833D01*
G01X14625801Y-2543991D01*
G01X14620213Y-2538403D01*
G01X14614371Y-2543991D01*
G01X14620213Y-2584123D02*
G01X14620213Y-2664133D01*
G01X14673553Y-2543991D02*
G01X14673553Y-2664133D01*
G01X14761437Y-2521131D02*
G01X14750007Y-2532561D01*
G01X14738577Y-2549833D01*
G01X14727147Y-2572693D01*
G01X14721305Y-2601141D01*
G01X14721305Y-2624001D01*
G01X14727147Y-2652703D01*
G01X14738577Y-2675563D01*
G01X14750007Y-2692581D01*
G01X14761437Y-2704011D01*
G01X14809189Y-2566851D02*
G01X14820619Y-2561263D01*
G01X14837891Y-2543991D01*
G01X14837891Y-2664133D01*
G01X14891485Y-2635431D02*
G01X14885643Y-2641273D01*
G01X14891485Y-2646861D01*
G01X14897073Y-2641273D01*
G01X14891485Y-2635431D01*
G01X15024835Y-2543991D02*
G01X14967685Y-2664133D01*
G01X14944825Y-2543991D02*
G01X15024835Y-2543991D01*
G01X15106877Y-2543991D02*
G01X15089859Y-2549833D01*
G01X15078429Y-2566851D01*
G01X15072587Y-2595553D01*
G01X15072587Y-2612571D01*
G01X15078429Y-2641273D01*
G01X15089859Y-2658291D01*
G01X15106877Y-2664133D01*
G01X15118307Y-2664133D01*
G01X15135579Y-2658291D01*
G01X15147009Y-2641273D01*
G01X15152597Y-2612571D01*
G01X15152597Y-2595553D01*
G01X15147009Y-2566851D01*
G01X15135579Y-2549833D01*
G01X15118307Y-2543991D01*
G01X15106877Y-2543991D01*
G01X15234639Y-2543991D02*
G01X15217621Y-2549833D01*
G01X15206191Y-2566851D01*
G01X15200349Y-2595553D01*
G01X15200349Y-2612571D01*
G01X15206191Y-2641273D01*
G01X15217621Y-2658291D01*
G01X15234639Y-2664133D01*
G01X15246069Y-2664133D01*
G01X15263341Y-2658291D01*
G01X15274771Y-2641273D01*
G01X15280359Y-2612571D01*
G01X15280359Y-2595553D01*
G01X15274771Y-2566851D01*
G01X15263341Y-2549833D01*
G01X15246069Y-2543991D01*
G01X15234639Y-2543991D01*
G01X15328111Y-2584123D02*
G01X15391103Y-2664133D01*
G01X15391103Y-2584123D02*
G01X15328111Y-2664133D01*
G01X15438855Y-2566851D02*
G01X15450285Y-2561263D01*
G01X15467557Y-2543991D01*
G01X15467557Y-2664133D01*
G01X15521151Y-2635431D02*
G01X15515309Y-2641273D01*
G01X15521151Y-2646861D01*
G01X15526739Y-2641273D01*
G01X15521151Y-2635431D01*
G01X15654501Y-2543991D02*
G01X15597351Y-2664133D01*
G01X15574491Y-2543991D02*
G01X15654501Y-2543991D01*
G01X15736543Y-2543991D02*
G01X15719525Y-2549833D01*
G01X15708095Y-2566851D01*
G01X15702253Y-2595553D01*
G01X15702253Y-2612571D01*
G01X15708095Y-2641273D01*
G01X15719525Y-2658291D01*
G01X15736543Y-2664133D01*
G01X15747973Y-2664133D01*
G01X15765245Y-2658291D01*
G01X15776675Y-2641273D01*
G01X15782263Y-2612571D01*
G01X15782263Y-2595553D01*
G01X15776675Y-2566851D01*
G01X15765245Y-2549833D01*
G01X15747973Y-2543991D01*
G01X15736543Y-2543991D01*
G01X15864305Y-2543991D02*
G01X15847287Y-2549833D01*
G01X15835857Y-2566851D01*
G01X15830015Y-2595553D01*
G01X15830015Y-2612571D01*
G01X15835857Y-2641273D01*
G01X15847287Y-2658291D01*
G01X15864305Y-2664133D01*
G01X15875735Y-2664133D01*
G01X15893007Y-2658291D01*
G01X15904437Y-2641273D01*
G01X15910025Y-2612571D01*
G01X15910025Y-2595553D01*
G01X15904437Y-2566851D01*
G01X15893007Y-2549833D01*
G01X15875735Y-2543991D01*
G01X15864305Y-2543991D01*
G01X15957777Y-2584123D02*
G01X15957777Y-2664133D01*
G01X15957777Y-2606983D02*
G01X15975049Y-2589711D01*
G01X15986479Y-2584123D01*
G01X16003497Y-2584123D01*
G01X16014927Y-2589711D01*
G01X16020769Y-2606983D01*
G01X16020769Y-2664133D01*
G01X16020769Y-2606983D02*
G01X16037787Y-2589711D01*
G01X16049217Y-2584123D01*
G01X16066489Y-2584123D01*
G01X16077919Y-2589711D01*
G01X16083507Y-2606983D01*
G01X16083507Y-2664133D01*
G01X16131259Y-2584123D02*
G01X16131259Y-2664133D01*
G01X16131259Y-2606983D02*
G01X16148531Y-2589711D01*
G01X16159961Y-2584123D01*
G01X16176979Y-2584123D01*
G01X16188409Y-2589711D01*
G01X16194251Y-2606983D01*
G01X16194251Y-2664133D01*
G01X16194251Y-2606983D02*
G01X16211269Y-2589711D01*
G01X16222699Y-2584123D01*
G01X16239971Y-2584123D01*
G01X16251401Y-2589711D01*
G01X16256989Y-2606983D01*
G01X16256989Y-2664133D01*
G01X16304741Y-2521131D02*
G01X16316171Y-2532561D01*
G01X16327601Y-2549833D01*
G01X16339031Y-2572693D01*
G01X16344873Y-2601141D01*
G01X16344873Y-2624001D01*
G01X16339031Y-2652703D01*
G01X16327601Y-2675563D01*
G01X16316171Y-2692581D01*
G01X16304741Y-2704011D01*
G01X17329268Y-2543991D02*
G01X17329268Y-2664133D01*
G01X17329268Y-2543991D02*
G01X17380830Y-2543991D01*
G01X17397848Y-2549833D01*
G01X17403690Y-2555421D01*
G01X17409278Y-2566851D01*
G01X17409278Y-2584123D01*
G01X17403690Y-2595553D01*
G01X17397848Y-2601141D01*
G01X17380830Y-2606983D01*
G01X17329268Y-2606983D01*
G01X17497162Y-2543991D02*
G01X17497162Y-2664133D01*
G01X17457030Y-2543991D02*
G01X17537040Y-2543991D01*
G01X17584792Y-2543991D02*
G01X17584792Y-2664133D01*
G01X17664802Y-2543991D02*
G01X17664802Y-2664133D01*
G01X17584792Y-2601141D02*
G01X17664802Y-2601141D01*
G01X18790676Y-2543991D02*
G01X18790676Y-2664133D01*
G01X18790676Y-2543991D02*
G01X18842238Y-2543991D01*
G01X18859256Y-2549833D01*
G01X18865098Y-2555421D01*
G01X18870686Y-2566851D01*
G01X18870686Y-2578281D01*
G01X18865098Y-2589711D01*
G01X18859256Y-2595553D01*
G01X18842238Y-2601141D01*
G01X18790676Y-2601141D01*
G01X18830808Y-2601141D02*
G01X18870686Y-2664133D01*
G01X18947140Y-2584123D02*
G01X18935710Y-2589711D01*
G01X18924280Y-2601141D01*
G01X18918438Y-2618413D01*
G01X18918438Y-2629843D01*
G01X18924280Y-2646861D01*
G01X18935710Y-2658291D01*
G01X18947140Y-2664133D01*
G01X18964158Y-2664133D01*
G01X18975588Y-2658291D01*
G01X18987018Y-2646861D01*
G01X18992860Y-2629843D01*
G01X18992860Y-2618413D01*
G01X18987018Y-2601141D01*
G01X18975588Y-2589711D01*
G01X18964158Y-2584123D01*
G01X18947140Y-2584123D01*
G01X19040612Y-2584123D02*
G01X19040612Y-2641273D01*
G01X19046454Y-2658291D01*
G01X19057884Y-2664133D01*
G01X19074902Y-2664133D01*
G01X19086332Y-2658291D01*
G01X19103604Y-2641273D01*
G01X19103604Y-2584123D02*
G01X19103604Y-2664133D01*
G01X19151356Y-2584123D02*
G01X19151356Y-2664133D01*
G01X19151356Y-2606983D02*
G01X19168628Y-2589711D01*
G01X19180058Y-2584123D01*
G01X19197076Y-2584123D01*
G01X19208506Y-2589711D01*
G01X19214348Y-2606983D01*
G01X19214348Y-2664133D01*
G01X19330680Y-2543991D02*
G01X19330680Y-2664133D01*
G01X19330680Y-2601141D02*
G01X19319250Y-2589711D01*
G01X19307820Y-2584123D01*
G01X19290802Y-2584123D01*
G01X19279372Y-2589711D01*
G01X19267942Y-2601141D01*
G01X19262100Y-2618413D01*
G01X19262100Y-2629843D01*
G01X19267942Y-2646861D01*
G01X19279372Y-2658291D01*
G01X19290802Y-2664133D01*
G01X19307820Y-2664133D01*
G01X19319250Y-2658291D01*
G01X19330680Y-2646861D01*
G01X20221857Y-2543991D02*
G01X20221857Y-2664133D01*
G01X20221857Y-2543991D02*
G01X20273419Y-2543991D01*
G01X20290437Y-2549833D01*
G01X20296279Y-2555421D01*
G01X20301867Y-2566851D01*
G01X20301867Y-2584123D01*
G01X20296279Y-2595553D01*
G01X20290437Y-2601141D01*
G01X20273419Y-2606983D01*
G01X20221857Y-2606983D01*
G01X20418199Y-2584123D02*
G01X20418199Y-2664133D01*
G01X20418199Y-2601141D02*
G01X20406769Y-2589711D01*
G01X20395339Y-2584123D01*
G01X20378321Y-2584123D01*
G01X20366891Y-2589711D01*
G01X20355461Y-2601141D01*
G01X20349619Y-2618413D01*
G01X20349619Y-2629843D01*
G01X20355461Y-2646861D01*
G01X20366891Y-2658291D01*
G01X20378321Y-2664133D01*
G01X20395339Y-2664133D01*
G01X20406769Y-2658291D01*
G01X20418199Y-2646861D01*
G01X20534531Y-2543991D02*
G01X20534531Y-2664133D01*
G01X20534531Y-2601141D02*
G01X20523101Y-2589711D01*
G01X20511671Y-2584123D01*
G01X20494653Y-2584123D01*
G01X20483223Y-2589711D01*
G01X20471793Y-2601141D01*
G01X20465951Y-2618413D01*
G01X20465951Y-2629843D01*
G01X20471793Y-2646861D01*
G01X20483223Y-2658291D01*
G01X20494653Y-2664133D01*
G01X20511671Y-2664133D01*
G01X20523101Y-2658291D01*
G01X20534531Y-2646861D01*
G01X21891036Y-2543991D02*
G01X21891036Y-2664133D01*
G01X21891036Y-2543991D02*
G01X21942598Y-2543991D01*
G01X21959616Y-2549833D01*
G01X21965458Y-2555421D01*
G01X21971046Y-2566851D01*
G01X21971046Y-2578281D01*
G01X21965458Y-2589711D01*
G01X21959616Y-2595553D01*
G01X21942598Y-2601141D01*
G01X21891036Y-2601141D01*
G01X21931168Y-2601141D02*
G01X21971046Y-2664133D01*
G01X22047500Y-2584123D02*
G01X22036070Y-2589711D01*
G01X22024640Y-2601141D01*
G01X22018798Y-2618413D01*
G01X22018798Y-2629843D01*
G01X22024640Y-2646861D01*
G01X22036070Y-2658291D01*
G01X22047500Y-2664133D01*
G01X22064518Y-2664133D01*
G01X22075948Y-2658291D01*
G01X22087378Y-2646861D01*
G01X22093220Y-2629843D01*
G01X22093220Y-2618413D01*
G01X22087378Y-2601141D01*
G01X22075948Y-2589711D01*
G01X22064518Y-2584123D01*
G01X22047500Y-2584123D01*
G01X22140972Y-2584123D02*
G01X22140972Y-2641273D01*
G01X22146814Y-2658291D01*
G01X22158244Y-2664133D01*
G01X22175262Y-2664133D01*
G01X22186692Y-2658291D01*
G01X22203964Y-2641273D01*
G01X22203964Y-2584123D02*
G01X22203964Y-2664133D01*
G01X22251716Y-2584123D02*
G01X22251716Y-2664133D01*
G01X22251716Y-2606983D02*
G01X22268988Y-2589711D01*
G01X22280418Y-2584123D01*
G01X22297436Y-2584123D01*
G01X22308866Y-2589711D01*
G01X22314708Y-2606983D01*
G01X22314708Y-2664133D01*
G01X22431040Y-2543991D02*
G01X22431040Y-2664133D01*
G01X22431040Y-2601141D02*
G01X22419610Y-2589711D01*
G01X22408180Y-2584123D01*
G01X22391162Y-2584123D01*
G01X22379732Y-2589711D01*
G01X22368302Y-2601141D01*
G01X22362460Y-2618413D01*
G01X22362460Y-2629843D01*
G01X22368302Y-2646861D01*
G01X22379732Y-2658291D01*
G01X22391162Y-2664133D01*
G01X22408180Y-2664133D01*
G01X22419610Y-2658291D01*
G01X22431040Y-2646861D01*
G01X23850537Y-2543991D02*
G01X23850537Y-2664133D01*
G01X23810405Y-2543991D02*
G01X23890415Y-2543991D01*
G01X23966869Y-2584123D02*
G01X23955439Y-2589711D01*
G01X23944009Y-2601141D01*
G01X23938167Y-2618413D01*
G01X23938167Y-2629843D01*
G01X23944009Y-2646861D01*
G01X23955439Y-2658291D01*
G01X23966869Y-2664133D01*
G01X23983887Y-2664133D01*
G01X23995317Y-2658291D01*
G01X24006747Y-2646861D01*
G01X24012589Y-2629843D01*
G01X24012589Y-2618413D01*
G01X24006747Y-2601141D01*
G01X23995317Y-2589711D01*
G01X23983887Y-2584123D01*
G01X23966869Y-2584123D01*
G01X24060341Y-2584123D02*
G01X24060341Y-2704011D01*
G01X24060341Y-2601141D02*
G01X24071771Y-2589711D01*
G01X24083201Y-2584123D01*
G01X24100473Y-2584123D01*
G01X24111903Y-2589711D01*
G01X24123333Y-2601141D01*
G01X24128921Y-2618413D01*
G01X24128921Y-2629843D01*
G01X24123333Y-2646861D01*
G01X24111903Y-2658291D01*
G01X24100473Y-2664133D01*
G01X24083201Y-2664133D01*
G01X24071771Y-2658291D01*
G01X24060341Y-2646861D01*
G01X24304689Y-2543991D02*
G01X24304689Y-2664133D01*
G01X24304689Y-2664133D02*
G01X24373269Y-2664133D01*
G01X24489601Y-2584123D02*
G01X24489601Y-2664133D01*
G01X24489601Y-2601141D02*
G01X24478171Y-2589711D01*
G01X24466741Y-2584123D01*
G01X24449723Y-2584123D01*
G01X24438293Y-2589711D01*
G01X24426863Y-2601141D01*
G01X24421021Y-2618413D01*
G01X24421021Y-2629843D01*
G01X24426863Y-2646861D01*
G01X24438293Y-2658291D01*
G01X24449723Y-2664133D01*
G01X24466741Y-2664133D01*
G01X24478171Y-2658291D01*
G01X24489601Y-2646861D01*
G01X24543195Y-2584123D02*
G01X24577485Y-2664133D01*
G01X24611775Y-2584123D02*
G01X24577485Y-2664133D01*
G01X24566055Y-2686993D01*
G01X24554625Y-2698423D01*
G01X24543195Y-2704011D01*
G01X24537353Y-2704011D01*
G01X24659527Y-2618413D02*
G01X24728107Y-2618413D01*
G01X24728107Y-2606983D01*
G01X24722519Y-2595553D01*
G01X24716677Y-2589711D01*
G01X24705247Y-2584123D01*
G01X24688229Y-2584123D01*
G01X24676799Y-2589711D01*
G01X24665369Y-2601141D01*
G01X24659527Y-2618413D01*
G01X24659527Y-2629843D01*
G01X24665369Y-2646861D01*
G01X24676799Y-2658291D01*
G01X24688229Y-2664133D01*
G01X24705247Y-2664133D01*
G01X24716677Y-2658291D01*
G01X24728107Y-2646861D01*
G01X24775859Y-2584123D02*
G01X24775859Y-2664133D01*
G01X24775859Y-2618413D02*
G01X24781701Y-2601141D01*
G01X24793131Y-2589711D01*
G01X24804561Y-2584123D01*
G01X24821579Y-2584123D01*
G01X24869331Y-2612571D02*
G01X24972201Y-2612571D01*
G01X25019953Y-2543991D02*
G01X25019953Y-2664133D01*
G01X25019953Y-2543991D02*
G01X25071515Y-2543991D01*
G01X25088533Y-2549833D01*
G01X25094375Y-2555421D01*
G01X25099963Y-2566851D01*
G01X25099963Y-2578281D01*
G01X25094375Y-2589711D01*
G01X25088533Y-2595553D01*
G01X25071515Y-2601141D01*
G01X25019953Y-2601141D02*
G01X25071515Y-2601141D01*
G01X25088533Y-2606983D01*
G01X25094375Y-2612571D01*
G01X25099963Y-2624001D01*
G01X25099963Y-2641273D01*
G01X25094375Y-2652703D01*
G01X25088533Y-2658291D01*
G01X25071515Y-2664133D01*
G01X25019953Y-2664133D01*
G01X25176417Y-2584123D02*
G01X25164987Y-2589711D01*
G01X25153557Y-2601141D01*
G01X25147715Y-2618413D01*
G01X25147715Y-2629843D01*
G01X25153557Y-2646861D01*
G01X25164987Y-2658291D01*
G01X25176417Y-2664133D01*
G01X25193435Y-2664133D01*
G01X25204865Y-2658291D01*
G01X25216295Y-2646861D01*
G01X25222137Y-2629843D01*
G01X25222137Y-2618413D01*
G01X25216295Y-2601141D01*
G01X25204865Y-2589711D01*
G01X25193435Y-2584123D01*
G01X25176417Y-2584123D01*
G01X25287161Y-2543991D02*
G01X25287161Y-2641273D01*
G01X25292749Y-2658291D01*
G01X25304179Y-2664133D01*
G01X25315609Y-2664133D01*
G01X25269889Y-2584123D02*
G01X25310021Y-2584123D01*
G01X25380633Y-2543991D02*
G01X25380633Y-2641273D01*
G01X25386221Y-2658291D01*
G01X25397651Y-2664133D01*
G01X25409081Y-2664133D01*
G01X25363361Y-2584123D02*
G01X25403493Y-2584123D01*
G01X25485535Y-2584123D02*
G01X25474105Y-2589711D01*
G01X25462675Y-2601141D01*
G01X25456833Y-2618413D01*
G01X25456833Y-2629843D01*
G01X25462675Y-2646861D01*
G01X25474105Y-2658291D01*
G01X25485535Y-2664133D01*
G01X25502553Y-2664133D01*
G01X25513983Y-2658291D01*
G01X25525413Y-2646861D01*
G01X25531255Y-2629843D01*
G01X25531255Y-2618413D01*
G01X25525413Y-2601141D01*
G01X25513983Y-2589711D01*
G01X25502553Y-2584123D01*
G01X25485535Y-2584123D01*
G01X25579007Y-2584123D02*
G01X25579007Y-2664133D01*
G01X25579007Y-2606983D02*
G01X25596279Y-2589711D01*
G01X25607709Y-2584123D01*
G01X25624727Y-2584123D01*
G01X25636157Y-2589711D01*
G01X25641999Y-2606983D01*
G01X25641999Y-2664133D01*
G01X25641999Y-2606983D02*
G01X25659017Y-2589711D01*
G01X25670447Y-2584123D01*
G01X25687719Y-2584123D01*
G01X25699149Y-2589711D01*
G01X25704737Y-2606983D01*
G01X25704737Y-2664133D01*
G01X25880505Y-2543991D02*
G01X25880505Y-2664133D01*
G01X25880505Y-2664133D02*
G01X25949085Y-2664133D01*
G01X26065417Y-2584123D02*
G01X26065417Y-2664133D01*
G01X26065417Y-2601141D02*
G01X26053987Y-2589711D01*
G01X26042557Y-2584123D01*
G01X26025539Y-2584123D01*
G01X26014109Y-2589711D01*
G01X26002679Y-2601141D01*
G01X25996837Y-2618413D01*
G01X25996837Y-2629843D01*
G01X26002679Y-2646861D01*
G01X26014109Y-2658291D01*
G01X26025539Y-2664133D01*
G01X26042557Y-2664133D01*
G01X26053987Y-2658291D01*
G01X26065417Y-2646861D01*
G01X26119011Y-2584123D02*
G01X26153301Y-2664133D01*
G01X26187591Y-2584123D02*
G01X26153301Y-2664133D01*
G01X26141871Y-2686993D01*
G01X26130441Y-2698423D01*
G01X26119011Y-2704011D01*
G01X26113169Y-2704011D01*
G01X26235343Y-2618413D02*
G01X26303923Y-2618413D01*
G01X26303923Y-2606983D01*
G01X26298335Y-2595553D01*
G01X26292493Y-2589711D01*
G01X26281063Y-2584123D01*
G01X26264045Y-2584123D01*
G01X26252615Y-2589711D01*
G01X26241185Y-2601141D01*
G01X26235343Y-2618413D01*
G01X26235343Y-2629843D01*
G01X26241185Y-2646861D01*
G01X26252615Y-2658291D01*
G01X26264045Y-2664133D01*
G01X26281063Y-2664133D01*
G01X26292493Y-2658291D01*
G01X26303923Y-2646861D01*
G01X26351675Y-2584123D02*
G01X26351675Y-2664133D01*
G01X26351675Y-2618413D02*
G01X26357517Y-2601141D01*
G01X26368947Y-2589711D01*
G01X26380377Y-2584123D01*
G01X26397395Y-2584123D01*
G01X12121724Y-3124563D02*
G01X12064574Y-3204573D01*
G01X12150426Y-3204573D01*
G01X12121724Y-3124563D02*
G01X12121724Y-3244705D01*
G01X13535887Y-3124563D02*
G01X13478737Y-3204573D01*
G01X13564589Y-3204573D01*
G01X13535887Y-3124563D02*
G01X13535887Y-3244705D01*
G01X13623771Y-3124563D02*
G01X13686763Y-3124563D01*
G01X13652473Y-3170283D01*
G01X13669491Y-3170283D01*
G01X13680921Y-3176125D01*
G01X13686763Y-3181713D01*
G01X13692351Y-3198985D01*
G01X13692351Y-3210415D01*
G01X13686763Y-3227433D01*
G01X13675333Y-3238863D01*
G01X13658061Y-3244705D01*
G01X13641043Y-3244705D01*
G01X13623771Y-3238863D01*
G01X13618183Y-3233275D01*
G01X13612341Y-3221845D01*
G01X13745945Y-3216003D02*
G01X13740103Y-3221845D01*
G01X13745945Y-3227433D01*
G01X13751533Y-3221845D01*
G01X13745945Y-3216003D01*
G01X13810715Y-3124563D02*
G01X13873707Y-3124563D01*
G01X13839417Y-3170283D01*
G01X13856435Y-3170283D01*
G01X13867865Y-3176125D01*
G01X13873707Y-3181713D01*
G01X13879295Y-3198985D01*
G01X13879295Y-3210415D01*
G01X13873707Y-3227433D01*
G01X13862277Y-3238863D01*
G01X13845005Y-3244705D01*
G01X13827987Y-3244705D01*
G01X13810715Y-3238863D01*
G01X13805127Y-3233275D01*
G01X13799285Y-3221845D01*
G01X13927047Y-3164695D02*
G01X13990039Y-3244705D01*
G01X13990039Y-3164695D02*
G01X13927047Y-3244705D01*
G01X14094941Y-3124563D02*
G01X14037791Y-3204573D01*
G01X14123643Y-3204573D01*
G01X14094941Y-3124563D02*
G01X14094941Y-3244705D01*
G01X14182825Y-3124563D02*
G01X14245817Y-3124563D01*
G01X14211527Y-3170283D01*
G01X14228545Y-3170283D01*
G01X14239975Y-3176125D01*
G01X14245817Y-3181713D01*
G01X14251405Y-3198985D01*
G01X14251405Y-3210415D01*
G01X14245817Y-3227433D01*
G01X14234387Y-3238863D01*
G01X14217115Y-3244705D01*
G01X14200097Y-3244705D01*
G01X14182825Y-3238863D01*
G01X14177237Y-3233275D01*
G01X14171395Y-3221845D01*
G01X14304999Y-3216003D02*
G01X14299157Y-3221845D01*
G01X14304999Y-3227433D01*
G01X14310587Y-3221845D01*
G01X14304999Y-3216003D01*
G01X14369769Y-3124563D02*
G01X14432761Y-3124563D01*
G01X14398471Y-3170283D01*
G01X14415489Y-3170283D01*
G01X14426919Y-3176125D01*
G01X14432761Y-3181713D01*
G01X14438349Y-3198985D01*
G01X14438349Y-3210415D01*
G01X14432761Y-3227433D01*
G01X14421331Y-3238863D01*
G01X14404059Y-3244705D01*
G01X14387041Y-3244705D01*
G01X14369769Y-3238863D01*
G01X14364181Y-3233275D01*
G01X14358339Y-3221845D01*
G01X14486101Y-3164695D02*
G01X14486101Y-3244705D01*
G01X14486101Y-3187555D02*
G01X14503373Y-3170283D01*
G01X14514803Y-3164695D01*
G01X14531821Y-3164695D01*
G01X14543251Y-3170283D01*
G01X14549093Y-3187555D01*
G01X14549093Y-3244705D01*
G01X14549093Y-3187555D02*
G01X14566111Y-3170283D01*
G01X14577541Y-3164695D01*
G01X14594813Y-3164695D01*
G01X14606243Y-3170283D01*
G01X14611831Y-3187555D01*
G01X14611831Y-3244705D01*
G01X14659583Y-3124563D02*
G01X14665425Y-3130405D01*
G01X14671013Y-3124563D01*
G01X14665425Y-3118975D01*
G01X14659583Y-3124563D01*
G01X14665425Y-3164695D02*
G01X14665425Y-3244705D01*
G01X14718765Y-3124563D02*
G01X14718765Y-3244705D01*
G01X14806649Y-3101703D02*
G01X14795219Y-3113133D01*
G01X14783789Y-3130405D01*
G01X14772359Y-3153265D01*
G01X14766517Y-3181713D01*
G01X14766517Y-3204573D01*
G01X14772359Y-3233275D01*
G01X14783789Y-3256135D01*
G01X14795219Y-3273153D01*
G01X14806649Y-3284583D01*
G01X14854401Y-3147423D02*
G01X14865831Y-3141835D01*
G01X14883103Y-3124563D01*
G01X14883103Y-3244705D01*
G01X14936697Y-3216003D02*
G01X14930855Y-3221845D01*
G01X14936697Y-3227433D01*
G01X14942285Y-3221845D01*
G01X14936697Y-3216003D01*
G01X14990037Y-3147423D02*
G01X15001467Y-3141835D01*
G01X15018739Y-3124563D01*
G01X15018739Y-3244705D01*
G01X15100781Y-3124563D02*
G01X15083763Y-3130405D01*
G01X15072333Y-3147423D01*
G01X15066491Y-3176125D01*
G01X15066491Y-3193143D01*
G01X15072333Y-3221845D01*
G01X15083763Y-3238863D01*
G01X15100781Y-3244705D01*
G01X15112211Y-3244705D01*
G01X15129483Y-3238863D01*
G01X15140913Y-3221845D01*
G01X15146501Y-3193143D01*
G01X15146501Y-3176125D01*
G01X15140913Y-3147423D01*
G01X15129483Y-3130405D01*
G01X15112211Y-3124563D01*
G01X15100781Y-3124563D01*
G01X15228543Y-3124563D02*
G01X15211525Y-3130405D01*
G01X15200095Y-3147423D01*
G01X15194253Y-3176125D01*
G01X15194253Y-3193143D01*
G01X15200095Y-3221845D01*
G01X15211525Y-3238863D01*
G01X15228543Y-3244705D01*
G01X15239973Y-3244705D01*
G01X15257245Y-3238863D01*
G01X15268675Y-3221845D01*
G01X15274263Y-3193143D01*
G01X15274263Y-3176125D01*
G01X15268675Y-3147423D01*
G01X15257245Y-3130405D01*
G01X15239973Y-3124563D01*
G01X15228543Y-3124563D01*
G01X15322015Y-3164695D02*
G01X15385007Y-3244705D01*
G01X15385007Y-3164695D02*
G01X15322015Y-3244705D01*
G01X15432759Y-3147423D02*
G01X15444189Y-3141835D01*
G01X15461461Y-3124563D01*
G01X15461461Y-3244705D01*
G01X15515055Y-3216003D02*
G01X15509213Y-3221845D01*
G01X15515055Y-3227433D01*
G01X15520643Y-3221845D01*
G01X15515055Y-3216003D01*
G01X15568395Y-3147423D02*
G01X15579825Y-3141835D01*
G01X15597097Y-3124563D01*
G01X15597097Y-3244705D01*
G01X15679139Y-3124563D02*
G01X15662121Y-3130405D01*
G01X15650691Y-3147423D01*
G01X15644849Y-3176125D01*
G01X15644849Y-3193143D01*
G01X15650691Y-3221845D01*
G01X15662121Y-3238863D01*
G01X15679139Y-3244705D01*
G01X15690569Y-3244705D01*
G01X15707841Y-3238863D01*
G01X15719271Y-3221845D01*
G01X15724859Y-3193143D01*
G01X15724859Y-3176125D01*
G01X15719271Y-3147423D01*
G01X15707841Y-3130405D01*
G01X15690569Y-3124563D01*
G01X15679139Y-3124563D01*
G01X15806901Y-3124563D02*
G01X15789883Y-3130405D01*
G01X15778453Y-3147423D01*
G01X15772611Y-3176125D01*
G01X15772611Y-3193143D01*
G01X15778453Y-3221845D01*
G01X15789883Y-3238863D01*
G01X15806901Y-3244705D01*
G01X15818331Y-3244705D01*
G01X15835603Y-3238863D01*
G01X15847033Y-3221845D01*
G01X15852621Y-3193143D01*
G01X15852621Y-3176125D01*
G01X15847033Y-3147423D01*
G01X15835603Y-3130405D01*
G01X15818331Y-3124563D01*
G01X15806901Y-3124563D01*
G01X15900373Y-3164695D02*
G01X15900373Y-3244705D01*
G01X15900373Y-3187555D02*
G01X15917645Y-3170283D01*
G01X15929075Y-3164695D01*
G01X15946093Y-3164695D01*
G01X15957523Y-3170283D01*
G01X15963365Y-3187555D01*
G01X15963365Y-3244705D01*
G01X15963365Y-3187555D02*
G01X15980383Y-3170283D01*
G01X15991813Y-3164695D01*
G01X16009085Y-3164695D01*
G01X16020515Y-3170283D01*
G01X16026103Y-3187555D01*
G01X16026103Y-3244705D01*
G01X16073855Y-3164695D02*
G01X16073855Y-3244705D01*
G01X16073855Y-3187555D02*
G01X16091127Y-3170283D01*
G01X16102557Y-3164695D01*
G01X16119575Y-3164695D01*
G01X16131005Y-3170283D01*
G01X16136847Y-3187555D01*
G01X16136847Y-3244705D01*
G01X16136847Y-3187555D02*
G01X16153865Y-3170283D01*
G01X16165295Y-3164695D01*
G01X16182567Y-3164695D01*
G01X16193997Y-3170283D01*
G01X16199585Y-3187555D01*
G01X16199585Y-3244705D01*
G01X16247337Y-3101703D02*
G01X16258767Y-3113133D01*
G01X16270197Y-3130405D01*
G01X16281627Y-3153265D01*
G01X16287469Y-3181713D01*
G01X16287469Y-3204573D01*
G01X16281627Y-3233275D01*
G01X16270197Y-3256135D01*
G01X16258767Y-3273153D01*
G01X16247337Y-3284583D01*
G01X17329268Y-3124563D02*
G01X17329268Y-3244705D01*
G01X17329268Y-3124563D02*
G01X17380830Y-3124563D01*
G01X17397848Y-3130405D01*
G01X17403690Y-3135993D01*
G01X17409278Y-3147423D01*
G01X17409278Y-3164695D01*
G01X17403690Y-3176125D01*
G01X17397848Y-3181713D01*
G01X17380830Y-3187555D01*
G01X17329268Y-3187555D01*
G01X17497162Y-3124563D02*
G01X17497162Y-3244705D01*
G01X17457030Y-3124563D02*
G01X17537040Y-3124563D01*
G01X17584792Y-3124563D02*
G01X17584792Y-3244705D01*
G01X17664802Y-3124563D02*
G01X17664802Y-3244705D01*
G01X17584792Y-3181713D02*
G01X17664802Y-3181713D01*
G01X18790676Y-3124563D02*
G01X18790676Y-3244705D01*
G01X18790676Y-3124563D02*
G01X18842238Y-3124563D01*
G01X18859256Y-3130405D01*
G01X18865098Y-3135993D01*
G01X18870686Y-3147423D01*
G01X18870686Y-3158853D01*
G01X18865098Y-3170283D01*
G01X18859256Y-3176125D01*
G01X18842238Y-3181713D01*
G01X18790676Y-3181713D01*
G01X18830808Y-3181713D02*
G01X18870686Y-3244705D01*
G01X18947140Y-3164695D02*
G01X18935710Y-3170283D01*
G01X18924280Y-3181713D01*
G01X18918438Y-3198985D01*
G01X18918438Y-3210415D01*
G01X18924280Y-3227433D01*
G01X18935710Y-3238863D01*
G01X18947140Y-3244705D01*
G01X18964158Y-3244705D01*
G01X18975588Y-3238863D01*
G01X18987018Y-3227433D01*
G01X18992860Y-3210415D01*
G01X18992860Y-3198985D01*
G01X18987018Y-3181713D01*
G01X18975588Y-3170283D01*
G01X18964158Y-3164695D01*
G01X18947140Y-3164695D01*
G01X19040612Y-3164695D02*
G01X19040612Y-3221845D01*
G01X19046454Y-3238863D01*
G01X19057884Y-3244705D01*
G01X19074902Y-3244705D01*
G01X19086332Y-3238863D01*
G01X19103604Y-3221845D01*
G01X19103604Y-3164695D02*
G01X19103604Y-3244705D01*
G01X19151356Y-3164695D02*
G01X19151356Y-3244705D01*
G01X19151356Y-3187555D02*
G01X19168628Y-3170283D01*
G01X19180058Y-3164695D01*
G01X19197076Y-3164695D01*
G01X19208506Y-3170283D01*
G01X19214348Y-3187555D01*
G01X19214348Y-3244705D01*
G01X19330680Y-3124563D02*
G01X19330680Y-3244705D01*
G01X19330680Y-3181713D02*
G01X19319250Y-3170283D01*
G01X19307820Y-3164695D01*
G01X19290802Y-3164695D01*
G01X19279372Y-3170283D01*
G01X19267942Y-3181713D01*
G01X19262100Y-3198985D01*
G01X19262100Y-3210415D01*
G01X19267942Y-3227433D01*
G01X19279372Y-3238863D01*
G01X19290802Y-3244705D01*
G01X19307820Y-3244705D01*
G01X19319250Y-3238863D01*
G01X19330680Y-3227433D01*
G01X20221857Y-3124563D02*
G01X20221857Y-3244705D01*
G01X20221857Y-3124563D02*
G01X20273419Y-3124563D01*
G01X20290437Y-3130405D01*
G01X20296279Y-3135993D01*
G01X20301867Y-3147423D01*
G01X20301867Y-3164695D01*
G01X20296279Y-3176125D01*
G01X20290437Y-3181713D01*
G01X20273419Y-3187555D01*
G01X20221857Y-3187555D01*
G01X20418199Y-3164695D02*
G01X20418199Y-3244705D01*
G01X20418199Y-3181713D02*
G01X20406769Y-3170283D01*
G01X20395339Y-3164695D01*
G01X20378321Y-3164695D01*
G01X20366891Y-3170283D01*
G01X20355461Y-3181713D01*
G01X20349619Y-3198985D01*
G01X20349619Y-3210415D01*
G01X20355461Y-3227433D01*
G01X20366891Y-3238863D01*
G01X20378321Y-3244705D01*
G01X20395339Y-3244705D01*
G01X20406769Y-3238863D01*
G01X20418199Y-3227433D01*
G01X20534531Y-3124563D02*
G01X20534531Y-3244705D01*
G01X20534531Y-3181713D02*
G01X20523101Y-3170283D01*
G01X20511671Y-3164695D01*
G01X20494653Y-3164695D01*
G01X20483223Y-3170283D01*
G01X20471793Y-3181713D01*
G01X20465951Y-3198985D01*
G01X20465951Y-3210415D01*
G01X20471793Y-3227433D01*
G01X20483223Y-3238863D01*
G01X20494653Y-3244705D01*
G01X20511671Y-3244705D01*
G01X20523101Y-3238863D01*
G01X20534531Y-3227433D01*
G01X21931168Y-3101703D02*
G01X21919738Y-3113133D01*
G01X21908308Y-3130405D01*
G01X21896878Y-3153265D01*
G01X21891036Y-3181713D01*
G01X21891036Y-3204573D01*
G01X21896878Y-3233275D01*
G01X21908308Y-3256135D01*
G01X21919738Y-3273153D01*
G01X21931168Y-3284583D01*
G01X21978920Y-3124563D02*
G01X21978920Y-3244705D01*
G01X21978920Y-3124563D02*
G01X22024640Y-3244705D01*
G01X22070360Y-3124563D02*
G01X22024640Y-3244705D01*
G01X22070360Y-3124563D02*
G01X22070360Y-3244705D01*
G01X22118112Y-3124563D02*
G01X22123954Y-3130405D01*
G01X22129542Y-3124563D01*
G01X22123954Y-3118975D01*
G01X22118112Y-3124563D01*
G01X22123954Y-3164695D02*
G01X22123954Y-3244705D01*
G01X22177294Y-3164695D02*
G01X22240286Y-3244705D01*
G01X22240286Y-3164695D02*
G01X22177294Y-3244705D01*
G01X22288038Y-3198985D02*
G01X22356618Y-3198985D01*
G01X22356618Y-3187555D01*
G01X22351030Y-3176125D01*
G01X22345188Y-3170283D01*
G01X22333758Y-3164695D01*
G01X22316740Y-3164695D01*
G01X22305310Y-3170283D01*
G01X22293880Y-3181713D01*
G01X22288038Y-3198985D01*
G01X22288038Y-3210415D01*
G01X22293880Y-3227433D01*
G01X22305310Y-3238863D01*
G01X22316740Y-3244705D01*
G01X22333758Y-3244705D01*
G01X22345188Y-3238863D01*
G01X22356618Y-3227433D01*
G01X22472950Y-3124563D02*
G01X22472950Y-3244705D01*
G01X22472950Y-3181713D02*
G01X22461520Y-3170283D01*
G01X22450090Y-3164695D01*
G01X22433072Y-3164695D01*
G01X22421642Y-3170283D01*
G01X22410212Y-3181713D01*
G01X22404370Y-3198985D01*
G01X22404370Y-3210415D01*
G01X22410212Y-3227433D01*
G01X22421642Y-3238863D01*
G01X22433072Y-3244705D01*
G01X22450090Y-3244705D01*
G01X22461520Y-3238863D01*
G01X22472950Y-3227433D01*
G01X22520702Y-3101703D02*
G01X22532132Y-3113133D01*
G01X22543562Y-3130405D01*
G01X22554992Y-3153265D01*
G01X22560834Y-3181713D01*
G01X22560834Y-3204573D01*
G01X22554992Y-3233275D01*
G01X22543562Y-3256135D01*
G01X22532132Y-3273153D01*
G01X22520702Y-3284583D01*
G01X23850537Y-3124563D02*
G01X23850537Y-3244705D01*
G01X23810405Y-3124563D02*
G01X23890415Y-3124563D01*
G01X23966869Y-3164695D02*
G01X23955439Y-3170283D01*
G01X23944009Y-3181713D01*
G01X23938167Y-3198985D01*
G01X23938167Y-3210415D01*
G01X23944009Y-3227433D01*
G01X23955439Y-3238863D01*
G01X23966869Y-3244705D01*
G01X23983887Y-3244705D01*
G01X23995317Y-3238863D01*
G01X24006747Y-3227433D01*
G01X24012589Y-3210415D01*
G01X24012589Y-3198985D01*
G01X24006747Y-3181713D01*
G01X23995317Y-3170283D01*
G01X23983887Y-3164695D01*
G01X23966869Y-3164695D01*
G01X24060341Y-3164695D02*
G01X24060341Y-3284583D01*
G01X24060341Y-3181713D02*
G01X24071771Y-3170283D01*
G01X24083201Y-3164695D01*
G01X24100473Y-3164695D01*
G01X24111903Y-3170283D01*
G01X24123333Y-3181713D01*
G01X24128921Y-3198985D01*
G01X24128921Y-3210415D01*
G01X24123333Y-3227433D01*
G01X24111903Y-3238863D01*
G01X24100473Y-3244705D01*
G01X24083201Y-3244705D01*
G01X24071771Y-3238863D01*
G01X24060341Y-3227433D01*
G01X24304689Y-3124563D02*
G01X24304689Y-3244705D01*
G01X24304689Y-3244705D02*
G01X24373269Y-3244705D01*
G01X24489601Y-3164695D02*
G01X24489601Y-3244705D01*
G01X24489601Y-3181713D02*
G01X24478171Y-3170283D01*
G01X24466741Y-3164695D01*
G01X24449723Y-3164695D01*
G01X24438293Y-3170283D01*
G01X24426863Y-3181713D01*
G01X24421021Y-3198985D01*
G01X24421021Y-3210415D01*
G01X24426863Y-3227433D01*
G01X24438293Y-3238863D01*
G01X24449723Y-3244705D01*
G01X24466741Y-3244705D01*
G01X24478171Y-3238863D01*
G01X24489601Y-3227433D01*
G01X24543195Y-3164695D02*
G01X24577485Y-3244705D01*
G01X24611775Y-3164695D02*
G01X24577485Y-3244705D01*
G01X24566055Y-3267565D01*
G01X24554625Y-3278995D01*
G01X24543195Y-3284583D01*
G01X24537353Y-3284583D01*
G01X24659527Y-3198985D02*
G01X24728107Y-3198985D01*
G01X24728107Y-3187555D01*
G01X24722519Y-3176125D01*
G01X24716677Y-3170283D01*
G01X24705247Y-3164695D01*
G01X24688229Y-3164695D01*
G01X24676799Y-3170283D01*
G01X24665369Y-3181713D01*
G01X24659527Y-3198985D01*
G01X24659527Y-3210415D01*
G01X24665369Y-3227433D01*
G01X24676799Y-3238863D01*
G01X24688229Y-3244705D01*
G01X24705247Y-3244705D01*
G01X24716677Y-3238863D01*
G01X24728107Y-3227433D01*
G01X24775859Y-3164695D02*
G01X24775859Y-3244705D01*
G01X24775859Y-3198985D02*
G01X24781701Y-3181713D01*
G01X24793131Y-3170283D01*
G01X24804561Y-3164695D01*
G01X24821579Y-3164695D01*
G01X24869331Y-3193143D02*
G01X24972201Y-3193143D01*
G01X25019953Y-3124563D02*
G01X25019953Y-3244705D01*
G01X25019953Y-3124563D02*
G01X25071515Y-3124563D01*
G01X25088533Y-3130405D01*
G01X25094375Y-3135993D01*
G01X25099963Y-3147423D01*
G01X25099963Y-3158853D01*
G01X25094375Y-3170283D01*
G01X25088533Y-3176125D01*
G01X25071515Y-3181713D01*
G01X25019953Y-3181713D02*
G01X25071515Y-3181713D01*
G01X25088533Y-3187555D01*
G01X25094375Y-3193143D01*
G01X25099963Y-3204573D01*
G01X25099963Y-3221845D01*
G01X25094375Y-3233275D01*
G01X25088533Y-3238863D01*
G01X25071515Y-3244705D01*
G01X25019953Y-3244705D01*
G01X25176417Y-3164695D02*
G01X25164987Y-3170283D01*
G01X25153557Y-3181713D01*
G01X25147715Y-3198985D01*
G01X25147715Y-3210415D01*
G01X25153557Y-3227433D01*
G01X25164987Y-3238863D01*
G01X25176417Y-3244705D01*
G01X25193435Y-3244705D01*
G01X25204865Y-3238863D01*
G01X25216295Y-3227433D01*
G01X25222137Y-3210415D01*
G01X25222137Y-3198985D01*
G01X25216295Y-3181713D01*
G01X25204865Y-3170283D01*
G01X25193435Y-3164695D01*
G01X25176417Y-3164695D01*
G01X25287161Y-3124563D02*
G01X25287161Y-3221845D01*
G01X25292749Y-3238863D01*
G01X25304179Y-3244705D01*
G01X25315609Y-3244705D01*
G01X25269889Y-3164695D02*
G01X25310021Y-3164695D01*
G01X25380633Y-3124563D02*
G01X25380633Y-3221845D01*
G01X25386221Y-3238863D01*
G01X25397651Y-3244705D01*
G01X25409081Y-3244705D01*
G01X25363361Y-3164695D02*
G01X25403493Y-3164695D01*
G01X25485535Y-3164695D02*
G01X25474105Y-3170283D01*
G01X25462675Y-3181713D01*
G01X25456833Y-3198985D01*
G01X25456833Y-3210415D01*
G01X25462675Y-3227433D01*
G01X25474105Y-3238863D01*
G01X25485535Y-3244705D01*
G01X25502553Y-3244705D01*
G01X25513983Y-3238863D01*
G01X25525413Y-3227433D01*
G01X25531255Y-3210415D01*
G01X25531255Y-3198985D01*
G01X25525413Y-3181713D01*
G01X25513983Y-3170283D01*
G01X25502553Y-3164695D01*
G01X25485535Y-3164695D01*
G01X25579007Y-3164695D02*
G01X25579007Y-3244705D01*
G01X25579007Y-3187555D02*
G01X25596279Y-3170283D01*
G01X25607709Y-3164695D01*
G01X25624727Y-3164695D01*
G01X25636157Y-3170283D01*
G01X25641999Y-3187555D01*
G01X25641999Y-3244705D01*
G01X25641999Y-3187555D02*
G01X25659017Y-3170283D01*
G01X25670447Y-3164695D01*
G01X25687719Y-3164695D01*
G01X25699149Y-3170283D01*
G01X25704737Y-3187555D01*
G01X25704737Y-3244705D01*
G01X25880505Y-3124563D02*
G01X25880505Y-3244705D01*
G01X25880505Y-3244705D02*
G01X25949085Y-3244705D01*
G01X26065417Y-3164695D02*
G01X26065417Y-3244705D01*
G01X26065417Y-3181713D02*
G01X26053987Y-3170283D01*
G01X26042557Y-3164695D01*
G01X26025539Y-3164695D01*
G01X26014109Y-3170283D01*
G01X26002679Y-3181713D01*
G01X25996837Y-3198985D01*
G01X25996837Y-3210415D01*
G01X26002679Y-3227433D01*
G01X26014109Y-3238863D01*
G01X26025539Y-3244705D01*
G01X26042557Y-3244705D01*
G01X26053987Y-3238863D01*
G01X26065417Y-3227433D01*
G01X26119011Y-3164695D02*
G01X26153301Y-3244705D01*
G01X26187591Y-3164695D02*
G01X26153301Y-3244705D01*
G01X26141871Y-3267565D01*
G01X26130441Y-3278995D01*
G01X26119011Y-3284583D01*
G01X26113169Y-3284583D01*
G01X26235343Y-3198985D02*
G01X26303923Y-3198985D01*
G01X26303923Y-3187555D01*
G01X26298335Y-3176125D01*
G01X26292493Y-3170283D01*
G01X26281063Y-3164695D01*
G01X26264045Y-3164695D01*
G01X26252615Y-3170283D01*
G01X26241185Y-3181713D01*
G01X26235343Y-3198985D01*
G01X26235343Y-3210415D01*
G01X26241185Y-3227433D01*
G01X26252615Y-3238863D01*
G01X26264045Y-3244705D01*
G01X26281063Y-3244705D01*
G01X26292493Y-3238863D01*
G01X26303923Y-3227433D01*
G01X26351675Y-3164695D02*
G01X26351675Y-3244705D01*
G01X26351675Y-3198985D02*
G01X26357517Y-3181713D01*
G01X26368947Y-3170283D01*
G01X26380377Y-3164695D01*
G01X26397395Y-3164695D01*
G01X12133154Y-3705134D02*
G01X12076004Y-3705134D01*
G01X12070416Y-3756696D01*
G01X12076004Y-3750854D01*
G01X12093276Y-3745266D01*
G01X12110294Y-3745266D01*
G01X12127566Y-3750854D01*
G01X12138996Y-3762284D01*
G01X12144584Y-3779556D01*
G01X12144584Y-3790986D01*
G01X12138996Y-3808004D01*
G01X12127566Y-3819434D01*
G01X12110294Y-3825276D01*
G01X12093276Y-3825276D01*
G01X12076004Y-3819434D01*
G01X12070416Y-3813846D01*
G01X12064574Y-3802416D01*
G01X13535887Y-3705134D02*
G01X13478737Y-3785144D01*
G01X13564589Y-3785144D01*
G01X13535887Y-3705134D02*
G01X13535887Y-3825276D01*
G01X13692351Y-3705134D02*
G01X13635201Y-3825276D01*
G01X13612341Y-3705134D02*
G01X13692351Y-3705134D01*
G01X13745945Y-3796574D02*
G01X13740103Y-3802416D01*
G01X13745945Y-3808004D01*
G01X13751533Y-3802416D01*
G01X13745945Y-3796574D01*
G01X13805127Y-3733836D02*
G01X13805127Y-3727994D01*
G01X13810715Y-3716564D01*
G01X13816557Y-3710976D01*
G01X13827987Y-3705134D01*
G01X13850847Y-3705134D01*
G01X13862277Y-3710976D01*
G01X13867865Y-3716564D01*
G01X13873707Y-3727994D01*
G01X13873707Y-3739424D01*
G01X13867865Y-3750854D01*
G01X13856435Y-3768126D01*
G01X13799285Y-3825276D01*
G01X13879295Y-3825276D01*
G01X13927047Y-3745266D02*
G01X13990039Y-3825276D01*
G01X13990039Y-3745266D02*
G01X13927047Y-3825276D01*
G01X14094941Y-3705134D02*
G01X14037791Y-3785144D01*
G01X14123643Y-3785144D01*
G01X14094941Y-3705134D02*
G01X14094941Y-3825276D01*
G01X14251405Y-3705134D02*
G01X14194255Y-3825276D01*
G01X14171395Y-3705134D02*
G01X14251405Y-3705134D01*
G01X14304999Y-3796574D02*
G01X14299157Y-3802416D01*
G01X14304999Y-3808004D01*
G01X14310587Y-3802416D01*
G01X14304999Y-3796574D01*
G01X14364181Y-3733836D02*
G01X14364181Y-3727994D01*
G01X14369769Y-3716564D01*
G01X14375611Y-3710976D01*
G01X14387041Y-3705134D01*
G01X14409901Y-3705134D01*
G01X14421331Y-3710976D01*
G01X14426919Y-3716564D01*
G01X14432761Y-3727994D01*
G01X14432761Y-3739424D01*
G01X14426919Y-3750854D01*
G01X14415489Y-3768126D01*
G01X14358339Y-3825276D01*
G01X14438349Y-3825276D01*
G01X14486101Y-3745266D02*
G01X14486101Y-3825276D01*
G01X14486101Y-3768126D02*
G01X14503373Y-3750854D01*
G01X14514803Y-3745266D01*
G01X14531821Y-3745266D01*
G01X14543251Y-3750854D01*
G01X14549093Y-3768126D01*
G01X14549093Y-3825276D01*
G01X14549093Y-3768126D02*
G01X14566111Y-3750854D01*
G01X14577541Y-3745266D01*
G01X14594813Y-3745266D01*
G01X14606243Y-3750854D01*
G01X14611831Y-3768126D01*
G01X14611831Y-3825276D01*
G01X14659583Y-3705134D02*
G01X14665425Y-3710976D01*
G01X14671013Y-3705134D01*
G01X14665425Y-3699546D01*
G01X14659583Y-3705134D01*
G01X14665425Y-3745266D02*
G01X14665425Y-3825276D01*
G01X14718765Y-3705134D02*
G01X14718765Y-3825276D01*
G01X14806649Y-3682274D02*
G01X14795219Y-3693704D01*
G01X14783789Y-3710976D01*
G01X14772359Y-3733836D01*
G01X14766517Y-3762284D01*
G01X14766517Y-3785144D01*
G01X14772359Y-3813846D01*
G01X14783789Y-3836706D01*
G01X14795219Y-3853724D01*
G01X14806649Y-3865154D01*
G01X14854401Y-3727994D02*
G01X14865831Y-3722406D01*
G01X14883103Y-3705134D01*
G01X14883103Y-3825276D01*
G01X14936697Y-3796574D02*
G01X14930855Y-3802416D01*
G01X14936697Y-3808004D01*
G01X14942285Y-3802416D01*
G01X14936697Y-3796574D01*
G01X14995879Y-3733836D02*
G01X14995879Y-3727994D01*
G01X15001467Y-3716564D01*
G01X15007309Y-3710976D01*
G01X15018739Y-3705134D01*
G01X15041599Y-3705134D01*
G01X15053029Y-3710976D01*
G01X15058617Y-3716564D01*
G01X15064459Y-3727994D01*
G01X15064459Y-3739424D01*
G01X15058617Y-3750854D01*
G01X15047187Y-3768126D01*
G01X14990037Y-3825276D01*
G01X15070047Y-3825276D01*
G01X15152089Y-3705134D02*
G01X15135071Y-3710976D01*
G01X15123641Y-3727994D01*
G01X15117799Y-3756696D01*
G01X15117799Y-3773714D01*
G01X15123641Y-3802416D01*
G01X15135071Y-3819434D01*
G01X15152089Y-3825276D01*
G01X15163519Y-3825276D01*
G01X15180791Y-3819434D01*
G01X15192221Y-3802416D01*
G01X15197809Y-3773714D01*
G01X15197809Y-3756696D01*
G01X15192221Y-3727994D01*
G01X15180791Y-3710976D01*
G01X15163519Y-3705134D01*
G01X15152089Y-3705134D01*
G01X15279851Y-3705134D02*
G01X15262833Y-3710976D01*
G01X15251403Y-3727994D01*
G01X15245561Y-3756696D01*
G01X15245561Y-3773714D01*
G01X15251403Y-3802416D01*
G01X15262833Y-3819434D01*
G01X15279851Y-3825276D01*
G01X15291281Y-3825276D01*
G01X15308553Y-3819434D01*
G01X15319983Y-3802416D01*
G01X15325571Y-3773714D01*
G01X15325571Y-3756696D01*
G01X15319983Y-3727994D01*
G01X15308553Y-3710976D01*
G01X15291281Y-3705134D01*
G01X15279851Y-3705134D01*
G01X15373323Y-3745266D02*
G01X15436315Y-3825276D01*
G01X15436315Y-3745266D02*
G01X15373323Y-3825276D01*
G01X15484067Y-3727994D02*
G01X15495497Y-3722406D01*
G01X15512769Y-3705134D01*
G01X15512769Y-3825276D01*
G01X15566363Y-3796574D02*
G01X15560521Y-3802416D01*
G01X15566363Y-3808004D01*
G01X15571951Y-3802416D01*
G01X15566363Y-3796574D01*
G01X15625545Y-3733836D02*
G01X15625545Y-3727994D01*
G01X15631133Y-3716564D01*
G01X15636975Y-3710976D01*
G01X15648405Y-3705134D01*
G01X15671265Y-3705134D01*
G01X15682695Y-3710976D01*
G01X15688283Y-3716564D01*
G01X15694125Y-3727994D01*
G01X15694125Y-3739424D01*
G01X15688283Y-3750854D01*
G01X15676853Y-3768126D01*
G01X15619703Y-3825276D01*
G01X15699713Y-3825276D01*
G01X15781755Y-3705134D02*
G01X15764737Y-3710976D01*
G01X15753307Y-3727994D01*
G01X15747465Y-3756696D01*
G01X15747465Y-3773714D01*
G01X15753307Y-3802416D01*
G01X15764737Y-3819434D01*
G01X15781755Y-3825276D01*
G01X15793185Y-3825276D01*
G01X15810457Y-3819434D01*
G01X15821887Y-3802416D01*
G01X15827475Y-3773714D01*
G01X15827475Y-3756696D01*
G01X15821887Y-3727994D01*
G01X15810457Y-3710976D01*
G01X15793185Y-3705134D01*
G01X15781755Y-3705134D01*
G01X15909517Y-3705134D02*
G01X15892499Y-3710976D01*
G01X15881069Y-3727994D01*
G01X15875227Y-3756696D01*
G01X15875227Y-3773714D01*
G01X15881069Y-3802416D01*
G01X15892499Y-3819434D01*
G01X15909517Y-3825276D01*
G01X15920947Y-3825276D01*
G01X15938219Y-3819434D01*
G01X15949649Y-3802416D01*
G01X15955237Y-3773714D01*
G01X15955237Y-3756696D01*
G01X15949649Y-3727994D01*
G01X15938219Y-3710976D01*
G01X15920947Y-3705134D01*
G01X15909517Y-3705134D01*
G01X16002989Y-3745266D02*
G01X16002989Y-3825276D01*
G01X16002989Y-3768126D02*
G01X16020261Y-3750854D01*
G01X16031691Y-3745266D01*
G01X16048709Y-3745266D01*
G01X16060139Y-3750854D01*
G01X16065981Y-3768126D01*
G01X16065981Y-3825276D01*
G01X16065981Y-3768126D02*
G01X16082999Y-3750854D01*
G01X16094429Y-3745266D01*
G01X16111701Y-3745266D01*
G01X16123131Y-3750854D01*
G01X16128719Y-3768126D01*
G01X16128719Y-3825276D01*
G01X16176471Y-3745266D02*
G01X16176471Y-3825276D01*
G01X16176471Y-3768126D02*
G01X16193743Y-3750854D01*
G01X16205173Y-3745266D01*
G01X16222191Y-3745266D01*
G01X16233621Y-3750854D01*
G01X16239463Y-3768126D01*
G01X16239463Y-3825276D01*
G01X16239463Y-3768126D02*
G01X16256481Y-3750854D01*
G01X16267911Y-3745266D01*
G01X16285183Y-3745266D01*
G01X16296613Y-3750854D01*
G01X16302201Y-3768126D01*
G01X16302201Y-3825276D01*
G01X16349953Y-3682274D02*
G01X16361383Y-3693704D01*
G01X16372813Y-3710976D01*
G01X16384243Y-3733836D01*
G01X16390085Y-3762284D01*
G01X16390085Y-3785144D01*
G01X16384243Y-3813846D01*
G01X16372813Y-3836706D01*
G01X16361383Y-3853724D01*
G01X16349953Y-3865154D01*
G01X17329268Y-3705134D02*
G01X17329268Y-3825276D01*
G01X17329268Y-3705134D02*
G01X17380830Y-3705134D01*
G01X17397848Y-3710976D01*
G01X17403690Y-3716564D01*
G01X17409278Y-3727994D01*
G01X17409278Y-3745266D01*
G01X17403690Y-3756696D01*
G01X17397848Y-3762284D01*
G01X17380830Y-3768126D01*
G01X17329268Y-3768126D01*
G01X17497162Y-3705134D02*
G01X17497162Y-3825276D01*
G01X17457030Y-3705134D02*
G01X17537040Y-3705134D01*
G01X17584792Y-3705134D02*
G01X17584792Y-3825276D01*
G01X17664802Y-3705134D02*
G01X17664802Y-3825276D01*
G01X17584792Y-3762284D02*
G01X17664802Y-3762284D01*
G01X18790676Y-3705134D02*
G01X18790676Y-3825276D01*
G01X18790676Y-3705134D02*
G01X18842238Y-3705134D01*
G01X18859256Y-3710976D01*
G01X18865098Y-3716564D01*
G01X18870686Y-3727994D01*
G01X18870686Y-3739424D01*
G01X18865098Y-3750854D01*
G01X18859256Y-3756696D01*
G01X18842238Y-3762284D01*
G01X18790676Y-3762284D01*
G01X18830808Y-3762284D02*
G01X18870686Y-3825276D01*
G01X18947140Y-3745266D02*
G01X18935710Y-3750854D01*
G01X18924280Y-3762284D01*
G01X18918438Y-3779556D01*
G01X18918438Y-3790986D01*
G01X18924280Y-3808004D01*
G01X18935710Y-3819434D01*
G01X18947140Y-3825276D01*
G01X18964158Y-3825276D01*
G01X18975588Y-3819434D01*
G01X18987018Y-3808004D01*
G01X18992860Y-3790986D01*
G01X18992860Y-3779556D01*
G01X18987018Y-3762284D01*
G01X18975588Y-3750854D01*
G01X18964158Y-3745266D01*
G01X18947140Y-3745266D01*
G01X19040612Y-3745266D02*
G01X19040612Y-3802416D01*
G01X19046454Y-3819434D01*
G01X19057884Y-3825276D01*
G01X19074902Y-3825276D01*
G01X19086332Y-3819434D01*
G01X19103604Y-3802416D01*
G01X19103604Y-3745266D02*
G01X19103604Y-3825276D01*
G01X19151356Y-3745266D02*
G01X19151356Y-3825276D01*
G01X19151356Y-3768126D02*
G01X19168628Y-3750854D01*
G01X19180058Y-3745266D01*
G01X19197076Y-3745266D01*
G01X19208506Y-3750854D01*
G01X19214348Y-3768126D01*
G01X19214348Y-3825276D01*
G01X19330680Y-3705134D02*
G01X19330680Y-3825276D01*
G01X19330680Y-3762284D02*
G01X19319250Y-3750854D01*
G01X19307820Y-3745266D01*
G01X19290802Y-3745266D01*
G01X19279372Y-3750854D01*
G01X19267942Y-3762284D01*
G01X19262100Y-3779556D01*
G01X19262100Y-3790986D01*
G01X19267942Y-3808004D01*
G01X19279372Y-3819434D01*
G01X19290802Y-3825276D01*
G01X19307820Y-3825276D01*
G01X19319250Y-3819434D01*
G01X19330680Y-3808004D01*
G01X20221857Y-3705134D02*
G01X20221857Y-3825276D01*
G01X20221857Y-3705134D02*
G01X20273419Y-3705134D01*
G01X20290437Y-3710976D01*
G01X20296279Y-3716564D01*
G01X20301867Y-3727994D01*
G01X20301867Y-3745266D01*
G01X20296279Y-3756696D01*
G01X20290437Y-3762284D01*
G01X20273419Y-3768126D01*
G01X20221857Y-3768126D01*
G01X20418199Y-3745266D02*
G01X20418199Y-3825276D01*
G01X20418199Y-3762284D02*
G01X20406769Y-3750854D01*
G01X20395339Y-3745266D01*
G01X20378321Y-3745266D01*
G01X20366891Y-3750854D01*
G01X20355461Y-3762284D01*
G01X20349619Y-3779556D01*
G01X20349619Y-3790986D01*
G01X20355461Y-3808004D01*
G01X20366891Y-3819434D01*
G01X20378321Y-3825276D01*
G01X20395339Y-3825276D01*
G01X20406769Y-3819434D01*
G01X20418199Y-3808004D01*
G01X20534531Y-3705134D02*
G01X20534531Y-3825276D01*
G01X20534531Y-3762284D02*
G01X20523101Y-3750854D01*
G01X20511671Y-3745266D01*
G01X20494653Y-3745266D01*
G01X20483223Y-3750854D01*
G01X20471793Y-3762284D01*
G01X20465951Y-3779556D01*
G01X20465951Y-3790986D01*
G01X20471793Y-3808004D01*
G01X20483223Y-3819434D01*
G01X20494653Y-3825276D01*
G01X20511671Y-3825276D01*
G01X20523101Y-3819434D01*
G01X20534531Y-3808004D01*
G01X21891036Y-3705134D02*
G01X21891036Y-3825276D01*
G01X21891036Y-3705134D02*
G01X21942598Y-3705134D01*
G01X21959616Y-3710976D01*
G01X21965458Y-3716564D01*
G01X21971046Y-3727994D01*
G01X21971046Y-3739424D01*
G01X21965458Y-3750854D01*
G01X21959616Y-3756696D01*
G01X21942598Y-3762284D01*
G01X21891036Y-3762284D01*
G01X21931168Y-3762284D02*
G01X21971046Y-3825276D01*
G01X22047500Y-3745266D02*
G01X22036070Y-3750854D01*
G01X22024640Y-3762284D01*
G01X22018798Y-3779556D01*
G01X22018798Y-3790986D01*
G01X22024640Y-3808004D01*
G01X22036070Y-3819434D01*
G01X22047500Y-3825276D01*
G01X22064518Y-3825276D01*
G01X22075948Y-3819434D01*
G01X22087378Y-3808004D01*
G01X22093220Y-3790986D01*
G01X22093220Y-3779556D01*
G01X22087378Y-3762284D01*
G01X22075948Y-3750854D01*
G01X22064518Y-3745266D01*
G01X22047500Y-3745266D01*
G01X22140972Y-3745266D02*
G01X22140972Y-3802416D01*
G01X22146814Y-3819434D01*
G01X22158244Y-3825276D01*
G01X22175262Y-3825276D01*
G01X22186692Y-3819434D01*
G01X22203964Y-3802416D01*
G01X22203964Y-3745266D02*
G01X22203964Y-3825276D01*
G01X22251716Y-3745266D02*
G01X22251716Y-3825276D01*
G01X22251716Y-3768126D02*
G01X22268988Y-3750854D01*
G01X22280418Y-3745266D01*
G01X22297436Y-3745266D01*
G01X22308866Y-3750854D01*
G01X22314708Y-3768126D01*
G01X22314708Y-3825276D01*
G01X22431040Y-3705134D02*
G01X22431040Y-3825276D01*
G01X22431040Y-3762284D02*
G01X22419610Y-3750854D01*
G01X22408180Y-3745266D01*
G01X22391162Y-3745266D01*
G01X22379732Y-3750854D01*
G01X22368302Y-3762284D01*
G01X22362460Y-3779556D01*
G01X22362460Y-3790986D01*
G01X22368302Y-3808004D01*
G01X22379732Y-3819434D01*
G01X22391162Y-3825276D01*
G01X22408180Y-3825276D01*
G01X22419610Y-3819434D01*
G01X22431040Y-3808004D01*
G01X23850537Y-3705134D02*
G01X23850537Y-3825276D01*
G01X23810405Y-3705134D02*
G01X23890415Y-3705134D01*
G01X23966869Y-3745266D02*
G01X23955439Y-3750854D01*
G01X23944009Y-3762284D01*
G01X23938167Y-3779556D01*
G01X23938167Y-3790986D01*
G01X23944009Y-3808004D01*
G01X23955439Y-3819434D01*
G01X23966869Y-3825276D01*
G01X23983887Y-3825276D01*
G01X23995317Y-3819434D01*
G01X24006747Y-3808004D01*
G01X24012589Y-3790986D01*
G01X24012589Y-3779556D01*
G01X24006747Y-3762284D01*
G01X23995317Y-3750854D01*
G01X23983887Y-3745266D01*
G01X23966869Y-3745266D01*
G01X24060341Y-3745266D02*
G01X24060341Y-3865154D01*
G01X24060341Y-3762284D02*
G01X24071771Y-3750854D01*
G01X24083201Y-3745266D01*
G01X24100473Y-3745266D01*
G01X24111903Y-3750854D01*
G01X24123333Y-3762284D01*
G01X24128921Y-3779556D01*
G01X24128921Y-3790986D01*
G01X24123333Y-3808004D01*
G01X24111903Y-3819434D01*
G01X24100473Y-3825276D01*
G01X24083201Y-3825276D01*
G01X24071771Y-3819434D01*
G01X24060341Y-3808004D01*
G01X24304689Y-3705134D02*
G01X24304689Y-3825276D01*
G01X24304689Y-3825276D02*
G01X24373269Y-3825276D01*
G01X24489601Y-3745266D02*
G01X24489601Y-3825276D01*
G01X24489601Y-3762284D02*
G01X24478171Y-3750854D01*
G01X24466741Y-3745266D01*
G01X24449723Y-3745266D01*
G01X24438293Y-3750854D01*
G01X24426863Y-3762284D01*
G01X24421021Y-3779556D01*
G01X24421021Y-3790986D01*
G01X24426863Y-3808004D01*
G01X24438293Y-3819434D01*
G01X24449723Y-3825276D01*
G01X24466741Y-3825276D01*
G01X24478171Y-3819434D01*
G01X24489601Y-3808004D01*
G01X24543195Y-3745266D02*
G01X24577485Y-3825276D01*
G01X24611775Y-3745266D02*
G01X24577485Y-3825276D01*
G01X24566055Y-3848136D01*
G01X24554625Y-3859566D01*
G01X24543195Y-3865154D01*
G01X24537353Y-3865154D01*
G01X24659527Y-3779556D02*
G01X24728107Y-3779556D01*
G01X24728107Y-3768126D01*
G01X24722519Y-3756696D01*
G01X24716677Y-3750854D01*
G01X24705247Y-3745266D01*
G01X24688229Y-3745266D01*
G01X24676799Y-3750854D01*
G01X24665369Y-3762284D01*
G01X24659527Y-3779556D01*
G01X24659527Y-3790986D01*
G01X24665369Y-3808004D01*
G01X24676799Y-3819434D01*
G01X24688229Y-3825276D01*
G01X24705247Y-3825276D01*
G01X24716677Y-3819434D01*
G01X24728107Y-3808004D01*
G01X24775859Y-3745266D02*
G01X24775859Y-3825276D01*
G01X24775859Y-3779556D02*
G01X24781701Y-3762284D01*
G01X24793131Y-3750854D01*
G01X24804561Y-3745266D01*
G01X24821579Y-3745266D01*
G01X24869331Y-3773714D02*
G01X24972201Y-3773714D01*
G01X25019953Y-3705134D02*
G01X25019953Y-3825276D01*
G01X25019953Y-3705134D02*
G01X25071515Y-3705134D01*
G01X25088533Y-3710976D01*
G01X25094375Y-3716564D01*
G01X25099963Y-3727994D01*
G01X25099963Y-3739424D01*
G01X25094375Y-3750854D01*
G01X25088533Y-3756696D01*
G01X25071515Y-3762284D01*
G01X25019953Y-3762284D02*
G01X25071515Y-3762284D01*
G01X25088533Y-3768126D01*
G01X25094375Y-3773714D01*
G01X25099963Y-3785144D01*
G01X25099963Y-3802416D01*
G01X25094375Y-3813846D01*
G01X25088533Y-3819434D01*
G01X25071515Y-3825276D01*
G01X25019953Y-3825276D01*
G01X25176417Y-3745266D02*
G01X25164987Y-3750854D01*
G01X25153557Y-3762284D01*
G01X25147715Y-3779556D01*
G01X25147715Y-3790986D01*
G01X25153557Y-3808004D01*
G01X25164987Y-3819434D01*
G01X25176417Y-3825276D01*
G01X25193435Y-3825276D01*
G01X25204865Y-3819434D01*
G01X25216295Y-3808004D01*
G01X25222137Y-3790986D01*
G01X25222137Y-3779556D01*
G01X25216295Y-3762284D01*
G01X25204865Y-3750854D01*
G01X25193435Y-3745266D01*
G01X25176417Y-3745266D01*
G01X25287161Y-3705134D02*
G01X25287161Y-3802416D01*
G01X25292749Y-3819434D01*
G01X25304179Y-3825276D01*
G01X25315609Y-3825276D01*
G01X25269889Y-3745266D02*
G01X25310021Y-3745266D01*
G01X25380633Y-3705134D02*
G01X25380633Y-3802416D01*
G01X25386221Y-3819434D01*
G01X25397651Y-3825276D01*
G01X25409081Y-3825276D01*
G01X25363361Y-3745266D02*
G01X25403493Y-3745266D01*
G01X25485535Y-3745266D02*
G01X25474105Y-3750854D01*
G01X25462675Y-3762284D01*
G01X25456833Y-3779556D01*
G01X25456833Y-3790986D01*
G01X25462675Y-3808004D01*
G01X25474105Y-3819434D01*
G01X25485535Y-3825276D01*
G01X25502553Y-3825276D01*
G01X25513983Y-3819434D01*
G01X25525413Y-3808004D01*
G01X25531255Y-3790986D01*
G01X25531255Y-3779556D01*
G01X25525413Y-3762284D01*
G01X25513983Y-3750854D01*
G01X25502553Y-3745266D01*
G01X25485535Y-3745266D01*
G01X25579007Y-3745266D02*
G01X25579007Y-3825276D01*
G01X25579007Y-3768126D02*
G01X25596279Y-3750854D01*
G01X25607709Y-3745266D01*
G01X25624727Y-3745266D01*
G01X25636157Y-3750854D01*
G01X25641999Y-3768126D01*
G01X25641999Y-3825276D01*
G01X25641999Y-3768126D02*
G01X25659017Y-3750854D01*
G01X25670447Y-3745266D01*
G01X25687719Y-3745266D01*
G01X25699149Y-3750854D01*
G01X25704737Y-3768126D01*
G01X25704737Y-3825276D01*
G01X25880505Y-3705134D02*
G01X25880505Y-3825276D01*
G01X25880505Y-3825276D02*
G01X25949085Y-3825276D01*
G01X26065417Y-3745266D02*
G01X26065417Y-3825276D01*
G01X26065417Y-3762284D02*
G01X26053987Y-3750854D01*
G01X26042557Y-3745266D01*
G01X26025539Y-3745266D01*
G01X26014109Y-3750854D01*
G01X26002679Y-3762284D01*
G01X25996837Y-3779556D01*
G01X25996837Y-3790986D01*
G01X26002679Y-3808004D01*
G01X26014109Y-3819434D01*
G01X26025539Y-3825276D01*
G01X26042557Y-3825276D01*
G01X26053987Y-3819434D01*
G01X26065417Y-3808004D01*
G01X26119011Y-3745266D02*
G01X26153301Y-3825276D01*
G01X26187591Y-3745266D02*
G01X26153301Y-3825276D01*
G01X26141871Y-3848136D01*
G01X26130441Y-3859566D01*
G01X26119011Y-3865154D01*
G01X26113169Y-3865154D01*
G01X26235343Y-3779556D02*
G01X26303923Y-3779556D01*
G01X26303923Y-3768126D01*
G01X26298335Y-3756696D01*
G01X26292493Y-3750854D01*
G01X26281063Y-3745266D01*
G01X26264045Y-3745266D01*
G01X26252615Y-3750854D01*
G01X26241185Y-3762284D01*
G01X26235343Y-3779556D01*
G01X26235343Y-3790986D01*
G01X26241185Y-3808004D01*
G01X26252615Y-3819434D01*
G01X26264045Y-3825276D01*
G01X26281063Y-3825276D01*
G01X26292493Y-3819434D01*
G01X26303923Y-3808004D01*
G01X26351675Y-3745266D02*
G01X26351675Y-3825276D01*
G01X26351675Y-3779556D02*
G01X26357517Y-3762284D01*
G01X26368947Y-3750854D01*
G01X26380377Y-3745266D01*
G01X26397395Y-3745266D01*
G01X12064574Y-4308566D02*
G01X12076004Y-4302978D01*
G01X12093276Y-4285706D01*
G01X12093276Y-4405848D01*
G01X12146870Y-4314408D02*
G01X12146870Y-4308566D01*
G01X12152458Y-4297136D01*
G01X12158300Y-4291548D01*
G01X12169730Y-4285706D01*
G01X12192590Y-4285706D01*
G01X12204020Y-4291548D01*
G01X12209608Y-4297136D01*
G01X12215450Y-4308566D01*
G01X12215450Y-4319996D01*
G01X12209608Y-4331426D01*
G01X12198178Y-4348698D01*
G01X12141028Y-4405848D01*
G01X12221038Y-4405848D01*
G01X13490167Y-4285706D02*
G01X13553159Y-4285706D01*
G01X13518869Y-4331426D01*
G01X13535887Y-4331426D01*
G01X13547317Y-4337268D01*
G01X13553159Y-4342856D01*
G01X13558747Y-4360128D01*
G01X13558747Y-4371558D01*
G01X13553159Y-4388576D01*
G01X13541729Y-4400006D01*
G01X13524457Y-4405848D01*
G01X13507439Y-4405848D01*
G01X13490167Y-4400006D01*
G01X13484579Y-4394418D01*
G01X13478737Y-4382988D01*
G01X13680921Y-4325838D02*
G01X13675079Y-4342856D01*
G01X13663649Y-4354286D01*
G01X13646631Y-4360128D01*
G01X13640789Y-4360128D01*
G01X13623771Y-4354286D01*
G01X13612341Y-4342856D01*
G01X13606499Y-4325838D01*
G01X13606499Y-4319996D01*
G01X13612341Y-4302978D01*
G01X13623771Y-4291548D01*
G01X13640789Y-4285706D01*
G01X13646631Y-4285706D01*
G01X13663649Y-4291548D01*
G01X13675079Y-4302978D01*
G01X13680921Y-4325838D01*
G01X13680921Y-4354286D01*
G01X13675079Y-4382988D01*
G01X13663649Y-4400006D01*
G01X13646631Y-4405848D01*
G01X13635201Y-4405848D01*
G01X13617929Y-4400006D01*
G01X13612341Y-4388576D01*
G01X13734515Y-4377146D02*
G01X13728673Y-4382988D01*
G01X13734515Y-4388576D01*
G01X13740103Y-4382988D01*
G01X13734515Y-4377146D01*
G01X13845005Y-4285706D02*
G01X13787855Y-4365716D01*
G01X13873707Y-4365716D01*
G01X13845005Y-4285706D02*
G01X13845005Y-4405848D01*
G01X13921459Y-4325838D02*
G01X13984451Y-4405848D01*
G01X13984451Y-4325838D02*
G01X13921459Y-4405848D01*
G01X14043633Y-4285706D02*
G01X14106625Y-4285706D01*
G01X14072335Y-4331426D01*
G01X14089353Y-4331426D01*
G01X14100783Y-4337268D01*
G01X14106625Y-4342856D01*
G01X14112213Y-4360128D01*
G01X14112213Y-4371558D01*
G01X14106625Y-4388576D01*
G01X14095195Y-4400006D01*
G01X14077923Y-4405848D01*
G01X14060905Y-4405848D01*
G01X14043633Y-4400006D01*
G01X14038045Y-4394418D01*
G01X14032203Y-4382988D01*
G01X14234387Y-4325838D02*
G01X14228545Y-4342856D01*
G01X14217115Y-4354286D01*
G01X14200097Y-4360128D01*
G01X14194255Y-4360128D01*
G01X14177237Y-4354286D01*
G01X14165807Y-4342856D01*
G01X14159965Y-4325838D01*
G01X14159965Y-4319996D01*
G01X14165807Y-4302978D01*
G01X14177237Y-4291548D01*
G01X14194255Y-4285706D01*
G01X14200097Y-4285706D01*
G01X14217115Y-4291548D01*
G01X14228545Y-4302978D01*
G01X14234387Y-4325838D01*
G01X14234387Y-4354286D01*
G01X14228545Y-4382988D01*
G01X14217115Y-4400006D01*
G01X14200097Y-4405848D01*
G01X14188667Y-4405848D01*
G01X14171395Y-4400006D01*
G01X14165807Y-4388576D01*
G01X14287981Y-4377146D02*
G01X14282139Y-4382988D01*
G01X14287981Y-4388576D01*
G01X14293569Y-4382988D01*
G01X14287981Y-4377146D01*
G01X14398471Y-4285706D02*
G01X14341321Y-4365716D01*
G01X14427173Y-4365716D01*
G01X14398471Y-4285706D02*
G01X14398471Y-4405848D01*
G01X14474925Y-4325838D02*
G01X14474925Y-4405848D01*
G01X14474925Y-4348698D02*
G01X14492197Y-4331426D01*
G01X14503627Y-4325838D01*
G01X14520645Y-4325838D01*
G01X14532075Y-4331426D01*
G01X14537917Y-4348698D01*
G01X14537917Y-4405848D01*
G01X14537917Y-4348698D02*
G01X14554935Y-4331426D01*
G01X14566365Y-4325838D01*
G01X14583637Y-4325838D01*
G01X14595067Y-4331426D01*
G01X14600655Y-4348698D01*
G01X14600655Y-4405848D01*
G01X14648407Y-4285706D02*
G01X14654249Y-4291548D01*
G01X14659837Y-4285706D01*
G01X14654249Y-4280118D01*
G01X14648407Y-4285706D01*
G01X14654249Y-4325838D02*
G01X14654249Y-4405848D01*
G01X14707589Y-4285706D02*
G01X14707589Y-4405848D01*
G01X14795473Y-4262846D02*
G01X14784043Y-4274276D01*
G01X14772613Y-4291548D01*
G01X14761183Y-4314408D01*
G01X14755341Y-4342856D01*
G01X14755341Y-4365716D01*
G01X14761183Y-4394418D01*
G01X14772613Y-4417278D01*
G01X14784043Y-4434296D01*
G01X14795473Y-4445726D01*
G01X14843225Y-4308566D02*
G01X14854655Y-4302978D01*
G01X14871927Y-4285706D01*
G01X14871927Y-4405848D01*
G01X14925521Y-4377146D02*
G01X14919679Y-4382988D01*
G01X14925521Y-4388576D01*
G01X14931109Y-4382988D01*
G01X14925521Y-4377146D01*
G01X15013151Y-4285706D02*
G01X14996133Y-4291548D01*
G01X14984703Y-4308566D01*
G01X14978861Y-4337268D01*
G01X14978861Y-4354286D01*
G01X14984703Y-4382988D01*
G01X14996133Y-4400006D01*
G01X15013151Y-4405848D01*
G01X15024581Y-4405848D01*
G01X15041853Y-4400006D01*
G01X15053283Y-4382988D01*
G01X15058871Y-4354286D01*
G01X15058871Y-4337268D01*
G01X15053283Y-4308566D01*
G01X15041853Y-4291548D01*
G01X15024581Y-4285706D01*
G01X15013151Y-4285706D01*
G01X15140913Y-4285706D02*
G01X15123895Y-4291548D01*
G01X15112465Y-4308566D01*
G01X15106623Y-4337268D01*
G01X15106623Y-4354286D01*
G01X15112465Y-4382988D01*
G01X15123895Y-4400006D01*
G01X15140913Y-4405848D01*
G01X15152343Y-4405848D01*
G01X15169615Y-4400006D01*
G01X15181045Y-4382988D01*
G01X15186633Y-4354286D01*
G01X15186633Y-4337268D01*
G01X15181045Y-4308566D01*
G01X15169615Y-4291548D01*
G01X15152343Y-4285706D01*
G01X15140913Y-4285706D01*
G01X15268675Y-4285706D02*
G01X15251657Y-4291548D01*
G01X15240227Y-4308566D01*
G01X15234385Y-4337268D01*
G01X15234385Y-4354286D01*
G01X15240227Y-4382988D01*
G01X15251657Y-4400006D01*
G01X15268675Y-4405848D01*
G01X15280105Y-4405848D01*
G01X15297377Y-4400006D01*
G01X15308807Y-4382988D01*
G01X15314395Y-4354286D01*
G01X15314395Y-4337268D01*
G01X15308807Y-4308566D01*
G01X15297377Y-4291548D01*
G01X15280105Y-4285706D01*
G01X15268675Y-4285706D01*
G01X15362147Y-4325838D02*
G01X15425139Y-4405848D01*
G01X15425139Y-4325838D02*
G01X15362147Y-4405848D01*
G01X15472891Y-4308566D02*
G01X15484321Y-4302978D01*
G01X15501593Y-4285706D01*
G01X15501593Y-4405848D01*
G01X15555187Y-4377146D02*
G01X15549345Y-4382988D01*
G01X15555187Y-4388576D01*
G01X15560775Y-4382988D01*
G01X15555187Y-4377146D01*
G01X15642817Y-4285706D02*
G01X15625799Y-4291548D01*
G01X15614369Y-4308566D01*
G01X15608527Y-4337268D01*
G01X15608527Y-4354286D01*
G01X15614369Y-4382988D01*
G01X15625799Y-4400006D01*
G01X15642817Y-4405848D01*
G01X15654247Y-4405848D01*
G01X15671519Y-4400006D01*
G01X15682949Y-4382988D01*
G01X15688537Y-4354286D01*
G01X15688537Y-4337268D01*
G01X15682949Y-4308566D01*
G01X15671519Y-4291548D01*
G01X15654247Y-4285706D01*
G01X15642817Y-4285706D01*
G01X15770579Y-4285706D02*
G01X15753561Y-4291548D01*
G01X15742131Y-4308566D01*
G01X15736289Y-4337268D01*
G01X15736289Y-4354286D01*
G01X15742131Y-4382988D01*
G01X15753561Y-4400006D01*
G01X15770579Y-4405848D01*
G01X15782009Y-4405848D01*
G01X15799281Y-4400006D01*
G01X15810711Y-4382988D01*
G01X15816299Y-4354286D01*
G01X15816299Y-4337268D01*
G01X15810711Y-4308566D01*
G01X15799281Y-4291548D01*
G01X15782009Y-4285706D01*
G01X15770579Y-4285706D01*
G01X15898341Y-4285706D02*
G01X15881323Y-4291548D01*
G01X15869893Y-4308566D01*
G01X15864051Y-4337268D01*
G01X15864051Y-4354286D01*
G01X15869893Y-4382988D01*
G01X15881323Y-4400006D01*
G01X15898341Y-4405848D01*
G01X15909771Y-4405848D01*
G01X15927043Y-4400006D01*
G01X15938473Y-4382988D01*
G01X15944061Y-4354286D01*
G01X15944061Y-4337268D01*
G01X15938473Y-4308566D01*
G01X15927043Y-4291548D01*
G01X15909771Y-4285706D01*
G01X15898341Y-4285706D01*
G01X15991813Y-4325838D02*
G01X15991813Y-4405848D01*
G01X15991813Y-4348698D02*
G01X16009085Y-4331426D01*
G01X16020515Y-4325838D01*
G01X16037533Y-4325838D01*
G01X16048963Y-4331426D01*
G01X16054805Y-4348698D01*
G01X16054805Y-4405848D01*
G01X16054805Y-4348698D02*
G01X16071823Y-4331426D01*
G01X16083253Y-4325838D01*
G01X16100525Y-4325838D01*
G01X16111955Y-4331426D01*
G01X16117543Y-4348698D01*
G01X16117543Y-4405848D01*
G01X16165295Y-4325838D02*
G01X16165295Y-4405848D01*
G01X16165295Y-4348698D02*
G01X16182567Y-4331426D01*
G01X16193997Y-4325838D01*
G01X16211015Y-4325838D01*
G01X16222445Y-4331426D01*
G01X16228287Y-4348698D01*
G01X16228287Y-4405848D01*
G01X16228287Y-4348698D02*
G01X16245305Y-4331426D01*
G01X16256735Y-4325838D01*
G01X16274007Y-4325838D01*
G01X16285437Y-4331426D01*
G01X16291025Y-4348698D01*
G01X16291025Y-4405848D01*
G01X16338777Y-4262846D02*
G01X16350207Y-4274276D01*
G01X16361637Y-4291548D01*
G01X16373067Y-4314408D01*
G01X16378909Y-4342856D01*
G01X16378909Y-4365716D01*
G01X16373067Y-4394418D01*
G01X16361637Y-4417278D01*
G01X16350207Y-4434296D01*
G01X16338777Y-4445726D01*
G01X17329268Y-4285706D02*
G01X17329268Y-4405848D01*
G01X17329268Y-4285706D02*
G01X17380830Y-4285706D01*
G01X17397848Y-4291548D01*
G01X17403690Y-4297136D01*
G01X17409278Y-4308566D01*
G01X17409278Y-4325838D01*
G01X17403690Y-4337268D01*
G01X17397848Y-4342856D01*
G01X17380830Y-4348698D01*
G01X17329268Y-4348698D01*
G01X17497162Y-4285706D02*
G01X17497162Y-4405848D01*
G01X17457030Y-4285706D02*
G01X17537040Y-4285706D01*
G01X17584792Y-4285706D02*
G01X17584792Y-4405848D01*
G01X17664802Y-4285706D02*
G01X17664802Y-4405848D01*
G01X17584792Y-4342856D02*
G01X17664802Y-4342856D01*
G01X18790676Y-4285706D02*
G01X18790676Y-4405848D01*
G01X18790676Y-4285706D02*
G01X18842238Y-4285706D01*
G01X18859256Y-4291548D01*
G01X18865098Y-4297136D01*
G01X18870686Y-4308566D01*
G01X18870686Y-4319996D01*
G01X18865098Y-4331426D01*
G01X18859256Y-4337268D01*
G01X18842238Y-4342856D01*
G01X18790676Y-4342856D01*
G01X18830808Y-4342856D02*
G01X18870686Y-4405848D01*
G01X18947140Y-4325838D02*
G01X18935710Y-4331426D01*
G01X18924280Y-4342856D01*
G01X18918438Y-4360128D01*
G01X18918438Y-4371558D01*
G01X18924280Y-4388576D01*
G01X18935710Y-4400006D01*
G01X18947140Y-4405848D01*
G01X18964158Y-4405848D01*
G01X18975588Y-4400006D01*
G01X18987018Y-4388576D01*
G01X18992860Y-4371558D01*
G01X18992860Y-4360128D01*
G01X18987018Y-4342856D01*
G01X18975588Y-4331426D01*
G01X18964158Y-4325838D01*
G01X18947140Y-4325838D01*
G01X19040612Y-4325838D02*
G01X19040612Y-4382988D01*
G01X19046454Y-4400006D01*
G01X19057884Y-4405848D01*
G01X19074902Y-4405848D01*
G01X19086332Y-4400006D01*
G01X19103604Y-4382988D01*
G01X19103604Y-4325838D02*
G01X19103604Y-4405848D01*
G01X19151356Y-4325838D02*
G01X19151356Y-4405848D01*
G01X19151356Y-4348698D02*
G01X19168628Y-4331426D01*
G01X19180058Y-4325838D01*
G01X19197076Y-4325838D01*
G01X19208506Y-4331426D01*
G01X19214348Y-4348698D01*
G01X19214348Y-4405848D01*
G01X19330680Y-4285706D02*
G01X19330680Y-4405848D01*
G01X19330680Y-4342856D02*
G01X19319250Y-4331426D01*
G01X19307820Y-4325838D01*
G01X19290802Y-4325838D01*
G01X19279372Y-4331426D01*
G01X19267942Y-4342856D01*
G01X19262100Y-4360128D01*
G01X19262100Y-4371558D01*
G01X19267942Y-4388576D01*
G01X19279372Y-4400006D01*
G01X19290802Y-4405848D01*
G01X19307820Y-4405848D01*
G01X19319250Y-4400006D01*
G01X19330680Y-4388576D01*
G01X20221857Y-4285706D02*
G01X20221857Y-4405848D01*
G01X20221857Y-4285706D02*
G01X20273419Y-4285706D01*
G01X20290437Y-4291548D01*
G01X20296279Y-4297136D01*
G01X20301867Y-4308566D01*
G01X20301867Y-4325838D01*
G01X20296279Y-4337268D01*
G01X20290437Y-4342856D01*
G01X20273419Y-4348698D01*
G01X20221857Y-4348698D01*
G01X20418199Y-4325838D02*
G01X20418199Y-4405848D01*
G01X20418199Y-4342856D02*
G01X20406769Y-4331426D01*
G01X20395339Y-4325838D01*
G01X20378321Y-4325838D01*
G01X20366891Y-4331426D01*
G01X20355461Y-4342856D01*
G01X20349619Y-4360128D01*
G01X20349619Y-4371558D01*
G01X20355461Y-4388576D01*
G01X20366891Y-4400006D01*
G01X20378321Y-4405848D01*
G01X20395339Y-4405848D01*
G01X20406769Y-4400006D01*
G01X20418199Y-4388576D01*
G01X20534531Y-4285706D02*
G01X20534531Y-4405848D01*
G01X20534531Y-4342856D02*
G01X20523101Y-4331426D01*
G01X20511671Y-4325838D01*
G01X20494653Y-4325838D01*
G01X20483223Y-4331426D01*
G01X20471793Y-4342856D01*
G01X20465951Y-4360128D01*
G01X20465951Y-4371558D01*
G01X20471793Y-4388576D01*
G01X20483223Y-4400006D01*
G01X20494653Y-4405848D01*
G01X20511671Y-4405848D01*
G01X20523101Y-4400006D01*
G01X20534531Y-4388576D01*
G01X21891036Y-4285706D02*
G01X21891036Y-4405848D01*
G01X21891036Y-4285706D02*
G01X21942598Y-4285706D01*
G01X21959616Y-4291548D01*
G01X21965458Y-4297136D01*
G01X21971046Y-4308566D01*
G01X21971046Y-4319996D01*
G01X21965458Y-4331426D01*
G01X21959616Y-4337268D01*
G01X21942598Y-4342856D01*
G01X21891036Y-4342856D01*
G01X21931168Y-4342856D02*
G01X21971046Y-4405848D01*
G01X22047500Y-4325838D02*
G01X22036070Y-4331426D01*
G01X22024640Y-4342856D01*
G01X22018798Y-4360128D01*
G01X22018798Y-4371558D01*
G01X22024640Y-4388576D01*
G01X22036070Y-4400006D01*
G01X22047500Y-4405848D01*
G01X22064518Y-4405848D01*
G01X22075948Y-4400006D01*
G01X22087378Y-4388576D01*
G01X22093220Y-4371558D01*
G01X22093220Y-4360128D01*
G01X22087378Y-4342856D01*
G01X22075948Y-4331426D01*
G01X22064518Y-4325838D01*
G01X22047500Y-4325838D01*
G01X22140972Y-4325838D02*
G01X22140972Y-4382988D01*
G01X22146814Y-4400006D01*
G01X22158244Y-4405848D01*
G01X22175262Y-4405848D01*
G01X22186692Y-4400006D01*
G01X22203964Y-4382988D01*
G01X22203964Y-4325838D02*
G01X22203964Y-4405848D01*
G01X22251716Y-4325838D02*
G01X22251716Y-4405848D01*
G01X22251716Y-4348698D02*
G01X22268988Y-4331426D01*
G01X22280418Y-4325838D01*
G01X22297436Y-4325838D01*
G01X22308866Y-4331426D01*
G01X22314708Y-4348698D01*
G01X22314708Y-4405848D01*
G01X22431040Y-4285706D02*
G01X22431040Y-4405848D01*
G01X22431040Y-4342856D02*
G01X22419610Y-4331426D01*
G01X22408180Y-4325838D01*
G01X22391162Y-4325838D01*
G01X22379732Y-4331426D01*
G01X22368302Y-4342856D01*
G01X22362460Y-4360128D01*
G01X22362460Y-4371558D01*
G01X22368302Y-4388576D01*
G01X22379732Y-4400006D01*
G01X22391162Y-4405848D01*
G01X22408180Y-4405848D01*
G01X22419610Y-4400006D01*
G01X22431040Y-4388576D01*
G01X23850537Y-4285706D02*
G01X23850537Y-4405848D01*
G01X23810405Y-4285706D02*
G01X23890415Y-4285706D01*
G01X23966869Y-4325838D02*
G01X23955439Y-4331426D01*
G01X23944009Y-4342856D01*
G01X23938167Y-4360128D01*
G01X23938167Y-4371558D01*
G01X23944009Y-4388576D01*
G01X23955439Y-4400006D01*
G01X23966869Y-4405848D01*
G01X23983887Y-4405848D01*
G01X23995317Y-4400006D01*
G01X24006747Y-4388576D01*
G01X24012589Y-4371558D01*
G01X24012589Y-4360128D01*
G01X24006747Y-4342856D01*
G01X23995317Y-4331426D01*
G01X23983887Y-4325838D01*
G01X23966869Y-4325838D01*
G01X24060341Y-4325838D02*
G01X24060341Y-4445726D01*
G01X24060341Y-4342856D02*
G01X24071771Y-4331426D01*
G01X24083201Y-4325838D01*
G01X24100473Y-4325838D01*
G01X24111903Y-4331426D01*
G01X24123333Y-4342856D01*
G01X24128921Y-4360128D01*
G01X24128921Y-4371558D01*
G01X24123333Y-4388576D01*
G01X24111903Y-4400006D01*
G01X24100473Y-4405848D01*
G01X24083201Y-4405848D01*
G01X24071771Y-4400006D01*
G01X24060341Y-4388576D01*
G01X24304689Y-4285706D02*
G01X24304689Y-4405848D01*
G01X24304689Y-4405848D02*
G01X24373269Y-4405848D01*
G01X24489601Y-4325838D02*
G01X24489601Y-4405848D01*
G01X24489601Y-4342856D02*
G01X24478171Y-4331426D01*
G01X24466741Y-4325838D01*
G01X24449723Y-4325838D01*
G01X24438293Y-4331426D01*
G01X24426863Y-4342856D01*
G01X24421021Y-4360128D01*
G01X24421021Y-4371558D01*
G01X24426863Y-4388576D01*
G01X24438293Y-4400006D01*
G01X24449723Y-4405848D01*
G01X24466741Y-4405848D01*
G01X24478171Y-4400006D01*
G01X24489601Y-4388576D01*
G01X24543195Y-4325838D02*
G01X24577485Y-4405848D01*
G01X24611775Y-4325838D02*
G01X24577485Y-4405848D01*
G01X24566055Y-4428708D01*
G01X24554625Y-4440138D01*
G01X24543195Y-4445726D01*
G01X24537353Y-4445726D01*
G01X24659527Y-4360128D02*
G01X24728107Y-4360128D01*
G01X24728107Y-4348698D01*
G01X24722519Y-4337268D01*
G01X24716677Y-4331426D01*
G01X24705247Y-4325838D01*
G01X24688229Y-4325838D01*
G01X24676799Y-4331426D01*
G01X24665369Y-4342856D01*
G01X24659527Y-4360128D01*
G01X24659527Y-4371558D01*
G01X24665369Y-4388576D01*
G01X24676799Y-4400006D01*
G01X24688229Y-4405848D01*
G01X24705247Y-4405848D01*
G01X24716677Y-4400006D01*
G01X24728107Y-4388576D01*
G01X24775859Y-4325838D02*
G01X24775859Y-4405848D01*
G01X24775859Y-4360128D02*
G01X24781701Y-4342856D01*
G01X24793131Y-4331426D01*
G01X24804561Y-4325838D01*
G01X24821579Y-4325838D01*
G01X24869331Y-4354286D02*
G01X24972201Y-4354286D01*
G01X25019953Y-4285706D02*
G01X25019953Y-4405848D01*
G01X25019953Y-4285706D02*
G01X25071515Y-4285706D01*
G01X25088533Y-4291548D01*
G01X25094375Y-4297136D01*
G01X25099963Y-4308566D01*
G01X25099963Y-4319996D01*
G01X25094375Y-4331426D01*
G01X25088533Y-4337268D01*
G01X25071515Y-4342856D01*
G01X25019953Y-4342856D02*
G01X25071515Y-4342856D01*
G01X25088533Y-4348698D01*
G01X25094375Y-4354286D01*
G01X25099963Y-4365716D01*
G01X25099963Y-4382988D01*
G01X25094375Y-4394418D01*
G01X25088533Y-4400006D01*
G01X25071515Y-4405848D01*
G01X25019953Y-4405848D01*
G01X25176417Y-4325838D02*
G01X25164987Y-4331426D01*
G01X25153557Y-4342856D01*
G01X25147715Y-4360128D01*
G01X25147715Y-4371558D01*
G01X25153557Y-4388576D01*
G01X25164987Y-4400006D01*
G01X25176417Y-4405848D01*
G01X25193435Y-4405848D01*
G01X25204865Y-4400006D01*
G01X25216295Y-4388576D01*
G01X25222137Y-4371558D01*
G01X25222137Y-4360128D01*
G01X25216295Y-4342856D01*
G01X25204865Y-4331426D01*
G01X25193435Y-4325838D01*
G01X25176417Y-4325838D01*
G01X25287161Y-4285706D02*
G01X25287161Y-4382988D01*
G01X25292749Y-4400006D01*
G01X25304179Y-4405848D01*
G01X25315609Y-4405848D01*
G01X25269889Y-4325838D02*
G01X25310021Y-4325838D01*
G01X25380633Y-4285706D02*
G01X25380633Y-4382988D01*
G01X25386221Y-4400006D01*
G01X25397651Y-4405848D01*
G01X25409081Y-4405848D01*
G01X25363361Y-4325838D02*
G01X25403493Y-4325838D01*
G01X25485535Y-4325838D02*
G01X25474105Y-4331426D01*
G01X25462675Y-4342856D01*
G01X25456833Y-4360128D01*
G01X25456833Y-4371558D01*
G01X25462675Y-4388576D01*
G01X25474105Y-4400006D01*
G01X25485535Y-4405848D01*
G01X25502553Y-4405848D01*
G01X25513983Y-4400006D01*
G01X25525413Y-4388576D01*
G01X25531255Y-4371558D01*
G01X25531255Y-4360128D01*
G01X25525413Y-4342856D01*
G01X25513983Y-4331426D01*
G01X25502553Y-4325838D01*
G01X25485535Y-4325838D01*
G01X25579007Y-4325838D02*
G01X25579007Y-4405848D01*
G01X25579007Y-4348698D02*
G01X25596279Y-4331426D01*
G01X25607709Y-4325838D01*
G01X25624727Y-4325838D01*
G01X25636157Y-4331426D01*
G01X25641999Y-4348698D01*
G01X25641999Y-4405848D01*
G01X25641999Y-4348698D02*
G01X25659017Y-4331426D01*
G01X25670447Y-4325838D01*
G01X25687719Y-4325838D01*
G01X25699149Y-4331426D01*
G01X25704737Y-4348698D01*
G01X25704737Y-4405848D01*
G01X25880505Y-4285706D02*
G01X25880505Y-4405848D01*
G01X25880505Y-4405848D02*
G01X25949085Y-4405848D01*
G01X26065417Y-4325838D02*
G01X26065417Y-4405848D01*
G01X26065417Y-4342856D02*
G01X26053987Y-4331426D01*
G01X26042557Y-4325838D01*
G01X26025539Y-4325838D01*
G01X26014109Y-4331426D01*
G01X26002679Y-4342856D01*
G01X25996837Y-4360128D01*
G01X25996837Y-4371558D01*
G01X26002679Y-4388576D01*
G01X26014109Y-4400006D01*
G01X26025539Y-4405848D01*
G01X26042557Y-4405848D01*
G01X26053987Y-4400006D01*
G01X26065417Y-4388576D01*
G01X26119011Y-4325838D02*
G01X26153301Y-4405848D01*
G01X26187591Y-4325838D02*
G01X26153301Y-4405848D01*
G01X26141871Y-4428708D01*
G01X26130441Y-4440138D01*
G01X26119011Y-4445726D01*
G01X26113169Y-4445726D01*
G01X26235343Y-4360128D02*
G01X26303923Y-4360128D01*
G01X26303923Y-4348698D01*
G01X26298335Y-4337268D01*
G01X26292493Y-4331426D01*
G01X26281063Y-4325838D01*
G01X26264045Y-4325838D01*
G01X26252615Y-4331426D01*
G01X26241185Y-4342856D01*
G01X26235343Y-4360128D01*
G01X26235343Y-4371558D01*
G01X26241185Y-4388576D01*
G01X26252615Y-4400006D01*
G01X26264045Y-4405848D01*
G01X26281063Y-4405848D01*
G01X26292493Y-4400006D01*
G01X26303923Y-4388576D01*
G01X26351675Y-4325838D02*
G01X26351675Y-4405848D01*
G01X26351675Y-4360128D02*
G01X26357517Y-4342856D01*
G01X26368947Y-4331426D01*
G01X26380377Y-4325838D01*
G01X26397395Y-4325838D01*
G01X12070416Y-4894979D02*
G01X12070416Y-4889137D01*
G01X12076004Y-4877707D01*
G01X12081846Y-4872119D01*
G01X12093276Y-4866277D01*
G01X12116136Y-4866277D01*
G01X12127566Y-4872119D01*
G01X12133154Y-4877707D01*
G01X12138996Y-4889137D01*
G01X12138996Y-4900567D01*
G01X12133154Y-4911997D01*
G01X12121724Y-4929269D01*
G01X12064574Y-4986419D01*
G01X12144584Y-4986419D01*
G01X12260916Y-4883549D02*
G01X12255328Y-4872119D01*
G01X12238056Y-4866277D01*
G01X12226626Y-4866277D01*
G01X12209608Y-4872119D01*
G01X12198178Y-4889137D01*
G01X12192336Y-4917839D01*
G01X12192336Y-4946287D01*
G01X12198178Y-4969147D01*
G01X12209608Y-4980577D01*
G01X12226626Y-4986419D01*
G01X12232468Y-4986419D01*
G01X12249486Y-4980577D01*
G01X12260916Y-4969147D01*
G01X12266758Y-4952129D01*
G01X12266758Y-4946287D01*
G01X12260916Y-4929269D01*
G01X12249486Y-4917839D01*
G01X12232468Y-4911997D01*
G01X12226626Y-4911997D01*
G01X12209608Y-4917839D01*
G01X12198178Y-4929269D01*
G01X12192336Y-4946287D01*
G01X12325940Y-4866277D02*
G01X12388932Y-4866277D01*
G01X12354642Y-4911997D01*
G01X12371660Y-4911997D01*
G01X12383090Y-4917839D01*
G01X12388932Y-4923427D01*
G01X12394520Y-4940699D01*
G01X12394520Y-4952129D01*
G01X12388932Y-4969147D01*
G01X12377502Y-4980577D01*
G01X12360230Y-4986419D01*
G01X12343212Y-4986419D01*
G01X12325940Y-4980577D01*
G01X12320352Y-4974989D01*
G01X12314510Y-4963559D01*
G01X13478737Y-4889137D02*
G01X13490167Y-4883549D01*
G01X13507439Y-4866277D01*
G01X13507439Y-4986419D01*
G01X13561033Y-4894979D02*
G01X13561033Y-4889137D01*
G01X13566621Y-4877707D01*
G01X13572463Y-4872119D01*
G01X13583893Y-4866277D01*
G01X13606753Y-4866277D01*
G01X13618183Y-4872119D01*
G01X13623771Y-4877707D01*
G01X13629613Y-4889137D01*
G01X13629613Y-4900567D01*
G01X13623771Y-4911997D01*
G01X13612341Y-4929269D01*
G01X13555191Y-4986419D01*
G01X13635201Y-4986419D01*
G01X13688795Y-4957717D02*
G01X13682953Y-4963559D01*
G01X13688795Y-4969147D01*
G01X13694383Y-4963559D01*
G01X13688795Y-4957717D01*
G01X13776425Y-4866277D02*
G01X13759407Y-4872119D01*
G01X13747977Y-4889137D01*
G01X13742135Y-4917839D01*
G01X13742135Y-4934857D01*
G01X13747977Y-4963559D01*
G01X13759407Y-4980577D01*
G01X13776425Y-4986419D01*
G01X13787855Y-4986419D01*
G01X13805127Y-4980577D01*
G01X13816557Y-4963559D01*
G01X13822145Y-4934857D01*
G01X13822145Y-4917839D01*
G01X13816557Y-4889137D01*
G01X13805127Y-4872119D01*
G01X13787855Y-4866277D01*
G01X13776425Y-4866277D01*
G01X13869897Y-4906409D02*
G01X13869897Y-4986419D01*
G01X13869897Y-4929269D02*
G01X13887169Y-4911997D01*
G01X13898599Y-4906409D01*
G01X13915617Y-4906409D01*
G01X13927047Y-4911997D01*
G01X13932889Y-4929269D01*
G01X13932889Y-4986419D01*
G01X13932889Y-4929269D02*
G01X13949907Y-4911997D01*
G01X13961337Y-4906409D01*
G01X13978609Y-4906409D01*
G01X13990039Y-4911997D01*
G01X13995627Y-4929269D01*
G01X13995627Y-4986419D01*
G01X14043379Y-4866277D02*
G01X14049221Y-4872119D01*
G01X14054809Y-4866277D01*
G01X14049221Y-4860689D01*
G01X14043379Y-4866277D01*
G01X14049221Y-4906409D02*
G01X14049221Y-4986419D01*
G01X14102561Y-4866277D02*
G01X14102561Y-4986419D01*
G01X14190445Y-4843417D02*
G01X14179015Y-4854847D01*
G01X14167585Y-4872119D01*
G01X14156155Y-4894979D01*
G01X14150313Y-4923427D01*
G01X14150313Y-4946287D01*
G01X14156155Y-4974989D01*
G01X14167585Y-4997849D01*
G01X14179015Y-5014867D01*
G01X14190445Y-5026297D01*
G01X14272487Y-4866277D02*
G01X14255469Y-4872119D01*
G01X14244039Y-4889137D01*
G01X14238197Y-4917839D01*
G01X14238197Y-4934857D01*
G01X14244039Y-4963559D01*
G01X14255469Y-4980577D01*
G01X14272487Y-4986419D01*
G01X14283917Y-4986419D01*
G01X14301189Y-4980577D01*
G01X14312619Y-4963559D01*
G01X14318207Y-4934857D01*
G01X14318207Y-4917839D01*
G01X14312619Y-4889137D01*
G01X14301189Y-4872119D01*
G01X14283917Y-4866277D01*
G01X14272487Y-4866277D01*
G01X14371801Y-4957717D02*
G01X14365959Y-4963559D01*
G01X14371801Y-4969147D01*
G01X14377389Y-4963559D01*
G01X14371801Y-4957717D01*
G01X14436571Y-4866277D02*
G01X14499563Y-4866277D01*
G01X14465273Y-4911997D01*
G01X14482291Y-4911997D01*
G01X14493721Y-4917839D01*
G01X14499563Y-4923427D01*
G01X14505151Y-4940699D01*
G01X14505151Y-4952129D01*
G01X14499563Y-4969147D01*
G01X14488133Y-4980577D01*
G01X14470861Y-4986419D01*
G01X14453843Y-4986419D01*
G01X14436571Y-4980577D01*
G01X14430983Y-4974989D01*
G01X14425141Y-4963559D01*
G01X14587193Y-4866277D02*
G01X14570175Y-4872119D01*
G01X14558745Y-4889137D01*
G01X14552903Y-4917839D01*
G01X14552903Y-4934857D01*
G01X14558745Y-4963559D01*
G01X14570175Y-4980577D01*
G01X14587193Y-4986419D01*
G01X14598623Y-4986419D01*
G01X14615895Y-4980577D01*
G01X14627325Y-4963559D01*
G01X14632913Y-4934857D01*
G01X14632913Y-4917839D01*
G01X14627325Y-4889137D01*
G01X14615895Y-4872119D01*
G01X14598623Y-4866277D01*
G01X14587193Y-4866277D01*
G01X14749245Y-4866277D02*
G01X14692095Y-4866277D01*
G01X14686507Y-4917839D01*
G01X14692095Y-4911997D01*
G01X14709367Y-4906409D01*
G01X14726385Y-4906409D01*
G01X14743657Y-4911997D01*
G01X14755087Y-4923427D01*
G01X14760675Y-4940699D01*
G01X14760675Y-4952129D01*
G01X14755087Y-4969147D01*
G01X14743657Y-4980577D01*
G01X14726385Y-4986419D01*
G01X14709367Y-4986419D01*
G01X14692095Y-4980577D01*
G01X14686507Y-4974989D01*
G01X14680665Y-4963559D01*
G01X14808427Y-4906409D02*
G01X14808427Y-4986419D01*
G01X14808427Y-4929269D02*
G01X14825699Y-4911997D01*
G01X14837129Y-4906409D01*
G01X14854147Y-4906409D01*
G01X14865577Y-4911997D01*
G01X14871419Y-4929269D01*
G01X14871419Y-4986419D01*
G01X14871419Y-4929269D02*
G01X14888437Y-4911997D01*
G01X14899867Y-4906409D01*
G01X14917139Y-4906409D01*
G01X14928569Y-4911997D01*
G01X14934157Y-4929269D01*
G01X14934157Y-4986419D01*
G01X14981909Y-4906409D02*
G01X14981909Y-4986419D01*
G01X14981909Y-4929269D02*
G01X14999181Y-4911997D01*
G01X15010611Y-4906409D01*
G01X15027629Y-4906409D01*
G01X15039059Y-4911997D01*
G01X15044901Y-4929269D01*
G01X15044901Y-4986419D01*
G01X15044901Y-4929269D02*
G01X15061919Y-4911997D01*
G01X15073349Y-4906409D01*
G01X15090621Y-4906409D01*
G01X15102051Y-4911997D01*
G01X15107639Y-4929269D01*
G01X15107639Y-4986419D01*
G01X15155391Y-4843417D02*
G01X15166821Y-4854847D01*
G01X15178251Y-4872119D01*
G01X15189681Y-4894979D01*
G01X15195523Y-4923427D01*
G01X15195523Y-4946287D01*
G01X15189681Y-4974989D01*
G01X15178251Y-4997849D01*
G01X15166821Y-5014867D01*
G01X15155391Y-5026297D01*
G01X17329268Y-4866277D02*
G01X17329268Y-4986419D01*
G01X17329268Y-4866277D02*
G01X17380830Y-4866277D01*
G01X17397848Y-4872119D01*
G01X17403690Y-4877707D01*
G01X17409278Y-4889137D01*
G01X17409278Y-4906409D01*
G01X17403690Y-4917839D01*
G01X17397848Y-4923427D01*
G01X17380830Y-4929269D01*
G01X17329268Y-4929269D01*
G01X17497162Y-4866277D02*
G01X17497162Y-4986419D01*
G01X17457030Y-4866277D02*
G01X17537040Y-4866277D01*
G01X17584792Y-4866277D02*
G01X17584792Y-4986419D01*
G01X17664802Y-4866277D02*
G01X17664802Y-4986419D01*
G01X17584792Y-4923427D02*
G01X17664802Y-4923427D01*
G01X18790676Y-4866277D02*
G01X18790676Y-4986419D01*
G01X18790676Y-4866277D02*
G01X18842238Y-4866277D01*
G01X18859256Y-4872119D01*
G01X18865098Y-4877707D01*
G01X18870686Y-4889137D01*
G01X18870686Y-4900567D01*
G01X18865098Y-4911997D01*
G01X18859256Y-4917839D01*
G01X18842238Y-4923427D01*
G01X18790676Y-4923427D01*
G01X18830808Y-4923427D02*
G01X18870686Y-4986419D01*
G01X18947140Y-4906409D02*
G01X18935710Y-4911997D01*
G01X18924280Y-4923427D01*
G01X18918438Y-4940699D01*
G01X18918438Y-4952129D01*
G01X18924280Y-4969147D01*
G01X18935710Y-4980577D01*
G01X18947140Y-4986419D01*
G01X18964158Y-4986419D01*
G01X18975588Y-4980577D01*
G01X18987018Y-4969147D01*
G01X18992860Y-4952129D01*
G01X18992860Y-4940699D01*
G01X18987018Y-4923427D01*
G01X18975588Y-4911997D01*
G01X18964158Y-4906409D01*
G01X18947140Y-4906409D01*
G01X19040612Y-4906409D02*
G01X19040612Y-4963559D01*
G01X19046454Y-4980577D01*
G01X19057884Y-4986419D01*
G01X19074902Y-4986419D01*
G01X19086332Y-4980577D01*
G01X19103604Y-4963559D01*
G01X19103604Y-4906409D02*
G01X19103604Y-4986419D01*
G01X19151356Y-4906409D02*
G01X19151356Y-4986419D01*
G01X19151356Y-4929269D02*
G01X19168628Y-4911997D01*
G01X19180058Y-4906409D01*
G01X19197076Y-4906409D01*
G01X19208506Y-4911997D01*
G01X19214348Y-4929269D01*
G01X19214348Y-4986419D01*
G01X19330680Y-4866277D02*
G01X19330680Y-4986419D01*
G01X19330680Y-4923427D02*
G01X19319250Y-4911997D01*
G01X19307820Y-4906409D01*
G01X19290802Y-4906409D01*
G01X19279372Y-4911997D01*
G01X19267942Y-4923427D01*
G01X19262100Y-4940699D01*
G01X19262100Y-4952129D01*
G01X19267942Y-4969147D01*
G01X19279372Y-4980577D01*
G01X19290802Y-4986419D01*
G01X19307820Y-4986419D01*
G01X19319250Y-4980577D01*
G01X19330680Y-4969147D01*
G01X20221857Y-4866277D02*
G01X20267577Y-4986419D01*
G01X20313297Y-4866277D02*
G01X20267577Y-4986419D01*
G01X20361049Y-4866277D02*
G01X20366891Y-4872119D01*
G01X20372479Y-4866277D01*
G01X20366891Y-4860689D01*
G01X20361049Y-4866277D01*
G01X20366891Y-4906409D02*
G01X20366891Y-4986419D01*
G01X20488811Y-4906409D02*
G01X20488811Y-4986419D01*
G01X20488811Y-4923427D02*
G01X20477381Y-4911997D01*
G01X20465951Y-4906409D01*
G01X20448933Y-4906409D01*
G01X20437503Y-4911997D01*
G01X20426073Y-4923427D01*
G01X20420231Y-4940699D01*
G01X20420231Y-4952129D01*
G01X20426073Y-4969147D01*
G01X20437503Y-4980577D01*
G01X20448933Y-4986419D01*
G01X20465951Y-4986419D01*
G01X20477381Y-4980577D01*
G01X20488811Y-4969147D01*
G01X23850537Y-4866277D02*
G01X23850537Y-4986419D01*
G01X23810405Y-4866277D02*
G01X23890415Y-4866277D01*
G01X23966869Y-4906409D02*
G01X23955439Y-4911997D01*
G01X23944009Y-4923427D01*
G01X23938167Y-4940699D01*
G01X23938167Y-4952129D01*
G01X23944009Y-4969147D01*
G01X23955439Y-4980577D01*
G01X23966869Y-4986419D01*
G01X23983887Y-4986419D01*
G01X23995317Y-4980577D01*
G01X24006747Y-4969147D01*
G01X24012589Y-4952129D01*
G01X24012589Y-4940699D01*
G01X24006747Y-4923427D01*
G01X23995317Y-4911997D01*
G01X23983887Y-4906409D01*
G01X23966869Y-4906409D01*
G01X24060341Y-4906409D02*
G01X24060341Y-5026297D01*
G01X24060341Y-4923427D02*
G01X24071771Y-4911997D01*
G01X24083201Y-4906409D01*
G01X24100473Y-4906409D01*
G01X24111903Y-4911997D01*
G01X24123333Y-4923427D01*
G01X24128921Y-4940699D01*
G01X24128921Y-4952129D01*
G01X24123333Y-4969147D01*
G01X24111903Y-4980577D01*
G01X24100473Y-4986419D01*
G01X24083201Y-4986419D01*
G01X24071771Y-4980577D01*
G01X24060341Y-4969147D01*
G01X24304689Y-4866277D02*
G01X24304689Y-4986419D01*
G01X24304689Y-4986419D02*
G01X24373269Y-4986419D01*
G01X24489601Y-4906409D02*
G01X24489601Y-4986419D01*
G01X24489601Y-4923427D02*
G01X24478171Y-4911997D01*
G01X24466741Y-4906409D01*
G01X24449723Y-4906409D01*
G01X24438293Y-4911997D01*
G01X24426863Y-4923427D01*
G01X24421021Y-4940699D01*
G01X24421021Y-4952129D01*
G01X24426863Y-4969147D01*
G01X24438293Y-4980577D01*
G01X24449723Y-4986419D01*
G01X24466741Y-4986419D01*
G01X24478171Y-4980577D01*
G01X24489601Y-4969147D01*
G01X24543195Y-4906409D02*
G01X24577485Y-4986419D01*
G01X24611775Y-4906409D02*
G01X24577485Y-4986419D01*
G01X24566055Y-5009279D01*
G01X24554625Y-5020709D01*
G01X24543195Y-5026297D01*
G01X24537353Y-5026297D01*
G01X24659527Y-4940699D02*
G01X24728107Y-4940699D01*
G01X24728107Y-4929269D01*
G01X24722519Y-4917839D01*
G01X24716677Y-4911997D01*
G01X24705247Y-4906409D01*
G01X24688229Y-4906409D01*
G01X24676799Y-4911997D01*
G01X24665369Y-4923427D01*
G01X24659527Y-4940699D01*
G01X24659527Y-4952129D01*
G01X24665369Y-4969147D01*
G01X24676799Y-4980577D01*
G01X24688229Y-4986419D01*
G01X24705247Y-4986419D01*
G01X24716677Y-4980577D01*
G01X24728107Y-4969147D01*
G01X24775859Y-4906409D02*
G01X24775859Y-4986419D01*
G01X24775859Y-4940699D02*
G01X24781701Y-4923427D01*
G01X24793131Y-4911997D01*
G01X24804561Y-4906409D01*
G01X24821579Y-4906409D01*
G01X24869331Y-4934857D02*
G01X24972201Y-4934857D01*
G01X25019953Y-4866277D02*
G01X25019953Y-4986419D01*
G01X25019953Y-4866277D02*
G01X25071515Y-4866277D01*
G01X25088533Y-4872119D01*
G01X25094375Y-4877707D01*
G01X25099963Y-4889137D01*
G01X25099963Y-4900567D01*
G01X25094375Y-4911997D01*
G01X25088533Y-4917839D01*
G01X25071515Y-4923427D01*
G01X25019953Y-4923427D02*
G01X25071515Y-4923427D01*
G01X25088533Y-4929269D01*
G01X25094375Y-4934857D01*
G01X25099963Y-4946287D01*
G01X25099963Y-4963559D01*
G01X25094375Y-4974989D01*
G01X25088533Y-4980577D01*
G01X25071515Y-4986419D01*
G01X25019953Y-4986419D01*
G01X25176417Y-4906409D02*
G01X25164987Y-4911997D01*
G01X25153557Y-4923427D01*
G01X25147715Y-4940699D01*
G01X25147715Y-4952129D01*
G01X25153557Y-4969147D01*
G01X25164987Y-4980577D01*
G01X25176417Y-4986419D01*
G01X25193435Y-4986419D01*
G01X25204865Y-4980577D01*
G01X25216295Y-4969147D01*
G01X25222137Y-4952129D01*
G01X25222137Y-4940699D01*
G01X25216295Y-4923427D01*
G01X25204865Y-4911997D01*
G01X25193435Y-4906409D01*
G01X25176417Y-4906409D01*
G01X25287161Y-4866277D02*
G01X25287161Y-4963559D01*
G01X25292749Y-4980577D01*
G01X25304179Y-4986419D01*
G01X25315609Y-4986419D01*
G01X25269889Y-4906409D02*
G01X25310021Y-4906409D01*
G01X25380633Y-4866277D02*
G01X25380633Y-4963559D01*
G01X25386221Y-4980577D01*
G01X25397651Y-4986419D01*
G01X25409081Y-4986419D01*
G01X25363361Y-4906409D02*
G01X25403493Y-4906409D01*
G01X25485535Y-4906409D02*
G01X25474105Y-4911997D01*
G01X25462675Y-4923427D01*
G01X25456833Y-4940699D01*
G01X25456833Y-4952129D01*
G01X25462675Y-4969147D01*
G01X25474105Y-4980577D01*
G01X25485535Y-4986419D01*
G01X25502553Y-4986419D01*
G01X25513983Y-4980577D01*
G01X25525413Y-4969147D01*
G01X25531255Y-4952129D01*
G01X25531255Y-4940699D01*
G01X25525413Y-4923427D01*
G01X25513983Y-4911997D01*
G01X25502553Y-4906409D01*
G01X25485535Y-4906409D01*
G01X25579007Y-4906409D02*
G01X25579007Y-4986419D01*
G01X25579007Y-4929269D02*
G01X25596279Y-4911997D01*
G01X25607709Y-4906409D01*
G01X25624727Y-4906409D01*
G01X25636157Y-4911997D01*
G01X25641999Y-4929269D01*
G01X25641999Y-4986419D01*
G01X25641999Y-4929269D02*
G01X25659017Y-4911997D01*
G01X25670447Y-4906409D01*
G01X25687719Y-4906409D01*
G01X25699149Y-4911997D01*
G01X25704737Y-4929269D01*
G01X25704737Y-4986419D01*
G01X25880505Y-4866277D02*
G01X25880505Y-4986419D01*
G01X25880505Y-4986419D02*
G01X25949085Y-4986419D01*
G01X26065417Y-4906409D02*
G01X26065417Y-4986419D01*
G01X26065417Y-4923427D02*
G01X26053987Y-4911997D01*
G01X26042557Y-4906409D01*
G01X26025539Y-4906409D01*
G01X26014109Y-4911997D01*
G01X26002679Y-4923427D01*
G01X25996837Y-4940699D01*
G01X25996837Y-4952129D01*
G01X26002679Y-4969147D01*
G01X26014109Y-4980577D01*
G01X26025539Y-4986419D01*
G01X26042557Y-4986419D01*
G01X26053987Y-4980577D01*
G01X26065417Y-4969147D01*
G01X26119011Y-4906409D02*
G01X26153301Y-4986419D01*
G01X26187591Y-4906409D02*
G01X26153301Y-4986419D01*
G01X26141871Y-5009279D01*
G01X26130441Y-5020709D01*
G01X26119011Y-5026297D01*
G01X26113169Y-5026297D01*
G01X26235343Y-4940699D02*
G01X26303923Y-4940699D01*
G01X26303923Y-4929269D01*
G01X26298335Y-4917839D01*
G01X26292493Y-4911997D01*
G01X26281063Y-4906409D01*
G01X26264045Y-4906409D01*
G01X26252615Y-4911997D01*
G01X26241185Y-4923427D01*
G01X26235343Y-4940699D01*
G01X26235343Y-4952129D01*
G01X26241185Y-4969147D01*
G01X26252615Y-4980577D01*
G01X26264045Y-4986419D01*
G01X26281063Y-4986419D01*
G01X26292493Y-4980577D01*
G01X26303923Y-4969147D01*
G01X26351675Y-4906409D02*
G01X26351675Y-4986419D01*
G01X26351675Y-4940699D02*
G01X26357517Y-4923427D01*
G01X26368947Y-4911997D01*
G01X26380377Y-4906409D01*
G01X26397395Y-4906409D01*

G04 Image Start*
G36*
G01X10768086Y-4789714D02*
G01X10933186Y-4954814D01*
G01X10768086Y-5119914D01*
G01X10602986Y-4954814D01*
G01X10638901Y-4954814D01*
G01X10768086Y-5083999D01*
G01X10897270Y-4954814D01*
G01X10768086Y-4825630D01*
G01X10768086Y-4825630D01*
G01X10638901Y-4954814D01*
G01X10602986Y-4954814D01*
G01X10768086Y-4789714D01*
G37*
G36*
G01X10899962Y-2724604D02*
G01X10794349Y-2713123D01*
G01X10751474Y-2810329D01*
G01X10708599Y-2713123D01*
G01X10602986Y-2724604D01*
G01X10665749Y-2638879D01*
G01X10626027Y-2584624D01*
G01X10657519Y-2584624D01*
G01X10697220Y-2638879D01*
G01X10657519Y-2693133D01*
G01X10724347Y-2685869D01*
G01X10724347Y-2685869D01*
G01X10751474Y-2747362D01*
G01X10778601Y-2685869D01*
G01X10845429Y-2693133D01*
G01X10805728Y-2638879D01*
G01X10845403Y-2584650D01*
G01X10778576Y-2591914D01*
G01X10751474Y-2530395D01*
G01X10724347Y-2591889D01*
G01X10657519Y-2584624D01*
G01X10626027Y-2584624D01*
G01X10602986Y-2553154D01*
G01X10708624Y-2564634D01*
G01X10751474Y-2467429D01*
G01X10794349Y-2564634D01*
G01X10899962Y-2553154D01*
G01X10837199Y-2638879D01*
G01X10899962Y-2724604D01*
G37*
G36*
G01X10770969Y-1610299D02*
G01X10763229Y-1610887D01*
G01X10755386Y-1611086D01*
G01X10747542Y-1610887D01*
G01X10739802Y-1610299D01*
G01X10732175Y-1609330D01*
G01X10724670Y-1607990D01*
G01X10710064Y-1604235D01*
G01X10696062Y-1599110D01*
G01X10682739Y-1592693D01*
G01X10670174Y-1585060D01*
G01X10658442Y-1576287D01*
G01X10647620Y-1566452D01*
G01X10637784Y-1555629D01*
G01X10629011Y-1543897D01*
G01X10621378Y-1531332D01*
G01X10614961Y-1518010D01*
G01X10609837Y-1504008D01*
G01X10606082Y-1489402D01*
G01X10604741Y-1481896D01*
G01X10603772Y-1474269D01*
G01X10603184Y-1466529D01*
G01X10602986Y-1458686D01*
G01X10628386Y-1458686D01*
G01X10629043Y-1471652D01*
G01X10630970Y-1484248D01*
G01X10634105Y-1496410D01*
G01X10638382Y-1508072D01*
G01X10643736Y-1519172D01*
G01X10650105Y-1529643D01*
G01X10657423Y-1539423D01*
G01X10665625Y-1548446D01*
G01X10674648Y-1556649D01*
G01X10684428Y-1563966D01*
G01X10694900Y-1570335D01*
G01X10705999Y-1575690D01*
G01X10717661Y-1579966D01*
G01X10729823Y-1583101D01*
G01X10729823Y-1583101D01*
G01X10742419Y-1585029D01*
G01X10755386Y-1585686D01*
G01X10768352Y-1585029D01*
G01X10780948Y-1583101D01*
G01X10793110Y-1579966D01*
G01X10804772Y-1575690D01*
G01X10815872Y-1570335D01*
G01X10826343Y-1563966D01*
G01X10836123Y-1556649D01*
G01X10845146Y-1548446D01*
G01X10853349Y-1539423D01*
G01X10860666Y-1529643D01*
G01X10867035Y-1519172D01*
G01X10872390Y-1508072D01*
G01X10876666Y-1496410D01*
G01X10879801Y-1484248D01*
G01X10881729Y-1471652D01*
G01X10882386Y-1458686D01*
G01X10881729Y-1445719D01*
G01X10879801Y-1433123D01*
G01X10876666Y-1420962D01*
G01X10872390Y-1409299D01*
G01X10867035Y-1398200D01*
G01X10860666Y-1387728D01*
G01X10853349Y-1377949D01*
G01X10845146Y-1368925D01*
G01X10836123Y-1360723D01*
G01X10826343Y-1353405D01*
G01X10815872Y-1347037D01*
G01X10804772Y-1341682D01*
G01X10793110Y-1337405D01*
G01X10780948Y-1334271D01*
G01X10768352Y-1332343D01*
G01X10755386Y-1331686D01*
G01X10742419Y-1332343D01*
G01X10729823Y-1334271D01*
G01X10717661Y-1337405D01*
G01X10705999Y-1341682D01*
G01X10694900Y-1347037D01*
G01X10684428Y-1353405D01*
G01X10674648Y-1360723D01*
G01X10665625Y-1368925D01*
G01X10657423Y-1377949D01*
G01X10650105Y-1387728D01*
G01X10643736Y-1398200D01*
G01X10638382Y-1409299D01*
G01X10634105Y-1420962D01*
G01X10630970Y-1433123D01*
G01X10629043Y-1445719D01*
G01X10628386Y-1458686D01*
G01X10602986Y-1458686D01*
G01X10603184Y-1450843D01*
G01X10603772Y-1443102D01*
G01X10604741Y-1435475D01*
G01X10606082Y-1427970D01*
G01X10609837Y-1413364D01*
G01X10614961Y-1399362D01*
G01X10621378Y-1386040D01*
G01X10629011Y-1373474D01*
G01X10637784Y-1361742D01*
G01X10647620Y-1350920D01*
G01X10658442Y-1341084D01*
G01X10670174Y-1332311D01*
G01X10682739Y-1324678D01*
G01X10696062Y-1318261D01*
G01X10710064Y-1313137D01*
G01X10724670Y-1309382D01*
G01X10732175Y-1308042D01*
G01X10739802Y-1307072D01*
G01X10747542Y-1306484D01*
G01X10755386Y-1306286D01*
G01X10763229Y-1306484D01*
G01X10770969Y-1307072D01*
G01X10778596Y-1308042D01*
G01X10786102Y-1309382D01*
G01X10800707Y-1313137D01*
G01X10814710Y-1318261D01*
G01X10828032Y-1324678D01*
G01X10840597Y-1332311D01*
G01X10852329Y-1341084D01*
G01X10863151Y-1350920D01*
G01X10872987Y-1361742D01*
G01X10881760Y-1373474D01*
G01X10889393Y-1386040D01*
G01X10895810Y-1399362D01*
G01X10900935Y-1413364D01*
G01X10904690Y-1427970D01*
G01X10906030Y-1435475D01*
G01X10906999Y-1443102D01*
G01X10907587Y-1450843D01*
G01X10907786Y-1458686D01*
G01X10907587Y-1466529D01*
G01X10906999Y-1474269D01*
G01X10906030Y-1481896D01*
G01X10904690Y-1489402D01*
G01X10900935Y-1504008D01*
G01X10895810Y-1518010D01*
G01X10889393Y-1531332D01*
G01X10881760Y-1543897D01*
G01X10872987Y-1555629D01*
G01X10863151Y-1566452D01*
G01X10852329Y-1576287D01*
G01X10840597Y-1585060D01*
G01X10828032Y-1592693D01*
G01X10814710Y-1599110D01*
G01X10800707Y-1604235D01*
G01X10786102Y-1607990D01*
G01X10778596Y-1609330D01*
G01X10770969Y-1610299D01*
G37*
G36*
G01X10907786Y-3850237D02*
G01X10824677Y-3850237D01*
G01X10824677Y-3933371D01*
G01X10686120Y-3933371D01*
G01X10686120Y-3850263D01*
G01X10602986Y-3850263D01*
G01X10602986Y-3737106D01*
G01X10628386Y-3737106D01*
G01X10628386Y-3824837D01*
G01X10711520Y-3824837D01*
G01X10711520Y-3907971D01*
G01X10711520Y-3907971D01*
G01X10799251Y-3907971D01*
G01X10799251Y-3824863D01*
G01X10882386Y-3824863D01*
G01X10882386Y-3737106D01*
G01X10799251Y-3737106D01*
G01X10799251Y-3653971D01*
G01X10711520Y-3653971D01*
G01X10711520Y-3737106D01*
G01X10628386Y-3737106D01*
G01X10602986Y-3737106D01*
G01X10602986Y-3711706D01*
G01X10686120Y-3711706D01*
G01X10686120Y-3628571D01*
G01X10824651Y-3628571D01*
G01X10824651Y-3711706D01*
G01X10907786Y-3711706D01*
G01X10907786Y-3850237D01*
G37*
G36*
G01X10907786Y-3048000D02*
G01X10837758Y-3200400D01*
G01X10907786Y-3352800D01*
G01X10755386Y-3282772D01*
G01X10602986Y-3352800D01*
G01X10626748Y-3301086D01*
G01X10654700Y-3301086D01*
G01X10744768Y-3259684D01*
G01X10755386Y-3254807D01*
G01X10766003Y-3259684D01*
G01X10856071Y-3301086D01*
G01X10814669Y-3211017D01*
G01X10809792Y-3200400D01*
G01X10814669Y-3189783D01*
G01X10856071Y-3099714D01*
G01X10766003Y-3141116D01*
G01X10755386Y-3145993D01*
G01X10744768Y-3141116D01*
G01X10654700Y-3099714D01*
G01X10696102Y-3189783D01*
G01X10700979Y-3200400D01*
G01X10700979Y-3200400D01*
G01X10696102Y-3211017D01*
G01X10654700Y-3301086D01*
G01X10626748Y-3301086D01*
G01X10673013Y-3200400D01*
G01X10602986Y-3048000D01*
G01X10755386Y-3118028D01*
G01X10907786Y-3048000D01*
G37*
G36*
G01X10602986Y-1886857D02*
G01X10907786Y-1886857D01*
G01X10755386Y-2150814D01*
G01X10617651Y-1912257D01*
G01X10646978Y-1912257D01*
G01X10755386Y-2100014D01*
G01X10863793Y-1912257D01*
G01X10863793Y-1912257D01*
G01X10646978Y-1912257D01*
G01X10617651Y-1912257D01*
G01X10602986Y-1886857D01*
G37*
G36*
G01X10882386Y-4488543D02*
G01X10780786Y-4488543D01*
G01X10742686Y-4412343D01*
G01X10704586Y-4488543D01*
G01X10602986Y-4488543D01*
G01X10602986Y-4463143D01*
G01X10628386Y-4463143D01*
G01X10688888Y-4463143D01*
G01X10719953Y-4400989D01*
G01X10742686Y-4355548D01*
G01X10765419Y-4400989D01*
G01X10796483Y-4463143D01*
G01X10856986Y-4463143D01*
G01X10856986Y-4402640D01*
G01X10794832Y-4371550D01*
G01X10749391Y-4348843D01*
G01X10794832Y-4326135D01*
G01X10856986Y-4295046D01*
G01X10856986Y-4234543D01*
G01X10796483Y-4234543D01*
G01X10765419Y-4296697D01*
G01X10742686Y-4342137D01*
G01X10719953Y-4296697D01*
G01X10688888Y-4234543D01*
G01X10628386Y-4234543D01*
G01X10628386Y-4295046D01*
G01X10690539Y-4326135D01*
G01X10735980Y-4348843D01*
G01X10690539Y-4371550D01*
G01X10628386Y-4402640D01*
G01X10628386Y-4463143D01*
G01X10628386Y-4463143D01*
G01X10602986Y-4463143D01*
G01X10602986Y-4386943D01*
G01X10679186Y-4348843D01*
G01X10602986Y-4310743D01*
G01X10602986Y-4209143D01*
G01X10704586Y-4209143D01*
G01X10742686Y-4285343D01*
G01X10780786Y-4209143D01*
G01X10882386Y-4209143D01*
G01X10882386Y-4310743D01*
G01X10806186Y-4348843D01*
G01X10882386Y-4386943D01*
G01X10882386Y-4488543D01*
G37*
G36*
G01X10602986Y-725714D02*
G01X10882386Y-725714D01*
G01X10882386Y-1005114D01*
G01X10602986Y-1005114D01*
G01X10602986Y-751114D01*
G01X10628386Y-751114D01*
G01X10628386Y-979714D01*
G01X10856986Y-979714D01*
G01X10856986Y-751114D01*
G01X10856986Y-751114D01*
G01X10628386Y-751114D01*
G01X10602986Y-751114D01*
G01X10602986Y-725714D01*
G37*

G04 PolygonModel Start*
G54D19*
G01X10312700Y-5225143D02*
G01X26988126Y-5225143D01*
G01X10312700Y-4644571D02*
G01X26988126Y-4644571D01*
G01X10312700Y-4064000D02*
G01X26988126Y-4064000D01*
G01X10312700Y-3483429D02*
G01X26988126Y-3483429D01*
G01X10312700Y-2902857D02*
G01X26988126Y-2902857D01*
G01X10312700Y-2322286D02*
G01X26988126Y-2322286D01*
G01X10312700Y-1741714D02*
G01X26988126Y-1741714D01*
G01X10312700Y-1161143D02*
G01X26988126Y-1161143D01*
G01X10312700Y-580571D02*
G01X26988126Y-580571D01*
G01X10312700Y0D02*
G01X26988126Y0D01*
G01X10312700Y0D02*
G01X10312700Y-5199743D01*
G01X11764128Y0D02*
G01X11764128Y-5199743D01*
G01X13178292Y0D02*
G01X13178292Y-5199743D01*
G01X17028823Y0D02*
G01X17028823Y-5199743D01*
G01X18490230Y0D02*
G01X18490230Y-5199743D01*
G01X19921411Y0D02*
G01X19921411Y-5199743D01*
G01X21590590Y0D02*
G01X21590590Y-5199743D01*
G01X23509959Y0D02*
G01X23509959Y-5199743D01*
G01X26988126Y0D02*
G01X26988126Y-5199743D01*

M02*

