G04 Layer: TopPasteMaskLayer*
G04 EasyEDA Pro v3.2.69, 2026-03-31 14:48:10*
G04 Gerber Generator version 0.3*
G04 Scale: 100 percent, Rotated: No, Reflected: No*
G04 Dimensions in millimeters*
G04 Leading zeros omitted, absolute positions, 4 integers and 5 decimals*
G04 Generated by one-click*
%FSLAX45Y45*%
%MOMM*%
%AMPolygonMacro1*4,1,16,-2.28001,-1.84,-2.775,-1.84,-2.775,-0.935,-2.28001,-0.935,-2.28001,2.26499,-1.52999,2.26499,-1.52999,1.765,1.52999,1.765,1.52999,2.26499,2.28001,2.26499,2.28001,-0.935,2.775,-0.935,2.775,-1.84,2.28001,-1.84,2.28001,-2.26499,-2.28001,-2.26499,-2.28001,-1.84,0*%
%ADD10R,0.8X0.9*%
%ADD11R,0.9X0.8*%
%ADD12R,2.0X4.49999*%
%ADD13R,0.75001X1.0*%
%ADD14PolygonMacro1*%
%ADD15R,0.7066X1.25001*%
%ADD16R,0.7X1.25001*%
%ADD17R,0.9X0.4*%
%ADD18R,2.49999X1.7*%
%ADD19R,0.35001X0.62499*%
%ADD20R,1.4X1.2*%
%ADD21O,2.045X0.58801*%
%ADD22R,1.49352X0.35001*%
%ADD23R,1.0X2.79999*%
%ADD24R,0.6X1.7*%
%ADD25R,0.665X0.28001*%
%ADD26R,1.65001X2.4*%
%ADD27O,4.3X2.3*%
%ADD28R,1.15001X1.4*%
G75*


G04 PolygonModel Start*
G36*
G01X147003Y-2464300D02*
G01X147003Y-2336302D01*
G01X152004Y-2331301D01*
G01X267005Y-2331301D01*
G01X272004Y-2336302D01*
G01X272506Y-2377305D01*
G01X227505Y-2377305D01*
G01X227505Y-2422304D01*
G01X271506Y-2422304D01*
G01X272004Y-2464300D01*
G01X267005Y-2469302D01*
G01X152004Y-2469302D01*
G01X147003Y-2464300D01*
G37*
G36*
G01X487998Y-2336300D02*
G01X487998Y-2464298D01*
G01X482996Y-2469299D01*
G01X367995Y-2469299D01*
G01X362996Y-2464298D01*
G01X362494Y-2423295D01*
G01X407495Y-2423295D01*
G01X407495Y-2378296D01*
G01X363494Y-2378296D01*
G01X362996Y-2336300D01*
G01X367995Y-2331298D01*
G01X482996Y-2331298D01*
G01X487998Y-2336300D01*
G37*
G36*
G01X787601Y-3890099D02*
G01X750575Y-3890099D01*
G01X740575Y-3880099D01*
G01X740575Y-3849609D01*
G01X730575Y-3839609D01*
G01X691825Y-3839609D01*
G01X681825Y-3849609D01*
G01X681825Y-3880099D01*
G01X671825Y-3890099D01*
G01X634799Y-3890099D01*
G01X624799Y-3880099D01*
G01X624799Y-3751600D01*
G01X634799Y-3741600D01*
G01X787601Y-3741600D01*
G01X797601Y-3751600D01*
G01X797601Y-3880099D01*
G01X787601Y-3890099D01*
G37*
G36*
G01X787601Y-4060101D02*
G01X797601Y-4070101D01*
G01X797601Y-4198600D01*
G01X787601Y-4208600D01*
G01X634799Y-4208600D01*
G01X624799Y-4198600D01*
G01X624799Y-4070101D01*
G01X634799Y-4060101D01*
G01X671825Y-4060101D01*
G01X681825Y-4070101D01*
G01X681825Y-4100591D01*
G01X691825Y-4110591D01*
G01X730575Y-4110591D01*
G01X740575Y-4100591D01*
G01X740575Y-4070101D01*
G01X750575Y-4060101D01*
G01X787601Y-4060101D01*
G37*
G36*
G01X525038Y-3891537D02*
G01X488013Y-3891537D01*
G01X478013Y-3881537D01*
G01X478013Y-3851046D01*
G01X468013Y-3841046D01*
G01X429263Y-3841046D01*
G01X419263Y-3851046D01*
G01X419263Y-3881537D01*
G01X409263Y-3891537D01*
G01X372237Y-3891537D01*
G01X362237Y-3881537D01*
G01X362237Y-3753038D01*
G01X372237Y-3743038D01*
G01X525038Y-3743038D01*
G01X535038Y-3753038D01*
G01X535038Y-3881537D01*
G01X525038Y-3891537D01*
G37*
G36*
G01X525038Y-4061539D02*
G01X535038Y-4071539D01*
G01X535038Y-4200037D01*
G01X525038Y-4210037D01*
G01X372237Y-4210037D01*
G01X362237Y-4200037D01*
G01X362237Y-4071539D01*
G01X372237Y-4061539D01*
G01X409263Y-4061539D01*
G01X419263Y-4071539D01*
G01X419263Y-4102029D01*
G01X429263Y-4112029D01*
G01X468013Y-4112029D01*
G01X478013Y-4102029D01*
G01X478013Y-4071539D01*
G01X488013Y-4061539D01*
G01X525038Y-4061539D01*
G37*
G36*
G01X400800Y-1996682D02*
G01X400800Y-1959656D01*
G01X410800Y-1949657D01*
G01X441290Y-1949657D01*
G01X451290Y-1939657D01*
G01X451290Y-1900906D01*
G01X441290Y-1890906D01*
G01X410800Y-1890906D01*
G01X400800Y-1880906D01*
G01X400800Y-1843881D01*
G01X410800Y-1833881D01*
G01X539298Y-1833881D01*
G01X549298Y-1843881D01*
G01X549298Y-1996682D01*
G01X539298Y-2006682D01*
G01X410800Y-2006682D01*
G01X400800Y-1996682D01*
G37*
G36*
G01X230798Y-1996682D02*
G01X220798Y-2006682D01*
G01X92299Y-2006682D01*
G01X82299Y-1996682D01*
G01X82299Y-1843881D01*
G01X92299Y-1833881D01*
G01X220798Y-1833881D01*
G01X230798Y-1843881D01*
G01X230798Y-1880906D01*
G01X220798Y-1890906D01*
G01X190307Y-1890906D01*
G01X180307Y-1900906D01*
G01X180307Y-1939657D01*
G01X190307Y-1949657D01*
G01X220798Y-1949657D01*
G01X230798Y-1959656D01*
G01X230798Y-1996682D01*
G37*
G36*
G01X2039303Y-4256350D02*
G01X2039303Y-4128352D01*
G01X2044304Y-4123351D01*
G01X2159305Y-4123351D01*
G01X2164304Y-4128352D01*
G01X2164806Y-4169355D01*
G01X2119805Y-4169355D01*
G01X2119805Y-4214354D01*
G01X2163806Y-4214354D01*
G01X2164304Y-4256350D01*
G01X2159305Y-4261352D01*
G01X2044304Y-4261352D01*
G01X2039303Y-4256350D01*
G37*
G36*
G01X2380298Y-4128350D02*
G01X2380298Y-4256348D01*
G01X2375296Y-4261349D01*
G01X2260295Y-4261349D01*
G01X2255296Y-4256348D01*
G01X2254794Y-4215345D01*
G01X2299795Y-4215345D01*
G01X2299795Y-4170346D01*
G01X2255794Y-4170346D01*
G01X2255296Y-4128350D01*
G01X2260295Y-4123348D01*
G01X2375296Y-4123348D01*
G01X2380298Y-4128350D01*
G37*
G36*
G01X1537200Y-4120197D02*
G01X1409202Y-4120197D01*
G01X1404201Y-4115196D01*
G01X1404201Y-4000195D01*
G01X1409202Y-3995196D01*
G01X1450205Y-3994694D01*
G01X1450205Y-4039695D01*
G01X1495204Y-4039695D01*
G01X1495204Y-3995694D01*
G01X1537200Y-3995196D01*
G01X1542202Y-4000195D01*
G01X1542202Y-4115196D01*
G01X1537200Y-4120197D01*
G37*
G36*
G01X1409200Y-3779202D02*
G01X1537198Y-3779202D01*
G01X1542199Y-3784204D01*
G01X1542199Y-3899205D01*
G01X1537198Y-3904204D01*
G01X1496195Y-3904706D01*
G01X1496195Y-3859705D01*
G01X1451196Y-3859705D01*
G01X1451196Y-3903706D01*
G01X1409200Y-3904204D01*
G01X1404198Y-3899205D01*
G01X1404198Y-3784204D01*
G01X1409200Y-3779202D01*
G37*
G36*
G01X2263276Y-2703987D02*
G01X2263276Y-2741013D01*
G01X2253276Y-2751013D01*
G01X2222786Y-2751013D01*
G01X2212786Y-2761013D01*
G01X2212786Y-2799763D01*
G01X2222786Y-2809763D01*
G01X2253276Y-2809763D01*
G01X2263276Y-2819763D01*
G01X2263276Y-2856789D01*
G01X2253276Y-2866789D01*
G01X2124777Y-2866789D01*
G01X2114777Y-2856789D01*
G01X2114777Y-2703987D01*
G01X2124777Y-2693987D01*
G01X2253276Y-2693987D01*
G01X2263276Y-2703987D01*
G37*
G36*
G01X2433278Y-2703987D02*
G01X2443278Y-2693987D01*
G01X2571777Y-2693987D01*
G01X2581777Y-2703987D01*
G01X2581777Y-2856789D01*
G01X2571777Y-2866789D01*
G01X2443278Y-2866789D01*
G01X2433278Y-2856789D01*
G01X2433278Y-2819763D01*
G01X2443278Y-2809763D01*
G01X2473768Y-2809763D01*
G01X2483768Y-2799763D01*
G01X2483768Y-2761013D01*
G01X2473768Y-2751013D01*
G01X2443278Y-2751013D01*
G01X2433278Y-2741013D01*
G01X2433278Y-2703987D01*
G37*
G36*
G01X2263276Y-2961217D02*
G01X2263276Y-2998243D01*
G01X2253276Y-3008243D01*
G01X2222786Y-3008243D01*
G01X2212786Y-3018243D01*
G01X2212786Y-3056993D01*
G01X2222786Y-3066993D01*
G01X2253276Y-3066993D01*
G01X2263276Y-3076993D01*
G01X2263276Y-3114018D01*
G01X2253276Y-3124018D01*
G01X2124777Y-3124018D01*
G01X2114777Y-3114018D01*
G01X2114777Y-2961217D01*
G01X2124777Y-2951217D01*
G01X2253276Y-2951217D01*
G01X2263276Y-2961217D01*
G37*
G36*
G01X2433278Y-2961217D02*
G01X2443278Y-2951217D01*
G01X2571777Y-2951217D01*
G01X2581777Y-2961217D01*
G01X2581777Y-3114018D01*
G01X2571777Y-3124018D01*
G01X2443278Y-3124018D01*
G01X2433278Y-3114018D01*
G01X2433278Y-3076993D01*
G01X2443278Y-3066993D01*
G01X2473768Y-3066993D01*
G01X2483768Y-3056993D01*
G01X2483768Y-3018243D01*
G01X2473768Y-3008243D01*
G01X2443278Y-3008243D01*
G01X2433278Y-2998243D01*
G01X2433278Y-2961217D01*
G37*
G36*
G01X1067001Y-3890099D02*
G01X1029975Y-3890099D01*
G01X1019975Y-3880099D01*
G01X1019975Y-3849609D01*
G01X1009975Y-3839609D01*
G01X971225Y-3839609D01*
G01X961225Y-3849609D01*
G01X961225Y-3880099D01*
G01X951225Y-3890099D01*
G01X914199Y-3890099D01*
G01X904199Y-3880099D01*
G01X904199Y-3751600D01*
G01X914199Y-3741600D01*
G01X1067001Y-3741600D01*
G01X1077001Y-3751600D01*
G01X1077001Y-3880099D01*
G01X1067001Y-3890099D01*
G37*
G36*
G01X1067001Y-4060101D02*
G01X1077001Y-4070101D01*
G01X1077001Y-4198600D01*
G01X1067001Y-4208600D01*
G01X914199Y-4208600D01*
G01X904199Y-4198600D01*
G01X904199Y-4070101D01*
G01X914199Y-4060101D01*
G01X951225Y-4060101D01*
G01X961225Y-4070101D01*
G01X961225Y-4100591D01*
G01X971225Y-4110591D01*
G01X1009975Y-4110591D01*
G01X1019975Y-4100591D01*
G01X1019975Y-4070101D01*
G01X1029975Y-4060101D01*
G01X1067001Y-4060101D01*
G37*
G36*
G01X1321001Y-3890099D02*
G01X1283975Y-3890099D01*
G01X1273975Y-3880099D01*
G01X1273975Y-3849609D01*
G01X1263975Y-3839609D01*
G01X1225225Y-3839609D01*
G01X1215225Y-3849609D01*
G01X1215225Y-3880099D01*
G01X1205225Y-3890099D01*
G01X1168199Y-3890099D01*
G01X1158199Y-3880099D01*
G01X1158199Y-3751600D01*
G01X1168199Y-3741600D01*
G01X1321001Y-3741600D01*
G01X1331001Y-3751600D01*
G01X1331001Y-3880099D01*
G01X1321001Y-3890099D01*
G37*
G36*
G01X1321001Y-4060101D02*
G01X1331001Y-4070101D01*
G01X1331001Y-4198600D01*
G01X1321001Y-4208600D01*
G01X1168199Y-4208600D01*
G01X1158199Y-4198600D01*
G01X1158199Y-4070101D01*
G01X1168199Y-4060101D01*
G01X1205225Y-4060101D01*
G01X1215225Y-4070101D01*
G01X1215225Y-4100591D01*
G01X1225225Y-4110591D01*
G01X1263975Y-4110591D01*
G01X1273975Y-4100591D01*
G01X1273975Y-4070101D01*
G01X1283975Y-4060101D01*
G01X1321001Y-4060101D01*
G37*
G36*
G01X402501Y-2248101D02*
G01X402501Y-2211075D01*
G01X412501Y-2201075D01*
G01X442991Y-2201075D01*
G01X452991Y-2191075D01*
G01X452991Y-2152325D01*
G01X442991Y-2142325D01*
G01X412501Y-2142325D01*
G01X402501Y-2132325D01*
G01X402501Y-2095299D01*
G01X412501Y-2085299D01*
G01X541000Y-2085299D01*
G01X551000Y-2095299D01*
G01X551000Y-2248101D01*
G01X541000Y-2258101D01*
G01X412501Y-2258101D01*
G01X402501Y-2248101D01*
G37*
G36*
G01X232499Y-2248101D02*
G01X222499Y-2258101D01*
G01X94000Y-2258101D01*
G01X84000Y-2248101D01*
G01X84000Y-2095299D01*
G01X94000Y-2085299D01*
G01X222499Y-2085299D01*
G01X232499Y-2095299D01*
G01X232499Y-2132325D01*
G01X222499Y-2142325D01*
G01X192009Y-2142325D01*
G01X182009Y-2152325D01*
G01X182009Y-2191075D01*
G01X192009Y-2201075D01*
G01X222499Y-2201075D01*
G01X232499Y-2211075D01*
G01X232499Y-2248101D01*
G37*
G36*
G01X4406699Y-478701D02*
G01X4443725Y-478701D01*
G01X4453725Y-488701D01*
G01X4453725Y-519191D01*
G01X4463725Y-529191D01*
G01X4502475Y-529191D01*
G01X4512475Y-519191D01*
G01X4512475Y-488701D01*
G01X4522475Y-478701D01*
G01X4559501Y-478701D01*
G01X4569501Y-488701D01*
G01X4569501Y-617200D01*
G01X4559501Y-627200D01*
G01X4406699Y-627200D01*
G01X4396699Y-617200D01*
G01X4396699Y-488701D01*
G01X4406699Y-478701D01*
G37*
G36*
G01X4406699Y-308699D02*
G01X4396699Y-298699D01*
G01X4396699Y-170200D01*
G01X4406699Y-160200D01*
G01X4559501Y-160200D01*
G01X4569501Y-170200D01*
G01X4569501Y-298699D01*
G01X4559501Y-308699D01*
G01X4522475Y-308699D01*
G01X4512475Y-298699D01*
G01X4512475Y-268209D01*
G01X4502475Y-258209D01*
G01X4463725Y-258209D01*
G01X4453725Y-268209D01*
G01X4453725Y-298699D01*
G01X4443725Y-308699D01*
G01X4406699Y-308699D01*
G37*
G36*
G01X2263276Y-2446758D02*
G01X2263276Y-2483783D01*
G01X2253276Y-2493783D01*
G01X2222786Y-2493783D01*
G01X2212786Y-2503783D01*
G01X2212786Y-2542534D01*
G01X2222786Y-2552534D01*
G01X2253276Y-2552534D01*
G01X2263276Y-2562534D01*
G01X2263276Y-2599559D01*
G01X2253276Y-2609559D01*
G01X2124777Y-2609559D01*
G01X2114777Y-2599559D01*
G01X2114777Y-2446758D01*
G01X2124777Y-2436758D01*
G01X2253276Y-2436758D01*
G01X2263276Y-2446758D01*
G37*
G36*
G01X2433278Y-2446758D02*
G01X2443278Y-2436758D01*
G01X2571777Y-2436758D01*
G01X2581777Y-2446758D01*
G01X2581777Y-2599559D01*
G01X2571777Y-2609559D01*
G01X2443278Y-2609559D01*
G01X2433278Y-2599559D01*
G01X2433278Y-2562534D01*
G01X2443278Y-2552534D01*
G01X2473768Y-2552534D01*
G01X2483768Y-2542534D01*
G01X2483768Y-2503783D01*
G01X2473768Y-2493783D01*
G01X2443278Y-2493783D01*
G01X2433278Y-2483783D01*
G01X2433278Y-2446758D01*
G37*
G36*
G01X4542701Y-2895801D02*
G01X4542701Y-2858775D01*
G01X4552701Y-2848775D01*
G01X4583191Y-2848775D01*
G01X4593191Y-2838775D01*
G01X4593191Y-2800025D01*
G01X4583191Y-2790025D01*
G01X4552701Y-2790025D01*
G01X4542701Y-2780025D01*
G01X4542701Y-2742999D01*
G01X4552701Y-2732999D01*
G01X4681200Y-2732999D01*
G01X4691200Y-2742999D01*
G01X4691200Y-2895801D01*
G01X4681200Y-2905801D01*
G01X4552701Y-2905801D01*
G01X4542701Y-2895801D01*
G37*
G36*
G01X4372699Y-2895801D02*
G01X4362699Y-2905801D01*
G01X4234200Y-2905801D01*
G01X4224200Y-2895801D01*
G01X4224200Y-2742999D01*
G01X4234200Y-2732999D01*
G01X4362699Y-2732999D01*
G01X4372699Y-2742999D01*
G01X4372699Y-2780025D01*
G01X4362699Y-2790025D01*
G01X4332209Y-2790025D01*
G01X4322209Y-2800025D01*
G01X4322209Y-2838775D01*
G01X4332209Y-2848775D01*
G01X4362699Y-2848775D01*
G01X4372699Y-2858775D01*
G01X4372699Y-2895801D01*
G37*
G36*
G01X750527Y-3104364D02*
G01X745528Y-3099363D01*
G01X745528Y-3019363D01*
G01X750527Y-3014364D01*
G01X830527Y-3014364D01*
G01X835528Y-3019363D01*
G01X835528Y-3043566D01*
G01X798528Y-3043566D01*
G01X798528Y-3076566D01*
G01X835528Y-3076566D01*
G01X835528Y-3099363D01*
G01X830527Y-3104364D01*
G01X750527Y-3104364D01*
G37*
G36*
G01X989531Y-3014367D02*
G01X994529Y-3019368D01*
G01X994529Y-3099368D01*
G01X989531Y-3104366D01*
G01X909531Y-3104366D01*
G01X904530Y-3099368D01*
G01X904530Y-3075164D01*
G01X941530Y-3075164D01*
G01X941530Y-3042164D01*
G01X904530Y-3042164D01*
G01X904530Y-3019368D01*
G01X909531Y-3014367D01*
G01X989531Y-3014367D01*
G37*
G36*
G01X750527Y-2623099D02*
G01X745528Y-2618097D01*
G01X745528Y-2538098D01*
G01X750527Y-2533099D01*
G01X830527Y-2533099D01*
G01X835528Y-2538098D01*
G01X835528Y-2562301D01*
G01X798528Y-2562301D01*
G01X798528Y-2595301D01*
G01X835528Y-2595301D01*
G01X835528Y-2618097D01*
G01X830527Y-2623099D01*
G01X750527Y-2623099D01*
G37*
G36*
G01X989531Y-2533101D02*
G01X994529Y-2538103D01*
G01X994529Y-2618102D01*
G01X989531Y-2623101D01*
G01X909531Y-2623101D01*
G01X904530Y-2618102D01*
G01X904530Y-2593899D01*
G01X941530Y-2593899D01*
G01X941530Y-2560899D01*
G01X904530Y-2560899D01*
G01X904530Y-2538103D01*
G01X909531Y-2533101D01*
G01X989531Y-2533101D01*
G37*
G36*
G01X989531Y-2380034D02*
G01X994529Y-2385035D01*
G01X994529Y-2465035D01*
G01X989531Y-2470034D01*
G01X909531Y-2470034D01*
G01X904530Y-2465035D01*
G01X904530Y-2440831D01*
G01X941530Y-2440831D01*
G01X941530Y-2407832D01*
G01X904530Y-2407832D01*
G01X904530Y-2385035D01*
G01X909531Y-2380034D01*
G01X989531Y-2380034D01*
G37*
G36*
G01X750527Y-2470031D02*
G01X745528Y-2465030D01*
G01X745528Y-2385030D01*
G01X750527Y-2380031D01*
G01X830527Y-2380031D01*
G01X835528Y-2385030D01*
G01X835528Y-2409234D01*
G01X798528Y-2409234D01*
G01X798528Y-2442233D01*
G01X835528Y-2442233D01*
G01X835528Y-2465030D01*
G01X830527Y-2470031D01*
G01X750527Y-2470031D01*
G37*
G36*
G01X750527Y-2951296D02*
G01X745528Y-2946295D01*
G01X745528Y-2866295D01*
G01X750527Y-2861297D01*
G01X830527Y-2861297D01*
G01X835528Y-2866295D01*
G01X835528Y-2890499D01*
G01X798528Y-2890499D01*
G01X798528Y-2923499D01*
G01X835528Y-2923499D01*
G01X835528Y-2946295D01*
G01X830527Y-2951296D01*
G01X750527Y-2951296D01*
G37*
G36*
G01X989531Y-2861299D02*
G01X994529Y-2866300D01*
G01X994529Y-2946300D01*
G01X989531Y-2951299D01*
G01X909531Y-2951299D01*
G01X904530Y-2946300D01*
G01X904530Y-2922097D01*
G01X941530Y-2922097D01*
G01X941530Y-2889097D01*
G01X904530Y-2889097D01*
G01X904530Y-2866300D01*
G01X909531Y-2861299D01*
G01X989531Y-2861299D01*
G37*
G36*
G01X1046338Y-3361162D02*
G01X1051339Y-3356163D01*
G01X1131339Y-3356163D01*
G01X1136338Y-3361162D01*
G01X1136338Y-3441162D01*
G01X1131339Y-3446163D01*
G01X1107135Y-3446163D01*
G01X1107135Y-3409163D01*
G01X1074136Y-3409163D01*
G01X1074136Y-3446163D01*
G01X1051339Y-3446163D01*
G01X1046338Y-3441162D01*
G01X1046338Y-3361162D01*
G37*
G36*
G01X1136335Y-3600166D02*
G01X1131334Y-3605164D01*
G01X1051334Y-3605164D01*
G01X1046335Y-3600166D01*
G01X1046335Y-3520166D01*
G01X1051334Y-3515164D01*
G01X1075538Y-3515164D01*
G01X1075538Y-3552165D01*
G01X1108537Y-3552165D01*
G01X1108537Y-3515164D01*
G01X1131334Y-3515164D01*
G01X1136335Y-3520166D01*
G01X1136335Y-3600166D01*
G37*
G36*
G01X1741835Y-3557883D02*
G01X1736837Y-3552882D01*
G01X1736837Y-3472882D01*
G01X1741835Y-3467884D01*
G01X1821835Y-3467884D01*
G01X1826837Y-3472882D01*
G01X1826837Y-3497086D01*
G01X1789836Y-3497086D01*
G01X1789836Y-3530086D01*
G01X1826837Y-3530086D01*
G01X1826837Y-3552882D01*
G01X1821835Y-3557883D01*
G01X1741835Y-3557883D01*
G37*
G36*
G01X1980839Y-3467886D02*
G01X1985838Y-3472887D01*
G01X1985838Y-3552887D01*
G01X1980839Y-3557886D01*
G01X1900839Y-3557886D01*
G01X1895838Y-3552887D01*
G01X1895838Y-3528684D01*
G01X1932838Y-3528684D01*
G01X1932838Y-3495684D01*
G01X1895838Y-3495684D01*
G01X1895838Y-3472887D01*
G01X1900839Y-3467886D01*
G01X1980839Y-3467886D01*
G37*
G36*
G01X1980839Y-3311644D02*
G01X1985838Y-3316645D01*
G01X1985838Y-3396645D01*
G01X1980839Y-3401643D01*
G01X1900839Y-3401643D01*
G01X1895838Y-3396645D01*
G01X1895838Y-3372441D01*
G01X1932838Y-3372441D01*
G01X1932838Y-3339441D01*
G01X1895838Y-3339441D01*
G01X1895838Y-3316645D01*
G01X1900839Y-3311644D01*
G01X1980839Y-3311644D01*
G37*
G36*
G01X1741835Y-3401641D02*
G01X1736837Y-3396640D01*
G01X1736837Y-3316640D01*
G01X1741835Y-3311641D01*
G01X1821835Y-3311641D01*
G01X1826837Y-3316640D01*
G01X1826837Y-3340843D01*
G01X1789836Y-3340843D01*
G01X1789836Y-3373843D01*
G01X1826837Y-3373843D01*
G01X1826837Y-3396640D01*
G01X1821835Y-3401641D01*
G01X1741835Y-3401641D01*
G37*
G36*
G01X1980839Y-3624128D02*
G01X1985838Y-3629130D01*
G01X1985838Y-3709129D01*
G01X1980839Y-3714128D01*
G01X1900839Y-3714128D01*
G01X1895838Y-3709129D01*
G01X1895838Y-3684926D01*
G01X1932838Y-3684926D01*
G01X1932838Y-3651926D01*
G01X1895838Y-3651926D01*
G01X1895838Y-3629130D01*
G01X1900839Y-3624128D01*
G01X1980839Y-3624128D01*
G37*
G36*
G01X1741835Y-3714126D02*
G01X1736837Y-3709124D01*
G01X1736837Y-3629125D01*
G01X1741835Y-3624126D01*
G01X1821835Y-3624126D01*
G01X1826837Y-3629125D01*
G01X1826837Y-3653328D01*
G01X1789836Y-3653328D01*
G01X1789836Y-3686328D01*
G01X1826837Y-3686328D01*
G01X1826837Y-3709124D01*
G01X1821835Y-3714126D01*
G01X1741835Y-3714126D01*
G37*
G36*
G01X4412701Y-1912498D02*
G01X4417703Y-1907499D01*
G01X4497702Y-1907499D01*
G01X4502701Y-1912498D01*
G01X4502701Y-1992498D01*
G01X4497702Y-1997499D01*
G01X4473499Y-1997499D01*
G01X4473499Y-1960499D01*
G01X4440499Y-1960499D01*
G01X4440499Y-1997499D01*
G01X4417703Y-1997499D01*
G01X4412701Y-1992498D01*
G01X4412701Y-1912498D01*
G37*
G36*
G01X4502699Y-2151502D02*
G01X4497697Y-2156501D01*
G01X4417698Y-2156501D01*
G01X4412699Y-2151502D01*
G01X4412699Y-2071502D01*
G01X4417698Y-2066501D01*
G01X4441901Y-2066501D01*
G01X4441901Y-2103501D01*
G01X4474901Y-2103501D01*
G01X4474901Y-2066501D01*
G01X4497697Y-2066501D01*
G01X4502699Y-2071502D01*
G01X4502699Y-2151502D01*
G37*
G36*
G01X4819101Y-1899798D02*
G01X4824103Y-1894799D01*
G01X4904102Y-1894799D01*
G01X4909101Y-1899798D01*
G01X4909101Y-1979798D01*
G01X4904102Y-1984799D01*
G01X4879899Y-1984799D01*
G01X4879899Y-1947799D01*
G01X4846899Y-1947799D01*
G01X4846899Y-1984799D01*
G01X4824103Y-1984799D01*
G01X4819101Y-1979798D01*
G01X4819101Y-1899798D01*
G37*
G36*
G01X4909099Y-2138802D02*
G01X4904097Y-2143801D01*
G01X4824098Y-2143801D01*
G01X4819099Y-2138802D01*
G01X4819099Y-2058802D01*
G01X4824098Y-2053801D01*
G01X4848301Y-2053801D01*
G01X4848301Y-2090801D01*
G01X4881301Y-2090801D01*
G01X4881301Y-2053801D01*
G01X4904097Y-2053801D01*
G01X4909099Y-2058802D01*
G01X4909099Y-2138802D01*
G37*
G36*
G01X6456802Y-1644101D02*
G01X6461801Y-1649103D01*
G01X6461801Y-1729102D01*
G01X6456802Y-1734101D01*
G01X6376802Y-1734101D01*
G01X6371801Y-1729102D01*
G01X6371801Y-1704899D01*
G01X6408801Y-1704899D01*
G01X6408801Y-1671899D01*
G01X6371801Y-1671899D01*
G01X6371801Y-1649103D01*
G01X6376802Y-1644101D01*
G01X6456802Y-1644101D01*
G37*
G36*
G01X6217798Y-1734099D02*
G01X6212799Y-1729097D01*
G01X6212799Y-1649098D01*
G01X6217798Y-1644099D01*
G01X6297798Y-1644099D01*
G01X6302799Y-1649098D01*
G01X6302799Y-1673301D01*
G01X6265799Y-1673301D01*
G01X6265799Y-1706301D01*
G01X6302799Y-1706301D01*
G01X6302799Y-1729097D01*
G01X6297798Y-1734099D01*
G01X6217798Y-1734099D01*
G37*
G36*
G01X5437051Y-3715548D02*
G01X5432050Y-3720547D01*
G01X5352050Y-3720547D01*
G01X5347051Y-3715548D01*
G01X5347051Y-3635548D01*
G01X5352050Y-3630547D01*
G01X5376254Y-3630547D01*
G01X5376254Y-3667547D01*
G01X5409253Y-3667547D01*
G01X5409253Y-3630547D01*
G01X5432050Y-3630547D01*
G01X5437051Y-3635548D01*
G01X5437051Y-3715548D01*
G37*
G36*
G01X5347054Y-3476544D02*
G01X5352055Y-3471546D01*
G01X5432055Y-3471546D01*
G01X5437054Y-3476544D01*
G01X5437054Y-3556544D01*
G01X5432055Y-3561545D01*
G01X5407851Y-3561545D01*
G01X5407851Y-3524545D01*
G01X5374852Y-3524545D01*
G01X5374852Y-3561545D01*
G01X5352055Y-3561545D01*
G01X5347054Y-3556544D01*
G01X5347054Y-3476544D01*
G37*
G36*
G01X5277399Y-3713602D02*
G01X5272397Y-3718601D01*
G01X5192398Y-3718601D01*
G01X5187399Y-3713602D01*
G01X5187399Y-3633602D01*
G01X5192398Y-3628601D01*
G01X5216601Y-3628601D01*
G01X5216601Y-3665601D01*
G01X5249601Y-3665601D01*
G01X5249601Y-3628601D01*
G01X5272397Y-3628601D01*
G01X5277399Y-3633602D01*
G01X5277399Y-3713602D01*
G37*
G36*
G01X5187401Y-3474598D02*
G01X5192403Y-3469599D01*
G01X5272402Y-3469599D01*
G01X5277401Y-3474598D01*
G01X5277401Y-3554598D01*
G01X5272402Y-3559599D01*
G01X5248199Y-3559599D01*
G01X5248199Y-3522599D01*
G01X5215199Y-3522599D01*
G01X5215199Y-3559599D01*
G01X5192403Y-3559599D01*
G01X5187401Y-3554598D01*
G01X5187401Y-3474598D01*
G37*
G36*
G01X6152002Y-1644101D02*
G01X6157001Y-1649103D01*
G01X6157001Y-1729102D01*
G01X6152002Y-1734101D01*
G01X6072002Y-1734101D01*
G01X6067001Y-1729102D01*
G01X6067001Y-1704899D01*
G01X6104001Y-1704899D01*
G01X6104001Y-1671899D01*
G01X6067001Y-1671899D01*
G01X6067001Y-1649103D01*
G01X6072002Y-1644101D01*
G01X6152002Y-1644101D01*
G37*
G36*
G01X5912998Y-1734099D02*
G01X5907999Y-1729097D01*
G01X5907999Y-1649098D01*
G01X5912998Y-1644099D01*
G01X5992998Y-1644099D01*
G01X5997999Y-1649098D01*
G01X5997999Y-1673301D01*
G01X5960999Y-1673301D01*
G01X5960999Y-1706301D01*
G01X5997999Y-1706301D01*
G01X5997999Y-1729097D01*
G01X5992998Y-1734099D01*
G01X5912998Y-1734099D01*
G37*
G36*
G01X7702001Y-1036198D02*
G01X7707003Y-1031199D01*
G01X7787002Y-1031199D01*
G01X7792001Y-1036198D01*
G01X7792001Y-1116198D01*
G01X7787002Y-1121199D01*
G01X7762799Y-1121199D01*
G01X7762799Y-1084199D01*
G01X7729799Y-1084199D01*
G01X7729799Y-1121199D01*
G01X7707003Y-1121199D01*
G01X7702001Y-1116198D01*
G01X7702001Y-1036198D01*
G37*
G36*
G01X7791999Y-1275202D02*
G01X7786997Y-1280201D01*
G01X7706998Y-1280201D01*
G01X7701999Y-1275202D01*
G01X7701999Y-1195202D01*
G01X7706998Y-1190201D01*
G01X7731201Y-1190201D01*
G01X7731201Y-1227201D01*
G01X7764201Y-1227201D01*
G01X7764201Y-1190201D01*
G01X7786997Y-1190201D01*
G01X7791999Y-1195202D01*
G01X7791999Y-1275202D01*
G37*
G36*
G01X7702001Y-1385211D02*
G01X7707003Y-1380212D01*
G01X7787002Y-1380212D01*
G01X7792001Y-1385211D01*
G01X7792001Y-1465210D01*
G01X7787002Y-1470212D01*
G01X7762799Y-1470212D01*
G01X7762799Y-1433212D01*
G01X7729799Y-1433212D01*
G01X7729799Y-1470212D01*
G01X7707003Y-1470212D01*
G01X7702001Y-1465210D01*
G01X7702001Y-1385211D01*
G37*
G36*
G01X7791999Y-1624214D02*
G01X7786997Y-1629213D01*
G01X7706998Y-1629213D01*
G01X7701999Y-1624214D01*
G01X7701999Y-1544215D01*
G01X7706998Y-1539213D01*
G01X7731201Y-1539213D01*
G01X7731201Y-1576214D01*
G01X7764201Y-1576214D01*
G01X7764201Y-1539213D01*
G01X7786997Y-1539213D01*
G01X7791999Y-1544215D01*
G01X7791999Y-1624214D01*
G37*
G36*
G01X7000824Y-1633962D02*
G01X7005825Y-1628963D01*
G01X7085825Y-1628963D01*
G01X7090824Y-1633962D01*
G01X7090824Y-1713962D01*
G01X7085825Y-1718963D01*
G01X7061622Y-1718963D01*
G01X7061622Y-1681963D01*
G01X7028622Y-1681963D01*
G01X7028622Y-1718963D01*
G01X7005825Y-1718963D01*
G01X7000824Y-1713962D01*
G01X7000824Y-1633962D01*
G37*
G36*
G01X7090821Y-1872966D02*
G01X7085820Y-1877964D01*
G01X7005820Y-1877964D01*
G01X7000822Y-1872966D01*
G01X7000822Y-1792966D01*
G01X7005820Y-1787964D01*
G01X7030024Y-1787964D01*
G01X7030024Y-1824965D01*
G01X7063024Y-1824965D01*
G01X7063024Y-1787964D01*
G01X7085820Y-1787964D01*
G01X7090821Y-1792966D01*
G01X7090821Y-1872966D01*
G37*
G36*
G01X7423699Y-2487265D02*
G01X7418697Y-2492263D01*
G01X7338698Y-2492263D01*
G01X7333699Y-2487265D01*
G01X7333699Y-2407265D01*
G01X7338698Y-2402263D01*
G01X7362901Y-2402263D01*
G01X7362901Y-2439264D01*
G01X7395901Y-2439264D01*
G01X7395901Y-2402263D01*
G01X7418697Y-2402263D01*
G01X7423699Y-2407265D01*
G01X7423699Y-2487265D01*
G37*
G36*
G01X7333701Y-2248261D02*
G01X7338703Y-2243262D01*
G01X7418702Y-2243262D01*
G01X7423701Y-2248261D01*
G01X7423701Y-2328261D01*
G01X7418702Y-2333262D01*
G01X7394499Y-2333262D01*
G01X7394499Y-2296262D01*
G01X7361499Y-2296262D01*
G01X7361499Y-2333262D01*
G01X7338703Y-2333262D01*
G01X7333701Y-2328261D01*
G01X7333701Y-2248261D01*
G37*
G36*
G01X7090821Y-2487265D02*
G01X7085820Y-2492263D01*
G01X7005820Y-2492263D01*
G01X7000822Y-2487265D01*
G01X7000822Y-2407265D01*
G01X7005820Y-2402263D01*
G01X7030024Y-2402263D01*
G01X7030024Y-2439264D01*
G01X7063024Y-2439264D01*
G01X7063024Y-2402263D01*
G01X7085820Y-2402263D01*
G01X7090821Y-2407265D01*
G01X7090821Y-2487265D01*
G37*
G36*
G01X7000824Y-2248261D02*
G01X7005825Y-2243262D01*
G01X7085825Y-2243262D01*
G01X7090824Y-2248261D01*
G01X7090824Y-2328261D01*
G01X7085825Y-2333262D01*
G01X7061622Y-2333262D01*
G01X7061622Y-2296262D01*
G01X7028622Y-2296262D01*
G01X7028622Y-2333262D01*
G01X7005825Y-2333262D01*
G01X7000824Y-2328261D01*
G01X7000824Y-2248261D01*
G37*
G36*
G01X7258599Y-2176902D02*
G01X7253597Y-2181901D01*
G01X7173598Y-2181901D01*
G01X7168599Y-2176902D01*
G01X7168599Y-2096902D01*
G01X7173598Y-2091901D01*
G01X7197801Y-2091901D01*
G01X7197801Y-2128901D01*
G01X7230801Y-2128901D01*
G01X7230801Y-2091901D01*
G01X7253597Y-2091901D01*
G01X7258599Y-2096902D01*
G01X7258599Y-2176902D01*
G37*
G36*
G01X7168601Y-1937898D02*
G01X7173603Y-1932899D01*
G01X7253602Y-1932899D01*
G01X7258601Y-1937898D01*
G01X7258601Y-2017898D01*
G01X7253602Y-2022899D01*
G01X7229399Y-2022899D01*
G01X7229399Y-1985899D01*
G01X7196399Y-1985899D01*
G01X7196399Y-2022899D01*
G01X7173603Y-2022899D01*
G01X7168601Y-2017898D01*
G01X7168601Y-1937898D01*
G37*
G36*
G01X2834201Y-4213024D02*
G01X2795694Y-4259844D01*
G01X2726947Y-4259844D01*
G01X2716947Y-4249844D01*
G01X2716947Y-4132148D01*
G01X2726947Y-4122148D01*
G01X2795694Y-4122148D01*
G01X2834201Y-4168963D01*
G01X2834201Y-4213024D01*
G37*
G36*
G01X2906199Y-4213024D02*
G01X2906199Y-4168963D01*
G01X2944706Y-4122148D01*
G01X3013453Y-4122148D01*
G01X3023453Y-4132148D01*
G01X3023453Y-4249844D01*
G01X3013453Y-4259844D01*
G01X2944706Y-4259844D01*
G01X2906199Y-4213024D01*
G37*
G36*
G01X2519998Y-3199900D02*
G01X2519998Y-3327898D01*
G01X2514996Y-3332899D01*
G01X2399995Y-3332899D01*
G01X2394996Y-3327898D01*
G01X2394494Y-3286895D01*
G01X2439495Y-3286895D01*
G01X2439495Y-3241896D01*
G01X2395494Y-3241896D01*
G01X2394996Y-3199900D01*
G01X2399995Y-3194898D01*
G01X2514996Y-3194898D01*
G01X2519998Y-3199900D01*
G37*
G36*
G01X2179003Y-3327900D02*
G01X2179003Y-3199902D01*
G01X2184004Y-3194901D01*
G01X2299005Y-3194901D01*
G01X2304004Y-3199902D01*
G01X2304506Y-3240905D01*
G01X2259505Y-3240905D01*
G01X2259505Y-3285904D01*
G01X2303506Y-3285904D01*
G01X2304004Y-3327900D01*
G01X2299005Y-3332902D01*
G01X2184004Y-3332902D01*
G01X2179003Y-3327900D01*
G37*
G36*
G01X2563004Y-4029176D02*
G01X2558005Y-4024175D01*
G01X2558005Y-3944175D01*
G01X2563004Y-3939176D01*
G01X2643004Y-3939176D01*
G01X2648005Y-3944175D01*
G01X2648005Y-3968378D01*
G01X2611005Y-3968378D01*
G01X2611005Y-4001378D01*
G01X2648005Y-4001378D01*
G01X2648005Y-4024175D01*
G01X2643004Y-4029176D01*
G01X2563004Y-4029176D01*
G37*
G36*
G01X2802008Y-3939179D02*
G01X2807007Y-3944180D01*
G01X2807007Y-4024180D01*
G01X2802008Y-4029178D01*
G01X2722008Y-4029178D01*
G01X2717007Y-4024180D01*
G01X2717007Y-3999976D01*
G01X2754007Y-3999976D01*
G01X2754007Y-3966976D01*
G01X2717007Y-3966976D01*
G01X2717007Y-3944180D01*
G01X2722008Y-3939179D01*
G01X2802008Y-3939179D01*
G37*
G36*
G01X2802825Y-3791480D02*
G01X2807823Y-3796481D01*
G01X2807823Y-3876481D01*
G01X2802825Y-3881480D01*
G01X2722825Y-3881480D01*
G01X2717824Y-3876481D01*
G01X2717824Y-3852278D01*
G01X2754824Y-3852278D01*
G01X2754824Y-3819278D01*
G01X2717824Y-3819278D01*
G01X2717824Y-3796481D01*
G01X2722825Y-3791480D01*
G01X2802825Y-3791480D01*
G37*
G36*
G01X2563821Y-3881477D02*
G01X2558822Y-3876476D01*
G01X2558822Y-3796476D01*
G01X2563821Y-3791478D01*
G01X2643821Y-3791478D01*
G01X2648822Y-3796476D01*
G01X2648822Y-3820680D01*
G01X2611822Y-3820680D01*
G01X2611822Y-3853680D01*
G01X2648822Y-3853680D01*
G01X2648822Y-3876476D01*
G01X2643821Y-3881477D01*
G01X2563821Y-3881477D01*
G37*
G36*
G01X2229998Y-3499399D02*
G01X2224999Y-3494397D01*
G01X2224999Y-3414398D01*
G01X2229998Y-3409399D01*
G01X2309998Y-3409399D01*
G01X2314999Y-3414398D01*
G01X2314999Y-3438601D01*
G01X2277999Y-3438601D01*
G01X2277999Y-3471601D01*
G01X2314999Y-3471601D01*
G01X2314999Y-3494397D01*
G01X2309998Y-3499399D01*
G01X2229998Y-3499399D01*
G37*
G36*
G01X2469002Y-3409401D02*
G01X2474001Y-3414403D01*
G01X2474001Y-3494402D01*
G01X2469002Y-3499401D01*
G01X2389002Y-3499401D01*
G01X2384001Y-3494402D01*
G01X2384001Y-3470199D01*
G01X2421001Y-3470199D01*
G01X2421001Y-3437199D01*
G01X2384001Y-3437199D01*
G01X2384001Y-3414403D01*
G01X2389002Y-3409401D01*
G01X2469002Y-3409401D01*
G37*
G36*
G01X6393901Y-3093598D02*
G01X6398903Y-3088599D01*
G01X6478902Y-3088599D01*
G01X6483901Y-3093598D01*
G01X6483901Y-3173598D01*
G01X6478902Y-3178599D01*
G01X6454699Y-3178599D01*
G01X6454699Y-3141599D01*
G01X6421699Y-3141599D01*
G01X6421699Y-3178599D01*
G01X6398903Y-3178599D01*
G01X6393901Y-3173598D01*
G01X6393901Y-3093598D01*
G37*
G36*
G01X6483899Y-3332602D02*
G01X6478897Y-3337601D01*
G01X6398898Y-3337601D01*
G01X6393899Y-3332602D01*
G01X6393899Y-3252602D01*
G01X6398898Y-3247601D01*
G01X6423101Y-3247601D01*
G01X6423101Y-3284601D01*
G01X6456101Y-3284601D01*
G01X6456101Y-3247601D01*
G01X6478897Y-3247601D01*
G01X6483899Y-3252602D01*
G01X6483899Y-3332602D01*
G37*
G36*
G01X7129902Y-1390101D02*
G01X7134901Y-1395103D01*
G01X7134901Y-1475102D01*
G01X7129902Y-1480101D01*
G01X7049902Y-1480101D01*
G01X7044901Y-1475102D01*
G01X7044901Y-1450899D01*
G01X7081901Y-1450899D01*
G01X7081901Y-1417899D01*
G01X7044901Y-1417899D01*
G01X7044901Y-1395103D01*
G01X7049902Y-1390101D01*
G01X7129902Y-1390101D01*
G37*
G36*
G01X6890898Y-1480099D02*
G01X6885899Y-1475097D01*
G01X6885899Y-1395098D01*
G01X6890898Y-1390099D01*
G01X6970898Y-1390099D01*
G01X6975899Y-1395098D01*
G01X6975899Y-1419301D01*
G01X6938899Y-1419301D01*
G01X6938899Y-1452301D01*
G01X6975899Y-1452301D01*
G01X6975899Y-1475097D01*
G01X6970898Y-1480099D01*
G01X6890898Y-1480099D01*
G37*

G04 Pad Start*
G54D10*
G01X805599Y-2743200D03*
G01X945604Y-2743200D03*
G01X425298Y-3060700D03*
G01X565302Y-3060700D03*
G01X1936902Y-3835400D03*
G01X1796898Y-3835400D03*
G01X1517802Y-3200400D03*
G01X1377798Y-3200400D03*
G54D11*
G01X6769100Y-1542898D03*
G01X6769100Y-1682902D03*
G01X7048500Y-1987398D03*
G01X7048500Y-2127402D03*
G01X7212265Y-2292198D03*
G01X7212265Y-2432202D03*
G54D10*
G01X6000598Y-2755900D03*
G01X6140602Y-2755900D03*
G01X6089498Y-3454400D03*
G01X6229502Y-3454400D03*
G54D11*
G01X5563323Y-3662347D03*
G01X5563323Y-3522342D03*
G01X4286259Y-3181448D03*
G01X4286259Y-3041443D03*
G01X5740400Y-3524098D03*
G01X5740400Y-3664102D03*
G01X4927600Y-2368398D03*
G01X4927600Y-2508402D03*
G54D12*
G01X254102Y-3416300D03*
G01X584098Y-3416300D03*
G01X1536700Y-2844698D03*
G01X1866697Y-2844698D03*
G54D13*
G01X4000501Y-1885246D03*
G01X3873501Y-1885246D03*
G01X3746501Y-1885246D03*
G01X3619501Y-1885246D03*
G54D14*
G01X3810001Y-1510246D03*
G54D13*
G01X4000501Y-779300D03*
G01X3873501Y-779300D03*
G01X3746501Y-779300D03*
G01X3619501Y-779300D03*
G54D14*
G01X3810001Y-404299D03*
G54D16*
G01X6622796Y-3456000D03*
G01X6432804Y-3456000D03*
G01X6527800Y-3656000D03*
G54D17*
G01X293103Y-2671102D03*
G01X293103Y-2736101D03*
G01X293103Y-2801099D03*
G01X293103Y-2866098D03*
G01X545097Y-2866098D03*
G01X545097Y-2801099D03*
G01X545097Y-2736101D03*
G01X545097Y-2671102D03*
G54D18*
G01X2341634Y-3759340D03*
G54D19*
G01X2244148Y-3618090D03*
G01X2309122Y-3618090D03*
G01X2374146Y-3618090D03*
G01X2439119Y-3618090D03*
G01X2439119Y-3900589D03*
G01X2374146Y-3900589D03*
G01X2309122Y-3900589D03*
G01X2244148Y-3900589D03*
G54D17*
G01X1599197Y-3551898D03*
G01X1599197Y-3486899D03*
G01X1599197Y-3421901D03*
G01X1599197Y-3356902D03*
G01X1347203Y-3356902D03*
G01X1347203Y-3421901D03*
G01X1347203Y-3486899D03*
G01X1347203Y-3551898D03*
G54D20*
G01X8064500Y-1250713D03*
G01X8064500Y-940706D03*
G01X4254500Y-2199714D03*
G01X4254500Y-1889707D03*
G01X4660900Y-2187014D03*
G01X4660900Y-1877007D03*
G54D21*
G01X6772097Y-2273300D03*
G01X6772097Y-2146300D03*
G01X6772097Y-2019300D03*
G01X6772097Y-1892300D03*
G01X6258103Y-2273300D03*
G01X6258103Y-2146300D03*
G01X6258103Y-2019300D03*
G01X6258103Y-1892300D03*
G54D22*
G01X5583288Y-3105912D03*
G01X5583288Y-3041040D03*
G01X5583288Y-2975915D03*
G01X5583288Y-2910916D03*
G01X4983594Y-3300882D03*
G01X5583288Y-3300882D03*
G01X5583288Y-3235909D03*
G01X5583288Y-3170885D03*
G01X4983086Y-2845892D03*
G01X4983086Y-2910891D03*
G01X4983086Y-2975889D03*
G01X4983086Y-3040888D03*
G01X4983086Y-3105887D03*
G01X4983086Y-3170885D03*
G01X5583288Y-2845918D03*
G01X4983594Y-3235909D03*
G01X5583314Y-3365906D03*
G01X5583288Y-2780919D03*
G01X4983086Y-2780894D03*
G01X4983086Y-3365906D03*
G54D23*
G01X4478909Y-4107205D03*
G54D24*
G01X5038903Y-3792195D03*
G01X4913884Y-3792195D03*
G01X4788891Y-3792195D03*
G01X4663897Y-3792195D03*
G54D23*
G01X5223891Y-4107205D03*
G54D25*
G01X4596054Y-2599512D03*
G01X4596054Y-2549500D03*
G01X4596054Y-2499512D03*
G01X4596054Y-2449500D03*
G01X4596054Y-2399513D03*
G01X4314571Y-2399513D03*
G01X4314571Y-2449500D03*
G01X4314571Y-2499512D03*
G01X4314571Y-2549500D03*
G01X4314571Y-2599512D03*
G54D26*
G01X4455312Y-2499512D03*
G54D27*
G01X6210300Y-1193800D03*
G01X6783300Y-1190463D03*
G54D28*
G01X6017857Y-3208795D03*
G01X6017857Y-2988805D03*
G01X6177852Y-2988805D03*
G01X6177852Y-3208795D03*
G54D20*
G01X8067093Y-1719707D03*
G01X8067093Y-1409700D03*
G54D27*
G01X268200Y-1305560D03*
G01X268200Y-416560D03*
G54D11*
G01X5562600Y-3905098D03*
G01X5562600Y-4045102D03*
G04 Pad End*

M02*

